<?xml version="1.0" encoding="utf-8" standalone="no"?>
<!DOCTYPE svg PUBLIC "-//W3C//DTD SVG 1.1//EN"
  "http://www.w3.org/Graphics/SVG/1.1/DTD/svg11.dtd">
<svg xmlns:xlink="http://www.w3.org/1999/xlink" width="1382.4pt" height="707.76pt" viewBox="0 0 1382.4 707.76" xmlns="http://www.w3.org/2000/svg" version="1.1">
 <metadata>
  <rdf:RDF xmlns:dc="http://purl.org/dc/elements/1.1/" xmlns:cc="http://creativecommons.org/ns#" xmlns:rdf="http://www.w3.org/1999/02/22-rdf-syntax-ns#">
   <cc:Work>
    <dc:type rdf:resource="http://purl.org/dc/dcmitype/StillImage"/>
    <dc:date>2023-01-17T09:31:52.048772</dc:date>
    <dc:format>image/svg+xml</dc:format>
    <dc:creator>
     <cc:Agent>
      <dc:title>Matplotlib v3.6.2, https://matplotlib.org/</dc:title>
     </cc:Agent>
    </dc:creator>
   </cc:Work>
  </rdf:RDF>
 </metadata>
 <defs>
  <style type="text/css">*{stroke-linejoin: round; stroke-linecap: butt}</style>
 </defs>
 <g id="figure_1">
  <g id="patch_1">
   <path d="M 0 707.76 
L 1382.4 707.76 
L 1382.4 0 
L 0 0 
z
" style="fill: #ffffff"/>
  </g>
  <g id="axes_1">
   <g id="patch_2">
    <path d="M 172.8 629.9064 
L 1244.16 629.9064 
L 1244.16 84.9312 
L 172.8 84.9312 
z
" style="fill: #ffffff"/>
   </g>
   <g id="matplotlib.axis_1">
    <g id="xtick_1">
     <g id="line2d_1">
      <defs>
       <path id="m65ef2bb418" d="M 0 0 
L 0 3.5 
" style="stroke: #000000; stroke-width: 0.8"/>
      </defs>
      <g>
       <use xlink:href="#m65ef2bb418" x="270.832941" y="629.9064" style="stroke: #000000; stroke-width: 0.8"/>
      </g>
     </g>
     <g id="text_1">
      <!-- 1994 -->
      <g transform="translate(258.107941 644.504838) scale(0.1 -0.1)">
       <defs>
        <path id="DejaVuSans-31" d="M 794 531 
L 1825 531 
L 1825 4091 
L 703 3866 
L 703 4441 
L 1819 4666 
L 2450 4666 
L 2450 531 
L 3481 531 
L 3481 0 
L 794 0 
L 794 531 
z
" transform="scale(0.015625)"/>
        <path id="DejaVuSans-39" d="M 703 97 
L 703 672 
Q 941 559 1184 500 
Q 1428 441 1663 441 
Q 2288 441 2617 861 
Q 2947 1281 2994 2138 
Q 2813 1869 2534 1725 
Q 2256 1581 1919 1581 
Q 1219 1581 811 2004 
Q 403 2428 403 3163 
Q 403 3881 828 4315 
Q 1253 4750 1959 4750 
Q 2769 4750 3195 4129 
Q 3622 3509 3622 2328 
Q 3622 1225 3098 567 
Q 2575 -91 1691 -91 
Q 1453 -91 1209 -44 
Q 966 3 703 97 
z
M 1959 2075 
Q 2384 2075 2632 2365 
Q 2881 2656 2881 3163 
Q 2881 3666 2632 3958 
Q 2384 4250 1959 4250 
Q 1534 4250 1286 3958 
Q 1038 3666 1038 3163 
Q 1038 2656 1286 2365 
Q 1534 2075 1959 2075 
z
" transform="scale(0.015625)"/>
        <path id="DejaVuSans-34" d="M 2419 4116 
L 825 1625 
L 2419 1625 
L 2419 4116 
z
M 2253 4666 
L 3047 4666 
L 3047 1625 
L 3713 1625 
L 3713 1100 
L 3047 1100 
L 3047 0 
L 2419 0 
L 2419 1100 
L 313 1100 
L 313 1709 
L 2253 4666 
z
" transform="scale(0.015625)"/>
       </defs>
       <use xlink:href="#DejaVuSans-31"/>
       <use xlink:href="#DejaVuSans-39" x="63.623047"/>
       <use xlink:href="#DejaVuSans-39" x="127.246094"/>
       <use xlink:href="#DejaVuSans-34" x="190.869141"/>
      </g>
     </g>
    </g>
    <g id="xtick_2">
     <g id="line2d_2">
      <g>
       <use xlink:href="#m65ef2bb418" x="480.903529" y="629.9064" style="stroke: #000000; stroke-width: 0.8"/>
      </g>
     </g>
     <g id="text_2">
      <!-- 1999 -->
      <g transform="translate(468.178529 644.504838) scale(0.1 -0.1)">
       <use xlink:href="#DejaVuSans-31"/>
       <use xlink:href="#DejaVuSans-39" x="63.623047"/>
       <use xlink:href="#DejaVuSans-39" x="127.246094"/>
       <use xlink:href="#DejaVuSans-39" x="190.869141"/>
      </g>
     </g>
    </g>
    <g id="xtick_3">
     <g id="line2d_3">
      <g>
       <use xlink:href="#m65ef2bb418" x="690.974118" y="629.9064" style="stroke: #000000; stroke-width: 0.8"/>
      </g>
     </g>
     <g id="text_3">
      <!-- 2004 -->
      <g transform="translate(678.249118 644.504838) scale(0.1 -0.1)">
       <defs>
        <path id="DejaVuSans-32" d="M 1228 531 
L 3431 531 
L 3431 0 
L 469 0 
L 469 531 
Q 828 903 1448 1529 
Q 2069 2156 2228 2338 
Q 2531 2678 2651 2914 
Q 2772 3150 2772 3378 
Q 2772 3750 2511 3984 
Q 2250 4219 1831 4219 
Q 1534 4219 1204 4116 
Q 875 4013 500 3803 
L 500 4441 
Q 881 4594 1212 4672 
Q 1544 4750 1819 4750 
Q 2544 4750 2975 4387 
Q 3406 4025 3406 3419 
Q 3406 3131 3298 2873 
Q 3191 2616 2906 2266 
Q 2828 2175 2409 1742 
Q 1991 1309 1228 531 
z
" transform="scale(0.015625)"/>
        <path id="DejaVuSans-30" d="M 2034 4250 
Q 1547 4250 1301 3770 
Q 1056 3291 1056 2328 
Q 1056 1369 1301 889 
Q 1547 409 2034 409 
Q 2525 409 2770 889 
Q 3016 1369 3016 2328 
Q 3016 3291 2770 3770 
Q 2525 4250 2034 4250 
z
M 2034 4750 
Q 2819 4750 3233 4129 
Q 3647 3509 3647 2328 
Q 3647 1150 3233 529 
Q 2819 -91 2034 -91 
Q 1250 -91 836 529 
Q 422 1150 422 2328 
Q 422 3509 836 4129 
Q 1250 4750 2034 4750 
z
" transform="scale(0.015625)"/>
       </defs>
       <use xlink:href="#DejaVuSans-32"/>
       <use xlink:href="#DejaVuSans-30" x="63.623047"/>
       <use xlink:href="#DejaVuSans-30" x="127.246094"/>
       <use xlink:href="#DejaVuSans-34" x="190.869141"/>
      </g>
     </g>
    </g>
    <g id="xtick_4">
     <g id="line2d_4">
      <g>
       <use xlink:href="#m65ef2bb418" x="901.044706" y="629.9064" style="stroke: #000000; stroke-width: 0.8"/>
      </g>
     </g>
     <g id="text_4">
      <!-- 2009 -->
      <g transform="translate(888.319706 644.504838) scale(0.1 -0.1)">
       <use xlink:href="#DejaVuSans-32"/>
       <use xlink:href="#DejaVuSans-30" x="63.623047"/>
       <use xlink:href="#DejaVuSans-30" x="127.246094"/>
       <use xlink:href="#DejaVuSans-39" x="190.869141"/>
      </g>
     </g>
    </g>
    <g id="xtick_5">
     <g id="line2d_5">
      <g>
       <use xlink:href="#m65ef2bb418" x="1111.115294" y="629.9064" style="stroke: #000000; stroke-width: 0.8"/>
      </g>
     </g>
     <g id="text_5">
      <!-- 2014 -->
      <g transform="translate(1098.390294 644.504838) scale(0.1 -0.1)">
       <use xlink:href="#DejaVuSans-32"/>
       <use xlink:href="#DejaVuSans-30" x="63.623047"/>
       <use xlink:href="#DejaVuSans-31" x="127.246094"/>
       <use xlink:href="#DejaVuSans-34" x="190.869141"/>
      </g>
     </g>
    </g>
    <g id="xtick_6">
     <g id="line2d_6">
      <defs>
       <path id="mde1c0496ae" d="M 0 0 
L 0 2 
" style="stroke: #000000; stroke-width: 0.6"/>
      </defs>
      <g>
       <use xlink:href="#mde1c0496ae" x="186.804706" y="629.9064" style="stroke: #000000; stroke-width: 0.6"/>
      </g>
     </g>
    </g>
    <g id="xtick_7">
     <g id="line2d_7">
      <g>
       <use xlink:href="#mde1c0496ae" x="228.818824" y="629.9064" style="stroke: #000000; stroke-width: 0.6"/>
      </g>
     </g>
    </g>
    <g id="xtick_8">
     <g id="line2d_8">
      <g>
       <use xlink:href="#mde1c0496ae" x="312.847059" y="629.9064" style="stroke: #000000; stroke-width: 0.6"/>
      </g>
     </g>
    </g>
    <g id="xtick_9">
     <g id="line2d_9">
      <g>
       <use xlink:href="#mde1c0496ae" x="354.861176" y="629.9064" style="stroke: #000000; stroke-width: 0.6"/>
      </g>
     </g>
    </g>
    <g id="xtick_10">
     <g id="line2d_10">
      <g>
       <use xlink:href="#mde1c0496ae" x="396.875294" y="629.9064" style="stroke: #000000; stroke-width: 0.6"/>
      </g>
     </g>
    </g>
    <g id="xtick_11">
     <g id="line2d_11">
      <g>
       <use xlink:href="#mde1c0496ae" x="438.889412" y="629.9064" style="stroke: #000000; stroke-width: 0.6"/>
      </g>
     </g>
    </g>
    <g id="xtick_12">
     <g id="line2d_12">
      <g>
       <use xlink:href="#mde1c0496ae" x="522.917647" y="629.9064" style="stroke: #000000; stroke-width: 0.6"/>
      </g>
     </g>
    </g>
    <g id="xtick_13">
     <g id="line2d_13">
      <g>
       <use xlink:href="#mde1c0496ae" x="564.931765" y="629.9064" style="stroke: #000000; stroke-width: 0.6"/>
      </g>
     </g>
    </g>
    <g id="xtick_14">
     <g id="line2d_14">
      <g>
       <use xlink:href="#mde1c0496ae" x="606.945882" y="629.9064" style="stroke: #000000; stroke-width: 0.6"/>
      </g>
     </g>
    </g>
    <g id="xtick_15">
     <g id="line2d_15">
      <g>
       <use xlink:href="#mde1c0496ae" x="648.96" y="629.9064" style="stroke: #000000; stroke-width: 0.6"/>
      </g>
     </g>
    </g>
    <g id="xtick_16">
     <g id="line2d_16">
      <g>
       <use xlink:href="#mde1c0496ae" x="732.988235" y="629.9064" style="stroke: #000000; stroke-width: 0.6"/>
      </g>
     </g>
    </g>
    <g id="xtick_17">
     <g id="line2d_17">
      <g>
       <use xlink:href="#mde1c0496ae" x="775.002353" y="629.9064" style="stroke: #000000; stroke-width: 0.6"/>
      </g>
     </g>
    </g>
    <g id="xtick_18">
     <g id="line2d_18">
      <g>
       <use xlink:href="#mde1c0496ae" x="817.016471" y="629.9064" style="stroke: #000000; stroke-width: 0.6"/>
      </g>
     </g>
    </g>
    <g id="xtick_19">
     <g id="line2d_19">
      <g>
       <use xlink:href="#mde1c0496ae" x="859.030588" y="629.9064" style="stroke: #000000; stroke-width: 0.6"/>
      </g>
     </g>
    </g>
    <g id="xtick_20">
     <g id="line2d_20">
      <g>
       <use xlink:href="#mde1c0496ae" x="943.058824" y="629.9064" style="stroke: #000000; stroke-width: 0.6"/>
      </g>
     </g>
    </g>
    <g id="xtick_21">
     <g id="line2d_21">
      <g>
       <use xlink:href="#mde1c0496ae" x="985.072941" y="629.9064" style="stroke: #000000; stroke-width: 0.6"/>
      </g>
     </g>
    </g>
    <g id="xtick_22">
     <g id="line2d_22">
      <g>
       <use xlink:href="#mde1c0496ae" x="1027.087059" y="629.9064" style="stroke: #000000; stroke-width: 0.6"/>
      </g>
     </g>
    </g>
    <g id="xtick_23">
     <g id="line2d_23">
      <g>
       <use xlink:href="#mde1c0496ae" x="1069.101176" y="629.9064" style="stroke: #000000; stroke-width: 0.6"/>
      </g>
     </g>
    </g>
    <g id="xtick_24">
     <g id="line2d_24">
      <g>
       <use xlink:href="#mde1c0496ae" x="1153.129412" y="629.9064" style="stroke: #000000; stroke-width: 0.6"/>
      </g>
     </g>
    </g>
    <g id="xtick_25">
     <g id="line2d_25">
      <g>
       <use xlink:href="#mde1c0496ae" x="1195.143529" y="629.9064" style="stroke: #000000; stroke-width: 0.6"/>
      </g>
     </g>
    </g>
    <g id="xtick_26">
     <g id="line2d_26">
      <g>
       <use xlink:href="#mde1c0496ae" x="1237.157647" y="629.9064" style="stroke: #000000; stroke-width: 0.6"/>
      </g>
     </g>
    </g>
   </g>
   <g id="matplotlib.axis_2">
    <g id="ytick_1">
     <g id="line2d_27">
      <defs>
       <path id="m8a083425af" d="M 0 0 
L -3.5 0 
" style="stroke: #000000; stroke-width: 0.8"/>
      </defs>
      <g>
       <use xlink:href="#m8a083425af" x="172.8" y="606.532399" style="stroke: #000000; stroke-width: 0.8"/>
      </g>
     </g>
     <g id="text_6">
      <!-- 0.0 -->
      <g transform="translate(149.896875 610.331618) scale(0.1 -0.1)">
       <defs>
        <path id="DejaVuSans-2e" d="M 684 794 
L 1344 794 
L 1344 0 
L 684 0 
L 684 794 
z
" transform="scale(0.015625)"/>
       </defs>
       <use xlink:href="#DejaVuSans-30"/>
       <use xlink:href="#DejaVuSans-2e" x="63.623047"/>
       <use xlink:href="#DejaVuSans-30" x="95.410156"/>
      </g>
     </g>
    </g>
    <g id="ytick_2">
     <g id="line2d_28">
      <g>
       <use xlink:href="#m8a083425af" x="172.8" y="536.652441" style="stroke: #000000; stroke-width: 0.8"/>
      </g>
     </g>
     <g id="text_7">
      <!-- 0.5 -->
      <g transform="translate(149.896875 540.451659) scale(0.1 -0.1)">
       <defs>
        <path id="DejaVuSans-35" d="M 691 4666 
L 3169 4666 
L 3169 4134 
L 1269 4134 
L 1269 2991 
Q 1406 3038 1543 3061 
Q 1681 3084 1819 3084 
Q 2600 3084 3056 2656 
Q 3513 2228 3513 1497 
Q 3513 744 3044 326 
Q 2575 -91 1722 -91 
Q 1428 -91 1123 -41 
Q 819 9 494 109 
L 494 744 
Q 775 591 1075 516 
Q 1375 441 1709 441 
Q 2250 441 2565 725 
Q 2881 1009 2881 1497 
Q 2881 1984 2565 2268 
Q 2250 2553 1709 2553 
Q 1456 2553 1204 2497 
Q 953 2441 691 2322 
L 691 4666 
z
" transform="scale(0.015625)"/>
       </defs>
       <use xlink:href="#DejaVuSans-30"/>
       <use xlink:href="#DejaVuSans-2e" x="63.623047"/>
       <use xlink:href="#DejaVuSans-35" x="95.410156"/>
      </g>
     </g>
    </g>
    <g id="ytick_3">
     <g id="line2d_29">
      <g>
       <use xlink:href="#m8a083425af" x="172.8" y="466.772482" style="stroke: #000000; stroke-width: 0.8"/>
      </g>
     </g>
     <g id="text_8">
      <!-- 1.0 -->
      <g transform="translate(149.896875 470.571701) scale(0.1 -0.1)">
       <use xlink:href="#DejaVuSans-31"/>
       <use xlink:href="#DejaVuSans-2e" x="63.623047"/>
       <use xlink:href="#DejaVuSans-30" x="95.410156"/>
      </g>
     </g>
    </g>
    <g id="ytick_4">
     <g id="line2d_30">
      <g>
       <use xlink:href="#m8a083425af" x="172.8" y="396.892523" style="stroke: #000000; stroke-width: 0.8"/>
      </g>
     </g>
     <g id="text_9">
      <!-- 1.5 -->
      <g transform="translate(149.896875 400.691742) scale(0.1 -0.1)">
       <use xlink:href="#DejaVuSans-31"/>
       <use xlink:href="#DejaVuSans-2e" x="63.623047"/>
       <use xlink:href="#DejaVuSans-35" x="95.410156"/>
      </g>
     </g>
    </g>
    <g id="ytick_5">
     <g id="line2d_31">
      <g>
       <use xlink:href="#m8a083425af" x="172.8" y="327.012565" style="stroke: #000000; stroke-width: 0.8"/>
      </g>
     </g>
     <g id="text_10">
      <!-- 2.0 -->
      <g transform="translate(149.896875 330.811784) scale(0.1 -0.1)">
       <use xlink:href="#DejaVuSans-32"/>
       <use xlink:href="#DejaVuSans-2e" x="63.623047"/>
       <use xlink:href="#DejaVuSans-30" x="95.410156"/>
      </g>
     </g>
    </g>
    <g id="ytick_6">
     <g id="line2d_32">
      <g>
       <use xlink:href="#m8a083425af" x="172.8" y="257.132606" style="stroke: #000000; stroke-width: 0.8"/>
      </g>
     </g>
     <g id="text_11">
      <!-- 2.5 -->
      <g transform="translate(149.896875 260.931825) scale(0.1 -0.1)">
       <use xlink:href="#DejaVuSans-32"/>
       <use xlink:href="#DejaVuSans-2e" x="63.623047"/>
       <use xlink:href="#DejaVuSans-35" x="95.410156"/>
      </g>
     </g>
    </g>
    <g id="ytick_7">
     <g id="line2d_33">
      <g>
       <use xlink:href="#m8a083425af" x="172.8" y="187.252648" style="stroke: #000000; stroke-width: 0.8"/>
      </g>
     </g>
     <g id="text_12">
      <!-- 3.0 -->
      <g transform="translate(149.896875 191.051866) scale(0.1 -0.1)">
       <defs>
        <path id="DejaVuSans-33" d="M 2597 2516 
Q 3050 2419 3304 2112 
Q 3559 1806 3559 1356 
Q 3559 666 3084 287 
Q 2609 -91 1734 -91 
Q 1441 -91 1130 -33 
Q 819 25 488 141 
L 488 750 
Q 750 597 1062 519 
Q 1375 441 1716 441 
Q 2309 441 2620 675 
Q 2931 909 2931 1356 
Q 2931 1769 2642 2001 
Q 2353 2234 1838 2234 
L 1294 2234 
L 1294 2753 
L 1863 2753 
Q 2328 2753 2575 2939 
Q 2822 3125 2822 3475 
Q 2822 3834 2567 4026 
Q 2313 4219 1838 4219 
Q 1578 4219 1281 4162 
Q 984 4106 628 3988 
L 628 4550 
Q 988 4650 1302 4700 
Q 1616 4750 1894 4750 
Q 2613 4750 3031 4423 
Q 3450 4097 3450 3541 
Q 3450 3153 3228 2886 
Q 3006 2619 2597 2516 
z
" transform="scale(0.015625)"/>
       </defs>
       <use xlink:href="#DejaVuSans-33"/>
       <use xlink:href="#DejaVuSans-2e" x="63.623047"/>
       <use xlink:href="#DejaVuSans-30" x="95.410156"/>
      </g>
     </g>
    </g>
    <g id="ytick_8">
     <g id="line2d_34">
      <g>
       <use xlink:href="#m8a083425af" x="172.8" y="117.372689" style="stroke: #000000; stroke-width: 0.8"/>
      </g>
     </g>
     <g id="text_13">
      <!-- 3.5 -->
      <g transform="translate(149.896875 121.171908) scale(0.1 -0.1)">
       <use xlink:href="#DejaVuSans-33"/>
       <use xlink:href="#DejaVuSans-2e" x="63.623047"/>
       <use xlink:href="#DejaVuSans-35" x="95.410156"/>
      </g>
     </g>
    </g>
    <g id="text_14">
     <!-- Caudal ($m^3$/s) -->
     <g transform="translate(143.817187 392.0188) rotate(-90) scale(0.1 -0.1)">
      <defs>
       <path id="DejaVuSans-43" d="M 4122 4306 
L 4122 3641 
Q 3803 3938 3442 4084 
Q 3081 4231 2675 4231 
Q 1875 4231 1450 3742 
Q 1025 3253 1025 2328 
Q 1025 1406 1450 917 
Q 1875 428 2675 428 
Q 3081 428 3442 575 
Q 3803 722 4122 1019 
L 4122 359 
Q 3791 134 3420 21 
Q 3050 -91 2638 -91 
Q 1578 -91 968 557 
Q 359 1206 359 2328 
Q 359 3453 968 4101 
Q 1578 4750 2638 4750 
Q 3056 4750 3426 4639 
Q 3797 4528 4122 4306 
z
" transform="scale(0.015625)"/>
       <path id="DejaVuSans-61" d="M 2194 1759 
Q 1497 1759 1228 1600 
Q 959 1441 959 1056 
Q 959 750 1161 570 
Q 1363 391 1709 391 
Q 2188 391 2477 730 
Q 2766 1069 2766 1631 
L 2766 1759 
L 2194 1759 
z
M 3341 1997 
L 3341 0 
L 2766 0 
L 2766 531 
Q 2569 213 2275 61 
Q 1981 -91 1556 -91 
Q 1019 -91 701 211 
Q 384 513 384 1019 
Q 384 1609 779 1909 
Q 1175 2209 1959 2209 
L 2766 2209 
L 2766 2266 
Q 2766 2663 2505 2880 
Q 2244 3097 1772 3097 
Q 1472 3097 1187 3025 
Q 903 2953 641 2809 
L 641 3341 
Q 956 3463 1253 3523 
Q 1550 3584 1831 3584 
Q 2591 3584 2966 3190 
Q 3341 2797 3341 1997 
z
" transform="scale(0.015625)"/>
       <path id="DejaVuSans-75" d="M 544 1381 
L 544 3500 
L 1119 3500 
L 1119 1403 
Q 1119 906 1312 657 
Q 1506 409 1894 409 
Q 2359 409 2629 706 
Q 2900 1003 2900 1516 
L 2900 3500 
L 3475 3500 
L 3475 0 
L 2900 0 
L 2900 538 
Q 2691 219 2414 64 
Q 2138 -91 1772 -91 
Q 1169 -91 856 284 
Q 544 659 544 1381 
z
M 1991 3584 
L 1991 3584 
z
" transform="scale(0.015625)"/>
       <path id="DejaVuSans-64" d="M 2906 2969 
L 2906 4863 
L 3481 4863 
L 3481 0 
L 2906 0 
L 2906 525 
Q 2725 213 2448 61 
Q 2172 -91 1784 -91 
Q 1150 -91 751 415 
Q 353 922 353 1747 
Q 353 2572 751 3078 
Q 1150 3584 1784 3584 
Q 2172 3584 2448 3432 
Q 2725 3281 2906 2969 
z
M 947 1747 
Q 947 1113 1208 752 
Q 1469 391 1925 391 
Q 2381 391 2643 752 
Q 2906 1113 2906 1747 
Q 2906 2381 2643 2742 
Q 2381 3103 1925 3103 
Q 1469 3103 1208 2742 
Q 947 2381 947 1747 
z
" transform="scale(0.015625)"/>
       <path id="DejaVuSans-6c" d="M 603 4863 
L 1178 4863 
L 1178 0 
L 603 0 
L 603 4863 
z
" transform="scale(0.015625)"/>
       <path id="DejaVuSans-20" transform="scale(0.015625)"/>
       <path id="DejaVuSans-28" d="M 1984 4856 
Q 1566 4138 1362 3434 
Q 1159 2731 1159 2009 
Q 1159 1288 1364 580 
Q 1569 -128 1984 -844 
L 1484 -844 
Q 1016 -109 783 600 
Q 550 1309 550 2009 
Q 550 2706 781 3412 
Q 1013 4119 1484 4856 
L 1984 4856 
z
" transform="scale(0.015625)"/>
       <path id="DejaVuSans-Oblique-6d" d="M 5747 2113 
L 5338 0 
L 4763 0 
L 5166 2094 
Q 5191 2228 5203 2325 
Q 5216 2422 5216 2491 
Q 5216 2772 5059 2928 
Q 4903 3084 4622 3084 
Q 4203 3084 3875 2770 
Q 3547 2456 3450 1953 
L 3066 0 
L 2491 0 
L 2900 2094 
Q 2925 2209 2937 2307 
Q 2950 2406 2950 2484 
Q 2950 2769 2794 2926 
Q 2638 3084 2363 3084 
Q 1938 3084 1609 2770 
Q 1281 2456 1184 1953 
L 800 0 
L 225 0 
L 909 3500 
L 1484 3500 
L 1375 2956 
Q 1609 3263 1923 3423 
Q 2238 3584 2597 3584 
Q 2978 3584 3223 3384 
Q 3469 3184 3519 2828 
Q 3781 3197 4126 3390 
Q 4472 3584 4856 3584 
Q 5306 3584 5551 3325 
Q 5797 3066 5797 2591 
Q 5797 2488 5784 2364 
Q 5772 2241 5747 2113 
z
" transform="scale(0.015625)"/>
       <path id="DejaVuSans-2f" d="M 1625 4666 
L 2156 4666 
L 531 -594 
L 0 -594 
L 1625 4666 
z
" transform="scale(0.015625)"/>
       <path id="DejaVuSans-73" d="M 2834 3397 
L 2834 2853 
Q 2591 2978 2328 3040 
Q 2066 3103 1784 3103 
Q 1356 3103 1142 2972 
Q 928 2841 928 2578 
Q 928 2378 1081 2264 
Q 1234 2150 1697 2047 
L 1894 2003 
Q 2506 1872 2764 1633 
Q 3022 1394 3022 966 
Q 3022 478 2636 193 
Q 2250 -91 1575 -91 
Q 1294 -91 989 -36 
Q 684 19 347 128 
L 347 722 
Q 666 556 975 473 
Q 1284 391 1588 391 
Q 1994 391 2212 530 
Q 2431 669 2431 922 
Q 2431 1156 2273 1281 
Q 2116 1406 1581 1522 
L 1381 1569 
Q 847 1681 609 1914 
Q 372 2147 372 2553 
Q 372 3047 722 3315 
Q 1072 3584 1716 3584 
Q 2034 3584 2315 3537 
Q 2597 3491 2834 3397 
z
" transform="scale(0.015625)"/>
       <path id="DejaVuSans-29" d="M 513 4856 
L 1013 4856 
Q 1481 4119 1714 3412 
Q 1947 2706 1947 2009 
Q 1947 1309 1714 600 
Q 1481 -109 1013 -844 
L 513 -844 
Q 928 -128 1133 580 
Q 1338 1288 1338 2009 
Q 1338 2731 1133 3434 
Q 928 4138 513 4856 
z
" transform="scale(0.015625)"/>
      </defs>
      <use xlink:href="#DejaVuSans-43" transform="translate(0 0.765625)"/>
      <use xlink:href="#DejaVuSans-61" transform="translate(69.824219 0.765625)"/>
      <use xlink:href="#DejaVuSans-75" transform="translate(131.103516 0.765625)"/>
      <use xlink:href="#DejaVuSans-64" transform="translate(194.482422 0.765625)"/>
      <use xlink:href="#DejaVuSans-61" transform="translate(257.958984 0.765625)"/>
      <use xlink:href="#DejaVuSans-6c" transform="translate(319.238281 0.765625)"/>
      <use xlink:href="#DejaVuSans-20" transform="translate(347.021484 0.765625)"/>
      <use xlink:href="#DejaVuSans-28" transform="translate(378.808594 0.765625)"/>
      <use xlink:href="#DejaVuSans-Oblique-6d" transform="translate(417.822266 0.765625)"/>
      <use xlink:href="#DejaVuSans-33" transform="translate(519.884271 39.046875) scale(0.7)"/>
      <use xlink:href="#DejaVuSans-2f" transform="translate(567.154779 0.765625)"/>
      <use xlink:href="#DejaVuSans-73" transform="translate(600.846185 0.765625)"/>
      <use xlink:href="#DejaVuSans-29" transform="translate(652.945794 0.765625)"/>
     </g>
    </g>
   </g>
   <g id="line2d_35">
    <path d="M 172.8 400.427285 
L 176.301176 430.846294 
L 179.802353 497.263437 
L 183.303529 508.858251 
L 186.804706 476.657115 
L 190.305882 484.760547 
L 193.807059 475.406038 
L 197.308235 500.541972 
L 200.809412 571.47971 
L 204.310588 576.55972 
L 207.811765 561.85431 
L 211.312941 528.492265 
L 214.814118 480.218551 
L 218.315294 422.353624 
L 221.816471 355.902104 
L 225.317647 306.910806 
L 228.818824 285.789025 
L 232.32 321.790286 
L 235.821176 420.155787 
L 239.322353 537.584173 
L 242.823529 590.488186 
L 246.324706 586.273035 
L 249.825882 580.716263 
L 253.327059 551.524474 
L 256.828235 504.694006 
L 260.329412 472.441775 
L 263.830588 470.8954 
L 267.331765 493.907321 
L 270.832941 496.223503 
L 274.334118 487.699034 
L 277.835294 534.905442 
L 281.336471 590.361012 
L 284.837647 597.487453 
L 288.338824 591.170455 
L 291.84 586.988553 
L 295.341176 582.09132 
L 298.842353 562.653609 
L 302.343529 558.901318 
L 305.844706 576.4549 
L 309.345882 485.014532 
L 312.847059 419.006149 
L 316.348235 490.16979 
L 319.849412 547.697982 
L 323.350588 581.235854 
L 326.851765 595.374148 
L 330.352941 590.477479 
L 333.854118 591.136266 
L 337.355294 592.567678 
L 340.856471 537.799637 
L 344.357647 484.93 
L 347.858824 489.110775 
L 351.36 492.622431 
L 354.861176 497.485851 
L 358.362353 534.272908 
L 361.863529 566.706458 
L 365.364706 580.554525 
L 368.865882 595.351606 
L 372.367059 596.044582 
L 375.868235 596.056041 
L 379.369412 561.386565 
L 382.870588 513.009721 
L 386.371765 485.053981 
L 389.872941 497.991353 
L 393.374118 470.711683 
L 396.875294 436.5494 
L 400.376471 486.781859 
L 403.877647 527.472243 
L 407.378824 569.938594 
L 410.88 603.021495 
L 414.381176 604.441824 
L 417.882353 583.635442 
L 421.383529 553.502527 
L 424.884706 441.079951 
L 428.385882 310.455523 
L 431.887059 283.68699 
L 435.388235 109.7028 
L 438.889412 257.2904 
L 442.390588 592.506493 
L 445.891765 598.146804 
L 452.894118 596.749205 
L 456.395294 598.135157 
L 459.896471 598.851239 
L 463.397647 598.839968 
L 466.898824 562.123685 
L 470.4 467.234591 
L 473.901176 426.102346 
L 480.903529 508.576477 
L 484.404706 530.999651 
L 487.905882 565.776604 
L 491.407059 596.725912 
L 494.908235 598.158075 
L 498.409412 598.828134 
L 501.910588 600.942002 
L 505.411765 600.942002 
L 508.912941 560.056403 
L 512.414118 495.609236 
L 515.915294 476.520736 
L 519.416471 490.452771 
L 522.917647 494.076385 
L 526.418824 500.206428 
L 529.92 546.858296 
L 533.421176 588.305377 
L 536.922353 581.488324 
L 540.423529 582.6451 
L 543.924706 596.760476 
L 547.425882 575.943011 
L 550.927059 509.78942 
L 554.428235 459.807028 
L 557.929412 473.620718 
L 561.430588 498.849637 
L 564.931765 512.848171 
L 568.432941 528.179496 
L 571.934118 563.003948 
L 575.435294 593.90742 
L 578.936471 598.158075 
L 582.437647 447.066334 
L 585.938824 241.494148 
L 589.44 219.831361 
L 592.941176 408.16649 
L 596.442353 538.275459 
L 599.943529 503.168294 
L 603.444706 509.985347 
L 606.945882 513.676586 
L 610.447059 507.265422 
L 613.948235 532.983743 
L 617.449412 576.303494 
L 620.950588 587.056178 
L 624.451765 585.486885 
L 627.952941 598.124262 
L 631.454118 598.86251 
L 634.955294 535.074318 
L 638.456471 452.26112 
L 641.957647 347.982376 
L 645.458824 253.018705 
L 648.96 388.027913 
L 652.461176 566.420055 
L 655.962353 598.839968 
L 659.463529 599.544403 
L 662.964706 598.851239 
L 666.465882 598.83978 
L 669.967059 602.31706 
L 673.468235 596.123667 
L 676.969412 551.624222 
L 680.470588 502.518335 
L 683.971765 489.134069 
L 687.472941 487.747741 
L 690.974118 507.826958 
L 694.475294 544.905505 
L 697.976471 575.661237 
L 701.477647 595.316666 
L 704.978824 597.464911 
L 708.48 593.272677 
L 711.981176 587.692988 
L 715.482353 582.784484 
L 718.983529 537.025134 
L 722.484706 480.838641 
L 725.985882 466.795775 
L 729.487059 467.443104 
L 732.988235 477.203756 
L 736.489412 487.699034 
L 739.990588 538.371262 
L 743.491765 593.19115 
L 746.992941 595.39669 
L 750.494118 591.147162 
L 753.995294 591.863243 
L 757.496471 591.158808 
L 760.997647 545.422375 
L 764.498824 485.053981 
L 768 470.965279 
L 771.501176 484.828562 
L 775.002353 467.724878 
L 778.503529 434.64018 
L 782.004706 511.557646 
L 785.505882 591.851785 
L 789.007059 591.170079 
L 796.009412 593.965278 
L 799.510588 573.147813 
L 803.011765 509.07315 
L 806.512941 475.761073 
L 810.014118 497.438137 
L 813.515294 485.814771 
L 817.016471 464.670448 
L 824.018824 605.1348 
L 834.522353 605.1348 
L 838.023529 603.055308 
L 841.524706 584.999228 
L 845.025882 487.719 
L 848.527059 401.119134 
L 852.028235 378.875141 
L 855.529412 375.804555 
L 859.030588 389.915798 
L 862.531765 405.133539 
L 866.032941 485.820406 
L 869.534118 575.575578 
L 873.035294 600.942002 
L 876.536471 596.784145 
L 880.037647 593.942736 
L 883.538824 593.965278 
L 887.04 548.898903 
L 890.541176 471.235783 
L 894.042353 463.063021 
L 897.543529 493.293053 
L 901.044706 508.610289 
L 904.545882 530.962215 
L 908.047059 573.435222 
L 911.548235 605.1348 
L 918.550588 605.1348 
L 922.051765 604.441636 
L 925.552941 515.705359 
L 929.054118 454.654132 
L 932.555294 472.453046 
L 936.056471 465.339943 
L 939.557647 495.907916 
L 943.058824 511.585823 
L 946.56 512.088387 
L 953.562353 584.077639 
L 957.063529 600.203755 
L 960.564706 605.1348 
L 964.065882 605.1348 
L 967.567059 598.896323 
L 974.569412 484.986355 
L 978.070588 503.605043 
L 981.571765 516.483056 
L 985.072941 474.008439 
L 988.574118 456.171942 
L 992.075294 502.839557 
L 995.576471 556.748752 
L 999.077647 581.341801 
L 1002.578824 589.726269 
L 1006.08 595.340335 
L 1009.581176 535.750764 
L 1013.082353 440.497618 
L 1016.583529 439.947595 
L 1020.084706 475.839407 
L 1023.585882 455.07886 
L 1027.087059 438.07098 
L 1030.588235 424.320407 
L 1034.089412 427.448099 
L 1037.590588 490.898538 
L 1041.091765 545.61849 
L 1044.592941 538.929363 
L 1048.094118 560.755391 
L 1051.595294 571.169759 
L 1055.096471 476.363506 
L 1058.597647 443.481041 
L 1062.098824 515.327407 
L 1065.6 530.594299 
L 1069.101176 507.257774 
L 1072.602353 524.66678 
L 1076.103529 566.458497 
L 1079.604706 593.284324 
L 1083.105882 595.306522 
L 1086.607059 603.020931 
L 1090.108235 605.1348 
L 1093.609412 574.635579 
L 1097.110588 507.605671 
L 1100.611765 472.351608 
L 1104.112941 406.541781 
L 1107.614118 351.363476 
L 1111.115294 393.167471 
L 1114.616471 437.978195 
L 1118.117647 506.874561 
L 1121.618824 573.578175 
L 1125.12 586.966011 
L 1132.122353 603.737201 
L 1135.623529 557.295206 
L 1139.124706 504.554246 
L 1142.625882 495.451442 
L 1146.127059 536.279747 
L 1149.628235 550.183229 
L 1153.129412 483.132282 
L 1156.630588 473.869665 
L 1160.131765 501.013662 
L 1170.635294 501.013662 
L 1174.136471 527.70048 
L 1177.637647 534.719471 
L 1181.138824 499.045376 
L 1184.64 470.373554 
L 1188.141176 455.603335 
L 1191.642353 454.887254 
L 1195.143529 463.216494 
L 1198.644706 466.115851 
L 1202.145882 492.37447 
L 1205.647059 542.784407 
L 1209.148235 543.093795 
L 1212.649412 521.995119 
L 1216.150588 506.017968 
L 1219.651765 470.44118 
L 1223.152941 436.823096 
L 1226.654118 406.82224 
L 1230.155294 374.647403 
L 1233.656471 357.089124 
L 1237.157647 394.463631 
L 1240.658824 437.410421 
L 1244.16 429.809365 
L 1244.16 429.809365 
" clip-path="url(#p7242b71e46)" style="fill: none; stroke: #4682b4; stroke-width: 1.5; stroke-linecap: square"/>
   </g>
   <g id="line2d_36">
    <path d="M 172.8 368.540986 
L 176.301176 451.403118 
L 179.802353 483.599784 
L 183.303529 524.261272 
L 186.804706 528.295444 
L 190.305882 539.864926 
L 193.807059 534.099498 
L 197.308235 592.556407 
L 211.312941 592.556407 
L 214.814118 437.935739 
L 218.315294 466.350323 
L 221.816471 440.774241 
L 225.317647 410.418233 
L 228.818824 360.278226 
L 232.32 381.407321 
L 235.821176 390.610949 
L 239.322353 592.556407 
L 253.327059 592.556407 
L 256.828235 447.011351 
L 260.329412 493.94247 
L 263.830588 514.234504 
L 267.331765 540.320834 
L 270.832941 532.129192 
L 274.334118 540.977285 
L 277.835294 544.390804 
L 281.336471 592.556407 
L 295.341176 592.556407 
L 298.842353 511.802184 
L 302.343529 538.266642 
L 305.844706 547.132143 
L 309.345882 534.945544 
L 312.847059 506.888542 
L 316.348235 534.568233 
L 319.849412 549.941055 
L 323.350588 592.556407 
L 337.355294 592.556407 
L 340.856471 525.925451 
L 344.357647 536.517581 
L 347.858824 539.893663 
L 351.36 550.696827 
L 354.861176 553.013228 
L 358.362353 572.559053 
L 361.863529 579.000656 
L 365.364706 592.556407 
L 379.369412 592.556407 
L 382.870588 552.093037 
L 386.371765 561.911915 
L 389.872941 571.345733 
L 393.374118 565.150293 
L 396.875294 522.013405 
L 400.376471 532.901021 
L 403.877647 539.618034 
L 407.378824 592.556407 
L 421.383529 592.556407 
L 424.884706 371.224267 
L 428.385882 344.276804 
L 431.887059 270.356225 
L 435.388235 242.678985 
L 438.889412 243.024142 
L 442.390588 271.662044 
L 445.891765 315.109872 
L 449.392941 592.556407 
L 463.397647 592.556407 
L 466.898824 279.601911 
L 470.4 328.123621 
L 473.901176 326.562523 
L 477.402353 354.74922 
L 480.903529 363.741979 
L 484.404706 408.199231 
L 487.905882 420.133529 
L 491.407059 592.556407 
L 505.411765 592.556407 
L 508.912941 394.272159 
L 512.414118 433.203919 
L 515.915294 437.365553 
L 519.416471 469.571586 
L 522.917647 490.57385 
L 526.418824 526.265646 
L 529.92 531.577644 
L 533.421176 592.556407 
L 547.425882 592.556407 
L 550.927059 443.151076 
L 554.428235 483.910788 
L 557.929412 492.975444 
L 561.430588 493.830212 
L 564.931765 464.877203 
L 568.432941 443.996634 
L 571.934118 413.799652 
L 575.435294 592.556407 
L 589.44 592.556407 
L 592.941176 409.513633 
L 596.442353 458.988704 
L 599.943529 469.876044 
L 603.444706 492.772542 
L 606.945882 493.262639 
L 610.447059 506.767602 
L 613.948235 503.226003 
L 617.449412 592.556407 
L 631.454118 592.556407 
L 634.955294 350.704939 
L 638.456471 332.393269 
L 641.957647 261.691351 
L 645.458824 245.97112 
L 648.96 243.101928 
L 652.461176 243.372213 
L 655.962353 263.37803 
L 659.463529 592.556407 
L 673.468235 592.556407 
L 676.969412 359.882511 
L 680.470588 424.232228 
L 683.971765 427.683501 
L 687.472941 443.903925 
L 690.974118 403.573523 
L 694.475294 413.318539 
L 697.976471 440.572913 
L 701.477647 592.556407 
L 715.482353 592.556407 
L 718.983529 457.070096 
L 722.484706 498.184381 
L 725.985882 515.570872 
L 729.487059 535.6634 
L 732.988235 525.698535 
L 736.489412 545.973033 
L 739.990588 546.990781 
L 743.491765 592.556407 
L 757.496471 592.556407 
L 760.997647 487.415047 
L 764.498824 510.2262 
L 768 496.191419 
L 771.501176 459.414802 
L 775.002353 388.52387 
L 778.503529 410.41767 
L 782.004706 438.13335 
L 785.505882 592.556407 
L 799.510588 592.556407 
L 803.011765 484.595117 
L 806.512941 521.517933 
L 813.515294 563.728597 
L 817.016471 553.256688 
L 820.517647 575.154844 
L 824.018824 580.228364 
L 827.52 592.556407 
L 841.524706 592.556407 
L 845.025882 503.910943 
L 848.527059 508.081624 
L 852.028235 463.081403 
L 855.529412 409.972233 
L 859.030588 384.793548 
L 862.531765 425.655205 
L 866.032941 451.724523 
L 869.534118 592.556407 
L 883.538824 592.556407 
L 887.04 457.69627 
L 890.541176 498.206868 
L 894.042353 518.333425 
L 897.543529 550.818727 
L 901.044706 561.671231 
L 904.545882 569.722809 
L 908.047059 570.450434 
L 911.548235 592.556407 
L 925.552941 592.556407 
L 929.054118 517.693566 
L 932.555294 527.62125 
L 936.056471 520.075405 
L 939.557647 530.913217 
L 943.058824 536.667835 
L 946.56 555.187087 
L 950.061176 562.10294 
L 953.562353 592.556407 
L 967.567059 592.556407 
L 971.068235 546.347565 
L 974.569412 559.809704 
L 981.571765 574.733081 
L 985.072941 565.563745 
L 988.574118 552.01627 
L 992.075294 535.324284 
L 995.576471 592.556407 
L 1009.581176 592.556407 
L 1013.082353 524.172556 
L 1016.583529 542.179879 
L 1020.084706 542.824675 
L 1023.585882 536.854695 
L 1027.087059 529.659713 
L 1030.588235 547.713849 
L 1034.089412 531.939088 
L 1037.590588 592.556407 
L 1051.595294 592.556407 
L 1055.096471 519.639474 
L 1058.597647 541.098244 
L 1065.6 560.010362 
L 1069.101176 551.997318 
L 1072.602353 561.699733 
L 1076.103529 570.325819 
L 1079.604706 592.556407 
L 1093.609412 592.556407 
L 1097.110588 438.819985 
L 1100.611765 486.491481 
L 1104.112941 498.634763 
L 1107.614118 508.133843 
L 1111.115294 493.577947 
L 1118.117647 523.752883 
L 1121.618824 592.556407 
L 1135.623529 592.556407 
L 1139.124706 517.497824 
L 1142.625882 540.777349 
L 1146.127059 552.94761 
L 1149.628235 567.221548 
L 1156.630588 536.802454 
L 1160.131765 506.277767 
L 1163.632941 592.556407 
L 1177.637647 592.556407 
L 1181.138824 480.412878 
L 1184.64 486.809373 
L 1188.141176 474.468836 
L 1191.642353 500.775446 
L 1195.143529 483.867887 
L 1198.644706 510.686544 
L 1202.145882 520.828914 
L 1205.647059 592.556407 
L 1219.651765 592.556407 
L 1223.152941 444.693163 
L 1226.654118 429.014504 
L 1230.155294 343.48854 
L 1233.656471 296.554159 
L 1237.157647 257.349064 
L 1240.658824 250.070802 
L 1244.16 284.799794 
L 1244.16 284.799794 
" clip-path="url(#p7242b71e46)" style="fill: none; stroke: #0000ff; stroke-width: 1.5; stroke-linecap: square"/>
   </g>
   <g id="patch_3">
    <path d="M 172.8 629.9064 
L 172.8 84.9312 
" style="fill: none; stroke: #000000; stroke-width: 0.8; stroke-linejoin: miter; stroke-linecap: square"/>
   </g>
   <g id="patch_4">
    <path d="M 1244.16 629.9064 
L 1244.16 84.9312 
" style="fill: none; stroke: #000000; stroke-width: 0.8; stroke-linejoin: miter; stroke-linecap: square"/>
   </g>
   <g id="patch_5">
    <path d="M 172.8 629.9064 
L 1244.16 629.9064 
" style="fill: none; stroke: #000000; stroke-width: 0.8; stroke-linejoin: miter; stroke-linecap: square"/>
   </g>
   <g id="patch_6">
    <path d="M 172.8 84.9312 
L 1244.16 84.9312 
" style="fill: none; stroke: #000000; stroke-width: 0.8; stroke-linejoin: miter; stroke-linecap: square"/>
   </g>
   <g id="legend_1">
    <g id="patch_7">
     <path d="M 1027.700625 122.28745 
L 1237.16 122.28745 
Q 1239.16 122.28745 1239.16 120.28745 
L 1239.16 91.9312 
Q 1239.16 89.9312 1237.16 89.9312 
L 1027.700625 89.9312 
Q 1025.700625 89.9312 1025.700625 91.9312 
L 1025.700625 120.28745 
Q 1025.700625 122.28745 1027.700625 122.28745 
z
" style="fill: #ffffff; opacity: 0.8; stroke: #cccccc; stroke-linejoin: miter"/>
    </g>
    <g id="line2d_37">
     <path d="M 1029.700625 98.029638 
L 1039.700625 98.029638 
L 1049.700625 98.029638 
" style="fill: none; stroke: #4682b4; stroke-width: 1.5; stroke-linecap: square"/>
    </g>
    <g id="text_15">
     <!-- Caudal Embalse Lautaro observado -->
     <g transform="translate(1057.700625 101.529638) scale(0.1 -0.1)">
      <defs>
       <path id="DejaVuSans-45" d="M 628 4666 
L 3578 4666 
L 3578 4134 
L 1259 4134 
L 1259 2753 
L 3481 2753 
L 3481 2222 
L 1259 2222 
L 1259 531 
L 3634 531 
L 3634 0 
L 628 0 
L 628 4666 
z
" transform="scale(0.015625)"/>
       <path id="DejaVuSans-6d" d="M 3328 2828 
Q 3544 3216 3844 3400 
Q 4144 3584 4550 3584 
Q 5097 3584 5394 3201 
Q 5691 2819 5691 2113 
L 5691 0 
L 5113 0 
L 5113 2094 
Q 5113 2597 4934 2840 
Q 4756 3084 4391 3084 
Q 3944 3084 3684 2787 
Q 3425 2491 3425 1978 
L 3425 0 
L 2847 0 
L 2847 2094 
Q 2847 2600 2669 2842 
Q 2491 3084 2119 3084 
Q 1678 3084 1418 2786 
Q 1159 2488 1159 1978 
L 1159 0 
L 581 0 
L 581 3500 
L 1159 3500 
L 1159 2956 
Q 1356 3278 1631 3431 
Q 1906 3584 2284 3584 
Q 2666 3584 2933 3390 
Q 3200 3197 3328 2828 
z
" transform="scale(0.015625)"/>
       <path id="DejaVuSans-62" d="M 3116 1747 
Q 3116 2381 2855 2742 
Q 2594 3103 2138 3103 
Q 1681 3103 1420 2742 
Q 1159 2381 1159 1747 
Q 1159 1113 1420 752 
Q 1681 391 2138 391 
Q 2594 391 2855 752 
Q 3116 1113 3116 1747 
z
M 1159 2969 
Q 1341 3281 1617 3432 
Q 1894 3584 2278 3584 
Q 2916 3584 3314 3078 
Q 3713 2572 3713 1747 
Q 3713 922 3314 415 
Q 2916 -91 2278 -91 
Q 1894 -91 1617 61 
Q 1341 213 1159 525 
L 1159 0 
L 581 0 
L 581 4863 
L 1159 4863 
L 1159 2969 
z
" transform="scale(0.015625)"/>
       <path id="DejaVuSans-65" d="M 3597 1894 
L 3597 1613 
L 953 1613 
Q 991 1019 1311 708 
Q 1631 397 2203 397 
Q 2534 397 2845 478 
Q 3156 559 3463 722 
L 3463 178 
Q 3153 47 2828 -22 
Q 2503 -91 2169 -91 
Q 1331 -91 842 396 
Q 353 884 353 1716 
Q 353 2575 817 3079 
Q 1281 3584 2069 3584 
Q 2775 3584 3186 3129 
Q 3597 2675 3597 1894 
z
M 3022 2063 
Q 3016 2534 2758 2815 
Q 2500 3097 2075 3097 
Q 1594 3097 1305 2825 
Q 1016 2553 972 2059 
L 3022 2063 
z
" transform="scale(0.015625)"/>
       <path id="DejaVuSans-4c" d="M 628 4666 
L 1259 4666 
L 1259 531 
L 3531 531 
L 3531 0 
L 628 0 
L 628 4666 
z
" transform="scale(0.015625)"/>
       <path id="DejaVuSans-74" d="M 1172 4494 
L 1172 3500 
L 2356 3500 
L 2356 3053 
L 1172 3053 
L 1172 1153 
Q 1172 725 1289 603 
Q 1406 481 1766 481 
L 2356 481 
L 2356 0 
L 1766 0 
Q 1100 0 847 248 
Q 594 497 594 1153 
L 594 3053 
L 172 3053 
L 172 3500 
L 594 3500 
L 594 4494 
L 1172 4494 
z
" transform="scale(0.015625)"/>
       <path id="DejaVuSans-72" d="M 2631 2963 
Q 2534 3019 2420 3045 
Q 2306 3072 2169 3072 
Q 1681 3072 1420 2755 
Q 1159 2438 1159 1844 
L 1159 0 
L 581 0 
L 581 3500 
L 1159 3500 
L 1159 2956 
Q 1341 3275 1631 3429 
Q 1922 3584 2338 3584 
Q 2397 3584 2469 3576 
Q 2541 3569 2628 3553 
L 2631 2963 
z
" transform="scale(0.015625)"/>
       <path id="DejaVuSans-6f" d="M 1959 3097 
Q 1497 3097 1228 2736 
Q 959 2375 959 1747 
Q 959 1119 1226 758 
Q 1494 397 1959 397 
Q 2419 397 2687 759 
Q 2956 1122 2956 1747 
Q 2956 2369 2687 2733 
Q 2419 3097 1959 3097 
z
M 1959 3584 
Q 2709 3584 3137 3096 
Q 3566 2609 3566 1747 
Q 3566 888 3137 398 
Q 2709 -91 1959 -91 
Q 1206 -91 779 398 
Q 353 888 353 1747 
Q 353 2609 779 3096 
Q 1206 3584 1959 3584 
z
" transform="scale(0.015625)"/>
       <path id="DejaVuSans-76" d="M 191 3500 
L 800 3500 
L 1894 563 
L 2988 3500 
L 3597 3500 
L 2284 0 
L 1503 0 
L 191 3500 
z
" transform="scale(0.015625)"/>
      </defs>
      <use xlink:href="#DejaVuSans-43"/>
      <use xlink:href="#DejaVuSans-61" x="69.824219"/>
      <use xlink:href="#DejaVuSans-75" x="131.103516"/>
      <use xlink:href="#DejaVuSans-64" x="194.482422"/>
      <use xlink:href="#DejaVuSans-61" x="257.958984"/>
      <use xlink:href="#DejaVuSans-6c" x="319.238281"/>
      <use xlink:href="#DejaVuSans-20" x="347.021484"/>
      <use xlink:href="#DejaVuSans-45" x="378.808594"/>
      <use xlink:href="#DejaVuSans-6d" x="441.992188"/>
      <use xlink:href="#DejaVuSans-62" x="539.404297"/>
      <use xlink:href="#DejaVuSans-61" x="602.880859"/>
      <use xlink:href="#DejaVuSans-6c" x="664.160156"/>
      <use xlink:href="#DejaVuSans-73" x="691.943359"/>
      <use xlink:href="#DejaVuSans-65" x="744.042969"/>
      <use xlink:href="#DejaVuSans-20" x="805.566406"/>
      <use xlink:href="#DejaVuSans-4c" x="837.353516"/>
      <use xlink:href="#DejaVuSans-61" x="893.066406"/>
      <use xlink:href="#DejaVuSans-75" x="954.345703"/>
      <use xlink:href="#DejaVuSans-74" x="1017.724609"/>
      <use xlink:href="#DejaVuSans-61" x="1056.933594"/>
      <use xlink:href="#DejaVuSans-72" x="1118.212891"/>
      <use xlink:href="#DejaVuSans-6f" x="1157.076172"/>
      <use xlink:href="#DejaVuSans-20" x="1218.257812"/>
      <use xlink:href="#DejaVuSans-6f" x="1250.044922"/>
      <use xlink:href="#DejaVuSans-62" x="1311.226562"/>
      <use xlink:href="#DejaVuSans-73" x="1374.703125"/>
      <use xlink:href="#DejaVuSans-65" x="1426.802734"/>
      <use xlink:href="#DejaVuSans-72" x="1488.326172"/>
      <use xlink:href="#DejaVuSans-76" x="1529.439453"/>
      <use xlink:href="#DejaVuSans-61" x="1588.619141"/>
      <use xlink:href="#DejaVuSans-64" x="1649.898438"/>
      <use xlink:href="#DejaVuSans-6f" x="1713.375"/>
     </g>
    </g>
    <g id="line2d_38">
     <path d="M 1029.700625 112.707763 
L 1039.700625 112.707763 
L 1049.700625 112.707763 
" style="fill: none; stroke: #0000ff; stroke-width: 1.5; stroke-linecap: square"/>
    </g>
    <g id="text_16">
     <!-- Caudal Embalse Lautaro simulado -->
     <g transform="translate(1057.700625 116.207763) scale(0.1 -0.1)">
      <defs>
       <path id="DejaVuSans-69" d="M 603 3500 
L 1178 3500 
L 1178 0 
L 603 0 
L 603 3500 
z
M 603 4863 
L 1178 4863 
L 1178 4134 
L 603 4134 
L 603 4863 
z
" transform="scale(0.015625)"/>
      </defs>
      <use xlink:href="#DejaVuSans-43"/>
      <use xlink:href="#DejaVuSans-61" x="69.824219"/>
      <use xlink:href="#DejaVuSans-75" x="131.103516"/>
      <use xlink:href="#DejaVuSans-64" x="194.482422"/>
      <use xlink:href="#DejaVuSans-61" x="257.958984"/>
      <use xlink:href="#DejaVuSans-6c" x="319.238281"/>
      <use xlink:href="#DejaVuSans-20" x="347.021484"/>
      <use xlink:href="#DejaVuSans-45" x="378.808594"/>
      <use xlink:href="#DejaVuSans-6d" x="441.992188"/>
      <use xlink:href="#DejaVuSans-62" x="539.404297"/>
      <use xlink:href="#DejaVuSans-61" x="602.880859"/>
      <use xlink:href="#DejaVuSans-6c" x="664.160156"/>
      <use xlink:href="#DejaVuSans-73" x="691.943359"/>
      <use xlink:href="#DejaVuSans-65" x="744.042969"/>
      <use xlink:href="#DejaVuSans-20" x="805.566406"/>
      <use xlink:href="#DejaVuSans-4c" x="837.353516"/>
      <use xlink:href="#DejaVuSans-61" x="893.066406"/>
      <use xlink:href="#DejaVuSans-75" x="954.345703"/>
      <use xlink:href="#DejaVuSans-74" x="1017.724609"/>
      <use xlink:href="#DejaVuSans-61" x="1056.933594"/>
      <use xlink:href="#DejaVuSans-72" x="1118.212891"/>
      <use xlink:href="#DejaVuSans-6f" x="1157.076172"/>
      <use xlink:href="#DejaVuSans-20" x="1218.257812"/>
      <use xlink:href="#DejaVuSans-73" x="1250.044922"/>
      <use xlink:href="#DejaVuSans-69" x="1302.144531"/>
      <use xlink:href="#DejaVuSans-6d" x="1329.927734"/>
      <use xlink:href="#DejaVuSans-75" x="1427.339844"/>
      <use xlink:href="#DejaVuSans-6c" x="1490.71875"/>
      <use xlink:href="#DejaVuSans-61" x="1518.501953"/>
      <use xlink:href="#DejaVuSans-64" x="1579.78125"/>
      <use xlink:href="#DejaVuSans-6f" x="1643.257812"/>
     </g>
    </g>
   </g>
  </g>
 </g>
 <defs>
  <clipPath id="p7242b71e46">
   <rect x="172.8" y="84.9312" width="1071.36" height="544.9752"/>
  </clipPath>
 </defs>
</svg>
