<?xml version="1.0" encoding="utf-8" standalone="no"?>
<!DOCTYPE svg PUBLIC "-//W3C//DTD SVG 1.1//EN"
  "http://www.w3.org/Graphics/SVG/1.1/DTD/svg11.dtd">
<!-- Created with matplotlib (https://matplotlib.org/) -->
<svg height="299.952575pt" version="1.1" viewBox="0 0 419.484375 299.952575" width="419.484375pt" xmlns="http://www.w3.org/2000/svg" xmlns:xlink="http://www.w3.org/1999/xlink">
 <defs>
  <style type="text/css">
*{stroke-linecap:butt;stroke-linejoin:round;}
  </style>
 </defs>
 <g id="figure_1">
  <g id="patch_1">
   <path d="M 0 299.952575 
L 419.484375 299.952575 
L 419.484375 0 
L 0 0 
z
" style="fill:#ffffff;"/>
  </g>
  <g id="axes_1">
   <g id="patch_2">
    <path d="M 55.164375 272.2032 
L 412.284375 272.2032 
L 412.284375 7.2 
L 55.164375 7.2 
z
" style="fill:#ffffff;"/>
   </g>
   <g id="matplotlib.axis_1">
    <g id="xtick_1">
     <g id="line2d_1">
      <path clip-path="url(#pdc0929bb24)" d="M 82.485031 272.2032 
L 82.485031 7.2 
" style="fill:none;stroke:#b0b0b0;stroke-linecap:square;stroke-width:0.8;"/>
     </g>
     <g id="line2d_2">
      <defs>
       <path d="M 0 0 
L 0 3.5 
" id="m1d27cb308b" style="stroke:#000000;stroke-width:0.8;"/>
      </defs>
      <g>
       <use style="stroke:#000000;stroke-width:0.8;" x="82.485031" xlink:href="#m1d27cb308b" y="272.2032"/>
      </g>
     </g>
     <g id="text_1">
      <!-- 1994 -->
      <defs>
       <path d="M 12.40625 8.296875 
L 28.515625 8.296875 
L 28.515625 63.921875 
L 10.984375 60.40625 
L 10.984375 69.390625 
L 28.421875 72.90625 
L 38.28125 72.90625 
L 38.28125 8.296875 
L 54.390625 8.296875 
L 54.390625 0 
L 12.40625 0 
z
" id="DejaVuSans-49"/>
       <path d="M 10.984375 1.515625 
L 10.984375 10.5 
Q 14.703125 8.734375 18.5 7.8125 
Q 22.3125 6.890625 25.984375 6.890625 
Q 35.75 6.890625 40.890625 13.453125 
Q 46.046875 20.015625 46.78125 33.40625 
Q 43.953125 29.203125 39.59375 26.953125 
Q 35.25 24.703125 29.984375 24.703125 
Q 19.046875 24.703125 12.671875 31.3125 
Q 6.296875 37.9375 6.296875 49.421875 
Q 6.296875 60.640625 12.9375 67.421875 
Q 19.578125 74.21875 30.609375 74.21875 
Q 43.265625 74.21875 49.921875 64.515625 
Q 56.59375 54.828125 56.59375 36.375 
Q 56.59375 19.140625 48.40625 8.859375 
Q 40.234375 -1.421875 26.421875 -1.421875 
Q 22.703125 -1.421875 18.890625 -0.6875 
Q 15.09375 0.046875 10.984375 1.515625 
z
M 30.609375 32.421875 
Q 37.25 32.421875 41.125 36.953125 
Q 45.015625 41.5 45.015625 49.421875 
Q 45.015625 57.28125 41.125 61.84375 
Q 37.25 66.40625 30.609375 66.40625 
Q 23.96875 66.40625 20.09375 61.84375 
Q 16.21875 57.28125 16.21875 49.421875 
Q 16.21875 41.5 20.09375 36.953125 
Q 23.96875 32.421875 30.609375 32.421875 
z
" id="DejaVuSans-57"/>
       <path d="M 37.796875 64.3125 
L 12.890625 25.390625 
L 37.796875 25.390625 
z
M 35.203125 72.90625 
L 47.609375 72.90625 
L 47.609375 25.390625 
L 58.015625 25.390625 
L 58.015625 17.1875 
L 47.609375 17.1875 
L 47.609375 0 
L 37.796875 0 
L 37.796875 17.1875 
L 4.890625 17.1875 
L 4.890625 26.703125 
z
" id="DejaVuSans-52"/>
      </defs>
      <g transform="translate(64.670031 289.841013)scale(0.14 -0.14)">
       <use xlink:href="#DejaVuSans-49"/>
       <use x="63.623047" xlink:href="#DejaVuSans-57"/>
       <use x="127.246094" xlink:href="#DejaVuSans-57"/>
       <use x="190.869141" xlink:href="#DejaVuSans-52"/>
      </g>
     </g>
    </g>
    <g id="xtick_2">
     <g id="line2d_3">
      <path clip-path="url(#pdc0929bb24)" d="M 141.029293 272.2032 
L 141.029293 7.2 
" style="fill:none;stroke:#b0b0b0;stroke-linecap:square;stroke-width:0.8;"/>
     </g>
     <g id="line2d_4">
      <g>
       <use style="stroke:#000000;stroke-width:0.8;" x="141.029293" xlink:href="#m1d27cb308b" y="272.2032"/>
      </g>
     </g>
     <g id="text_2">
      <!-- 1999 -->
      <g transform="translate(123.214293 289.841013)scale(0.14 -0.14)">
       <use xlink:href="#DejaVuSans-49"/>
       <use x="63.623047" xlink:href="#DejaVuSans-57"/>
       <use x="127.246094" xlink:href="#DejaVuSans-57"/>
       <use x="190.869141" xlink:href="#DejaVuSans-57"/>
      </g>
     </g>
    </g>
    <g id="xtick_3">
     <g id="line2d_5">
      <path clip-path="url(#pdc0929bb24)" d="M 199.573555 272.2032 
L 199.573555 7.2 
" style="fill:none;stroke:#b0b0b0;stroke-linecap:square;stroke-width:0.8;"/>
     </g>
     <g id="line2d_6">
      <g>
       <use style="stroke:#000000;stroke-width:0.8;" x="199.573555" xlink:href="#m1d27cb308b" y="272.2032"/>
      </g>
     </g>
     <g id="text_3">
      <!-- 2004 -->
      <defs>
       <path d="M 19.1875 8.296875 
L 53.609375 8.296875 
L 53.609375 0 
L 7.328125 0 
L 7.328125 8.296875 
Q 12.9375 14.109375 22.625 23.890625 
Q 32.328125 33.6875 34.8125 36.53125 
Q 39.546875 41.84375 41.421875 45.53125 
Q 43.3125 49.21875 43.3125 52.78125 
Q 43.3125 58.59375 39.234375 62.25 
Q 35.15625 65.921875 28.609375 65.921875 
Q 23.96875 65.921875 18.8125 64.3125 
Q 13.671875 62.703125 7.8125 59.421875 
L 7.8125 69.390625 
Q 13.765625 71.78125 18.9375 73 
Q 24.125 74.21875 28.421875 74.21875 
Q 39.75 74.21875 46.484375 68.546875 
Q 53.21875 62.890625 53.21875 53.421875 
Q 53.21875 48.921875 51.53125 44.890625 
Q 49.859375 40.875 45.40625 35.40625 
Q 44.1875 33.984375 37.640625 27.21875 
Q 31.109375 20.453125 19.1875 8.296875 
z
" id="DejaVuSans-50"/>
       <path d="M 31.78125 66.40625 
Q 24.171875 66.40625 20.328125 58.90625 
Q 16.5 51.421875 16.5 36.375 
Q 16.5 21.390625 20.328125 13.890625 
Q 24.171875 6.390625 31.78125 6.390625 
Q 39.453125 6.390625 43.28125 13.890625 
Q 47.125 21.390625 47.125 36.375 
Q 47.125 51.421875 43.28125 58.90625 
Q 39.453125 66.40625 31.78125 66.40625 
z
M 31.78125 74.21875 
Q 44.046875 74.21875 50.515625 64.515625 
Q 56.984375 54.828125 56.984375 36.375 
Q 56.984375 17.96875 50.515625 8.265625 
Q 44.046875 -1.421875 31.78125 -1.421875 
Q 19.53125 -1.421875 13.0625 8.265625 
Q 6.59375 17.96875 6.59375 36.375 
Q 6.59375 54.828125 13.0625 64.515625 
Q 19.53125 74.21875 31.78125 74.21875 
z
" id="DejaVuSans-48"/>
      </defs>
      <g transform="translate(181.758555 289.841013)scale(0.14 -0.14)">
       <use xlink:href="#DejaVuSans-50"/>
       <use x="63.623047" xlink:href="#DejaVuSans-48"/>
       <use x="127.246094" xlink:href="#DejaVuSans-48"/>
       <use x="190.869141" xlink:href="#DejaVuSans-52"/>
      </g>
     </g>
    </g>
    <g id="xtick_4">
     <g id="line2d_7">
      <path clip-path="url(#pdc0929bb24)" d="M 258.117818 272.2032 
L 258.117818 7.2 
" style="fill:none;stroke:#b0b0b0;stroke-linecap:square;stroke-width:0.8;"/>
     </g>
     <g id="line2d_8">
      <g>
       <use style="stroke:#000000;stroke-width:0.8;" x="258.117818" xlink:href="#m1d27cb308b" y="272.2032"/>
      </g>
     </g>
     <g id="text_4">
      <!-- 2009 -->
      <g transform="translate(240.302818 289.841013)scale(0.14 -0.14)">
       <use xlink:href="#DejaVuSans-50"/>
       <use x="63.623047" xlink:href="#DejaVuSans-48"/>
       <use x="127.246094" xlink:href="#DejaVuSans-48"/>
       <use x="190.869141" xlink:href="#DejaVuSans-57"/>
      </g>
     </g>
    </g>
    <g id="xtick_5">
     <g id="line2d_9">
      <path clip-path="url(#pdc0929bb24)" d="M 316.66208 272.2032 
L 316.66208 7.2 
" style="fill:none;stroke:#b0b0b0;stroke-linecap:square;stroke-width:0.8;"/>
     </g>
     <g id="line2d_10">
      <g>
       <use style="stroke:#000000;stroke-width:0.8;" x="316.66208" xlink:href="#m1d27cb308b" y="272.2032"/>
      </g>
     </g>
     <g id="text_5">
      <!-- 2014 -->
      <g transform="translate(298.84708 289.841013)scale(0.14 -0.14)">
       <use xlink:href="#DejaVuSans-50"/>
       <use x="63.623047" xlink:href="#DejaVuSans-48"/>
       <use x="127.246094" xlink:href="#DejaVuSans-49"/>
       <use x="190.869141" xlink:href="#DejaVuSans-52"/>
      </g>
     </g>
    </g>
    <g id="xtick_6">
     <g id="line2d_11">
      <path clip-path="url(#pdc0929bb24)" d="M 375.206342 272.2032 
L 375.206342 7.2 
" style="fill:none;stroke:#b0b0b0;stroke-linecap:square;stroke-width:0.8;"/>
     </g>
     <g id="line2d_12">
      <g>
       <use style="stroke:#000000;stroke-width:0.8;" x="375.206342" xlink:href="#m1d27cb308b" y="272.2032"/>
      </g>
     </g>
     <g id="text_6">
      <!-- 2019 -->
      <g transform="translate(357.391342 289.841013)scale(0.14 -0.14)">
       <use xlink:href="#DejaVuSans-50"/>
       <use x="63.623047" xlink:href="#DejaVuSans-48"/>
       <use x="127.246094" xlink:href="#DejaVuSans-49"/>
       <use x="190.869141" xlink:href="#DejaVuSans-57"/>
      </g>
     </g>
    </g>
    <g id="xtick_7">
     <g id="line2d_13">
      <defs>
       <path d="M 0 0 
L 0 2 
" id="m3a4ba217fa" style="stroke:#000000;stroke-width:0.6;"/>
      </defs>
      <g>
       <use style="stroke:#000000;stroke-width:0.6;" x="59.067326" xlink:href="#m3a4ba217fa" y="272.2032"/>
      </g>
     </g>
    </g>
    <g id="xtick_8">
     <g id="line2d_14">
      <g>
       <use style="stroke:#000000;stroke-width:0.6;" x="70.776178" xlink:href="#m3a4ba217fa" y="272.2032"/>
      </g>
     </g>
    </g>
    <g id="xtick_9">
     <g id="line2d_15">
      <g>
       <use style="stroke:#000000;stroke-width:0.6;" x="94.193883" xlink:href="#m3a4ba217fa" y="272.2032"/>
      </g>
     </g>
    </g>
    <g id="xtick_10">
     <g id="line2d_16">
      <g>
       <use style="stroke:#000000;stroke-width:0.6;" x="105.902736" xlink:href="#m3a4ba217fa" y="272.2032"/>
      </g>
     </g>
    </g>
    <g id="xtick_11">
     <g id="line2d_17">
      <g>
       <use style="stroke:#000000;stroke-width:0.6;" x="117.611588" xlink:href="#m3a4ba217fa" y="272.2032"/>
      </g>
     </g>
    </g>
    <g id="xtick_12">
     <g id="line2d_18">
      <g>
       <use style="stroke:#000000;stroke-width:0.6;" x="129.320441" xlink:href="#m3a4ba217fa" y="272.2032"/>
      </g>
     </g>
    </g>
    <g id="xtick_13">
     <g id="line2d_19">
      <g>
       <use style="stroke:#000000;stroke-width:0.6;" x="152.738145" xlink:href="#m3a4ba217fa" y="272.2032"/>
      </g>
     </g>
    </g>
    <g id="xtick_14">
     <g id="line2d_20">
      <g>
       <use style="stroke:#000000;stroke-width:0.6;" x="164.446998" xlink:href="#m3a4ba217fa" y="272.2032"/>
      </g>
     </g>
    </g>
    <g id="xtick_15">
     <g id="line2d_21">
      <g>
       <use style="stroke:#000000;stroke-width:0.6;" x="176.15585" xlink:href="#m3a4ba217fa" y="272.2032"/>
      </g>
     </g>
    </g>
    <g id="xtick_16">
     <g id="line2d_22">
      <g>
       <use style="stroke:#000000;stroke-width:0.6;" x="187.864703" xlink:href="#m3a4ba217fa" y="272.2032"/>
      </g>
     </g>
    </g>
    <g id="xtick_17">
     <g id="line2d_23">
      <g>
       <use style="stroke:#000000;stroke-width:0.6;" x="211.282408" xlink:href="#m3a4ba217fa" y="272.2032"/>
      </g>
     </g>
    </g>
    <g id="xtick_18">
     <g id="line2d_24">
      <g>
       <use style="stroke:#000000;stroke-width:0.6;" x="222.99126" xlink:href="#m3a4ba217fa" y="272.2032"/>
      </g>
     </g>
    </g>
    <g id="xtick_19">
     <g id="line2d_25">
      <g>
       <use style="stroke:#000000;stroke-width:0.6;" x="234.700113" xlink:href="#m3a4ba217fa" y="272.2032"/>
      </g>
     </g>
    </g>
    <g id="xtick_20">
     <g id="line2d_26">
      <g>
       <use style="stroke:#000000;stroke-width:0.6;" x="246.408965" xlink:href="#m3a4ba217fa" y="272.2032"/>
      </g>
     </g>
    </g>
    <g id="xtick_21">
     <g id="line2d_27">
      <g>
       <use style="stroke:#000000;stroke-width:0.6;" x="269.82667" xlink:href="#m3a4ba217fa" y="272.2032"/>
      </g>
     </g>
    </g>
    <g id="xtick_22">
     <g id="line2d_28">
      <g>
       <use style="stroke:#000000;stroke-width:0.6;" x="281.535523" xlink:href="#m3a4ba217fa" y="272.2032"/>
      </g>
     </g>
    </g>
    <g id="xtick_23">
     <g id="line2d_29">
      <g>
       <use style="stroke:#000000;stroke-width:0.6;" x="293.244375" xlink:href="#m3a4ba217fa" y="272.2032"/>
      </g>
     </g>
    </g>
    <g id="xtick_24">
     <g id="line2d_30">
      <g>
       <use style="stroke:#000000;stroke-width:0.6;" x="304.953227" xlink:href="#m3a4ba217fa" y="272.2032"/>
      </g>
     </g>
    </g>
    <g id="xtick_25">
     <g id="line2d_31">
      <g>
       <use style="stroke:#000000;stroke-width:0.6;" x="328.370932" xlink:href="#m3a4ba217fa" y="272.2032"/>
      </g>
     </g>
    </g>
    <g id="xtick_26">
     <g id="line2d_32">
      <g>
       <use style="stroke:#000000;stroke-width:0.6;" x="340.079785" xlink:href="#m3a4ba217fa" y="272.2032"/>
      </g>
     </g>
    </g>
    <g id="xtick_27">
     <g id="line2d_33">
      <g>
       <use style="stroke:#000000;stroke-width:0.6;" x="351.788637" xlink:href="#m3a4ba217fa" y="272.2032"/>
      </g>
     </g>
    </g>
    <g id="xtick_28">
     <g id="line2d_34">
      <g>
       <use style="stroke:#000000;stroke-width:0.6;" x="363.49749" xlink:href="#m3a4ba217fa" y="272.2032"/>
      </g>
     </g>
    </g>
    <g id="xtick_29">
     <g id="line2d_35">
      <g>
       <use style="stroke:#000000;stroke-width:0.6;" x="386.915195" xlink:href="#m3a4ba217fa" y="272.2032"/>
      </g>
     </g>
    </g>
    <g id="xtick_30">
     <g id="line2d_36">
      <g>
       <use style="stroke:#000000;stroke-width:0.6;" x="398.624047" xlink:href="#m3a4ba217fa" y="272.2032"/>
      </g>
     </g>
    </g>
    <g id="xtick_31">
     <g id="line2d_37">
      <g>
       <use style="stroke:#000000;stroke-width:0.6;" x="410.3329" xlink:href="#m3a4ba217fa" y="272.2032"/>
      </g>
     </g>
    </g>
   </g>
   <g id="matplotlib.axis_2">
    <g id="ytick_1">
     <g id="line2d_38">
      <path clip-path="url(#pdc0929bb24)" d="M 55.164375 260.837206 
L 412.284375 260.837206 
" style="fill:none;stroke:#b0b0b0;stroke-linecap:square;stroke-width:0.8;"/>
     </g>
     <g id="line2d_39">
      <defs>
       <path d="M 0 0 
L -3.5 0 
" id="m6c6d0585e5" style="stroke:#000000;stroke-width:0.8;"/>
      </defs>
      <g>
       <use style="stroke:#000000;stroke-width:0.8;" x="55.164375" xlink:href="#m6c6d0585e5" y="260.837206"/>
      </g>
     </g>
     <g id="text_7">
      <!-- 0.0 -->
      <defs>
       <path d="M 10.6875 12.40625 
L 21 12.40625 
L 21 0 
L 10.6875 0 
z
" id="DejaVuSans-46"/>
      </defs>
      <g transform="translate(25.9 266.156112)scale(0.14 -0.14)">
       <use xlink:href="#DejaVuSans-48"/>
       <use x="63.623047" xlink:href="#DejaVuSans-46"/>
       <use x="95.410156" xlink:href="#DejaVuSans-48"/>
      </g>
     </g>
    </g>
    <g id="ytick_2">
     <g id="line2d_40">
      <path clip-path="url(#pdc0929bb24)" d="M 55.164375 226.856921 
L 412.284375 226.856921 
" style="fill:none;stroke:#b0b0b0;stroke-linecap:square;stroke-width:0.8;"/>
     </g>
     <g id="line2d_41">
      <g>
       <use style="stroke:#000000;stroke-width:0.8;" x="55.164375" xlink:href="#m6c6d0585e5" y="226.856921"/>
      </g>
     </g>
     <g id="text_8">
      <!-- 0.5 -->
      <defs>
       <path d="M 10.796875 72.90625 
L 49.515625 72.90625 
L 49.515625 64.59375 
L 19.828125 64.59375 
L 19.828125 46.734375 
Q 21.96875 47.46875 24.109375 47.828125 
Q 26.265625 48.1875 28.421875 48.1875 
Q 40.625 48.1875 47.75 41.5 
Q 54.890625 34.8125 54.890625 23.390625 
Q 54.890625 11.625 47.5625 5.09375 
Q 40.234375 -1.421875 26.90625 -1.421875 
Q 22.3125 -1.421875 17.546875 -0.640625 
Q 12.796875 0.140625 7.71875 1.703125 
L 7.71875 11.625 
Q 12.109375 9.234375 16.796875 8.0625 
Q 21.484375 6.890625 26.703125 6.890625 
Q 35.15625 6.890625 40.078125 11.328125 
Q 45.015625 15.765625 45.015625 23.390625 
Q 45.015625 31 40.078125 35.4375 
Q 35.15625 39.890625 26.703125 39.890625 
Q 22.75 39.890625 18.8125 39.015625 
Q 14.890625 38.140625 10.796875 36.28125 
z
" id="DejaVuSans-53"/>
      </defs>
      <g transform="translate(25.9 232.175827)scale(0.14 -0.14)">
       <use xlink:href="#DejaVuSans-48"/>
       <use x="63.623047" xlink:href="#DejaVuSans-46"/>
       <use x="95.410156" xlink:href="#DejaVuSans-53"/>
      </g>
     </g>
    </g>
    <g id="ytick_3">
     <g id="line2d_42">
      <path clip-path="url(#pdc0929bb24)" d="M 55.164375 192.876636 
L 412.284375 192.876636 
" style="fill:none;stroke:#b0b0b0;stroke-linecap:square;stroke-width:0.8;"/>
     </g>
     <g id="line2d_43">
      <g>
       <use style="stroke:#000000;stroke-width:0.8;" x="55.164375" xlink:href="#m6c6d0585e5" y="192.876636"/>
      </g>
     </g>
     <g id="text_9">
      <!-- 1.0 -->
      <g transform="translate(25.9 198.195542)scale(0.14 -0.14)">
       <use xlink:href="#DejaVuSans-49"/>
       <use x="63.623047" xlink:href="#DejaVuSans-46"/>
       <use x="95.410156" xlink:href="#DejaVuSans-48"/>
      </g>
     </g>
    </g>
    <g id="ytick_4">
     <g id="line2d_44">
      <path clip-path="url(#pdc0929bb24)" d="M 55.164375 158.896351 
L 412.284375 158.896351 
" style="fill:none;stroke:#b0b0b0;stroke-linecap:square;stroke-width:0.8;"/>
     </g>
     <g id="line2d_45">
      <g>
       <use style="stroke:#000000;stroke-width:0.8;" x="55.164375" xlink:href="#m6c6d0585e5" y="158.896351"/>
      </g>
     </g>
     <g id="text_10">
      <!-- 1.5 -->
      <g transform="translate(25.9 164.215257)scale(0.14 -0.14)">
       <use xlink:href="#DejaVuSans-49"/>
       <use x="63.623047" xlink:href="#DejaVuSans-46"/>
       <use x="95.410156" xlink:href="#DejaVuSans-53"/>
      </g>
     </g>
    </g>
    <g id="ytick_5">
     <g id="line2d_46">
      <path clip-path="url(#pdc0929bb24)" d="M 55.164375 124.916065 
L 412.284375 124.916065 
" style="fill:none;stroke:#b0b0b0;stroke-linecap:square;stroke-width:0.8;"/>
     </g>
     <g id="line2d_47">
      <g>
       <use style="stroke:#000000;stroke-width:0.8;" x="55.164375" xlink:href="#m6c6d0585e5" y="124.916065"/>
      </g>
     </g>
     <g id="text_11">
      <!-- 2.0 -->
      <g transform="translate(25.9 130.234972)scale(0.14 -0.14)">
       <use xlink:href="#DejaVuSans-50"/>
       <use x="63.623047" xlink:href="#DejaVuSans-46"/>
       <use x="95.410156" xlink:href="#DejaVuSans-48"/>
      </g>
     </g>
    </g>
    <g id="ytick_6">
     <g id="line2d_48">
      <path clip-path="url(#pdc0929bb24)" d="M 55.164375 90.93578 
L 412.284375 90.93578 
" style="fill:none;stroke:#b0b0b0;stroke-linecap:square;stroke-width:0.8;"/>
     </g>
     <g id="line2d_49">
      <g>
       <use style="stroke:#000000;stroke-width:0.8;" x="55.164375" xlink:href="#m6c6d0585e5" y="90.93578"/>
      </g>
     </g>
     <g id="text_12">
      <!-- 2.5 -->
      <g transform="translate(25.9 96.254687)scale(0.14 -0.14)">
       <use xlink:href="#DejaVuSans-50"/>
       <use x="63.623047" xlink:href="#DejaVuSans-46"/>
       <use x="95.410156" xlink:href="#DejaVuSans-53"/>
      </g>
     </g>
    </g>
    <g id="ytick_7">
     <g id="line2d_50">
      <path clip-path="url(#pdc0929bb24)" d="M 55.164375 56.955495 
L 412.284375 56.955495 
" style="fill:none;stroke:#b0b0b0;stroke-linecap:square;stroke-width:0.8;"/>
     </g>
     <g id="line2d_51">
      <g>
       <use style="stroke:#000000;stroke-width:0.8;" x="55.164375" xlink:href="#m6c6d0585e5" y="56.955495"/>
      </g>
     </g>
     <g id="text_13">
      <!-- 3.0 -->
      <defs>
       <path d="M 40.578125 39.3125 
Q 47.65625 37.796875 51.625 33 
Q 55.609375 28.21875 55.609375 21.1875 
Q 55.609375 10.40625 48.1875 4.484375 
Q 40.765625 -1.421875 27.09375 -1.421875 
Q 22.515625 -1.421875 17.65625 -0.515625 
Q 12.796875 0.390625 7.625 2.203125 
L 7.625 11.71875 
Q 11.71875 9.328125 16.59375 8.109375 
Q 21.484375 6.890625 26.8125 6.890625 
Q 36.078125 6.890625 40.9375 10.546875 
Q 45.796875 14.203125 45.796875 21.1875 
Q 45.796875 27.640625 41.28125 31.265625 
Q 36.765625 34.90625 28.71875 34.90625 
L 20.21875 34.90625 
L 20.21875 43.015625 
L 29.109375 43.015625 
Q 36.375 43.015625 40.234375 45.921875 
Q 44.09375 48.828125 44.09375 54.296875 
Q 44.09375 59.90625 40.109375 62.90625 
Q 36.140625 65.921875 28.71875 65.921875 
Q 24.65625 65.921875 20.015625 65.03125 
Q 15.375 64.15625 9.8125 62.3125 
L 9.8125 71.09375 
Q 15.4375 72.65625 20.34375 73.4375 
Q 25.25 74.21875 29.59375 74.21875 
Q 40.828125 74.21875 47.359375 69.109375 
Q 53.90625 64.015625 53.90625 55.328125 
Q 53.90625 49.265625 50.4375 45.09375 
Q 46.96875 40.921875 40.578125 39.3125 
z
" id="DejaVuSans-51"/>
      </defs>
      <g transform="translate(25.9 62.274402)scale(0.14 -0.14)">
       <use xlink:href="#DejaVuSans-51"/>
       <use x="63.623047" xlink:href="#DejaVuSans-46"/>
       <use x="95.410156" xlink:href="#DejaVuSans-48"/>
      </g>
     </g>
    </g>
    <g id="ytick_8">
     <g id="line2d_52">
      <path clip-path="url(#pdc0929bb24)" d="M 55.164375 22.97521 
L 412.284375 22.97521 
" style="fill:none;stroke:#b0b0b0;stroke-linecap:square;stroke-width:0.8;"/>
     </g>
     <g id="line2d_53">
      <g>
       <use style="stroke:#000000;stroke-width:0.8;" x="55.164375" xlink:href="#m6c6d0585e5" y="22.97521"/>
      </g>
     </g>
     <g id="text_14">
      <!-- 3.5 -->
      <g transform="translate(25.9 28.294117)scale(0.14 -0.14)">
       <use xlink:href="#DejaVuSans-51"/>
       <use x="63.623047" xlink:href="#DejaVuSans-46"/>
       <use x="95.410156" xlink:href="#DejaVuSans-53"/>
      </g>
     </g>
    </g>
    <g id="text_15">
     <!-- Caudal ($m^3/s$) -->
     <defs>
      <path d="M 64.40625 67.28125 
L 64.40625 56.890625 
Q 59.421875 61.53125 53.78125 63.8125 
Q 48.140625 66.109375 41.796875 66.109375 
Q 29.296875 66.109375 22.65625 58.46875 
Q 16.015625 50.828125 16.015625 36.375 
Q 16.015625 21.96875 22.65625 14.328125 
Q 29.296875 6.6875 41.796875 6.6875 
Q 48.140625 6.6875 53.78125 8.984375 
Q 59.421875 11.28125 64.40625 15.921875 
L 64.40625 5.609375 
Q 59.234375 2.09375 53.4375 0.328125 
Q 47.65625 -1.421875 41.21875 -1.421875 
Q 24.65625 -1.421875 15.125 8.703125 
Q 5.609375 18.84375 5.609375 36.375 
Q 5.609375 53.953125 15.125 64.078125 
Q 24.65625 74.21875 41.21875 74.21875 
Q 47.75 74.21875 53.53125 72.484375 
Q 59.328125 70.75 64.40625 67.28125 
z
" id="DejaVuSans-67"/>
      <path d="M 34.28125 27.484375 
Q 23.390625 27.484375 19.1875 25 
Q 14.984375 22.515625 14.984375 16.5 
Q 14.984375 11.71875 18.140625 8.90625 
Q 21.296875 6.109375 26.703125 6.109375 
Q 34.1875 6.109375 38.703125 11.40625 
Q 43.21875 16.703125 43.21875 25.484375 
L 43.21875 27.484375 
z
M 52.203125 31.203125 
L 52.203125 0 
L 43.21875 0 
L 43.21875 8.296875 
Q 40.140625 3.328125 35.546875 0.953125 
Q 30.953125 -1.421875 24.3125 -1.421875 
Q 15.921875 -1.421875 10.953125 3.296875 
Q 6 8.015625 6 15.921875 
Q 6 25.140625 12.171875 29.828125 
Q 18.359375 34.515625 30.609375 34.515625 
L 43.21875 34.515625 
L 43.21875 35.40625 
Q 43.21875 41.609375 39.140625 45 
Q 35.0625 48.390625 27.6875 48.390625 
Q 23 48.390625 18.546875 47.265625 
Q 14.109375 46.140625 10.015625 43.890625 
L 10.015625 52.203125 
Q 14.9375 54.109375 19.578125 55.046875 
Q 24.21875 56 28.609375 56 
Q 40.484375 56 46.34375 49.84375 
Q 52.203125 43.703125 52.203125 31.203125 
z
" id="DejaVuSans-97"/>
      <path d="M 8.5 21.578125 
L 8.5 54.6875 
L 17.484375 54.6875 
L 17.484375 21.921875 
Q 17.484375 14.15625 20.5 10.265625 
Q 23.53125 6.390625 29.59375 6.390625 
Q 36.859375 6.390625 41.078125 11.03125 
Q 45.3125 15.671875 45.3125 23.6875 
L 45.3125 54.6875 
L 54.296875 54.6875 
L 54.296875 0 
L 45.3125 0 
L 45.3125 8.40625 
Q 42.046875 3.421875 37.71875 1 
Q 33.40625 -1.421875 27.6875 -1.421875 
Q 18.265625 -1.421875 13.375 4.4375 
Q 8.5 10.296875 8.5 21.578125 
z
M 31.109375 56 
z
" id="DejaVuSans-117"/>
      <path d="M 45.40625 46.390625 
L 45.40625 75.984375 
L 54.390625 75.984375 
L 54.390625 0 
L 45.40625 0 
L 45.40625 8.203125 
Q 42.578125 3.328125 38.25 0.953125 
Q 33.9375 -1.421875 27.875 -1.421875 
Q 17.96875 -1.421875 11.734375 6.484375 
Q 5.515625 14.40625 5.515625 27.296875 
Q 5.515625 40.1875 11.734375 48.09375 
Q 17.96875 56 27.875 56 
Q 33.9375 56 38.25 53.625 
Q 42.578125 51.265625 45.40625 46.390625 
z
M 14.796875 27.296875 
Q 14.796875 17.390625 18.875 11.75 
Q 22.953125 6.109375 30.078125 6.109375 
Q 37.203125 6.109375 41.296875 11.75 
Q 45.40625 17.390625 45.40625 27.296875 
Q 45.40625 37.203125 41.296875 42.84375 
Q 37.203125 48.484375 30.078125 48.484375 
Q 22.953125 48.484375 18.875 42.84375 
Q 14.796875 37.203125 14.796875 27.296875 
z
" id="DejaVuSans-100"/>
      <path d="M 9.421875 75.984375 
L 18.40625 75.984375 
L 18.40625 0 
L 9.421875 0 
z
" id="DejaVuSans-108"/>
      <path id="DejaVuSans-32"/>
      <path d="M 31 75.875 
Q 24.46875 64.65625 21.28125 53.65625 
Q 18.109375 42.671875 18.109375 31.390625 
Q 18.109375 20.125 21.3125 9.0625 
Q 24.515625 -2 31 -13.1875 
L 23.1875 -13.1875 
Q 15.875 -1.703125 12.234375 9.375 
Q 8.59375 20.453125 8.59375 31.390625 
Q 8.59375 42.28125 12.203125 53.3125 
Q 15.828125 64.359375 23.1875 75.875 
z
" id="DejaVuSans-40"/>
      <path d="M 89.796875 33.015625 
L 83.40625 0 
L 74.421875 0 
L 80.71875 32.71875 
Q 81.109375 34.8125 81.296875 36.328125 
Q 81.5 37.84375 81.5 38.921875 
Q 81.5 43.3125 79.046875 45.75 
Q 76.609375 48.1875 72.21875 48.1875 
Q 65.671875 48.1875 60.546875 43.28125 
Q 55.421875 38.375 53.90625 30.515625 
L 47.90625 0 
L 38.921875 0 
L 45.3125 32.71875 
Q 45.703125 34.515625 45.890625 36.046875 
Q 46.09375 37.59375 46.09375 38.8125 
Q 46.09375 43.265625 43.65625 45.71875 
Q 41.21875 48.1875 36.921875 48.1875 
Q 30.28125 48.1875 25.140625 43.28125 
Q 20.015625 38.375 18.5 30.515625 
L 12.5 0 
L 3.515625 0 
L 14.203125 54.6875 
L 23.1875 54.6875 
L 21.484375 46.1875 
Q 25.140625 50.984375 30.046875 53.484375 
Q 34.96875 56 40.578125 56 
Q 46.53125 56 50.359375 52.875 
Q 54.203125 49.75 54.984375 44.1875 
Q 59.078125 49.953125 64.46875 52.96875 
Q 69.875 56 75.875 56 
Q 82.90625 56 86.734375 51.953125 
Q 90.578125 47.90625 90.578125 40.484375 
Q 90.578125 38.875 90.375 36.9375 
Q 90.1875 35.015625 89.796875 33.015625 
z
" id="DejaVuSans-Oblique-109"/>
      <path d="M 25.390625 72.90625 
L 33.6875 72.90625 
L 8.296875 -9.28125 
L 0 -9.28125 
z
" id="DejaVuSans-47"/>
      <path d="M 50 53.078125 
L 48.296875 44.578125 
Q 44.734375 46.53125 40.765625 47.5 
Q 36.8125 48.484375 32.625 48.484375 
Q 25.53125 48.484375 21.453125 46.0625 
Q 17.390625 43.65625 17.390625 39.5 
Q 17.390625 34.671875 26.859375 32.078125 
Q 27.59375 31.890625 27.9375 31.78125 
L 30.8125 30.90625 
Q 39.796875 28.421875 42.796875 25.6875 
Q 45.796875 22.953125 45.796875 18.21875 
Q 45.796875 9.515625 38.890625 4.046875 
Q 31.984375 -1.421875 20.796875 -1.421875 
Q 16.453125 -1.421875 11.671875 -0.578125 
Q 6.890625 0.25 1.125 2 
L 2.875 11.28125 
Q 7.8125 8.734375 12.59375 7.421875 
Q 17.390625 6.109375 21.78125 6.109375 
Q 28.375 6.109375 32.5 8.9375 
Q 36.625 11.765625 36.625 16.109375 
Q 36.625 20.796875 25.78125 23.6875 
L 24.859375 23.921875 
L 21.78125 24.703125 
Q 14.9375 26.515625 11.765625 29.46875 
Q 8.59375 32.421875 8.59375 37.015625 
Q 8.59375 45.75 15.15625 50.875 
Q 21.734375 56 33.015625 56 
Q 37.453125 56 41.671875 55.265625 
Q 45.90625 54.546875 50 53.078125 
z
" id="DejaVuSans-Oblique-115"/>
      <path d="M 8.015625 75.875 
L 15.828125 75.875 
Q 23.140625 64.359375 26.78125 53.3125 
Q 30.421875 42.28125 30.421875 31.390625 
Q 30.421875 20.453125 26.78125 9.375 
Q 23.140625 -1.703125 15.828125 -13.1875 
L 8.015625 -13.1875 
Q 14.5 -2 17.703125 9.0625 
Q 20.90625 20.125 20.90625 31.390625 
Q 20.90625 42.671875 17.703125 53.65625 
Q 14.5 64.65625 8.015625 75.875 
z
" id="DejaVuSans-41"/>
     </defs>
     <g transform="translate(18.988438 188.1416)rotate(-90)scale(0.14 -0.14)">
      <use transform="translate(0 0.765625)" xlink:href="#DejaVuSans-67"/>
      <use transform="translate(69.824219 0.765625)" xlink:href="#DejaVuSans-97"/>
      <use transform="translate(131.103516 0.765625)" xlink:href="#DejaVuSans-117"/>
      <use transform="translate(194.482422 0.765625)" xlink:href="#DejaVuSans-100"/>
      <use transform="translate(257.958984 0.765625)" xlink:href="#DejaVuSans-97"/>
      <use transform="translate(319.238281 0.765625)" xlink:href="#DejaVuSans-108"/>
      <use transform="translate(347.021484 0.765625)" xlink:href="#DejaVuSans-32"/>
      <use transform="translate(378.808594 0.765625)" xlink:href="#DejaVuSans-40"/>
      <use transform="translate(417.822266 0.765625)" xlink:href="#DejaVuSans-Oblique-109"/>
      <use transform="translate(519.884271 39.046875)scale(0.7)" xlink:href="#DejaVuSans-51"/>
      <use transform="translate(567.154779 0.765625)" xlink:href="#DejaVuSans-47"/>
      <use transform="translate(600.846185 0.765625)" xlink:href="#DejaVuSans-Oblique-115"/>
      <use transform="translate(652.945794 0.765625)" xlink:href="#DejaVuSans-41"/>
     </g>
    </g>
   </g>
   <g id="line2d_54">
    <path clip-path="url(#pdc0929bb24)" d="M 55.164375 160.615187 
L 56.140113 175.406933 
L 57.11585 207.703367 
L 58.091588 213.341536 
L 59.067326 197.683202 
L 60.043064 201.62363 
L 61.018801 197.074845 
L 61.994539 209.297608 
L 62.970277 243.792256 
L 63.946014 246.262495 
L 64.921752 239.111746 
L 65.89749 222.8889 
L 66.873227 199.415009 
L 67.848965 171.277232 
L 68.824703 138.964082 
L 69.800441 115.141253 
L 70.776178 104.870438 
L 71.751916 122.376646 
L 72.727654 170.208497 
L 73.703391 227.309991 
L 74.679129 253.035442 
L 75.654867 250.985755 
L 76.630605 248.283683 
L 77.606342 234.088693 
L 78.58208 211.316604 
L 79.557818 195.633423 
L 80.533555 194.881472 
L 81.509293 206.0714 
L 82.485031 207.197682 
L 83.460768 203.052517 
L 84.436506 226.007414 
L 85.412244 252.973601 
L 86.387982 256.438951 
L 87.363719 253.367206 
L 88.339457 251.333687 
L 89.315195 248.952327 
L 90.290932 239.500418 
L 91.26667 237.675805 
L 92.242408 246.211525 
L 93.218145 201.747134 
L 94.193883 169.649467 
L 95.169621 204.253963 
L 96.145359 232.227998 
L 97.121096 248.536343 
L 98.096834 255.411321 
L 99.072572 253.030235 
L 100.048309 253.350582 
L 101.024047 254.046629 
L 102.975523 201.706029 
L 103.95126 203.739 
L 104.926998 205.446601 
L 105.902736 207.811519 
L 106.878473 225.699833 
L 107.854211 241.471184 
L 109.805686 255.40036 
L 110.781424 255.737331 
L 111.757162 255.742903 
L 112.7329 238.884297 
L 113.708637 215.360258 
L 114.684375 201.766317 
L 115.660113 208.057328 
L 116.63585 194.792137 
L 117.611588 178.180162 
L 118.587326 202.606526 
L 120.538801 243.042863 
L 121.514539 259.12997 
L 122.490277 259.820629 
L 123.466014 249.703182 
L 124.441752 235.050554 
L 125.41749 180.383217 
L 126.393227 116.86493 
L 127.368965 103.848289 
L 128.344703 19.2456 
L 129.320441 91.01251 
L 130.296178 254.016877 
L 131.271916 256.759571 
L 133.223391 256.079966 
L 134.199129 256.753908 
L 135.174867 257.102115 
L 136.150605 257.096634 
L 137.126342 239.242735 
L 138.10208 193.101344 
L 139.077818 173.10011 
L 141.029293 213.204519 
L 142.005031 224.108158 
L 143.956506 256.068639 
L 144.932244 256.765052 
L 145.907982 257.090879 
L 146.883719 258.118783 
L 147.859457 258.118783 
L 148.835195 238.237484 
L 149.810932 206.898984 
L 150.78667 197.616885 
L 151.762408 204.391568 
L 152.738145 206.15361 
L 153.713883 209.134444 
L 155.665359 251.974015 
L 156.641096 248.65911 
L 157.616834 249.221612 
L 158.592572 256.085446 
L 159.568309 245.96261 
L 160.544047 213.794333 
L 161.519785 189.489568 
L 162.495523 196.206704 
L 163.47126 208.474683 
L 165.422736 222.736811 
L 167.374211 254.698101 
L 168.349949 256.765052 
L 169.325686 183.294195 
L 170.301424 83.331321 
L 171.277162 72.797433 
L 172.2529 164.378503 
L 173.228637 227.64614 
L 174.204375 210.574701 
L 175.180113 213.889605 
L 176.15585 215.684532 
L 177.131588 212.566997 
L 178.107326 225.072956 
L 179.083064 246.137901 
L 180.058801 251.366571 
L 181.034539 250.603477 
L 182.010277 256.74861 
L 182.986014 257.107595 
L 183.961752 226.089533 
L 184.93749 185.820246 
L 186.888965 88.935328 
L 187.864703 154.585787 
L 188.840441 241.331915 
L 189.816178 257.096634 
L 190.791916 257.439177 
L 191.767654 257.102115 
L 192.743391 257.096543 
L 193.719129 258.787427 
L 194.694867 255.775787 
L 196.646342 210.258648 
L 197.62208 203.750327 
L 198.597818 203.076202 
L 199.573555 212.840053 
L 200.549293 230.870109 
L 201.525031 245.825593 
L 202.500768 255.38337 
L 203.476506 256.42799 
L 204.452244 254.389447 
L 206.403719 249.289389 
L 207.379457 227.038149 
L 208.355195 199.716538 
L 209.330932 192.887962 
L 210.30667 193.202737 
L 212.258145 203.052517 
L 214.209621 254.349803 
L 215.185359 255.422283 
L 216.161096 253.35588 
L 217.136834 253.704086 
L 218.112572 253.361543 
L 219.088309 231.121446 
L 220.064047 201.766317 
L 221.039785 194.915453 
L 222.015523 201.656703 
L 222.99126 193.339754 
L 223.966998 177.251772 
L 225.918473 253.698514 
L 226.894211 253.367024 
L 228.845686 254.726235 
L 229.821424 244.603399 
L 230.797162 213.446035 
L 231.7729 197.247487 
L 232.748637 207.788317 
L 233.724375 202.136263 
L 234.700113 191.854487 
L 236.651588 260.1576 
L 239.578801 260.1576 
L 240.554539 259.146412 
L 241.530277 250.366345 
L 243.481752 160.95161 
L 244.45749 150.1351 
L 245.433227 148.641977 
L 247.384703 162.903681 
L 249.336178 245.783939 
L 250.311916 258.118783 
L 251.287654 256.096956 
L 252.263391 254.715274 
L 253.239129 254.726235 
L 254.214867 232.811966 
L 255.190605 195.046989 
L 256.166342 191.072849 
L 257.14208 205.772702 
L 258.117818 213.220961 
L 259.093555 224.089955 
L 260.069293 244.743156 
L 261.045031 260.1576 
L 262.996506 260.1576 
L 263.972244 259.820537 
L 264.947982 216.671056 
L 265.923719 186.983888 
L 266.899457 195.638904 
L 267.875195 192.18004 
L 268.850932 207.044222 
L 269.82667 214.667864 
L 270.802408 214.912244 
L 272.753883 249.918207 
L 273.729621 257.759798 
L 274.705359 260.1576 
L 275.681096 260.1576 
L 276.656834 257.124037 
L 278.608309 201.733432 
L 279.584047 210.787078 
L 280.559785 217.049224 
L 281.535523 196.395239 
L 282.51126 187.721948 
L 283.486998 210.414847 
L 284.462736 236.629084 
L 285.438473 248.587861 
L 286.414211 252.664947 
L 287.389949 255.394879 
L 288.365686 226.418465 
L 289.341424 180.100048 
L 290.317162 179.832591 
L 291.2929 197.285578 
L 292.268637 187.190419 
L 293.244375 178.920056 
L 294.220113 172.233612 
L 295.19585 173.754504 
L 296.171588 204.608329 
L 297.147326 231.21681 
L 298.123064 227.964112 
L 299.098801 238.577379 
L 300.074539 243.641537 
L 301.050277 197.54043 
L 302.026014 181.550787 
L 303.001752 216.48727 
L 303.97749 223.911049 
L 304.953227 212.563278 
L 305.928965 221.028695 
L 306.904703 241.350608 
L 307.880441 254.39511 
L 308.856178 255.378437 
L 309.831916 259.129696 
L 310.807654 260.1576 
L 311.783391 245.32685 
L 312.759129 212.732449 
L 313.734867 195.589578 
L 314.710605 163.588462 
L 315.686342 136.757099 
L 317.637818 178.874938 
L 319.589293 244.81267 
L 320.565031 251.322726 
L 322.516506 259.477994 
L 323.492244 236.894806 
L 324.467982 211.248643 
L 325.443719 206.822254 
L 326.419457 226.675692 
L 327.395195 233.43649 
L 328.370932 200.831859 
L 329.34667 196.327758 
L 330.322408 209.526975 
L 333.249621 209.526975 
L 334.225359 222.503882 
L 335.201096 225.916982 
L 336.176834 208.569864 
L 337.152572 194.627716 
L 338.128309 187.445453 
L 339.104047 187.097247 
L 340.079785 191.147478 
L 341.055523 192.557338 
L 342.03126 205.326026 
L 343.006998 229.838691 
L 343.982736 229.989136 
L 344.958473 219.729556 
L 345.934211 211.960402 
L 347.885686 178.313252 
L 349.837162 148.079293 
L 350.8129 139.54129 
L 351.788637 157.715262 
L 352.764375 178.598848 
L 353.740113 174.902709 
L 354.71585 170.449647 
L 354.71585 170.449647 
" style="fill:none;stroke:#00008b;stroke-linecap:square;stroke-width:1.5;"/>
    <defs>
     <path d="M 0 2 
C 0.530406 2 1.03916 1.789267 1.414214 1.414214 
C 1.789267 1.03916 2 0.530406 2 0 
C 2 -0.530406 1.789267 -1.03916 1.414214 -1.414214 
C 1.03916 -1.789267 0.530406 -2 0 -2 
C -0.530406 -2 -1.03916 -1.789267 -1.414214 -1.414214 
C -1.789267 -1.03916 -2 -0.530406 -2 0 
C -2 0.530406 -1.789267 1.03916 -1.414214 1.414214 
C -1.03916 1.789267 -0.530406 2 0 2 
z
" id="m7e14f3e665" style="stroke:#00008b;"/>
    </defs>
    <g clip-path="url(#pdc0929bb24)">
     <use style="fill:#00008b;stroke:#00008b;" x="55.164375" xlink:href="#m7e14f3e665" y="160.615187"/>
     <use style="fill:#00008b;stroke:#00008b;" x="56.140113" xlink:href="#m7e14f3e665" y="175.406933"/>
     <use style="fill:#00008b;stroke:#00008b;" x="57.11585" xlink:href="#m7e14f3e665" y="207.703367"/>
     <use style="fill:#00008b;stroke:#00008b;" x="58.091588" xlink:href="#m7e14f3e665" y="213.341536"/>
     <use style="fill:#00008b;stroke:#00008b;" x="59.067326" xlink:href="#m7e14f3e665" y="197.683202"/>
     <use style="fill:#00008b;stroke:#00008b;" x="60.043064" xlink:href="#m7e14f3e665" y="201.62363"/>
     <use style="fill:#00008b;stroke:#00008b;" x="61.018801" xlink:href="#m7e14f3e665" y="197.074845"/>
     <use style="fill:#00008b;stroke:#00008b;" x="61.994539" xlink:href="#m7e14f3e665" y="209.297608"/>
     <use style="fill:#00008b;stroke:#00008b;" x="62.970277" xlink:href="#m7e14f3e665" y="243.792256"/>
     <use style="fill:#00008b;stroke:#00008b;" x="63.946014" xlink:href="#m7e14f3e665" y="246.262495"/>
     <use style="fill:#00008b;stroke:#00008b;" x="64.921752" xlink:href="#m7e14f3e665" y="239.111746"/>
     <use style="fill:#00008b;stroke:#00008b;" x="65.89749" xlink:href="#m7e14f3e665" y="222.8889"/>
     <use style="fill:#00008b;stroke:#00008b;" x="66.873227" xlink:href="#m7e14f3e665" y="199.415009"/>
     <use style="fill:#00008b;stroke:#00008b;" x="67.848965" xlink:href="#m7e14f3e665" y="171.277232"/>
     <use style="fill:#00008b;stroke:#00008b;" x="68.824703" xlink:href="#m7e14f3e665" y="138.964082"/>
     <use style="fill:#00008b;stroke:#00008b;" x="69.800441" xlink:href="#m7e14f3e665" y="115.141253"/>
     <use style="fill:#00008b;stroke:#00008b;" x="70.776178" xlink:href="#m7e14f3e665" y="104.870438"/>
     <use style="fill:#00008b;stroke:#00008b;" x="71.751916" xlink:href="#m7e14f3e665" y="122.376646"/>
     <use style="fill:#00008b;stroke:#00008b;" x="72.727654" xlink:href="#m7e14f3e665" y="170.208497"/>
     <use style="fill:#00008b;stroke:#00008b;" x="73.703391" xlink:href="#m7e14f3e665" y="227.309991"/>
     <use style="fill:#00008b;stroke:#00008b;" x="74.679129" xlink:href="#m7e14f3e665" y="253.035442"/>
     <use style="fill:#00008b;stroke:#00008b;" x="75.654867" xlink:href="#m7e14f3e665" y="250.985755"/>
     <use style="fill:#00008b;stroke:#00008b;" x="76.630605" xlink:href="#m7e14f3e665" y="248.283683"/>
     <use style="fill:#00008b;stroke:#00008b;" x="77.606342" xlink:href="#m7e14f3e665" y="234.088693"/>
     <use style="fill:#00008b;stroke:#00008b;" x="78.58208" xlink:href="#m7e14f3e665" y="211.316604"/>
     <use style="fill:#00008b;stroke:#00008b;" x="79.557818" xlink:href="#m7e14f3e665" y="195.633423"/>
     <use style="fill:#00008b;stroke:#00008b;" x="80.533555" xlink:href="#m7e14f3e665" y="194.881472"/>
     <use style="fill:#00008b;stroke:#00008b;" x="81.509293" xlink:href="#m7e14f3e665" y="206.0714"/>
     <use style="fill:#00008b;stroke:#00008b;" x="82.485031" xlink:href="#m7e14f3e665" y="207.197682"/>
     <use style="fill:#00008b;stroke:#00008b;" x="83.460768" xlink:href="#m7e14f3e665" y="203.052517"/>
     <use style="fill:#00008b;stroke:#00008b;" x="84.436506" xlink:href="#m7e14f3e665" y="226.007414"/>
     <use style="fill:#00008b;stroke:#00008b;" x="85.412244" xlink:href="#m7e14f3e665" y="252.973601"/>
     <use style="fill:#00008b;stroke:#00008b;" x="86.387982" xlink:href="#m7e14f3e665" y="256.438951"/>
     <use style="fill:#00008b;stroke:#00008b;" x="87.363719" xlink:href="#m7e14f3e665" y="253.367206"/>
     <use style="fill:#00008b;stroke:#00008b;" x="88.339457" xlink:href="#m7e14f3e665" y="251.333687"/>
     <use style="fill:#00008b;stroke:#00008b;" x="89.315195" xlink:href="#m7e14f3e665" y="248.952327"/>
     <use style="fill:#00008b;stroke:#00008b;" x="90.290932" xlink:href="#m7e14f3e665" y="239.500418"/>
     <use style="fill:#00008b;stroke:#00008b;" x="91.26667" xlink:href="#m7e14f3e665" y="237.675805"/>
     <use style="fill:#00008b;stroke:#00008b;" x="92.242408" xlink:href="#m7e14f3e665" y="246.211525"/>
     <use style="fill:#00008b;stroke:#00008b;" x="93.218145" xlink:href="#m7e14f3e665" y="201.747134"/>
     <use style="fill:#00008b;stroke:#00008b;" x="94.193883" xlink:href="#m7e14f3e665" y="169.649467"/>
     <use style="fill:#00008b;stroke:#00008b;" x="95.169621" xlink:href="#m7e14f3e665" y="204.253963"/>
     <use style="fill:#00008b;stroke:#00008b;" x="96.145359" xlink:href="#m7e14f3e665" y="232.227998"/>
     <use style="fill:#00008b;stroke:#00008b;" x="97.121096" xlink:href="#m7e14f3e665" y="248.536343"/>
     <use style="fill:#00008b;stroke:#00008b;" x="98.096834" xlink:href="#m7e14f3e665" y="255.411321"/>
     <use style="fill:#00008b;stroke:#00008b;" x="99.072572" xlink:href="#m7e14f3e665" y="253.030235"/>
     <use style="fill:#00008b;stroke:#00008b;" x="100.048309" xlink:href="#m7e14f3e665" y="253.350582"/>
     <use style="fill:#00008b;stroke:#00008b;" x="101.024047" xlink:href="#m7e14f3e665" y="254.046629"/>
     <use style="fill:#00008b;stroke:#00008b;" x="101.999785" xlink:href="#m7e14f3e665" y="227.414764"/>
     <use style="fill:#00008b;stroke:#00008b;" x="102.975523" xlink:href="#m7e14f3e665" y="201.706029"/>
     <use style="fill:#00008b;stroke:#00008b;" x="103.95126" xlink:href="#m7e14f3e665" y="203.739"/>
     <use style="fill:#00008b;stroke:#00008b;" x="104.926998" xlink:href="#m7e14f3e665" y="205.446601"/>
     <use style="fill:#00008b;stroke:#00008b;" x="105.902736" xlink:href="#m7e14f3e665" y="207.811519"/>
     <use style="fill:#00008b;stroke:#00008b;" x="106.878473" xlink:href="#m7e14f3e665" y="225.699833"/>
     <use style="fill:#00008b;stroke:#00008b;" x="107.854211" xlink:href="#m7e14f3e665" y="241.471184"/>
     <use style="fill:#00008b;stroke:#00008b;" x="108.829949" xlink:href="#m7e14f3e665" y="248.205035"/>
     <use style="fill:#00008b;stroke:#00008b;" x="109.805686" xlink:href="#m7e14f3e665" y="255.40036"/>
     <use style="fill:#00008b;stroke:#00008b;" x="110.781424" xlink:href="#m7e14f3e665" y="255.737331"/>
     <use style="fill:#00008b;stroke:#00008b;" x="111.757162" xlink:href="#m7e14f3e665" y="255.742903"/>
     <use style="fill:#00008b;stroke:#00008b;" x="112.7329" xlink:href="#m7e14f3e665" y="238.884297"/>
     <use style="fill:#00008b;stroke:#00008b;" x="113.708637" xlink:href="#m7e14f3e665" y="215.360258"/>
     <use style="fill:#00008b;stroke:#00008b;" x="114.684375" xlink:href="#m7e14f3e665" y="201.766317"/>
     <use style="fill:#00008b;stroke:#00008b;" x="115.660113" xlink:href="#m7e14f3e665" y="208.057328"/>
     <use style="fill:#00008b;stroke:#00008b;" x="116.63585" xlink:href="#m7e14f3e665" y="194.792137"/>
     <use style="fill:#00008b;stroke:#00008b;" x="117.611588" xlink:href="#m7e14f3e665" y="178.180162"/>
     <use style="fill:#00008b;stroke:#00008b;" x="118.587326" xlink:href="#m7e14f3e665" y="202.606526"/>
     <use style="fill:#00008b;stroke:#00008b;" x="119.563064" xlink:href="#m7e14f3e665" y="222.392898"/>
     <use style="fill:#00008b;stroke:#00008b;" x="120.538801" xlink:href="#m7e14f3e665" y="243.042863"/>
     <use style="fill:#00008b;stroke:#00008b;" x="121.514539" xlink:href="#m7e14f3e665" y="259.12997"/>
     <use style="fill:#00008b;stroke:#00008b;" x="122.490277" xlink:href="#m7e14f3e665" y="259.820629"/>
     <use style="fill:#00008b;stroke:#00008b;" x="123.466014" xlink:href="#m7e14f3e665" y="249.703182"/>
     <use style="fill:#00008b;stroke:#00008b;" x="124.441752" xlink:href="#m7e14f3e665" y="235.050554"/>
     <use style="fill:#00008b;stroke:#00008b;" x="125.41749" xlink:href="#m7e14f3e665" y="180.383217"/>
     <use style="fill:#00008b;stroke:#00008b;" x="126.393227" xlink:href="#m7e14f3e665" y="116.86493"/>
     <use style="fill:#00008b;stroke:#00008b;" x="127.368965" xlink:href="#m7e14f3e665" y="103.848289"/>
     <use style="fill:#00008b;stroke:#00008b;" x="128.344703" xlink:href="#m7e14f3e665" y="19.2456"/>
     <use style="fill:#00008b;stroke:#00008b;" x="129.320441" xlink:href="#m7e14f3e665" y="91.01251"/>
     <use style="fill:#00008b;stroke:#00008b;" x="130.296178" xlink:href="#m7e14f3e665" y="254.016877"/>
     <use style="fill:#00008b;stroke:#00008b;" x="131.271916" xlink:href="#m7e14f3e665" y="256.759571"/>
     <use style="fill:#00008b;stroke:#00008b;" x="132.247654" xlink:href="#m7e14f3e665" y="256.4226"/>
     <use style="fill:#00008b;stroke:#00008b;" x="133.223391" xlink:href="#m7e14f3e665" y="256.079966"/>
     <use style="fill:#00008b;stroke:#00008b;" x="134.199129" xlink:href="#m7e14f3e665" y="256.753908"/>
     <use style="fill:#00008b;stroke:#00008b;" x="135.174867" xlink:href="#m7e14f3e665" y="257.102115"/>
     <use style="fill:#00008b;stroke:#00008b;" x="136.150605" xlink:href="#m7e14f3e665" y="257.096634"/>
     <use style="fill:#00008b;stroke:#00008b;" x="137.126342" xlink:href="#m7e14f3e665" y="239.242735"/>
     <use style="fill:#00008b;stroke:#00008b;" x="138.10208" xlink:href="#m7e14f3e665" y="193.101344"/>
     <use style="fill:#00008b;stroke:#00008b;" x="139.077818" xlink:href="#m7e14f3e665" y="173.10011"/>
     <use style="fill:#00008b;stroke:#00008b;" x="140.053555" xlink:href="#m7e14f3e665" y="193.457589"/>
     <use style="fill:#00008b;stroke:#00008b;" x="141.029293" xlink:href="#m7e14f3e665" y="213.204519"/>
     <use style="fill:#00008b;stroke:#00008b;" x="142.005031" xlink:href="#m7e14f3e665" y="224.108158"/>
     <use style="fill:#00008b;stroke:#00008b;" x="142.980768" xlink:href="#m7e14f3e665" y="241.019027"/>
     <use style="fill:#00008b;stroke:#00008b;" x="143.956506" xlink:href="#m7e14f3e665" y="256.068639"/>
     <use style="fill:#00008b;stroke:#00008b;" x="144.932244" xlink:href="#m7e14f3e665" y="256.765052"/>
     <use style="fill:#00008b;stroke:#00008b;" x="145.907982" xlink:href="#m7e14f3e665" y="257.090879"/>
     <use style="fill:#00008b;stroke:#00008b;" x="146.883719" xlink:href="#m7e14f3e665" y="258.118783"/>
     <use style="fill:#00008b;stroke:#00008b;" x="147.859457" xlink:href="#m7e14f3e665" y="258.118783"/>
     <use style="fill:#00008b;stroke:#00008b;" x="148.835195" xlink:href="#m7e14f3e665" y="238.237484"/>
     <use style="fill:#00008b;stroke:#00008b;" x="149.810932" xlink:href="#m7e14f3e665" y="206.898984"/>
     <use style="fill:#00008b;stroke:#00008b;" x="150.78667" xlink:href="#m7e14f3e665" y="197.616885"/>
     <use style="fill:#00008b;stroke:#00008b;" x="151.762408" xlink:href="#m7e14f3e665" y="204.391568"/>
     <use style="fill:#00008b;stroke:#00008b;" x="152.738145" xlink:href="#m7e14f3e665" y="206.15361"/>
     <use style="fill:#00008b;stroke:#00008b;" x="153.713883" xlink:href="#m7e14f3e665" y="209.134444"/>
     <use style="fill:#00008b;stroke:#00008b;" x="154.689621" xlink:href="#m7e14f3e665" y="231.819686"/>
     <use style="fill:#00008b;stroke:#00008b;" x="155.665359" xlink:href="#m7e14f3e665" y="251.974015"/>
     <use style="fill:#00008b;stroke:#00008b;" x="156.641096" xlink:href="#m7e14f3e665" y="248.65911"/>
     <use style="fill:#00008b;stroke:#00008b;" x="157.616834" xlink:href="#m7e14f3e665" y="249.221612"/>
     <use style="fill:#00008b;stroke:#00008b;" x="158.592572" xlink:href="#m7e14f3e665" y="256.085446"/>
     <use style="fill:#00008b;stroke:#00008b;" x="159.568309" xlink:href="#m7e14f3e665" y="245.96261"/>
     <use style="fill:#00008b;stroke:#00008b;" x="160.544047" xlink:href="#m7e14f3e665" y="213.794333"/>
     <use style="fill:#00008b;stroke:#00008b;" x="161.519785" xlink:href="#m7e14f3e665" y="189.489568"/>
     <use style="fill:#00008b;stroke:#00008b;" x="162.495523" xlink:href="#m7e14f3e665" y="196.206704"/>
     <use style="fill:#00008b;stroke:#00008b;" x="163.47126" xlink:href="#m7e14f3e665" y="208.474683"/>
     <use style="fill:#00008b;stroke:#00008b;" x="164.446998" xlink:href="#m7e14f3e665" y="215.281701"/>
     <use style="fill:#00008b;stroke:#00008b;" x="165.422736" xlink:href="#m7e14f3e665" y="222.736811"/>
     <use style="fill:#00008b;stroke:#00008b;" x="166.398473" xlink:href="#m7e14f3e665" y="239.670777"/>
     <use style="fill:#00008b;stroke:#00008b;" x="167.374211" xlink:href="#m7e14f3e665" y="254.698101"/>
     <use style="fill:#00008b;stroke:#00008b;" x="168.349949" xlink:href="#m7e14f3e665" y="256.765052"/>
     <use style="fill:#00008b;stroke:#00008b;" x="169.325686" xlink:href="#m7e14f3e665" y="183.294195"/>
     <use style="fill:#00008b;stroke:#00008b;" x="170.301424" xlink:href="#m7e14f3e665" y="83.331321"/>
     <use style="fill:#00008b;stroke:#00008b;" x="171.277162" xlink:href="#m7e14f3e665" y="72.797433"/>
     <use style="fill:#00008b;stroke:#00008b;" x="172.2529" xlink:href="#m7e14f3e665" y="164.378503"/>
     <use style="fill:#00008b;stroke:#00008b;" x="173.228637" xlink:href="#m7e14f3e665" y="227.64614"/>
     <use style="fill:#00008b;stroke:#00008b;" x="174.204375" xlink:href="#m7e14f3e665" y="210.574701"/>
     <use style="fill:#00008b;stroke:#00008b;" x="175.180113" xlink:href="#m7e14f3e665" y="213.889605"/>
     <use style="fill:#00008b;stroke:#00008b;" x="176.15585" xlink:href="#m7e14f3e665" y="215.684532"/>
     <use style="fill:#00008b;stroke:#00008b;" x="177.131588" xlink:href="#m7e14f3e665" y="212.566997"/>
     <use style="fill:#00008b;stroke:#00008b;" x="178.107326" xlink:href="#m7e14f3e665" y="225.072956"/>
     <use style="fill:#00008b;stroke:#00008b;" x="179.083064" xlink:href="#m7e14f3e665" y="246.137901"/>
     <use style="fill:#00008b;stroke:#00008b;" x="180.058801" xlink:href="#m7e14f3e665" y="251.366571"/>
     <use style="fill:#00008b;stroke:#00008b;" x="181.034539" xlink:href="#m7e14f3e665" y="250.603477"/>
     <use style="fill:#00008b;stroke:#00008b;" x="182.010277" xlink:href="#m7e14f3e665" y="256.74861"/>
     <use style="fill:#00008b;stroke:#00008b;" x="182.986014" xlink:href="#m7e14f3e665" y="257.107595"/>
     <use style="fill:#00008b;stroke:#00008b;" x="183.961752" xlink:href="#m7e14f3e665" y="226.089533"/>
     <use style="fill:#00008b;stroke:#00008b;" x="184.93749" xlink:href="#m7e14f3e665" y="185.820246"/>
     <use style="fill:#00008b;stroke:#00008b;" x="185.913227" xlink:href="#m7e14f3e665" y="135.112983"/>
     <use style="fill:#00008b;stroke:#00008b;" x="186.888965" xlink:href="#m7e14f3e665" y="88.935328"/>
     <use style="fill:#00008b;stroke:#00008b;" x="187.864703" xlink:href="#m7e14f3e665" y="154.585787"/>
     <use style="fill:#00008b;stroke:#00008b;" x="188.840441" xlink:href="#m7e14f3e665" y="241.331915"/>
     <use style="fill:#00008b;stroke:#00008b;" x="189.816178" xlink:href="#m7e14f3e665" y="257.096634"/>
     <use style="fill:#00008b;stroke:#00008b;" x="190.791916" xlink:href="#m7e14f3e665" y="257.439177"/>
     <use style="fill:#00008b;stroke:#00008b;" x="191.767654" xlink:href="#m7e14f3e665" y="257.102115"/>
     <use style="fill:#00008b;stroke:#00008b;" x="192.743391" xlink:href="#m7e14f3e665" y="257.096543"/>
     <use style="fill:#00008b;stroke:#00008b;" x="193.719129" xlink:href="#m7e14f3e665" y="258.787427"/>
     <use style="fill:#00008b;stroke:#00008b;" x="194.694867" xlink:href="#m7e14f3e665" y="255.775787"/>
     <use style="fill:#00008b;stroke:#00008b;" x="195.670605" xlink:href="#m7e14f3e665" y="234.137197"/>
     <use style="fill:#00008b;stroke:#00008b;" x="196.646342" xlink:href="#m7e14f3e665" y="210.258648"/>
     <use style="fill:#00008b;stroke:#00008b;" x="197.62208" xlink:href="#m7e14f3e665" y="203.750327"/>
     <use style="fill:#00008b;stroke:#00008b;" x="198.597818" xlink:href="#m7e14f3e665" y="203.076202"/>
     <use style="fill:#00008b;stroke:#00008b;" x="199.573555" xlink:href="#m7e14f3e665" y="212.840053"/>
     <use style="fill:#00008b;stroke:#00008b;" x="200.549293" xlink:href="#m7e14f3e665" y="230.870109"/>
     <use style="fill:#00008b;stroke:#00008b;" x="201.525031" xlink:href="#m7e14f3e665" y="245.825593"/>
     <use style="fill:#00008b;stroke:#00008b;" x="202.500768" xlink:href="#m7e14f3e665" y="255.38337"/>
     <use style="fill:#00008b;stroke:#00008b;" x="203.476506" xlink:href="#m7e14f3e665" y="256.42799"/>
     <use style="fill:#00008b;stroke:#00008b;" x="204.452244" xlink:href="#m7e14f3e665" y="254.389447"/>
     <use style="fill:#00008b;stroke:#00008b;" x="205.427982" xlink:href="#m7e14f3e665" y="251.67623"/>
     <use style="fill:#00008b;stroke:#00008b;" x="206.403719" xlink:href="#m7e14f3e665" y="249.289389"/>
     <use style="fill:#00008b;stroke:#00008b;" x="207.379457" xlink:href="#m7e14f3e665" y="227.038149"/>
     <use style="fill:#00008b;stroke:#00008b;" x="208.355195" xlink:href="#m7e14f3e665" y="199.716538"/>
     <use style="fill:#00008b;stroke:#00008b;" x="209.330932" xlink:href="#m7e14f3e665" y="192.887962"/>
     <use style="fill:#00008b;stroke:#00008b;" x="210.30667" xlink:href="#m7e14f3e665" y="193.202737"/>
     <use style="fill:#00008b;stroke:#00008b;" x="211.282408" xlink:href="#m7e14f3e665" y="197.949015"/>
     <use style="fill:#00008b;stroke:#00008b;" x="212.258145" xlink:href="#m7e14f3e665" y="203.052517"/>
     <use style="fill:#00008b;stroke:#00008b;" x="213.233883" xlink:href="#m7e14f3e665" y="227.692726"/>
     <use style="fill:#00008b;stroke:#00008b;" x="214.209621" xlink:href="#m7e14f3e665" y="254.349803"/>
     <use style="fill:#00008b;stroke:#00008b;" x="215.185359" xlink:href="#m7e14f3e665" y="255.422283"/>
     <use style="fill:#00008b;stroke:#00008b;" x="216.161096" xlink:href="#m7e14f3e665" y="253.35588"/>
     <use style="fill:#00008b;stroke:#00008b;" x="217.136834" xlink:href="#m7e14f3e665" y="253.704086"/>
     <use style="fill:#00008b;stroke:#00008b;" x="218.112572" xlink:href="#m7e14f3e665" y="253.361543"/>
     <use style="fill:#00008b;stroke:#00008b;" x="219.088309" xlink:href="#m7e14f3e665" y="231.121446"/>
     <use style="fill:#00008b;stroke:#00008b;" x="220.064047" xlink:href="#m7e14f3e665" y="201.766317"/>
     <use style="fill:#00008b;stroke:#00008b;" x="221.039785" xlink:href="#m7e14f3e665" y="194.915453"/>
     <use style="fill:#00008b;stroke:#00008b;" x="222.015523" xlink:href="#m7e14f3e665" y="201.656703"/>
     <use style="fill:#00008b;stroke:#00008b;" x="222.99126" xlink:href="#m7e14f3e665" y="193.339754"/>
     <use style="fill:#00008b;stroke:#00008b;" x="223.966998" xlink:href="#m7e14f3e665" y="177.251772"/>
     <use style="fill:#00008b;stroke:#00008b;" x="224.942736" xlink:href="#m7e14f3e665" y="214.654162"/>
     <use style="fill:#00008b;stroke:#00008b;" x="225.918473" xlink:href="#m7e14f3e665" y="253.698514"/>
     <use style="fill:#00008b;stroke:#00008b;" x="226.894211" xlink:href="#m7e14f3e665" y="253.367024"/>
     <use style="fill:#00008b;stroke:#00008b;" x="227.869949" xlink:href="#m7e14f3e665" y="254.029822"/>
     <use style="fill:#00008b;stroke:#00008b;" x="228.845686" xlink:href="#m7e14f3e665" y="254.726235"/>
     <use style="fill:#00008b;stroke:#00008b;" x="229.821424" xlink:href="#m7e14f3e665" y="244.603399"/>
     <use style="fill:#00008b;stroke:#00008b;" x="230.797162" xlink:href="#m7e14f3e665" y="213.446035"/>
     <use style="fill:#00008b;stroke:#00008b;" x="231.7729" xlink:href="#m7e14f3e665" y="197.247487"/>
     <use style="fill:#00008b;stroke:#00008b;" x="232.748637" xlink:href="#m7e14f3e665" y="207.788317"/>
     <use style="fill:#00008b;stroke:#00008b;" x="233.724375" xlink:href="#m7e14f3e665" y="202.136263"/>
     <use style="fill:#00008b;stroke:#00008b;" x="234.700113" xlink:href="#m7e14f3e665" y="191.854487"/>
     <use style="fill:#00008b;stroke:#00008b;" x="235.67585" xlink:href="#m7e14f3e665" y="225.87392"/>
     <use style="fill:#00008b;stroke:#00008b;" x="236.651588" xlink:href="#m7e14f3e665" y="260.1576"/>
     <use style="fill:#00008b;stroke:#00008b;" x="237.627326" xlink:href="#m7e14f3e665" y="260.1576"/>
     <use style="fill:#00008b;stroke:#00008b;" x="238.603064" xlink:href="#m7e14f3e665" y="260.1576"/>
     <use style="fill:#00008b;stroke:#00008b;" x="239.578801" xlink:href="#m7e14f3e665" y="260.1576"/>
     <use style="fill:#00008b;stroke:#00008b;" x="240.554539" xlink:href="#m7e14f3e665" y="259.146412"/>
     <use style="fill:#00008b;stroke:#00008b;" x="241.530277" xlink:href="#m7e14f3e665" y="250.366345"/>
     <use style="fill:#00008b;stroke:#00008b;" x="242.506014" xlink:href="#m7e14f3e665" y="203.062226"/>
     <use style="fill:#00008b;stroke:#00008b;" x="243.481752" xlink:href="#m7e14f3e665" y="160.95161"/>
     <use style="fill:#00008b;stroke:#00008b;" x="244.45749" xlink:href="#m7e14f3e665" y="150.1351"/>
     <use style="fill:#00008b;stroke:#00008b;" x="245.433227" xlink:href="#m7e14f3e665" y="148.641977"/>
     <use style="fill:#00008b;stroke:#00008b;" x="246.408965" xlink:href="#m7e14f3e665" y="155.503803"/>
     <use style="fill:#00008b;stroke:#00008b;" x="247.384703" xlink:href="#m7e14f3e665" y="162.903681"/>
     <use style="fill:#00008b;stroke:#00008b;" x="248.360441" xlink:href="#m7e14f3e665" y="202.139004"/>
     <use style="fill:#00008b;stroke:#00008b;" x="249.336178" xlink:href="#m7e14f3e665" y="245.783939"/>
     <use style="fill:#00008b;stroke:#00008b;" x="250.311916" xlink:href="#m7e14f3e665" y="258.118783"/>
     <use style="fill:#00008b;stroke:#00008b;" x="251.287654" xlink:href="#m7e14f3e665" y="256.096956"/>
     <use style="fill:#00008b;stroke:#00008b;" x="252.263391" xlink:href="#m7e14f3e665" y="254.715274"/>
     <use style="fill:#00008b;stroke:#00008b;" x="253.239129" xlink:href="#m7e14f3e665" y="254.726235"/>
     <use style="fill:#00008b;stroke:#00008b;" x="254.214867" xlink:href="#m7e14f3e665" y="232.811966"/>
     <use style="fill:#00008b;stroke:#00008b;" x="255.190605" xlink:href="#m7e14f3e665" y="195.046989"/>
     <use style="fill:#00008b;stroke:#00008b;" x="256.166342" xlink:href="#m7e14f3e665" y="191.072849"/>
     <use style="fill:#00008b;stroke:#00008b;" x="257.14208" xlink:href="#m7e14f3e665" y="205.772702"/>
     <use style="fill:#00008b;stroke:#00008b;" x="258.117818" xlink:href="#m7e14f3e665" y="213.220961"/>
     <use style="fill:#00008b;stroke:#00008b;" x="259.093555" xlink:href="#m7e14f3e665" y="224.089955"/>
     <use style="fill:#00008b;stroke:#00008b;" x="260.069293" xlink:href="#m7e14f3e665" y="244.743156"/>
     <use style="fill:#00008b;stroke:#00008b;" x="261.045031" xlink:href="#m7e14f3e665" y="260.1576"/>
     <use style="fill:#00008b;stroke:#00008b;" x="262.020768" xlink:href="#m7e14f3e665" y="260.1576"/>
     <use style="fill:#00008b;stroke:#00008b;" x="262.996506" xlink:href="#m7e14f3e665" y="260.1576"/>
     <use style="fill:#00008b;stroke:#00008b;" x="263.972244" xlink:href="#m7e14f3e665" y="259.820537"/>
     <use style="fill:#00008b;stroke:#00008b;" x="264.947982" xlink:href="#m7e14f3e665" y="216.671056"/>
     <use style="fill:#00008b;stroke:#00008b;" x="265.923719" xlink:href="#m7e14f3e665" y="186.983888"/>
     <use style="fill:#00008b;stroke:#00008b;" x="266.899457" xlink:href="#m7e14f3e665" y="195.638904"/>
     <use style="fill:#00008b;stroke:#00008b;" x="267.875195" xlink:href="#m7e14f3e665" y="192.18004"/>
     <use style="fill:#00008b;stroke:#00008b;" x="268.850932" xlink:href="#m7e14f3e665" y="207.044222"/>
     <use style="fill:#00008b;stroke:#00008b;" x="269.82667" xlink:href="#m7e14f3e665" y="214.667864"/>
     <use style="fill:#00008b;stroke:#00008b;" x="270.802408" xlink:href="#m7e14f3e665" y="214.912244"/>
     <use style="fill:#00008b;stroke:#00008b;" x="271.778145" xlink:href="#m7e14f3e665" y="232.537657"/>
     <use style="fill:#00008b;stroke:#00008b;" x="272.753883" xlink:href="#m7e14f3e665" y="249.918207"/>
     <use style="fill:#00008b;stroke:#00008b;" x="273.729621" xlink:href="#m7e14f3e665" y="257.759798"/>
     <use style="fill:#00008b;stroke:#00008b;" x="274.705359" xlink:href="#m7e14f3e665" y="260.1576"/>
     <use style="fill:#00008b;stroke:#00008b;" x="275.681096" xlink:href="#m7e14f3e665" y="260.1576"/>
     <use style="fill:#00008b;stroke:#00008b;" x="276.656834" xlink:href="#m7e14f3e665" y="257.124037"/>
     <use style="fill:#00008b;stroke:#00008b;" x="277.632572" xlink:href="#m7e14f3e665" y="229.442254"/>
     <use style="fill:#00008b;stroke:#00008b;" x="278.608309" xlink:href="#m7e14f3e665" y="201.733432"/>
     <use style="fill:#00008b;stroke:#00008b;" x="279.584047" xlink:href="#m7e14f3e665" y="210.787078"/>
     <use style="fill:#00008b;stroke:#00008b;" x="280.559785" xlink:href="#m7e14f3e665" y="217.049224"/>
     <use style="fill:#00008b;stroke:#00008b;" x="281.535523" xlink:href="#m7e14f3e665" y="196.395239"/>
     <use style="fill:#00008b;stroke:#00008b;" x="282.51126" xlink:href="#m7e14f3e665" y="187.721948"/>
     <use style="fill:#00008b;stroke:#00008b;" x="283.486998" xlink:href="#m7e14f3e665" y="210.414847"/>
     <use style="fill:#00008b;stroke:#00008b;" x="284.462736" xlink:href="#m7e14f3e665" y="236.629084"/>
     <use style="fill:#00008b;stroke:#00008b;" x="285.438473" xlink:href="#m7e14f3e665" y="248.587861"/>
     <use style="fill:#00008b;stroke:#00008b;" x="286.414211" xlink:href="#m7e14f3e665" y="252.664947"/>
     <use style="fill:#00008b;stroke:#00008b;" x="287.389949" xlink:href="#m7e14f3e665" y="255.394879"/>
     <use style="fill:#00008b;stroke:#00008b;" x="288.365686" xlink:href="#m7e14f3e665" y="226.418465"/>
     <use style="fill:#00008b;stroke:#00008b;" x="289.341424" xlink:href="#m7e14f3e665" y="180.100048"/>
     <use style="fill:#00008b;stroke:#00008b;" x="290.317162" xlink:href="#m7e14f3e665" y="179.832591"/>
     <use style="fill:#00008b;stroke:#00008b;" x="291.2929" xlink:href="#m7e14f3e665" y="197.285578"/>
     <use style="fill:#00008b;stroke:#00008b;" x="292.268637" xlink:href="#m7e14f3e665" y="187.190419"/>
     <use style="fill:#00008b;stroke:#00008b;" x="293.244375" xlink:href="#m7e14f3e665" y="178.920056"/>
     <use style="fill:#00008b;stroke:#00008b;" x="294.220113" xlink:href="#m7e14f3e665" y="172.233612"/>
     <use style="fill:#00008b;stroke:#00008b;" x="295.19585" xlink:href="#m7e14f3e665" y="173.754504"/>
     <use style="fill:#00008b;stroke:#00008b;" x="296.171588" xlink:href="#m7e14f3e665" y="204.608329"/>
     <use style="fill:#00008b;stroke:#00008b;" x="297.147326" xlink:href="#m7e14f3e665" y="231.21681"/>
     <use style="fill:#00008b;stroke:#00008b;" x="298.123064" xlink:href="#m7e14f3e665" y="227.964112"/>
     <use style="fill:#00008b;stroke:#00008b;" x="299.098801" xlink:href="#m7e14f3e665" y="238.577379"/>
     <use style="fill:#00008b;stroke:#00008b;" x="300.074539" xlink:href="#m7e14f3e665" y="243.641537"/>
     <use style="fill:#00008b;stroke:#00008b;" x="301.050277" xlink:href="#m7e14f3e665" y="197.54043"/>
     <use style="fill:#00008b;stroke:#00008b;" x="302.026014" xlink:href="#m7e14f3e665" y="181.550787"/>
     <use style="fill:#00008b;stroke:#00008b;" x="303.001752" xlink:href="#m7e14f3e665" y="216.48727"/>
     <use style="fill:#00008b;stroke:#00008b;" x="303.97749" xlink:href="#m7e14f3e665" y="223.911049"/>
     <use style="fill:#00008b;stroke:#00008b;" x="304.953227" xlink:href="#m7e14f3e665" y="212.563278"/>
     <use style="fill:#00008b;stroke:#00008b;" x="305.928965" xlink:href="#m7e14f3e665" y="221.028695"/>
     <use style="fill:#00008b;stroke:#00008b;" x="306.904703" xlink:href="#m7e14f3e665" y="241.350608"/>
     <use style="fill:#00008b;stroke:#00008b;" x="307.880441" xlink:href="#m7e14f3e665" y="254.39511"/>
     <use style="fill:#00008b;stroke:#00008b;" x="308.856178" xlink:href="#m7e14f3e665" y="255.378437"/>
     <use style="fill:#00008b;stroke:#00008b;" x="309.831916" xlink:href="#m7e14f3e665" y="259.129696"/>
     <use style="fill:#00008b;stroke:#00008b;" x="310.807654" xlink:href="#m7e14f3e665" y="260.1576"/>
     <use style="fill:#00008b;stroke:#00008b;" x="311.783391" xlink:href="#m7e14f3e665" y="245.32685"/>
     <use style="fill:#00008b;stroke:#00008b;" x="312.759129" xlink:href="#m7e14f3e665" y="212.732449"/>
     <use style="fill:#00008b;stroke:#00008b;" x="313.734867" xlink:href="#m7e14f3e665" y="195.589578"/>
     <use style="fill:#00008b;stroke:#00008b;" x="314.710605" xlink:href="#m7e14f3e665" y="163.588462"/>
     <use style="fill:#00008b;stroke:#00008b;" x="315.686342" xlink:href="#m7e14f3e665" y="136.757099"/>
     <use style="fill:#00008b;stroke:#00008b;" x="316.66208" xlink:href="#m7e14f3e665" y="157.084982"/>
     <use style="fill:#00008b;stroke:#00008b;" x="317.637818" xlink:href="#m7e14f3e665" y="178.874938"/>
     <use style="fill:#00008b;stroke:#00008b;" x="318.613555" xlink:href="#m7e14f3e665" y="212.376935"/>
     <use style="fill:#00008b;stroke:#00008b;" x="319.589293" xlink:href="#m7e14f3e665" y="244.81267"/>
     <use style="fill:#00008b;stroke:#00008b;" x="320.565031" xlink:href="#m7e14f3e665" y="251.322726"/>
     <use style="fill:#00008b;stroke:#00008b;" x="321.540768" xlink:href="#m7e14f3e665" y="255.36638"/>
     <use style="fill:#00008b;stroke:#00008b;" x="322.516506" xlink:href="#m7e14f3e665" y="259.477994"/>
     <use style="fill:#00008b;stroke:#00008b;" x="323.492244" xlink:href="#m7e14f3e665" y="236.894806"/>
     <use style="fill:#00008b;stroke:#00008b;" x="324.467982" xlink:href="#m7e14f3e665" y="211.248643"/>
     <use style="fill:#00008b;stroke:#00008b;" x="325.443719" xlink:href="#m7e14f3e665" y="206.822254"/>
     <use style="fill:#00008b;stroke:#00008b;" x="326.419457" xlink:href="#m7e14f3e665" y="226.675692"/>
     <use style="fill:#00008b;stroke:#00008b;" x="327.395195" xlink:href="#m7e14f3e665" y="233.43649"/>
     <use style="fill:#00008b;stroke:#00008b;" x="328.370932" xlink:href="#m7e14f3e665" y="200.831859"/>
     <use style="fill:#00008b;stroke:#00008b;" x="329.34667" xlink:href="#m7e14f3e665" y="196.327758"/>
     <use style="fill:#00008b;stroke:#00008b;" x="330.322408" xlink:href="#m7e14f3e665" y="209.526975"/>
     <use style="fill:#00008b;stroke:#00008b;" x="331.298145" xlink:href="#m7e14f3e665" y="209.526975"/>
     <use style="fill:#00008b;stroke:#00008b;" x="332.273883" xlink:href="#m7e14f3e665" y="209.526975"/>
     <use style="fill:#00008b;stroke:#00008b;" x="333.249621" xlink:href="#m7e14f3e665" y="209.526975"/>
     <use style="fill:#00008b;stroke:#00008b;" x="334.225359" xlink:href="#m7e14f3e665" y="222.503882"/>
     <use style="fill:#00008b;stroke:#00008b;" x="335.201096" xlink:href="#m7e14f3e665" y="225.916982"/>
     <use style="fill:#00008b;stroke:#00008b;" x="336.176834" xlink:href="#m7e14f3e665" y="208.569864"/>
     <use style="fill:#00008b;stroke:#00008b;" x="337.152572" xlink:href="#m7e14f3e665" y="194.627716"/>
     <use style="fill:#00008b;stroke:#00008b;" x="338.128309" xlink:href="#m7e14f3e665" y="187.445453"/>
     <use style="fill:#00008b;stroke:#00008b;" x="339.104047" xlink:href="#m7e14f3e665" y="187.097247"/>
     <use style="fill:#00008b;stroke:#00008b;" x="340.079785" xlink:href="#m7e14f3e665" y="191.147478"/>
     <use style="fill:#00008b;stroke:#00008b;" x="341.055523" xlink:href="#m7e14f3e665" y="192.557338"/>
     <use style="fill:#00008b;stroke:#00008b;" x="342.03126" xlink:href="#m7e14f3e665" y="205.326026"/>
     <use style="fill:#00008b;stroke:#00008b;" x="343.006998" xlink:href="#m7e14f3e665" y="229.838691"/>
     <use style="fill:#00008b;stroke:#00008b;" x="343.982736" xlink:href="#m7e14f3e665" y="229.989136"/>
     <use style="fill:#00008b;stroke:#00008b;" x="344.958473" xlink:href="#m7e14f3e665" y="219.729556"/>
     <use style="fill:#00008b;stroke:#00008b;" x="345.934211" xlink:href="#m7e14f3e665" y="211.960402"/>
     <use style="fill:#00008b;stroke:#00008b;" x="346.909949" xlink:href="#m7e14f3e665" y="194.660601"/>
     <use style="fill:#00008b;stroke:#00008b;" x="347.885686" xlink:href="#m7e14f3e665" y="178.313252"/>
     <use style="fill:#00008b;stroke:#00008b;" x="348.861424" xlink:href="#m7e14f3e665" y="163.724839"/>
     <use style="fill:#00008b;stroke:#00008b;" x="349.837162" xlink:href="#m7e14f3e665" y="148.079293"/>
     <use style="fill:#00008b;stroke:#00008b;" x="350.8129" xlink:href="#m7e14f3e665" y="139.54129"/>
     <use style="fill:#00008b;stroke:#00008b;" x="351.788637" xlink:href="#m7e14f3e665" y="157.715262"/>
     <use style="fill:#00008b;stroke:#00008b;" x="352.764375" xlink:href="#m7e14f3e665" y="178.598848"/>
     <use style="fill:#00008b;stroke:#00008b;" x="353.740113" xlink:href="#m7e14f3e665" y="174.902709"/>
     <use style="fill:#00008b;stroke:#00008b;" x="354.71585" xlink:href="#m7e14f3e665" y="170.449647"/>
    </g>
   </g>
   <g id="line2d_55">
    <path clip-path="url(#pdc0929bb24)" d="M 55.164375 145.109947 
L 56.140113 185.313331 
L 57.11585 200.559054 
L 58.091588 222.709762 
L 59.067326 230.719779 
L 60.043064 228.995579 
L 61.018801 229.002535 
L 61.994539 254.041149 
L 65.89749 254.041149 
L 66.873227 175.107803 
L 67.848965 190.769951 
L 68.824703 188.096995 
L 69.800441 181.994167 
L 70.776178 154.438036 
L 71.751916 151.1214 
L 72.727654 153.017981 
L 73.703391 254.041149 
L 77.606342 254.041149 
L 78.58208 174.03474 
L 79.557818 198.309046 
L 80.533555 210.278142 
L 81.509293 228.353329 
L 82.485031 231.718497 
L 83.460768 230.009153 
L 84.436506 228.893248 
L 85.412244 254.041149 
L 89.315195 254.041149 
L 90.290932 210.575766 
L 91.26667 222.776109 
L 92.242408 230.7042 
L 93.218145 241.410608 
L 94.193883 212.797643 
L 96.145359 230.568202 
L 97.121096 254.041149 
L 101.024047 254.041149 
L 101.999785 221.565628 
L 102.975523 224.525659 
L 103.95126 226.784588 
L 104.926998 235.46293 
L 105.902736 233.454465 
L 106.878473 241.256942 
L 107.854211 247.05444 
L 108.829949 254.041149 
L 112.7329 254.041149 
L 113.708637 234.739121 
L 114.684375 236.448394 
L 115.660113 240.594057 
L 116.63585 249.122438 
L 117.611588 228.531836 
L 118.587326 227.106355 
L 119.563064 224.406806 
L 120.538801 254.041149 
L 124.441752 254.041149 
L 125.41749 163.807034 
L 126.393227 143.806991 
L 127.368965 111.370328 
L 128.344703 88.568334 
L 129.320441 84.06861 
L 130.296178 98.00096 
L 131.271916 119.128185 
L 132.247654 254.041149 
L 136.150605 254.041149 
L 137.126342 100.882271 
L 138.10208 124.245984 
L 139.077818 121.154385 
L 140.053555 138.777966 
L 141.029293 145.008785 
L 142.005031 164.252271 
L 142.980768 168.897944 
L 143.956506 254.041149 
L 147.859457 254.041149 
L 148.835195 151.852501 
L 149.810932 172.003169 
L 150.78667 173.146601 
L 151.762408 192.760615 
L 152.738145 201.875557 
L 153.713883 219.995242 
L 154.689621 225.888928 
L 155.665359 254.041149 
L 159.568309 254.041149 
L 160.544047 174.640054 
L 161.519785 195.734789 
L 162.495523 202.884951 
L 163.47126 208.638368 
L 164.446998 203.081497 
L 165.422736 196.550839 
L 166.398473 170.682488 
L 167.374211 254.041149 
L 171.277162 254.041149 
L 172.2529 156.002143 
L 173.228637 182.477069 
L 174.204375 190.701581 
L 175.180113 206.5574 
L 176.15585 209.008548 
L 177.131588 214.834258 
L 178.107326 212.220903 
L 179.083064 254.041149 
L 182.986014 254.041149 
L 183.961752 139.401559 
L 184.93749 145.018296 
L 185.913227 103.24163 
L 186.888965 88.093017 
L 187.864703 84.619121 
L 188.840441 85.559544 
L 189.816178 89.47839 
L 190.791916 254.041149 
L 194.694867 254.041149 
L 195.670605 129.474405 
L 196.646342 165.498003 
L 197.62208 172.237707 
L 198.597818 186.33762 
L 199.573555 182.042933 
L 200.549293 167.621355 
L 201.525031 170.60499 
L 202.500768 254.041149 
L 206.403719 254.041149 
L 207.379457 180.433982 
L 208.355195 201.27482 
L 209.330932 211.654133 
L 210.30667 228.786216 
L 211.282408 224.913607 
L 212.258145 230.234952 
L 213.233883 232.767683 
L 214.209621 254.041149 
L 218.112572 254.041149 
L 219.088309 199.446967 
L 220.064047 211.497259 
L 221.039785 212.342427 
L 222.015523 207.747894 
L 222.99126 170.829685 
L 223.966998 164.026892 
L 224.942736 170.773648 
L 225.918473 254.041149 
L 229.821424 254.041149 
L 230.797162 194.929303 
L 231.7729 213.515563 
L 232.748637 223.597681 
L 233.724375 241.833455 
L 234.700113 235.962779 
L 236.651588 248.324607 
L 237.627326 254.041149 
L 241.530277 254.041149 
L 242.506014 211.409367 
L 243.481752 215.15793 
L 244.45749 204.670316 
L 246.408965 156.867284 
L 247.384703 168.83677 
L 248.360441 178.137486 
L 249.336178 254.041149 
L 253.239129 254.041149 
L 254.214867 181.341666 
L 255.190605 200.763813 
L 256.166342 210.91085 
L 257.14208 231.138508 
L 258.117818 239.652739 
L 259.093555 243.207545 
L 260.069293 243.839317 
L 261.045031 254.041149 
L 264.947982 254.041149 
L 265.923719 217.108591 
L 266.899457 222.123886 
L 267.875195 218.573218 
L 268.850932 223.963992 
L 269.82667 226.819032 
L 270.802408 235.395954 
L 271.778145 237.910153 
L 272.753883 254.041149 
L 276.656834 254.041149 
L 277.632572 229.384911 
L 278.608309 235.602907 
L 279.584047 239.083276 
L 280.559785 246.429081 
L 281.535523 246.195191 
L 282.51126 239.287118 
L 283.486998 228.734351 
L 284.462736 254.041149 
L 288.365686 254.041149 
L 289.341424 217.558204 
L 290.317162 227.191991 
L 291.2929 228.878867 
L 292.268637 231.746222 
L 293.244375 219.381978 
L 294.220113 230.102804 
L 295.19585 225.436293 
L 296.171588 254.041149 
L 300.074539 254.041149 
L 301.050277 215.453329 
L 302.026014 224.517013 
L 303.001752 230.186992 
L 303.97749 238.803562 
L 304.953227 236.897579 
L 305.928965 237.621171 
L 306.904703 241.058474 
L 307.880441 254.041149 
L 311.783391 254.041149 
L 312.759129 171.482152 
L 313.734867 196.57227 
L 314.710605 205.646977 
L 315.686342 221.98316 
L 316.66208 208.68237 
L 317.637818 213.061422 
L 318.613555 216.468656 
L 319.589293 254.041149 
L 323.492244 254.041149 
L 324.467982 214.141879 
L 325.443719 224.679858 
L 326.419457 230.699606 
L 327.395195 242.139048 
L 328.370932 242.67365 
L 329.34667 231.67359 
L 330.322408 225.032776 
L 331.298145 254.041149 
L 335.201096 254.041149 
L 336.176834 196.667897 
L 337.152572 202.575664 
L 338.128309 191.699713 
L 339.104047 208.880523 
L 340.079785 201.913792 
L 341.055523 211.561923 
L 342.03126 216.921006 
L 343.006998 254.041149 
L 346.909949 254.041149 
L 347.885686 184.845494 
L 348.861424 183.117728 
L 349.837162 150.741558 
L 351.788637 100.62172 
L 352.764375 94.423676 
L 353.740113 100.186416 
L 354.71585 254.041149 
L 358.618801 254.041149 
L 359.594539 147.961504 
L 360.570277 149.294368 
L 361.546014 123.634168 
L 363.49749 104.556006 
L 364.473227 130.631555 
L 365.448965 221.059383 
L 366.424703 254.041149 
L 370.327654 254.041149 
L 371.303391 155.452545 
L 372.279129 182.25478 
L 373.254867 186.859031 
L 374.230605 197.582595 
L 375.206342 223.137264 
L 376.18208 222.899014 
L 377.157818 211.980224 
L 378.133555 254.041149 
L 382.036506 254.041149 
L 383.012244 184.25295 
L 383.987982 194.719477 
L 384.963719 199.840391 
L 385.939457 218.576536 
L 386.915195 212.089008 
L 387.890932 214.990001 
L 388.86667 205.967237 
L 389.842408 254.041149 
L 393.745359 254.041149 
L 394.721096 214.275102 
L 395.696834 222.626778 
L 396.672572 227.405152 
L 397.648309 241.217024 
L 398.624047 239.557232 
L 399.599785 244.648857 
L 400.575523 243.67297 
L 401.55126 254.041149 
L 405.454211 254.041149 
L 406.429949 236.503763 
L 407.405686 240.934312 
L 408.381424 243.564388 
L 409.357162 247.501011 
L 410.3329 243.725885 
L 411.308637 244.684749 
L 412.284375 244.396018 
L 412.284375 244.396018 
" style="fill:none;stroke:#4682b4;stroke-linecap:square;stroke-width:1.5;"/>
   </g>
   <g id="patch_3">
    <path d="M 55.164375 272.2032 
L 55.164375 7.2 
" style="fill:none;stroke:#000000;stroke-linecap:square;stroke-linejoin:miter;stroke-width:0.8;"/>
   </g>
   <g id="patch_4">
    <path d="M 412.284375 272.2032 
L 412.284375 7.2 
" style="fill:none;stroke:#000000;stroke-linecap:square;stroke-linejoin:miter;stroke-width:0.8;"/>
   </g>
   <g id="patch_5">
    <path d="M 55.164375 272.2032 
L 412.284375 272.2032 
" style="fill:none;stroke:#000000;stroke-linecap:square;stroke-linejoin:miter;stroke-width:0.8;"/>
   </g>
   <g id="patch_6">
    <path d="M 55.164375 7.2 
L 412.284375 7.2 
" style="fill:none;stroke:#000000;stroke-linecap:square;stroke-linejoin:miter;stroke-width:0.8;"/>
   </g>
   <g id="legend_1">
    <g id="patch_7">
     <path d="M 145.05625 44.55625 
L 405.284375 44.55625 
Q 407.284375 44.55625 407.284375 42.55625 
L 407.284375 14.2 
Q 407.284375 12.2 405.284375 12.2 
L 145.05625 12.2 
Q 143.05625 12.2 143.05625 14.2 
L 143.05625 42.55625 
Q 143.05625 44.55625 145.05625 44.55625 
z
" style="fill:#ffffff;opacity:0.8;stroke:#cccccc;stroke-linejoin:miter;"/>
    </g>
    <g id="line2d_56">
     <path d="M 147.05625 20.298437 
L 167.05625 20.298437 
" style="fill:none;stroke:#00008b;stroke-linecap:square;stroke-width:1.5;"/>
    </g>
    <g id="line2d_57">
     <g>
      <use style="fill:#00008b;stroke:#00008b;" x="157.05625" xlink:href="#m7e14f3e665" y="20.298437"/>
     </g>
    </g>
    <g id="text_16">
     <!-- Caudal de entrega Embalse Lautaro simulado -->
     <defs>
      <path d="M 56.203125 29.59375 
L 56.203125 25.203125 
L 14.890625 25.203125 
Q 15.484375 15.921875 20.484375 11.0625 
Q 25.484375 6.203125 34.421875 6.203125 
Q 39.59375 6.203125 44.453125 7.46875 
Q 49.3125 8.734375 54.109375 11.28125 
L 54.109375 2.78125 
Q 49.265625 0.734375 44.1875 -0.34375 
Q 39.109375 -1.421875 33.890625 -1.421875 
Q 20.796875 -1.421875 13.15625 6.1875 
Q 5.515625 13.8125 5.515625 26.8125 
Q 5.515625 40.234375 12.765625 48.109375 
Q 20.015625 56 32.328125 56 
Q 43.359375 56 49.78125 48.890625 
Q 56.203125 41.796875 56.203125 29.59375 
z
M 47.21875 32.234375 
Q 47.125 39.59375 43.09375 43.984375 
Q 39.0625 48.390625 32.421875 48.390625 
Q 24.90625 48.390625 20.390625 44.140625 
Q 15.875 39.890625 15.1875 32.171875 
z
" id="DejaVuSans-101"/>
      <path d="M 54.890625 33.015625 
L 54.890625 0 
L 45.90625 0 
L 45.90625 32.71875 
Q 45.90625 40.484375 42.875 44.328125 
Q 39.84375 48.1875 33.796875 48.1875 
Q 26.515625 48.1875 22.3125 43.546875 
Q 18.109375 38.921875 18.109375 30.90625 
L 18.109375 0 
L 9.078125 0 
L 9.078125 54.6875 
L 18.109375 54.6875 
L 18.109375 46.1875 
Q 21.34375 51.125 25.703125 53.5625 
Q 30.078125 56 35.796875 56 
Q 45.21875 56 50.046875 50.171875 
Q 54.890625 44.34375 54.890625 33.015625 
z
" id="DejaVuSans-110"/>
      <path d="M 18.3125 70.21875 
L 18.3125 54.6875 
L 36.8125 54.6875 
L 36.8125 47.703125 
L 18.3125 47.703125 
L 18.3125 18.015625 
Q 18.3125 11.328125 20.140625 9.421875 
Q 21.96875 7.515625 27.59375 7.515625 
L 36.8125 7.515625 
L 36.8125 0 
L 27.59375 0 
Q 17.1875 0 13.234375 3.875 
Q 9.28125 7.765625 9.28125 18.015625 
L 9.28125 47.703125 
L 2.6875 47.703125 
L 2.6875 54.6875 
L 9.28125 54.6875 
L 9.28125 70.21875 
z
" id="DejaVuSans-116"/>
      <path d="M 41.109375 46.296875 
Q 39.59375 47.171875 37.8125 47.578125 
Q 36.03125 48 33.890625 48 
Q 26.265625 48 22.1875 43.046875 
Q 18.109375 38.09375 18.109375 28.8125 
L 18.109375 0 
L 9.078125 0 
L 9.078125 54.6875 
L 18.109375 54.6875 
L 18.109375 46.1875 
Q 20.953125 51.171875 25.484375 53.578125 
Q 30.03125 56 36.53125 56 
Q 37.453125 56 38.578125 55.875 
Q 39.703125 55.765625 41.0625 55.515625 
z
" id="DejaVuSans-114"/>
      <path d="M 45.40625 27.984375 
Q 45.40625 37.75 41.375 43.109375 
Q 37.359375 48.484375 30.078125 48.484375 
Q 22.859375 48.484375 18.828125 43.109375 
Q 14.796875 37.75 14.796875 27.984375 
Q 14.796875 18.265625 18.828125 12.890625 
Q 22.859375 7.515625 30.078125 7.515625 
Q 37.359375 7.515625 41.375 12.890625 
Q 45.40625 18.265625 45.40625 27.984375 
z
M 54.390625 6.78125 
Q 54.390625 -7.171875 48.1875 -13.984375 
Q 42 -20.796875 29.203125 -20.796875 
Q 24.46875 -20.796875 20.265625 -20.09375 
Q 16.0625 -19.390625 12.109375 -17.921875 
L 12.109375 -9.1875 
Q 16.0625 -11.328125 19.921875 -12.34375 
Q 23.78125 -13.375 27.78125 -13.375 
Q 36.625 -13.375 41.015625 -8.765625 
Q 45.40625 -4.15625 45.40625 5.171875 
L 45.40625 9.625 
Q 42.625 4.78125 38.28125 2.390625 
Q 33.9375 0 27.875 0 
Q 17.828125 0 11.671875 7.65625 
Q 5.515625 15.328125 5.515625 27.984375 
Q 5.515625 40.671875 11.671875 48.328125 
Q 17.828125 56 27.875 56 
Q 33.9375 56 38.28125 53.609375 
Q 42.625 51.21875 45.40625 46.390625 
L 45.40625 54.6875 
L 54.390625 54.6875 
z
" id="DejaVuSans-103"/>
      <path d="M 9.8125 72.90625 
L 55.90625 72.90625 
L 55.90625 64.59375 
L 19.671875 64.59375 
L 19.671875 43.015625 
L 54.390625 43.015625 
L 54.390625 34.71875 
L 19.671875 34.71875 
L 19.671875 8.296875 
L 56.78125 8.296875 
L 56.78125 0 
L 9.8125 0 
z
" id="DejaVuSans-69"/>
      <path d="M 52 44.1875 
Q 55.375 50.25 60.0625 53.125 
Q 64.75 56 71.09375 56 
Q 79.640625 56 84.28125 50.015625 
Q 88.921875 44.046875 88.921875 33.015625 
L 88.921875 0 
L 79.890625 0 
L 79.890625 32.71875 
Q 79.890625 40.578125 77.09375 44.375 
Q 74.3125 48.1875 68.609375 48.1875 
Q 61.625 48.1875 57.5625 43.546875 
Q 53.515625 38.921875 53.515625 30.90625 
L 53.515625 0 
L 44.484375 0 
L 44.484375 32.71875 
Q 44.484375 40.625 41.703125 44.40625 
Q 38.921875 48.1875 33.109375 48.1875 
Q 26.21875 48.1875 22.15625 43.53125 
Q 18.109375 38.875 18.109375 30.90625 
L 18.109375 0 
L 9.078125 0 
L 9.078125 54.6875 
L 18.109375 54.6875 
L 18.109375 46.1875 
Q 21.1875 51.21875 25.484375 53.609375 
Q 29.78125 56 35.6875 56 
Q 41.65625 56 45.828125 52.96875 
Q 50 49.953125 52 44.1875 
z
" id="DejaVuSans-109"/>
      <path d="M 48.6875 27.296875 
Q 48.6875 37.203125 44.609375 42.84375 
Q 40.53125 48.484375 33.40625 48.484375 
Q 26.265625 48.484375 22.1875 42.84375 
Q 18.109375 37.203125 18.109375 27.296875 
Q 18.109375 17.390625 22.1875 11.75 
Q 26.265625 6.109375 33.40625 6.109375 
Q 40.53125 6.109375 44.609375 11.75 
Q 48.6875 17.390625 48.6875 27.296875 
z
M 18.109375 46.390625 
Q 20.953125 51.265625 25.265625 53.625 
Q 29.59375 56 35.59375 56 
Q 45.5625 56 51.78125 48.09375 
Q 58.015625 40.1875 58.015625 27.296875 
Q 58.015625 14.40625 51.78125 6.484375 
Q 45.5625 -1.421875 35.59375 -1.421875 
Q 29.59375 -1.421875 25.265625 0.953125 
Q 20.953125 3.328125 18.109375 8.203125 
L 18.109375 0 
L 9.078125 0 
L 9.078125 75.984375 
L 18.109375 75.984375 
z
" id="DejaVuSans-98"/>
      <path d="M 44.28125 53.078125 
L 44.28125 44.578125 
Q 40.484375 46.53125 36.375 47.5 
Q 32.28125 48.484375 27.875 48.484375 
Q 21.1875 48.484375 17.84375 46.4375 
Q 14.5 44.390625 14.5 40.28125 
Q 14.5 37.15625 16.890625 35.375 
Q 19.28125 33.59375 26.515625 31.984375 
L 29.59375 31.296875 
Q 39.15625 29.25 43.1875 25.515625 
Q 47.21875 21.78125 47.21875 15.09375 
Q 47.21875 7.46875 41.1875 3.015625 
Q 35.15625 -1.421875 24.609375 -1.421875 
Q 20.21875 -1.421875 15.453125 -0.5625 
Q 10.6875 0.296875 5.421875 2 
L 5.421875 11.28125 
Q 10.40625 8.6875 15.234375 7.390625 
Q 20.0625 6.109375 24.8125 6.109375 
Q 31.15625 6.109375 34.5625 8.28125 
Q 37.984375 10.453125 37.984375 14.40625 
Q 37.984375 18.0625 35.515625 20.015625 
Q 33.0625 21.96875 24.703125 23.78125 
L 21.578125 24.515625 
Q 13.234375 26.265625 9.515625 29.90625 
Q 5.8125 33.546875 5.8125 39.890625 
Q 5.8125 47.609375 11.28125 51.796875 
Q 16.75 56 26.8125 56 
Q 31.78125 56 36.171875 55.265625 
Q 40.578125 54.546875 44.28125 53.078125 
z
" id="DejaVuSans-115"/>
      <path d="M 9.8125 72.90625 
L 19.671875 72.90625 
L 19.671875 8.296875 
L 55.171875 8.296875 
L 55.171875 0 
L 9.8125 0 
z
" id="DejaVuSans-76"/>
      <path d="M 30.609375 48.390625 
Q 23.390625 48.390625 19.1875 42.75 
Q 14.984375 37.109375 14.984375 27.296875 
Q 14.984375 17.484375 19.15625 11.84375 
Q 23.34375 6.203125 30.609375 6.203125 
Q 37.796875 6.203125 41.984375 11.859375 
Q 46.1875 17.53125 46.1875 27.296875 
Q 46.1875 37.015625 41.984375 42.703125 
Q 37.796875 48.390625 30.609375 48.390625 
z
M 30.609375 56 
Q 42.328125 56 49.015625 48.375 
Q 55.71875 40.765625 55.71875 27.296875 
Q 55.71875 13.875 49.015625 6.21875 
Q 42.328125 -1.421875 30.609375 -1.421875 
Q 18.84375 -1.421875 12.171875 6.21875 
Q 5.515625 13.875 5.515625 27.296875 
Q 5.515625 40.765625 12.171875 48.375 
Q 18.84375 56 30.609375 56 
z
" id="DejaVuSans-111"/>
      <path d="M 9.421875 54.6875 
L 18.40625 54.6875 
L 18.40625 0 
L 9.421875 0 
z
M 9.421875 75.984375 
L 18.40625 75.984375 
L 18.40625 64.59375 
L 9.421875 64.59375 
z
" id="DejaVuSans-105"/>
     </defs>
     <g transform="translate(175.05625 23.798437)scale(0.1 -0.1)">
      <use xlink:href="#DejaVuSans-67"/>
      <use x="69.824219" xlink:href="#DejaVuSans-97"/>
      <use x="131.103516" xlink:href="#DejaVuSans-117"/>
      <use x="194.482422" xlink:href="#DejaVuSans-100"/>
      <use x="257.958984" xlink:href="#DejaVuSans-97"/>
      <use x="319.238281" xlink:href="#DejaVuSans-108"/>
      <use x="347.021484" xlink:href="#DejaVuSans-32"/>
      <use x="378.808594" xlink:href="#DejaVuSans-100"/>
      <use x="442.285156" xlink:href="#DejaVuSans-101"/>
      <use x="503.808594" xlink:href="#DejaVuSans-32"/>
      <use x="535.595703" xlink:href="#DejaVuSans-101"/>
      <use x="597.119141" xlink:href="#DejaVuSans-110"/>
      <use x="660.498047" xlink:href="#DejaVuSans-116"/>
      <use x="699.707031" xlink:href="#DejaVuSans-114"/>
      <use x="738.570312" xlink:href="#DejaVuSans-101"/>
      <use x="800.09375" xlink:href="#DejaVuSans-103"/>
      <use x="863.570312" xlink:href="#DejaVuSans-97"/>
      <use x="924.849609" xlink:href="#DejaVuSans-32"/>
      <use x="956.636719" xlink:href="#DejaVuSans-69"/>
      <use x="1019.820312" xlink:href="#DejaVuSans-109"/>
      <use x="1117.232422" xlink:href="#DejaVuSans-98"/>
      <use x="1180.708984" xlink:href="#DejaVuSans-97"/>
      <use x="1241.988281" xlink:href="#DejaVuSans-108"/>
      <use x="1269.771484" xlink:href="#DejaVuSans-115"/>
      <use x="1321.871094" xlink:href="#DejaVuSans-101"/>
      <use x="1383.394531" xlink:href="#DejaVuSans-32"/>
      <use x="1415.181641" xlink:href="#DejaVuSans-76"/>
      <use x="1470.894531" xlink:href="#DejaVuSans-97"/>
      <use x="1532.173828" xlink:href="#DejaVuSans-117"/>
      <use x="1595.552734" xlink:href="#DejaVuSans-116"/>
      <use x="1634.761719" xlink:href="#DejaVuSans-97"/>
      <use x="1696.041016" xlink:href="#DejaVuSans-114"/>
      <use x="1734.904297" xlink:href="#DejaVuSans-111"/>
      <use x="1796.085938" xlink:href="#DejaVuSans-32"/>
      <use x="1827.873047" xlink:href="#DejaVuSans-115"/>
      <use x="1879.972656" xlink:href="#DejaVuSans-105"/>
      <use x="1907.755859" xlink:href="#DejaVuSans-109"/>
      <use x="2005.167969" xlink:href="#DejaVuSans-117"/>
      <use x="2068.546875" xlink:href="#DejaVuSans-108"/>
      <use x="2096.330078" xlink:href="#DejaVuSans-97"/>
      <use x="2157.609375" xlink:href="#DejaVuSans-100"/>
      <use x="2221.085938" xlink:href="#DejaVuSans-111"/>
     </g>
    </g>
    <g id="line2d_58">
     <path d="M 147.05625 34.976562 
L 167.05625 34.976562 
" style="fill:none;stroke:#4682b4;stroke-linecap:square;stroke-width:1.5;"/>
    </g>
    <g id="line2d_59"/>
    <g id="text_17">
     <!-- Caudal de entrega Embalse observado -->
     <defs>
      <path d="M 2.984375 54.6875 
L 12.5 54.6875 
L 29.59375 8.796875 
L 46.6875 54.6875 
L 56.203125 54.6875 
L 35.6875 0 
L 23.484375 0 
z
" id="DejaVuSans-118"/>
     </defs>
     <g transform="translate(175.05625 38.476562)scale(0.1 -0.1)">
      <use xlink:href="#DejaVuSans-67"/>
      <use x="69.824219" xlink:href="#DejaVuSans-97"/>
      <use x="131.103516" xlink:href="#DejaVuSans-117"/>
      <use x="194.482422" xlink:href="#DejaVuSans-100"/>
      <use x="257.958984" xlink:href="#DejaVuSans-97"/>
      <use x="319.238281" xlink:href="#DejaVuSans-108"/>
      <use x="347.021484" xlink:href="#DejaVuSans-32"/>
      <use x="378.808594" xlink:href="#DejaVuSans-100"/>
      <use x="442.285156" xlink:href="#DejaVuSans-101"/>
      <use x="503.808594" xlink:href="#DejaVuSans-32"/>
      <use x="535.595703" xlink:href="#DejaVuSans-101"/>
      <use x="597.119141" xlink:href="#DejaVuSans-110"/>
      <use x="660.498047" xlink:href="#DejaVuSans-116"/>
      <use x="699.707031" xlink:href="#DejaVuSans-114"/>
      <use x="738.570312" xlink:href="#DejaVuSans-101"/>
      <use x="800.09375" xlink:href="#DejaVuSans-103"/>
      <use x="863.570312" xlink:href="#DejaVuSans-97"/>
      <use x="924.849609" xlink:href="#DejaVuSans-32"/>
      <use x="956.636719" xlink:href="#DejaVuSans-69"/>
      <use x="1019.820312" xlink:href="#DejaVuSans-109"/>
      <use x="1117.232422" xlink:href="#DejaVuSans-98"/>
      <use x="1180.708984" xlink:href="#DejaVuSans-97"/>
      <use x="1241.988281" xlink:href="#DejaVuSans-108"/>
      <use x="1269.771484" xlink:href="#DejaVuSans-115"/>
      <use x="1321.871094" xlink:href="#DejaVuSans-101"/>
      <use x="1383.394531" xlink:href="#DejaVuSans-32"/>
      <use x="1415.181641" xlink:href="#DejaVuSans-111"/>
      <use x="1476.363281" xlink:href="#DejaVuSans-98"/>
      <use x="1539.839844" xlink:href="#DejaVuSans-115"/>
      <use x="1591.939453" xlink:href="#DejaVuSans-101"/>
      <use x="1653.462891" xlink:href="#DejaVuSans-114"/>
      <use x="1694.576172" xlink:href="#DejaVuSans-118"/>
      <use x="1753.755859" xlink:href="#DejaVuSans-97"/>
      <use x="1815.035156" xlink:href="#DejaVuSans-100"/>
      <use x="1878.511719" xlink:href="#DejaVuSans-111"/>
     </g>
    </g>
   </g>
  </g>
 </g>
 <defs>
  <clipPath id="pdc0929bb24">
   <rect height="265.0032" width="357.12" x="55.164375" y="7.2"/>
  </clipPath>
 </defs>
</svg>
