<?xml version="1.0" encoding="utf-8" standalone="no"?>
<!DOCTYPE svg PUBLIC "-//W3C//DTD SVG 1.1//EN"
  "http://www.w3.org/Graphics/SVG/1.1/DTD/svg11.dtd">
<!-- Created with matplotlib (https://matplotlib.org/) -->
<svg height="518.212603pt" version="1.1" viewBox="0 0 1140.599375 518.212603" width="1140.599375pt" xmlns="http://www.w3.org/2000/svg" xmlns:xlink="http://www.w3.org/1999/xlink">
 <defs>
  <style type="text/css">
*{stroke-linecap:butt;stroke-linejoin:round;}
  </style>
 </defs>
 <g id="figure_1">
  <g id="patch_1">
   <path d="M 0 518.212603 
L 1140.599375 518.212603 
L 1140.599375 0 
L 0 0 
z
" style="fill:#ffffff;"/>
  </g>
  <g id="axes_1">
   <g id="patch_2">
    <path d="M 62.039375 478.6848 
L 1133.399375 478.6848 
L 1133.399375 7.2 
L 62.039375 7.2 
z
" style="fill:#ffffff;"/>
   </g>
   <g id="matplotlib.axis_1">
    <g id="xtick_1">
     <g id="line2d_1">
      <path clip-path="url(#pe5bae9c13c)" d="M 77.275223 478.6848 
L 77.275223 7.2 
" style="fill:none;stroke:#b0b0b0;stroke-linecap:square;stroke-width:0.8;"/>
     </g>
     <g id="line2d_2">
      <defs>
       <path d="M 0 0 
L 0 3.5 
" id="mad6048c164" style="stroke:#000000;stroke-width:0.8;"/>
      </defs>
      <g>
       <use style="stroke:#000000;stroke-width:0.8;" x="77.275223" xlink:href="#mad6048c164" y="478.6848"/>
      </g>
     </g>
     <g id="text_1">
      <!-- 1992 -->
      <defs>
       <path d="M 12.40625 8.296875 
L 28.515625 8.296875 
L 28.515625 63.921875 
L 10.984375 60.40625 
L 10.984375 69.390625 
L 28.421875 72.90625 
L 38.28125 72.90625 
L 38.28125 8.296875 
L 54.390625 8.296875 
L 54.390625 0 
L 12.40625 0 
z
" id="DejaVuSans-49"/>
       <path d="M 10.984375 1.515625 
L 10.984375 10.5 
Q 14.703125 8.734375 18.5 7.8125 
Q 22.3125 6.890625 25.984375 6.890625 
Q 35.75 6.890625 40.890625 13.453125 
Q 46.046875 20.015625 46.78125 33.40625 
Q 43.953125 29.203125 39.59375 26.953125 
Q 35.25 24.703125 29.984375 24.703125 
Q 19.046875 24.703125 12.671875 31.3125 
Q 6.296875 37.9375 6.296875 49.421875 
Q 6.296875 60.640625 12.9375 67.421875 
Q 19.578125 74.21875 30.609375 74.21875 
Q 43.265625 74.21875 49.921875 64.515625 
Q 56.59375 54.828125 56.59375 36.375 
Q 56.59375 19.140625 48.40625 8.859375 
Q 40.234375 -1.421875 26.421875 -1.421875 
Q 22.703125 -1.421875 18.890625 -0.6875 
Q 15.09375 0.046875 10.984375 1.515625 
z
M 30.609375 32.421875 
Q 37.25 32.421875 41.125 36.953125 
Q 45.015625 41.5 45.015625 49.421875 
Q 45.015625 57.28125 41.125 61.84375 
Q 37.25 66.40625 30.609375 66.40625 
Q 23.96875 66.40625 20.09375 61.84375 
Q 16.21875 57.28125 16.21875 49.421875 
Q 16.21875 41.5 20.09375 36.953125 
Q 23.96875 32.421875 30.609375 32.421875 
z
" id="DejaVuSans-57"/>
       <path d="M 19.1875 8.296875 
L 53.609375 8.296875 
L 53.609375 0 
L 7.328125 0 
L 7.328125 8.296875 
Q 12.9375 14.109375 22.625 23.890625 
Q 32.328125 33.6875 34.8125 36.53125 
Q 39.546875 41.84375 41.421875 45.53125 
Q 43.3125 49.21875 43.3125 52.78125 
Q 43.3125 58.59375 39.234375 62.25 
Q 35.15625 65.921875 28.609375 65.921875 
Q 23.96875 65.921875 18.8125 64.3125 
Q 13.671875 62.703125 7.8125 59.421875 
L 7.8125 69.390625 
Q 13.765625 71.78125 18.9375 73 
Q 24.125 74.21875 28.421875 74.21875 
Q 39.75 74.21875 46.484375 68.546875 
Q 53.21875 62.890625 53.21875 53.421875 
Q 53.21875 48.921875 51.53125 44.890625 
Q 49.859375 40.875 45.40625 35.40625 
Q 44.1875 33.984375 37.640625 27.21875 
Q 31.109375 20.453125 19.1875 8.296875 
z
" id="DejaVuSans-50"/>
      </defs>
      <g transform="translate(49.578994 508.851328)rotate(-30)scale(0.12 -0.12)">
       <use xlink:href="#DejaVuSans-49"/>
       <use x="63.623047" xlink:href="#DejaVuSans-57"/>
       <use x="127.246094" xlink:href="#DejaVuSans-57"/>
       <use x="190.869141" xlink:href="#DejaVuSans-50"/>
      </g>
     </g>
    </g>
    <g id="xtick_2">
     <g id="line2d_3">
      <path clip-path="url(#pe5bae9c13c)" d="M 210.486313 478.6848 
L 210.486313 7.2 
" style="fill:none;stroke:#b0b0b0;stroke-linecap:square;stroke-width:0.8;"/>
     </g>
     <g id="line2d_4">
      <g>
       <use style="stroke:#000000;stroke-width:0.8;" x="210.486313" xlink:href="#mad6048c164" y="478.6848"/>
      </g>
     </g>
     <g id="text_2">
      <!-- 1996 -->
      <defs>
       <path d="M 33.015625 40.375 
Q 26.375 40.375 22.484375 35.828125 
Q 18.609375 31.296875 18.609375 23.390625 
Q 18.609375 15.53125 22.484375 10.953125 
Q 26.375 6.390625 33.015625 6.390625 
Q 39.65625 6.390625 43.53125 10.953125 
Q 47.40625 15.53125 47.40625 23.390625 
Q 47.40625 31.296875 43.53125 35.828125 
Q 39.65625 40.375 33.015625 40.375 
z
M 52.59375 71.296875 
L 52.59375 62.3125 
Q 48.875 64.0625 45.09375 64.984375 
Q 41.3125 65.921875 37.59375 65.921875 
Q 27.828125 65.921875 22.671875 59.328125 
Q 17.53125 52.734375 16.796875 39.40625 
Q 19.671875 43.65625 24.015625 45.921875 
Q 28.375 48.1875 33.59375 48.1875 
Q 44.578125 48.1875 50.953125 41.515625 
Q 57.328125 34.859375 57.328125 23.390625 
Q 57.328125 12.15625 50.6875 5.359375 
Q 44.046875 -1.421875 33.015625 -1.421875 
Q 20.359375 -1.421875 13.671875 8.265625 
Q 6.984375 17.96875 6.984375 36.375 
Q 6.984375 53.65625 15.1875 63.9375 
Q 23.390625 74.21875 37.203125 74.21875 
Q 40.921875 74.21875 44.703125 73.484375 
Q 48.484375 72.75 52.59375 71.296875 
z
" id="DejaVuSans-54"/>
      </defs>
      <g transform="translate(182.790085 508.851328)rotate(-30)scale(0.12 -0.12)">
       <use xlink:href="#DejaVuSans-49"/>
       <use x="63.623047" xlink:href="#DejaVuSans-57"/>
       <use x="127.246094" xlink:href="#DejaVuSans-57"/>
       <use x="190.869141" xlink:href="#DejaVuSans-54"/>
      </g>
     </g>
    </g>
    <g id="xtick_3">
     <g id="line2d_5">
      <path clip-path="url(#pe5bae9c13c)" d="M 343.697404 478.6848 
L 343.697404 7.2 
" style="fill:none;stroke:#b0b0b0;stroke-linecap:square;stroke-width:0.8;"/>
     </g>
     <g id="line2d_6">
      <g>
       <use style="stroke:#000000;stroke-width:0.8;" x="343.697404" xlink:href="#mad6048c164" y="478.6848"/>
      </g>
     </g>
     <g id="text_3">
      <!-- 2000 -->
      <defs>
       <path d="M 31.78125 66.40625 
Q 24.171875 66.40625 20.328125 58.90625 
Q 16.5 51.421875 16.5 36.375 
Q 16.5 21.390625 20.328125 13.890625 
Q 24.171875 6.390625 31.78125 6.390625 
Q 39.453125 6.390625 43.28125 13.890625 
Q 47.125 21.390625 47.125 36.375 
Q 47.125 51.421875 43.28125 58.90625 
Q 39.453125 66.40625 31.78125 66.40625 
z
M 31.78125 74.21875 
Q 44.046875 74.21875 50.515625 64.515625 
Q 56.984375 54.828125 56.984375 36.375 
Q 56.984375 17.96875 50.515625 8.265625 
Q 44.046875 -1.421875 31.78125 -1.421875 
Q 19.53125 -1.421875 13.0625 8.265625 
Q 6.59375 17.96875 6.59375 36.375 
Q 6.59375 54.828125 13.0625 64.515625 
Q 19.53125 74.21875 31.78125 74.21875 
z
" id="DejaVuSans-48"/>
      </defs>
      <g transform="translate(316.001176 508.851328)rotate(-30)scale(0.12 -0.12)">
       <use xlink:href="#DejaVuSans-50"/>
       <use x="63.623047" xlink:href="#DejaVuSans-48"/>
       <use x="127.246094" xlink:href="#DejaVuSans-48"/>
       <use x="190.869141" xlink:href="#DejaVuSans-48"/>
      </g>
     </g>
    </g>
    <g id="xtick_4">
     <g id="line2d_7">
      <path clip-path="url(#pe5bae9c13c)" d="M 476.908495 478.6848 
L 476.908495 7.2 
" style="fill:none;stroke:#b0b0b0;stroke-linecap:square;stroke-width:0.8;"/>
     </g>
     <g id="line2d_8">
      <g>
       <use style="stroke:#000000;stroke-width:0.8;" x="476.908495" xlink:href="#mad6048c164" y="478.6848"/>
      </g>
     </g>
     <g id="text_4">
      <!-- 2004 -->
      <defs>
       <path d="M 37.796875 64.3125 
L 12.890625 25.390625 
L 37.796875 25.390625 
z
M 35.203125 72.90625 
L 47.609375 72.90625 
L 47.609375 25.390625 
L 58.015625 25.390625 
L 58.015625 17.1875 
L 47.609375 17.1875 
L 47.609375 0 
L 37.796875 0 
L 37.796875 17.1875 
L 4.890625 17.1875 
L 4.890625 26.703125 
z
" id="DejaVuSans-52"/>
      </defs>
      <g transform="translate(449.212267 508.851328)rotate(-30)scale(0.12 -0.12)">
       <use xlink:href="#DejaVuSans-50"/>
       <use x="63.623047" xlink:href="#DejaVuSans-48"/>
       <use x="127.246094" xlink:href="#DejaVuSans-48"/>
       <use x="190.869141" xlink:href="#DejaVuSans-52"/>
      </g>
     </g>
    </g>
    <g id="xtick_5">
     <g id="line2d_9">
      <path clip-path="url(#pe5bae9c13c)" d="M 610.119586 478.6848 
L 610.119586 7.2 
" style="fill:none;stroke:#b0b0b0;stroke-linecap:square;stroke-width:0.8;"/>
     </g>
     <g id="line2d_10">
      <g>
       <use style="stroke:#000000;stroke-width:0.8;" x="610.119586" xlink:href="#mad6048c164" y="478.6848"/>
      </g>
     </g>
     <g id="text_5">
      <!-- 2008 -->
      <defs>
       <path d="M 31.78125 34.625 
Q 24.75 34.625 20.71875 30.859375 
Q 16.703125 27.09375 16.703125 20.515625 
Q 16.703125 13.921875 20.71875 10.15625 
Q 24.75 6.390625 31.78125 6.390625 
Q 38.8125 6.390625 42.859375 10.171875 
Q 46.921875 13.96875 46.921875 20.515625 
Q 46.921875 27.09375 42.890625 30.859375 
Q 38.875 34.625 31.78125 34.625 
z
M 21.921875 38.8125 
Q 15.578125 40.375 12.03125 44.71875 
Q 8.5 49.078125 8.5 55.328125 
Q 8.5 64.0625 14.71875 69.140625 
Q 20.953125 74.21875 31.78125 74.21875 
Q 42.671875 74.21875 48.875 69.140625 
Q 55.078125 64.0625 55.078125 55.328125 
Q 55.078125 49.078125 51.53125 44.71875 
Q 48 40.375 41.703125 38.8125 
Q 48.828125 37.15625 52.796875 32.3125 
Q 56.78125 27.484375 56.78125 20.515625 
Q 56.78125 9.90625 50.3125 4.234375 
Q 43.84375 -1.421875 31.78125 -1.421875 
Q 19.734375 -1.421875 13.25 4.234375 
Q 6.78125 9.90625 6.78125 20.515625 
Q 6.78125 27.484375 10.78125 32.3125 
Q 14.796875 37.15625 21.921875 38.8125 
z
M 18.3125 54.390625 
Q 18.3125 48.734375 21.84375 45.5625 
Q 25.390625 42.390625 31.78125 42.390625 
Q 38.140625 42.390625 41.71875 45.5625 
Q 45.3125 48.734375 45.3125 54.390625 
Q 45.3125 60.0625 41.71875 63.234375 
Q 38.140625 66.40625 31.78125 66.40625 
Q 25.390625 66.40625 21.84375 63.234375 
Q 18.3125 60.0625 18.3125 54.390625 
z
" id="DejaVuSans-56"/>
      </defs>
      <g transform="translate(582.423358 508.851328)rotate(-30)scale(0.12 -0.12)">
       <use xlink:href="#DejaVuSans-50"/>
       <use x="63.623047" xlink:href="#DejaVuSans-48"/>
       <use x="127.246094" xlink:href="#DejaVuSans-48"/>
       <use x="190.869141" xlink:href="#DejaVuSans-56"/>
      </g>
     </g>
    </g>
    <g id="xtick_6">
     <g id="line2d_11">
      <path clip-path="url(#pe5bae9c13c)" d="M 743.330677 478.6848 
L 743.330677 7.2 
" style="fill:none;stroke:#b0b0b0;stroke-linecap:square;stroke-width:0.8;"/>
     </g>
     <g id="line2d_12">
      <g>
       <use style="stroke:#000000;stroke-width:0.8;" x="743.330677" xlink:href="#mad6048c164" y="478.6848"/>
      </g>
     </g>
     <g id="text_6">
      <!-- 2012 -->
      <g transform="translate(715.634449 508.851328)rotate(-30)scale(0.12 -0.12)">
       <use xlink:href="#DejaVuSans-50"/>
       <use x="63.623047" xlink:href="#DejaVuSans-48"/>
       <use x="127.246094" xlink:href="#DejaVuSans-49"/>
       <use x="190.869141" xlink:href="#DejaVuSans-50"/>
      </g>
     </g>
    </g>
    <g id="xtick_7">
     <g id="line2d_13">
      <path clip-path="url(#pe5bae9c13c)" d="M 876.541768 478.6848 
L 876.541768 7.2 
" style="fill:none;stroke:#b0b0b0;stroke-linecap:square;stroke-width:0.8;"/>
     </g>
     <g id="line2d_14">
      <g>
       <use style="stroke:#000000;stroke-width:0.8;" x="876.541768" xlink:href="#mad6048c164" y="478.6848"/>
      </g>
     </g>
     <g id="text_7">
      <!-- 2016 -->
      <g transform="translate(848.845539 508.851328)rotate(-30)scale(0.12 -0.12)">
       <use xlink:href="#DejaVuSans-50"/>
       <use x="63.623047" xlink:href="#DejaVuSans-48"/>
       <use x="127.246094" xlink:href="#DejaVuSans-49"/>
       <use x="190.869141" xlink:href="#DejaVuSans-54"/>
      </g>
     </g>
    </g>
    <g id="xtick_8">
     <g id="line2d_15">
      <path clip-path="url(#pe5bae9c13c)" d="M 1009.752859 478.6848 
L 1009.752859 7.2 
" style="fill:none;stroke:#b0b0b0;stroke-linecap:square;stroke-width:0.8;"/>
     </g>
     <g id="line2d_16">
      <g>
       <use style="stroke:#000000;stroke-width:0.8;" x="1009.752859" xlink:href="#mad6048c164" y="478.6848"/>
      </g>
     </g>
     <g id="text_8">
      <!-- 2020 -->
      <g transform="translate(982.05663 508.851328)rotate(-30)scale(0.12 -0.12)">
       <use xlink:href="#DejaVuSans-50"/>
       <use x="63.623047" xlink:href="#DejaVuSans-48"/>
       <use x="127.246094" xlink:href="#DejaVuSans-50"/>
       <use x="190.869141" xlink:href="#DejaVuSans-48"/>
      </g>
     </g>
    </g>
   </g>
   <g id="matplotlib.axis_2">
    <g id="ytick_1">
     <g id="line2d_17">
      <path clip-path="url(#pe5bae9c13c)" d="M 62.039375 426.910262 
L 1133.399375 426.910262 
" style="fill:none;stroke:#b0b0b0;stroke-linecap:square;stroke-width:0.8;"/>
     </g>
     <g id="line2d_18">
      <defs>
       <path d="M 0 0 
L -3.5 0 
" id="mf6aff6ede6" style="stroke:#000000;stroke-width:0.8;"/>
      </defs>
      <g>
       <use style="stroke:#000000;stroke-width:0.8;" x="62.039375" xlink:href="#mf6aff6ede6" y="426.910262"/>
      </g>
     </g>
     <g id="text_9">
      <!-- −5.0 -->
      <defs>
       <path d="M 10.59375 35.5 
L 73.1875 35.5 
L 73.1875 27.203125 
L 10.59375 27.203125 
z
" id="DejaVuSans-8722"/>
       <path d="M 10.796875 72.90625 
L 49.515625 72.90625 
L 49.515625 64.59375 
L 19.828125 64.59375 
L 19.828125 46.734375 
Q 21.96875 47.46875 24.109375 47.828125 
Q 26.265625 48.1875 28.421875 48.1875 
Q 40.625 48.1875 47.75 41.5 
Q 54.890625 34.8125 54.890625 23.390625 
Q 54.890625 11.625 47.5625 5.09375 
Q 40.234375 -1.421875 26.90625 -1.421875 
Q 22.3125 -1.421875 17.546875 -0.640625 
Q 12.796875 0.140625 7.71875 1.703125 
L 7.71875 11.625 
Q 12.109375 9.234375 16.796875 8.0625 
Q 21.484375 6.890625 26.703125 6.890625 
Q 35.15625 6.890625 40.078125 11.328125 
Q 45.015625 15.765625 45.015625 23.390625 
Q 45.015625 31 40.078125 35.4375 
Q 35.15625 39.890625 26.703125 39.890625 
Q 22.75 39.890625 18.8125 39.015625 
Q 14.890625 38.140625 10.796875 36.28125 
z
" id="DejaVuSans-53"/>
       <path d="M 10.6875 12.40625 
L 21 12.40625 
L 21 0 
L 10.6875 0 
z
" id="DejaVuSans-46"/>
      </defs>
      <g transform="translate(25.9 431.469325)scale(0.12 -0.12)">
       <use xlink:href="#DejaVuSans-8722"/>
       <use x="83.789062" xlink:href="#DejaVuSans-53"/>
       <use x="147.412109" xlink:href="#DejaVuSans-46"/>
       <use x="179.199219" xlink:href="#DejaVuSans-48"/>
      </g>
     </g>
    </g>
    <g id="ytick_2">
     <g id="line2d_19">
      <path clip-path="url(#pe5bae9c13c)" d="M 62.039375 362.451801 
L 1133.399375 362.451801 
" style="fill:none;stroke:#b0b0b0;stroke-linecap:square;stroke-width:0.8;"/>
     </g>
     <g id="line2d_20">
      <g>
       <use style="stroke:#000000;stroke-width:0.8;" x="62.039375" xlink:href="#mf6aff6ede6" y="362.451801"/>
      </g>
     </g>
     <g id="text_10">
      <!-- −2.5 -->
      <g transform="translate(25.9 367.010863)scale(0.12 -0.12)">
       <use xlink:href="#DejaVuSans-8722"/>
       <use x="83.789062" xlink:href="#DejaVuSans-50"/>
       <use x="147.412109" xlink:href="#DejaVuSans-46"/>
       <use x="179.199219" xlink:href="#DejaVuSans-53"/>
      </g>
     </g>
    </g>
    <g id="ytick_3">
     <g id="line2d_21">
      <path clip-path="url(#pe5bae9c13c)" d="M 62.039375 297.993339 
L 1133.399375 297.993339 
" style="fill:none;stroke:#b0b0b0;stroke-linecap:square;stroke-width:0.8;"/>
     </g>
     <g id="line2d_22">
      <g>
       <use style="stroke:#000000;stroke-width:0.8;" x="62.039375" xlink:href="#mf6aff6ede6" y="297.993339"/>
      </g>
     </g>
     <g id="text_11">
      <!-- 0.0 -->
      <g transform="translate(35.955625 302.552402)scale(0.12 -0.12)">
       <use xlink:href="#DejaVuSans-48"/>
       <use x="63.623047" xlink:href="#DejaVuSans-46"/>
       <use x="95.410156" xlink:href="#DejaVuSans-48"/>
      </g>
     </g>
    </g>
    <g id="ytick_4">
     <g id="line2d_23">
      <path clip-path="url(#pe5bae9c13c)" d="M 62.039375 233.534878 
L 1133.399375 233.534878 
" style="fill:none;stroke:#b0b0b0;stroke-linecap:square;stroke-width:0.8;"/>
     </g>
     <g id="line2d_24">
      <g>
       <use style="stroke:#000000;stroke-width:0.8;" x="62.039375" xlink:href="#mf6aff6ede6" y="233.534878"/>
      </g>
     </g>
     <g id="text_12">
      <!-- 2.5 -->
      <g transform="translate(35.955625 238.09394)scale(0.12 -0.12)">
       <use xlink:href="#DejaVuSans-50"/>
       <use x="63.623047" xlink:href="#DejaVuSans-46"/>
       <use x="95.410156" xlink:href="#DejaVuSans-53"/>
      </g>
     </g>
    </g>
    <g id="ytick_5">
     <g id="line2d_25">
      <path clip-path="url(#pe5bae9c13c)" d="M 62.039375 169.076416 
L 1133.399375 169.076416 
" style="fill:none;stroke:#b0b0b0;stroke-linecap:square;stroke-width:0.8;"/>
     </g>
     <g id="line2d_26">
      <g>
       <use style="stroke:#000000;stroke-width:0.8;" x="62.039375" xlink:href="#mf6aff6ede6" y="169.076416"/>
      </g>
     </g>
     <g id="text_13">
      <!-- 5.0 -->
      <g transform="translate(35.955625 173.635479)scale(0.12 -0.12)">
       <use xlink:href="#DejaVuSans-53"/>
       <use x="63.623047" xlink:href="#DejaVuSans-46"/>
       <use x="95.410156" xlink:href="#DejaVuSans-48"/>
      </g>
     </g>
    </g>
    <g id="ytick_6">
     <g id="line2d_27">
      <path clip-path="url(#pe5bae9c13c)" d="M 62.039375 104.617955 
L 1133.399375 104.617955 
" style="fill:none;stroke:#b0b0b0;stroke-linecap:square;stroke-width:0.8;"/>
     </g>
     <g id="line2d_28">
      <g>
       <use style="stroke:#000000;stroke-width:0.8;" x="62.039375" xlink:href="#mf6aff6ede6" y="104.617955"/>
      </g>
     </g>
     <g id="text_14">
      <!-- 7.5 -->
      <defs>
       <path d="M 8.203125 72.90625 
L 55.078125 72.90625 
L 55.078125 68.703125 
L 28.609375 0 
L 18.3125 0 
L 43.21875 64.59375 
L 8.203125 64.59375 
z
" id="DejaVuSans-55"/>
      </defs>
      <g transform="translate(35.955625 109.177017)scale(0.12 -0.12)">
       <use xlink:href="#DejaVuSans-55"/>
       <use x="63.623047" xlink:href="#DejaVuSans-46"/>
       <use x="95.410156" xlink:href="#DejaVuSans-53"/>
      </g>
     </g>
    </g>
    <g id="ytick_7">
     <g id="line2d_29">
      <path clip-path="url(#pe5bae9c13c)" d="M 62.039375 40.159493 
L 1133.399375 40.159493 
" style="fill:none;stroke:#b0b0b0;stroke-linecap:square;stroke-width:0.8;"/>
     </g>
     <g id="line2d_30">
      <g>
       <use style="stroke:#000000;stroke-width:0.8;" x="62.039375" xlink:href="#mf6aff6ede6" y="40.159493"/>
      </g>
     </g>
     <g id="text_15">
      <!-- 10.0 -->
      <g transform="translate(28.320625 44.718556)scale(0.12 -0.12)">
       <use xlink:href="#DejaVuSans-49"/>
       <use x="63.623047" xlink:href="#DejaVuSans-48"/>
       <use x="127.246094" xlink:href="#DejaVuSans-46"/>
       <use x="159.033203" xlink:href="#DejaVuSans-48"/>
      </g>
     </g>
    </g>
    <g id="text_16">
     <!-- Balance ($m^3/s$) -->
     <defs>
      <path d="M 19.671875 34.8125 
L 19.671875 8.109375 
L 35.5 8.109375 
Q 43.453125 8.109375 47.28125 11.40625 
Q 51.125 14.703125 51.125 21.484375 
Q 51.125 28.328125 47.28125 31.5625 
Q 43.453125 34.8125 35.5 34.8125 
z
M 19.671875 64.796875 
L 19.671875 42.828125 
L 34.28125 42.828125 
Q 41.5 42.828125 45.03125 45.53125 
Q 48.578125 48.25 48.578125 53.8125 
Q 48.578125 59.328125 45.03125 62.0625 
Q 41.5 64.796875 34.28125 64.796875 
z
M 9.8125 72.90625 
L 35.015625 72.90625 
Q 46.296875 72.90625 52.390625 68.21875 
Q 58.5 63.53125 58.5 54.890625 
Q 58.5 48.1875 55.375 44.234375 
Q 52.25 40.28125 46.1875 39.3125 
Q 53.46875 37.75 57.5 32.78125 
Q 61.53125 27.828125 61.53125 20.40625 
Q 61.53125 10.640625 54.890625 5.3125 
Q 48.25 0 35.984375 0 
L 9.8125 0 
z
" id="DejaVuSans-66"/>
      <path d="M 34.28125 27.484375 
Q 23.390625 27.484375 19.1875 25 
Q 14.984375 22.515625 14.984375 16.5 
Q 14.984375 11.71875 18.140625 8.90625 
Q 21.296875 6.109375 26.703125 6.109375 
Q 34.1875 6.109375 38.703125 11.40625 
Q 43.21875 16.703125 43.21875 25.484375 
L 43.21875 27.484375 
z
M 52.203125 31.203125 
L 52.203125 0 
L 43.21875 0 
L 43.21875 8.296875 
Q 40.140625 3.328125 35.546875 0.953125 
Q 30.953125 -1.421875 24.3125 -1.421875 
Q 15.921875 -1.421875 10.953125 3.296875 
Q 6 8.015625 6 15.921875 
Q 6 25.140625 12.171875 29.828125 
Q 18.359375 34.515625 30.609375 34.515625 
L 43.21875 34.515625 
L 43.21875 35.40625 
Q 43.21875 41.609375 39.140625 45 
Q 35.0625 48.390625 27.6875 48.390625 
Q 23 48.390625 18.546875 47.265625 
Q 14.109375 46.140625 10.015625 43.890625 
L 10.015625 52.203125 
Q 14.9375 54.109375 19.578125 55.046875 
Q 24.21875 56 28.609375 56 
Q 40.484375 56 46.34375 49.84375 
Q 52.203125 43.703125 52.203125 31.203125 
z
" id="DejaVuSans-97"/>
      <path d="M 9.421875 75.984375 
L 18.40625 75.984375 
L 18.40625 0 
L 9.421875 0 
z
" id="DejaVuSans-108"/>
      <path d="M 54.890625 33.015625 
L 54.890625 0 
L 45.90625 0 
L 45.90625 32.71875 
Q 45.90625 40.484375 42.875 44.328125 
Q 39.84375 48.1875 33.796875 48.1875 
Q 26.515625 48.1875 22.3125 43.546875 
Q 18.109375 38.921875 18.109375 30.90625 
L 18.109375 0 
L 9.078125 0 
L 9.078125 54.6875 
L 18.109375 54.6875 
L 18.109375 46.1875 
Q 21.34375 51.125 25.703125 53.5625 
Q 30.078125 56 35.796875 56 
Q 45.21875 56 50.046875 50.171875 
Q 54.890625 44.34375 54.890625 33.015625 
z
" id="DejaVuSans-110"/>
      <path d="M 48.78125 52.59375 
L 48.78125 44.1875 
Q 44.96875 46.296875 41.140625 47.34375 
Q 37.3125 48.390625 33.40625 48.390625 
Q 24.65625 48.390625 19.8125 42.84375 
Q 14.984375 37.3125 14.984375 27.296875 
Q 14.984375 17.28125 19.8125 11.734375 
Q 24.65625 6.203125 33.40625 6.203125 
Q 37.3125 6.203125 41.140625 7.25 
Q 44.96875 8.296875 48.78125 10.40625 
L 48.78125 2.09375 
Q 45.015625 0.34375 40.984375 -0.53125 
Q 36.96875 -1.421875 32.421875 -1.421875 
Q 20.0625 -1.421875 12.78125 6.34375 
Q 5.515625 14.109375 5.515625 27.296875 
Q 5.515625 40.671875 12.859375 48.328125 
Q 20.21875 56 33.015625 56 
Q 37.15625 56 41.109375 55.140625 
Q 45.0625 54.296875 48.78125 52.59375 
z
" id="DejaVuSans-99"/>
      <path d="M 56.203125 29.59375 
L 56.203125 25.203125 
L 14.890625 25.203125 
Q 15.484375 15.921875 20.484375 11.0625 
Q 25.484375 6.203125 34.421875 6.203125 
Q 39.59375 6.203125 44.453125 7.46875 
Q 49.3125 8.734375 54.109375 11.28125 
L 54.109375 2.78125 
Q 49.265625 0.734375 44.1875 -0.34375 
Q 39.109375 -1.421875 33.890625 -1.421875 
Q 20.796875 -1.421875 13.15625 6.1875 
Q 5.515625 13.8125 5.515625 26.8125 
Q 5.515625 40.234375 12.765625 48.109375 
Q 20.015625 56 32.328125 56 
Q 43.359375 56 49.78125 48.890625 
Q 56.203125 41.796875 56.203125 29.59375 
z
M 47.21875 32.234375 
Q 47.125 39.59375 43.09375 43.984375 
Q 39.0625 48.390625 32.421875 48.390625 
Q 24.90625 48.390625 20.390625 44.140625 
Q 15.875 39.890625 15.1875 32.171875 
z
" id="DejaVuSans-101"/>
      <path id="DejaVuSans-32"/>
      <path d="M 31 75.875 
Q 24.46875 64.65625 21.28125 53.65625 
Q 18.109375 42.671875 18.109375 31.390625 
Q 18.109375 20.125 21.3125 9.0625 
Q 24.515625 -2 31 -13.1875 
L 23.1875 -13.1875 
Q 15.875 -1.703125 12.234375 9.375 
Q 8.59375 20.453125 8.59375 31.390625 
Q 8.59375 42.28125 12.203125 53.3125 
Q 15.828125 64.359375 23.1875 75.875 
z
" id="DejaVuSans-40"/>
      <path d="M 89.796875 33.015625 
L 83.40625 0 
L 74.421875 0 
L 80.71875 32.71875 
Q 81.109375 34.8125 81.296875 36.328125 
Q 81.5 37.84375 81.5 38.921875 
Q 81.5 43.3125 79.046875 45.75 
Q 76.609375 48.1875 72.21875 48.1875 
Q 65.671875 48.1875 60.546875 43.28125 
Q 55.421875 38.375 53.90625 30.515625 
L 47.90625 0 
L 38.921875 0 
L 45.3125 32.71875 
Q 45.703125 34.515625 45.890625 36.046875 
Q 46.09375 37.59375 46.09375 38.8125 
Q 46.09375 43.265625 43.65625 45.71875 
Q 41.21875 48.1875 36.921875 48.1875 
Q 30.28125 48.1875 25.140625 43.28125 
Q 20.015625 38.375 18.5 30.515625 
L 12.5 0 
L 3.515625 0 
L 14.203125 54.6875 
L 23.1875 54.6875 
L 21.484375 46.1875 
Q 25.140625 50.984375 30.046875 53.484375 
Q 34.96875 56 40.578125 56 
Q 46.53125 56 50.359375 52.875 
Q 54.203125 49.75 54.984375 44.1875 
Q 59.078125 49.953125 64.46875 52.96875 
Q 69.875 56 75.875 56 
Q 82.90625 56 86.734375 51.953125 
Q 90.578125 47.90625 90.578125 40.484375 
Q 90.578125 38.875 90.375 36.9375 
Q 90.1875 35.015625 89.796875 33.015625 
z
" id="DejaVuSans-Oblique-109"/>
      <path d="M 40.578125 39.3125 
Q 47.65625 37.796875 51.625 33 
Q 55.609375 28.21875 55.609375 21.1875 
Q 55.609375 10.40625 48.1875 4.484375 
Q 40.765625 -1.421875 27.09375 -1.421875 
Q 22.515625 -1.421875 17.65625 -0.515625 
Q 12.796875 0.390625 7.625 2.203125 
L 7.625 11.71875 
Q 11.71875 9.328125 16.59375 8.109375 
Q 21.484375 6.890625 26.8125 6.890625 
Q 36.078125 6.890625 40.9375 10.546875 
Q 45.796875 14.203125 45.796875 21.1875 
Q 45.796875 27.640625 41.28125 31.265625 
Q 36.765625 34.90625 28.71875 34.90625 
L 20.21875 34.90625 
L 20.21875 43.015625 
L 29.109375 43.015625 
Q 36.375 43.015625 40.234375 45.921875 
Q 44.09375 48.828125 44.09375 54.296875 
Q 44.09375 59.90625 40.109375 62.90625 
Q 36.140625 65.921875 28.71875 65.921875 
Q 24.65625 65.921875 20.015625 65.03125 
Q 15.375 64.15625 9.8125 62.3125 
L 9.8125 71.09375 
Q 15.4375 72.65625 20.34375 73.4375 
Q 25.25 74.21875 29.59375 74.21875 
Q 40.828125 74.21875 47.359375 69.109375 
Q 53.90625 64.015625 53.90625 55.328125 
Q 53.90625 49.265625 50.4375 45.09375 
Q 46.96875 40.921875 40.578125 39.3125 
z
" id="DejaVuSans-51"/>
      <path d="M 25.390625 72.90625 
L 33.6875 72.90625 
L 8.296875 -9.28125 
L 0 -9.28125 
z
" id="DejaVuSans-47"/>
      <path d="M 50 53.078125 
L 48.296875 44.578125 
Q 44.734375 46.53125 40.765625 47.5 
Q 36.8125 48.484375 32.625 48.484375 
Q 25.53125 48.484375 21.453125 46.0625 
Q 17.390625 43.65625 17.390625 39.5 
Q 17.390625 34.671875 26.859375 32.078125 
Q 27.59375 31.890625 27.9375 31.78125 
L 30.8125 30.90625 
Q 39.796875 28.421875 42.796875 25.6875 
Q 45.796875 22.953125 45.796875 18.21875 
Q 45.796875 9.515625 38.890625 4.046875 
Q 31.984375 -1.421875 20.796875 -1.421875 
Q 16.453125 -1.421875 11.671875 -0.578125 
Q 6.890625 0.25 1.125 2 
L 2.875 11.28125 
Q 7.8125 8.734375 12.59375 7.421875 
Q 17.390625 6.109375 21.78125 6.109375 
Q 28.375 6.109375 32.5 8.9375 
Q 36.625 11.765625 36.625 16.109375 
Q 36.625 20.796875 25.78125 23.6875 
L 24.859375 23.921875 
L 21.78125 24.703125 
Q 14.9375 26.515625 11.765625 29.46875 
Q 8.59375 32.421875 8.59375 37.015625 
Q 8.59375 45.75 15.15625 50.875 
Q 21.734375 56 33.015625 56 
Q 37.453125 56 41.671875 55.265625 
Q 45.90625 54.546875 50 53.078125 
z
" id="DejaVuSans-Oblique-115"/>
      <path d="M 8.015625 75.875 
L 15.828125 75.875 
Q 23.140625 64.359375 26.78125 53.3125 
Q 30.421875 42.28125 30.421875 31.390625 
Q 30.421875 20.453125 26.78125 9.375 
Q 23.140625 -1.703125 15.828125 -13.1875 
L 8.015625 -13.1875 
Q 14.5 -2 17.703125 9.0625 
Q 20.90625 20.125 20.90625 31.390625 
Q 20.90625 42.671875 17.703125 53.65625 
Q 14.5 64.65625 8.015625 75.875 
z
" id="DejaVuSans-41"/>
     </defs>
     <g transform="translate(18.988438 295.0224)rotate(-90)scale(0.14 -0.14)">
      <use transform="translate(0 0.765625)" xlink:href="#DejaVuSans-66"/>
      <use transform="translate(68.603516 0.765625)" xlink:href="#DejaVuSans-97"/>
      <use transform="translate(129.882812 0.765625)" xlink:href="#DejaVuSans-108"/>
      <use transform="translate(157.666016 0.765625)" xlink:href="#DejaVuSans-97"/>
      <use transform="translate(218.945312 0.765625)" xlink:href="#DejaVuSans-110"/>
      <use transform="translate(282.324219 0.765625)" xlink:href="#DejaVuSans-99"/>
      <use transform="translate(337.304688 0.765625)" xlink:href="#DejaVuSans-101"/>
      <use transform="translate(398.828125 0.765625)" xlink:href="#DejaVuSans-32"/>
      <use transform="translate(430.615234 0.765625)" xlink:href="#DejaVuSans-40"/>
      <use transform="translate(469.628906 0.765625)" xlink:href="#DejaVuSans-Oblique-109"/>
      <use transform="translate(571.690911 39.046875)scale(0.7)" xlink:href="#DejaVuSans-51"/>
      <use transform="translate(618.961419 0.765625)" xlink:href="#DejaVuSans-47"/>
      <use transform="translate(652.652826 0.765625)" xlink:href="#DejaVuSans-Oblique-115"/>
      <use transform="translate(704.752435 0.765625)" xlink:href="#DejaVuSans-41"/>
     </g>
    </g>
   </g>
   <g id="line2d_31">
    <path clip-path="url(#pe5bae9c13c)" d="M 110.737557 297.993339 
L 113.564076 296.120954 
L 127.240779 296.120986 
L 130.067298 295.929726 
L 132.893816 294.748479 
L 135.629157 291.288846 
L 141.191016 282.851854 
L 144.017535 281.734145 
L 146.844054 240.453923 
L 149.397038 248.056804 
L 152.223557 252.640139 
L 154.958898 254.984657 
L 157.785416 258.292238 
L 160.520757 260.543136 
L 163.347276 261.904085 
L 166.173794 262.961469 
L 168.909135 262.898847 
L 171.735654 257.620287 
L 174.470995 253.006565 
L 177.297513 251.800958 
L 182.677017 257.50403 
L 185.503535 256.281166 
L 188.238876 256.173516 
L 191.065395 258.861691 
L 193.800735 260.440389 
L 196.627254 261.135908 
L 199.453773 261.636321 
L 202.189113 261.369927 
L 205.015632 259.399871 
L 207.750973 255.728266 
L 210.577491 254.159571 
L 213.40401 242.025704 
L 216.048173 242.632436 
L 218.874692 241.885652 
L 221.610032 243.224518 
L 227.171892 248.803033 
L 229.99841 250.459952 
L 232.824929 251.317547 
L 235.56027 251.227392 
L 238.386788 249.792958 
L 241.122129 246.615171 
L 243.948648 244.491739 
L 246.775166 284.238859 
L 249.328151 286.153642 
L 252.15467 286.975357 
L 254.89001 287.409772 
L 260.45187 287.992015 
L 268.840248 288.524711 
L 277.228626 288.896744 
L 280.055145 295.842225 
L 282.608129 295.638203 
L 285.434648 294.699184 
L 288.169989 296.666563 
L 293.731848 297.052278 
L 299.384885 297.312361 
L 302.120226 295.506293 
L 304.946745 293.456221 
L 310.508604 293.515077 
L 313.335123 209.262527 
L 315.888107 219.825392 
L 318.714626 225.585421 
L 321.449967 229.812793 
L 324.276486 232.496609 
L 327.011826 234.31736 
L 329.838345 236.005189 
L 332.664864 237.265658 
L 335.400204 235.909452 
L 338.226723 232.912488 
L 340.962064 231.265529 
L 343.788582 230.179037 
L 346.615101 259.007967 
L 349.259264 262.862622 
L 352.085782 264.765662 
L 354.821123 269.910752 
L 357.647642 272.752326 
L 360.382982 274.495719 
L 363.209501 275.732917 
L 366.03602 276.483307 
L 368.77136 274.868295 
L 371.597879 269.162901 
L 374.33322 264.769992 
L 377.159739 266.074676 
L 379.986257 248.35429 
L 382.539242 255.168292 
L 385.365761 258.106118 
L 388.101101 259.219507 
L 390.92762 259.843092 
L 393.662961 260.225201 
L 396.489479 260.500938 
L 399.315998 260.363707 
L 402.051339 257.756446 
L 404.877857 252.556018 
L 407.613198 248.334683 
L 410.439717 247.324368 
L 413.266235 277.698044 
L 415.81922 282.883415 
L 418.645739 285.074836 
L 421.381079 285.741703 
L 424.207598 286.02492 
L 432.595976 286.429241 
L 435.331317 286.519153 
L 438.157836 285.646506 
L 440.893176 286.668209 
L 443.719695 286.730678 
L 446.546214 294.598557 
L 449.099198 294.898215 
L 451.925717 294.976303 
L 454.661058 295.306353 
L 457.487576 295.4478 
L 460.222917 295.315887 
L 465.875954 294.608592 
L 468.611295 291.771663 
L 471.437814 288.318047 
L 474.173155 287.780211 
L 476.999673 289.201371 
L 479.826192 243.948211 
L 482.470355 251.883009 
L 485.296873 254.347235 
L 488.032214 254.6791 
L 490.858733 256.339143 
L 493.594073 257.241794 
L 499.247111 258.626285 
L 501.982451 256.477819 
L 504.80897 250.933967 
L 507.544311 246.265177 
L 510.370829 244.776389 
L 513.197348 232.167276 
L 515.750333 237.037167 
L 518.576851 239.794888 
L 521.312192 243.755321 
L 524.138711 248.535981 
L 526.874052 250.339955 
L 529.70057 251.470207 
L 532.527089 252.360735 
L 535.26243 251.193899 
L 538.088948 245.916167 
L 540.824289 242.516794 
L 543.650808 246.00033 
L 546.477326 250.941791 
L 549.030311 252.434072 
L 551.85683 253.257321 
L 560.15403 254.053446 
L 562.980548 254.238316 
L 565.807067 253.885152 
L 568.542408 248.516621 
L 571.368926 241.319081 
L 574.104267 236.822409 
L 576.930786 235.102523 
L 579.757305 237.423415 
L 582.310289 242.837935 
L 585.136808 238.837864 
L 587.872149 242.631741 
L 590.698667 248.207944 
L 593.434008 252.938376 
L 596.260527 255.453189 
L 599.087045 254.62627 
L 601.822386 252.786952 
L 604.648905 250.549725 
L 607.384245 250.531652 
L 610.210764 250.941404 
L 613.037283 242.073302 
L 615.681445 247.067089 
L 618.507964 247.089004 
L 621.243305 249.261264 
L 624.069824 250.153914 
L 626.805164 251.24858 
L 629.631683 249.548497 
L 632.458202 248.903698 
L 635.193542 245.364885 
L 638.020061 240.837979 
L 640.755402 234.979094 
L 643.58192 228.0953 
L 646.408439 219.193057 
L 648.961424 227.122739 
L 651.787942 225.092638 
L 654.523283 231.43116 
L 657.349802 236.691981 
L 660.085142 242.228433 
L 662.911661 241.858925 
L 665.73818 244.919252 
L 668.47352 245.160701 
L 671.300039 240.451195 
L 674.03538 239.694983 
L 676.861899 234.636542 
L 679.688417 228.625525 
L 682.241402 232.261581 
L 685.067921 231.21539 
L 687.803261 231.85319 
L 690.62978 233.876642 
L 693.365121 237.460465 
L 696.191639 240.352409 
L 699.018158 237.312044 
L 701.753499 237.285163 
L 704.580017 231.46823 
L 707.315358 229.772395 
L 710.141877 226.271863 
L 712.968395 221.461026 
L 715.52138 227.721726 
L 718.347899 233.822889 
L 721.083239 238.093085 
L 723.909758 237.514321 
L 726.645099 238.104915 
L 729.471618 237.96186 
L 732.298136 239.626333 
L 735.033477 237.443045 
L 737.859996 231.612054 
L 740.595336 230.662177 
L 743.421855 227.039713 
L 746.248374 227.51087 
L 748.892536 227.526294 
L 751.719055 230.014324 
L 754.454396 229.789862 
L 757.280914 232.143197 
L 760.016255 231.65503 
L 762.842774 233.913441 
L 765.669292 234.666584 
L 768.404633 232.603573 
L 771.231152 229.696265 
L 773.966492 222.782303 
L 776.793011 222.827578 
L 779.61953 221.176609 
L 782.172515 222.275289 
L 784.999033 224.979551 
L 787.734374 230.058201 
L 790.560893 231.300556 
L 793.296233 234.675285 
L 796.122752 237.838361 
L 798.949271 236.887967 
L 801.684611 234.965824 
L 804.51113 231.879782 
L 807.246471 224.539463 
L 810.072989 218.972935 
L 812.899508 230.849985 
L 815.452493 232.158971 
L 818.279011 237.795328 
L 821.014352 242.19459 
L 823.840871 242.408715 
L 826.576211 243.410143 
L 829.40273 245.29975 
L 832.229249 243.862388 
L 834.96459 242.192483 
L 837.791108 238.482041 
L 843.352968 227.886696 
L 846.179486 231.208293 
L 848.732471 236.214236 
L 851.55899 242.254064 
L 854.29433 247.786152 
L 857.120849 248.056254 
L 859.85619 248.132304 
L 862.682708 248.924839 
L 865.509227 247.171974 
L 868.244568 247.333577 
L 871.071086 247.992327 
L 873.806427 245.622122 
L 876.632946 239.205931 
L 879.459465 238.895757 
L 882.103627 239.57673 
L 884.930146 241.228623 
L 887.665487 245.379484 
L 890.492005 246.078353 
L 893.227346 247.818689 
L 896.053865 248.912632 
L 898.880383 241.616646 
L 901.615724 243.916164 
L 904.442243 246.769523 
L 907.177583 240.436675 
L 910.004102 246.583907 
L 912.830621 237.521613 
L 915.383605 239.721571 
L 918.210124 239.396951 
L 920.945465 235.332231 
L 923.771983 232.959582 
L 926.507324 245.483399 
L 929.333843 247.390603 
L 932.160362 244.068381 
L 934.895702 246.042263 
L 937.722221 246.486328 
L 940.457562 243.852172 
L 943.28408 246.04859 
L 946.110599 216.14275 
L 948.663584 226.540086 
L 951.490102 206.555748 
L 954.225443 229.296324 
L 957.051962 235.145225 
L 959.787302 237.685795 
L 962.613821 238.08099 
L 965.44034 239.457325 
L 968.17568 234.937339 
L 971.002199 227.160279 
L 973.73754 223.066775 
L 976.564058 223.060728 
L 979.390577 217.134508 
L 981.943562 224.053581 
L 984.770081 231.238391 
L 987.505421 233.355505 
L 990.33194 235.26857 
L 993.067281 235.976312 
L 995.893799 234.503956 
L 998.720318 231.508591 
L 1001.455659 230.905822 
L 1007.017518 217.928637 
L 1009.844037 214.437063 
L 1012.670555 219.388614 
L 1018.141237 229.80233 
L 1020.876577 231.957506 
L 1023.703096 231.85015 
L 1026.438437 232.316331 
L 1029.264956 232.11508 
L 1032.091474 230.002396 
L 1034.826815 226.517243 
L 1037.653334 222.216463 
L 1040.388674 216.894747 
L 1043.215193 214.086281 
L 1048.594696 216.575103 
L 1051.421215 219.02666 
L 1054.156556 218.788214 
L 1056.983074 220.60095 
L 1059.718415 222.861995 
L 1065.371452 226.803352 
L 1068.106793 226.474018 
L 1070.933312 224.321869 
L 1073.668652 221.011849 
L 1079.32169 225.567543 
L 1081.874674 227.333087 
L 1084.701193 228.805131 
L 1084.701193 228.805131 
" style="fill:none;stroke:#1f77b4;stroke-linecap:square;stroke-width:2.5;"/>
   </g>
   <g id="line2d_32">
    <path clip-path="url(#pe5bae9c13c)" d="M 110.737557 289.132299 
L 144.017535 289.13234 
L 149.397038 288.96107 
L 166.173794 288.883388 
L 238.386788 288.687705 
L 243.948648 288.661923 
L 246.775166 289.098269 
L 252.15467 289.459281 
L 260.45187 289.654641 
L 280.055145 289.987966 
L 288.169989 290.179001 
L 310.508604 290.36805 
L 313.335123 290.021543 
L 318.714626 289.773242 
L 329.838345 289.639029 
L 349.259264 289.430223 
L 368.77136 289.316813 
L 382.539242 289.381738 
L 476.999673 289.94803 
L 482.470355 289.615758 
L 493.594073 289.447058 
L 543.650808 289.173141 
L 613.037283 289.124995 
L 624.069824 289.237315 
L 643.58192 289.286006 
L 648.961424 289.000058 
L 662.911661 288.802625 
L 685.067921 288.683912 
L 726.645099 288.724026 
L 771.231152 288.67698 
L 926.507324 288.585431 
L 959.787302 288.472953 
L 1084.701193 288.04627 
L 1084.701193 288.04627 
" style="fill:none;stroke:#ff7f0e;stroke-linecap:square;stroke-width:2.5;"/>
   </g>
   <g id="line2d_33">
    <path clip-path="url(#pe5bae9c13c)" d="M 110.737557 297.993339 
L 1084.701193 297.993339 
L 1084.701193 297.993339 
" style="fill:none;stroke:#2ca02c;stroke-linecap:square;stroke-width:2.5;"/>
   </g>
   <g id="line2d_34">
    <path clip-path="url(#pe5bae9c13c)" d="M 110.737557 297.993339 
L 1084.701193 297.993339 
L 1084.701193 297.993339 
" style="fill:none;stroke:#d62728;stroke-linecap:square;stroke-width:2.5;"/>
   </g>
   <g id="line2d_35">
    <path clip-path="url(#pe5bae9c13c)" d="M 110.737557 170.431005 
L 113.564076 170.431005 
L 116.11706 136.878538 
L 118.943579 134.810888 
L 121.67892 131.239486 
L 124.505438 125.224463 
L 127.240779 123.407447 
L 130.067298 126.540248 
L 132.893816 132.429953 
L 135.629157 145.932397 
L 138.455676 160.687948 
L 141.191016 171.668454 
L 144.017535 177.620809 
L 146.844054 199.922644 
L 149.397038 196.398224 
L 152.223557 194.737841 
L 154.958898 194.424557 
L 157.785416 192.168931 
L 160.520757 189.020454 
L 163.347276 185.997285 
L 166.173794 182.61385 
L 168.909135 185.777984 
L 171.735654 193.187098 
L 174.470995 199.593702 
L 177.297513 202.914488 
L 180.124032 193.426626 
L 182.677017 192.157833 
L 185.503535 195.196669 
L 188.238876 196.152178 
L 191.065395 193.880885 
L 193.800735 191.405958 
L 196.627254 190.168499 
L 199.453773 188.790065 
L 202.189113 190.826391 
L 205.015632 193.630259 
L 207.750973 198.016205 
L 210.577491 200.741757 
L 213.40401 206.671264 
L 216.048173 207.485807 
L 218.874692 209.616116 
L 221.610032 209.396816 
L 224.436551 207.501474 
L 227.171892 204.650605 
L 229.99841 203.225179 
L 232.824929 202.849237 
L 235.56027 203.757754 
L 238.386788 205.40248 
L 241.122129 208.864241 
L 243.948648 211.440985 
L 246.775166 164.414779 
L 249.328151 160.671068 
L 252.15467 158.117825 
L 254.89001 159.527593 
L 257.716529 160.796376 
L 260.45187 157.694891 
L 263.278388 149.878519 
L 266.104907 142.516406 
L 268.840248 127.353588 
L 271.666767 119.646848 
L 274.402107 113.005314 
L 277.228626 88.256062 
L 280.055145 28.631127 
L 285.434648 49.620955 
L 288.169989 47.615991 
L 290.996507 37.528335 
L 293.731848 29.257695 
L 296.558367 28.819075 
L 299.384885 28.881762 
L 302.120226 38.969418 
L 304.946745 55.197376 
L 307.682085 66.287514 
L 310.508604 76.218575 
L 313.335123 145.755975 
L 315.888107 143.938969 
L 318.714626 143.343716 
L 321.449967 137.234701 
L 324.276486 133.694652 
L 327.011826 132.880137 
L 329.838345 127.804984 
L 332.664864 125.298676 
L 335.400204 134.258552 
L 338.226723 147.886294 
L 340.962064 158.067942 
L 343.788582 165.618022 
L 346.615101 180.975092 
L 349.259264 182.886101 
L 352.085782 184.201885 
L 354.821123 180.050908 
L 357.647642 172.876761 
L 360.382982 162.225187 
L 363.209501 152.607438 
L 366.03602 148.440831 
L 368.77136 158.403141 
L 371.597879 171.654969 
L 374.33322 181.288376 
L 377.159739 183.309035 
L 379.986257 171.117405 
L 382.539242 161.703299 
L 385.365761 146.101852 
L 388.101101 136.327508 
L 390.92762 128.119536 
L 393.662961 123.984197 
L 396.489479 125.362668 
L 399.315998 127.9942 
L 402.051339 138.26986 
L 404.877857 154.93641 
L 407.613198 166.653144 
L 410.439717 172.339197 
L 413.266235 160.527669 
L 415.81922 157.629817 
L 418.645739 154.606657 
L 421.381079 150.189388 
L 424.207598 141.22954 
L 426.942939 128.823562 
L 429.769458 123.497812 
L 432.595976 116.730942 
L 435.331317 116.605606 
L 438.157836 122.745927 
L 440.893176 108.898903 
L 443.719695 92.169657 
L 446.546214 57.571391 
L 449.099198 57.383425 
L 451.925717 59.639023 
L 454.661058 59.451057 
L 457.487576 56.631521 
L 460.222917 58.887176 
L 463.049436 62.207943 
L 465.875954 66.46858 
L 468.611295 82.947192 
L 471.437814 105.59744 
L 474.173155 118.817915 
L 476.999673 124.331669 
L 479.826192 166.927717 
L 482.470355 151.044367 
L 485.296873 149.665896 
L 488.032214 154.083175 
L 490.858733 152.328799 
L 493.594073 150.104497 
L 496.420592 149.571913 
L 499.247111 147.754896 
L 501.982451 154.772401 
L 504.80897 167.5856 
L 507.544311 177.626274 
L 510.370829 183.249677 
L 513.197348 178.462508 
L 515.750333 177.209392 
L 518.576851 177.303366 
L 521.312192 175.157389 
L 524.138711 164.443166 
L 526.874052 158.898088 
L 529.70057 156.924411 
L 532.527089 155.358011 
L 535.26243 160.934414 
L 538.088948 168.797786 
L 540.824289 174.342865 
L 543.650808 172.776455 
L 546.477326 166.256545 
L 549.030311 153.192702 
L 551.85683 153.725277 
L 554.59217 157.202714 
L 557.418689 156.576156 
L 560.15403 155.792928 
L 562.980548 155.260344 
L 565.807067 156.764123 
L 568.542408 166.162562 
L 571.368926 177.221403 
L 574.104267 185.539025 
L 576.930786 191.256412 
L 582.310289 192.163083 
L 585.136808 194.457877 
L 587.872149 193.74516 
L 590.698667 190.408707 
L 593.434008 183.547844 
L 596.260527 179.88245 
L 599.087045 176.013422 
L 601.822386 176.63999 
L 604.648905 180.227059 
L 607.384245 181.480194 
L 610.210764 172.285379 
L 613.037283 157.724891 
L 615.681445 152.775047 
L 618.507964 154.654731 
L 621.243305 156.095832 
L 626.805164 150.018161 
L 629.631683 148.827712 
L 632.458202 148.702376 
L 635.193542 156.315124 
L 638.020061 168.40779 
L 640.755402 178.448464 
L 643.58192 185.058702 
L 646.408439 200.510324 
L 651.787942 200.024731 
L 654.523283 198.567981 
L 657.349802 196.046062 
L 662.911661 187.180198 
L 665.73818 184.908905 
L 668.47352 187.133207 
L 671.300039 191.033559 
L 674.03538 193.837427 
L 676.861899 195.591804 
L 679.688417 202.303727 
L 685.067921 202.992944 
L 687.803261 203.321886 
L 690.62978 202.115761 
L 693.365121 199.10825 
L 696.191639 197.228565 
L 699.018158 196.523682 
L 701.753499 198.888949 
L 704.580017 202.757986 
L 707.315358 206.125763 
L 710.141877 208.350056 
L 712.968395 210.336807 
L 715.52138 206.397297 
L 718.347899 200.632918 
L 721.083239 197.045849 
L 723.909758 195.087839 
L 726.645099 192.033346 
L 729.471618 192.189988 
L 732.298136 191.876704 
L 735.033477 195.19748 
L 737.859996 201.134177 
L 740.595336 205.003196 
L 743.421855 205.911713 
L 746.248374 204.151499 
L 748.892536 204.621425 
L 751.719055 201.237981 
L 754.454396 194.737393 
L 757.280914 191.949182 
L 762.842774 193.703568 
L 765.669292 194.236143 
L 768.404633 196.366452 
L 773.966492 207.613251 
L 776.793011 210.307478 
L 779.61953 209.712245 
L 782.172515 207.89521 
L 784.999033 208.741069 
L 787.734374 210.511112 
L 790.560893 207.613251 
L 793.296233 189.066998 
L 796.122752 157.770204 
L 798.949271 158.271417 
L 801.684611 173.998172 
L 804.51113 189.286289 
L 807.246471 199.499271 
L 810.072989 204.997358 
L 812.899508 200.580088 
L 815.452493 196.99302 
L 818.279011 196.867702 
L 821.014352 198.982354 
L 823.840871 197.38462 
L 826.576211 189.630897 
L 829.40273 189.348947 
L 832.229249 191.040665 
L 834.96459 195.724227 
L 837.791108 202.224824 
L 840.526449 207.785569 
L 843.352968 211.325646 
L 846.179486 211.482288 
L 848.732471 205.294975 
L 851.55899 201.003022 
L 854.29433 190.00684 
L 857.120849 189.912856 
L 859.85619 187.782538 
L 862.682708 189.066998 
L 865.509227 188.44043 
L 868.244568 186.999338 
L 871.071086 192.137149 
L 873.806427 194.580751 
L 876.632946 199.624579 
L 879.459465 198.230479 
L 882.103627 196.303794 
L 884.930146 197.086994 
L 887.665487 196.162819 
L 893.227346 185.025661 
L 896.053865 180.859016 
L 898.880383 178.948008 
L 901.615724 180.984334 
L 904.442243 182.801368 
L 907.177583 177.726216 
L 910.004102 164.098483 
L 912.830621 146.554712 
L 915.383605 131.893116 
L 918.210124 134.274069 
L 920.945465 167.98314 
L 923.771983 182.770044 
L 926.507324 167.889157 
L 929.333843 164.599705 
L 932.160362 160.08849 
L 934.895702 161.466886 
L 937.722221 165.320237 
L 940.457562 163.659882 
L 943.28408 157.707536 
L 946.110599 150.564715 
L 948.663584 153.384213 
L 951.490102 199.029346 
L 954.225443 178.196132 
L 957.051962 162.156131 
L 959.787302 152.319053 
L 962.613821 149.060964 
L 965.44034 150.502047 
L 968.17568 165.508204 
L 971.002199 182.362767 
L 973.73754 192.763717 
L 976.564058 196.711061 
L 979.390577 205.013025 
L 981.943562 201.41028 
L 984.770081 194.643401 
L 987.505421 190.570749 
L 990.33194 185.80887 
L 995.893799 177.914173 
L 998.720318 175.595916 
L 1001.455659 180.67105 
L 1004.282177 188.409096 
L 1007.017518 197.478603 
L 1009.844037 203.885207 
L 1012.670555 201.707906 
L 1015.314718 197.870203 
L 1018.141237 191.667233 
L 1020.876577 190.382773 
L 1026.438437 190.320123 
L 1029.264956 190.727391 
L 1032.091474 192.262466 
L 1034.826815 195.786876 
L 1040.388674 206.736067 
L 1043.215193 211.043687 
L 1046.041712 210.542436 
L 1048.594696 210.902712 
L 1051.421215 209.978537 
L 1054.156556 209.774903 
L 1056.983074 209.101344 
L 1059.718415 207.738577 
L 1065.371452 205.717909 
L 1068.106793 206.579425 
L 1070.933312 209.320645 
L 1073.668652 211.74858 
L 1076.495171 212.931204 
L 1079.32169 211.795562 
L 1081.874674 210.918369 
L 1084.701193 210.323145 
L 1084.701193 210.323145 
" style="fill:none;stroke:#9467bd;stroke-linecap:square;stroke-width:2.5;"/>
   </g>
   <g id="line2d_36">
    <path clip-path="url(#pe5bae9c13c)" d="M 110.737557 297.993339 
L 113.564076 297.993382 
L 116.11706 325.622673 
L 118.943579 316.31762 
L 121.67892 310.83381 
L 124.505438 308.686841 
L 130.067298 303.003314 
L 132.893816 301.523864 
L 135.629157 300.254675 
L 138.455676 299.142116 
L 141.191016 298.441323 
L 144.017535 298.158328 
L 146.844054 298.02405 
L 154.958898 298.004468 
L 157.785416 298.245959 
L 163.347276 301.227704 
L 166.173794 302.84654 
L 168.909135 299.366126 
L 171.735654 297.998839 
L 177.297513 297.994098 
L 180.124032 300.167877 
L 182.677017 299.447439 
L 185.503535 298.380154 
L 188.238876 298.274607 
L 191.065395 298.415993 
L 193.800735 299.523175 
L 196.627254 300.011663 
L 199.453773 300.635711 
L 202.189113 298.731254 
L 205.015632 298.101178 
L 224.436551 298.019603 
L 227.171892 298.693866 
L 229.99841 298.860056 
L 232.824929 298.628266 
L 235.56027 297.99339 
L 243.948648 297.99334 
L 246.775166 337.802105 
L 249.328151 337.578673 
L 252.15467 337.039819 
L 254.89001 332.82463 
L 257.716529 328.937294 
L 260.45187 329.501795 
L 263.278388 334.308954 
L 266.104907 337.858804 
L 268.840248 346.553395 
L 271.666767 341.685027 
L 274.402107 334.42302 
L 277.228626 335.180244 
L 280.055145 408.989933 
L 282.608129 397.241512 
L 285.434648 390.843105 
L 288.169989 387.436803 
L 290.996507 386.857162 
L 293.731848 384.798837 
L 296.558367 380.717624 
L 302.120226 374.662571 
L 304.946745 372.037684 
L 307.682085 369.827567 
L 310.508604 367.68878 
L 313.335123 305.134852 
L 315.888107 302.426975 
L 318.714626 300.9863 
L 321.449967 301.604884 
L 324.276486 301.088519 
L 327.011826 300.093394 
L 329.838345 300.748991 
L 332.664864 300.177279 
L 335.400204 298.671398 
L 343.788582 298.409798 
L 346.615101 304.936784 
L 349.259264 301.206885 
L 352.085782 299.924466 
L 354.821123 299.804388 
L 357.647642 303.459859 
L 360.382982 308.312447 
L 363.209501 308.234844 
L 366.03602 304.804376 
L 368.77136 299.424529 
L 371.597879 298.473348 
L 377.159739 298.327904 
L 379.986257 299.188353 
L 382.539242 302.582355 
L 385.365761 310.726038 
L 388.101101 309.982471 
L 390.92762 307.499059 
L 393.662961 304.769047 
L 396.489479 301.531639 
L 399.315998 299.894746 
L 402.051339 298.745973 
L 404.877857 298.338124 
L 410.439717 298.269185 
L 413.266235 309.381809 
L 415.81922 307.294298 
L 418.645739 307.638554 
L 421.381079 310.061262 
L 424.207598 314.822397 
L 426.942939 317.481305 
L 429.769458 313.833867 
L 432.595976 312.123547 
L 435.331317 308.669593 
L 438.157836 305.623902 
L 440.893176 308.966801 
L 443.719695 310.542063 
L 446.546214 329.989039 
L 449.099198 325.975735 
L 451.925717 323.081888 
L 454.661058 321.643221 
L 457.487576 321.145638 
L 460.222917 319.448691 
L 463.049436 318.434521 
L 465.875954 317.553386 
L 471.437814 315.271836 
L 474.173155 314.411653 
L 476.999673 313.763481 
L 479.826192 298.850921 
L 482.470355 303.556665 
L 485.296873 300.797404 
L 488.032214 298.388974 
L 490.858733 298.579492 
L 493.594073 299.096926 
L 496.420592 298.701366 
L 499.247111 298.94263 
L 501.982451 298.068747 
L 521.312192 298.041796 
L 524.138711 304.127788 
L 526.874052 306.702818 
L 529.70057 305.704745 
L 532.527089 304.347644 
L 535.26243 299.347807 
L 538.088948 298.037578 
L 543.650808 297.999961 
L 549.030311 314.699154 
L 551.85683 308.162719 
L 554.59217 302.142029 
L 557.418689 300.788532 
L 560.15403 300.151565 
L 562.980548 299.611294 
L 565.807067 298.620532 
L 568.542408 298.322432 
L 576.930786 298.157848 
L 579.757305 300.803763 
L 582.310289 300.308784 
L 585.136808 299.956582 
L 587.872149 299.755496 
L 590.698667 299.819706 
L 593.434008 303.052837 
L 596.260527 304.854917 
L 599.087045 306.832248 
L 601.822386 304.550435 
L 604.648905 300.870343 
L 607.384245 299.470814 
L 610.210764 305.930863 
L 613.037283 319.012209 
L 615.681445 320.070358 
L 618.507964 313.789518 
L 621.243305 310.161117 
L 624.069824 308.957754 
L 626.805164 308.67532 
L 629.631683 307.06529 
L 632.458202 305.638079 
L 635.193542 302.771353 
L 638.020061 301.4666 
L 643.58192 299.572681 
L 646.408439 298.14948 
L 648.961424 298.274102 
L 651.787942 298.025185 
L 657.349802 298.160692 
L 660.085142 299.782684 
L 662.911661 302.315313 
L 665.73818 303.490348 
L 668.47352 300.361883 
L 671.300039 298.269951 
L 674.03538 298.043238 
L 676.861899 297.997824 
L 679.688417 298.146835 
L 687.803261 298.020993 
L 690.62978 298.023705 
L 696.191639 300.063977 
L 699.018158 300.068622 
L 701.753499 298.400866 
L 704.580017 298.000124 
L 710.141877 297.994313 
L 715.52138 298.949363 
L 718.347899 301.671807 
L 721.083239 304.002785 
L 723.909758 305.191365 
L 726.645099 307.42296 
L 729.471618 306.093582 
L 732.298136 305.432582 
L 735.033477 301.320344 
L 737.859996 298.752163 
L 740.595336 298.275011 
L 743.421855 298.278877 
L 746.248374 299.145089 
L 748.892536 298.349104 
L 751.719055 301.247304 
L 754.454396 305.506449 
L 757.280914 307.228455 
L 762.842774 303.659664 
L 765.669292 302.832534 
L 768.404633 300.409123 
L 771.231152 299.53013 
L 773.966492 298.23649 
L 776.793011 298.34488 
L 779.61953 298.650328 
L 782.172515 298.228754 
L 784.999033 298.754173 
L 787.734374 299.952631 
L 790.560893 299.475418 
L 793.296233 313.28045 
L 796.122752 341.539278 
L 798.949271 334.910594 
L 801.684611 315.072275 
L 804.51113 302.968125 
L 807.246471 299.567596 
L 810.072989 298.499112 
L 812.899508 299.417318 
L 815.452493 298.782374 
L 818.279011 299.362167 
L 821.014352 300.552334 
L 823.840871 299.740245 
L 826.576211 305.606255 
L 829.40273 304.378278 
L 832.229249 302.111685 
L 834.96459 299.116313 
L 837.791108 299.331697 
L 843.352968 299.035241 
L 848.732471 299.312352 
L 851.55899 301.721573 
L 854.29433 311.801921 
L 857.120849 308.940486 
L 859.85619 309.746353 
L 862.682708 306.506839 
L 865.509227 306.075379 
L 868.244568 305.902972 
L 871.071086 300.302227 
L 873.806427 298.883989 
L 876.632946 298.350784 
L 879.459465 298.084202 
L 882.103627 298.294457 
L 884.930146 298.372803 
L 887.665487 298.793913 
L 890.492005 303.953117 
L 893.227346 308.601972 
L 896.053865 310.847707 
L 898.880383 310.681983 
L 901.615724 306.432985 
L 904.442243 302.618958 
L 907.177583 305.619246 
L 910.004102 314.107822 
L 912.830621 319.74496 
L 915.383605 317.754915 
L 918.210124 309.89082 
L 920.945465 302.618601 
L 923.771983 301.747526 
L 926.507324 304.036776 
L 929.333843 304.537582 
L 932.160362 305.476687 
L 934.895702 302.704436 
L 937.722221 300.619807 
L 940.457562 300.362434 
L 943.28408 302.064939 
L 946.110599 333.002805 
L 948.663584 319.323257 
L 951.490102 312.980292 
L 954.225443 312.818967 
L 957.051962 316.527271 
L 959.787302 315.496588 
L 962.613821 311.410355 
L 965.44034 307.556666 
L 968.17568 304.468868 
L 971.002199 303.677965 
L 976.564058 302.735257 
L 981.943562 302.021388 
L 984.770081 302.555473 
L 987.505421 303.406674 
L 990.33194 305.434401 
L 993.067281 306.99625 
L 995.893799 308.032866 
L 998.720318 307.020892 
L 1001.455659 301.745984 
L 1004.282177 299.753206 
L 1007.017518 299.606421 
L 1009.844037 299.239984 
L 1012.670555 299.083207 
L 1015.314718 299.048196 
L 1018.141237 300.886063 
L 1020.876577 300.587987 
L 1023.703096 299.8545 
L 1026.438437 299.436637 
L 1029.264956 298.843961 
L 1032.091474 298.561494 
L 1056.983074 298.215373 
L 1073.668652 298.154321 
L 1076.495171 301.969699 
L 1079.32169 301.16749 
L 1081.874674 300.679097 
L 1084.701193 300.273356 
L 1084.701193 300.273356 
" style="fill:none;stroke:#8c564b;stroke-linecap:square;stroke-width:2.5;"/>
   </g>
   <g id="line2d_37">
    <path clip-path="url(#pe5bae9c13c)" d="M 110.737557 297.993339 
L 1084.701193 297.993339 
L 1084.701193 297.993339 
" style="fill:none;stroke:#e377c2;stroke-linecap:square;stroke-width:2.5;"/>
   </g>
   <g id="line2d_38">
    <path clip-path="url(#pe5bae9c13c)" d="M 110.737557 373.834035 
L 113.564076 375.706356 
L 144.017535 375.706356 
L 146.844054 401.935872 
L 177.297513 401.906254 
L 180.124032 407.931367 
L 210.577491 407.923142 
L 213.40401 416.109796 
L 243.948648 416.09922 
L 246.775166 380.77604 
L 277.228626 380.799027 
L 280.055145 336.519153 
L 310.508604 336.519153 
L 313.335123 435.086005 
L 329.838345 434.985606 
L 343.788582 434.947296 
L 346.615101 387.214211 
L 363.209501 387.243549 
L 377.159739 387.243549 
L 379.986257 419.762451 
L 410.439717 419.676068 
L 413.266235 390.404009 
L 443.719695 390.423957 
L 446.546214 385.789541 
L 476.999673 385.789541 
L 479.826192 411.687098 
L 510.370829 411.663244 
L 513.197348 435.081585 
L 543.650808 435.062187 
L 546.477326 426.717652 
L 576.930786 426.718677 
L 579.757305 424.934394 
L 582.310289 421.950551 
L 585.136808 426.244126 
L 590.698667 424.279784 
L 593.434008 423.608659 
L 596.260527 422.617517 
L 599.087045 424.388017 
L 601.822386 426.862058 
L 604.648905 428.53643 
L 607.384245 428.45084 
L 610.210764 429.911451 
L 613.037283 436.877115 
L 615.681445 431.75082 
L 618.507964 432.074931 
L 621.243305 429.252421 
L 624.069824 429.081791 
L 626.805164 427.83647 
L 629.631683 429.757485 
L 632.458202 430.335709 
L 635.193542 431.281529 
L 638.020061 429.740149 
L 640.755402 430.316573 
L 643.58192 435.432339 
L 646.408439 435.640542 
L 648.961424 431.230555 
L 651.787942 436.517986 
L 654.523283 433.68021 
L 657.349802 432.31776 
L 660.085142 430.24029 
L 662.911661 432.619191 
L 665.73818 430.164892 
L 668.47352 430.384752 
L 671.300039 433.276076 
L 674.03538 431.915249 
L 676.861899 436.09494 
L 679.688417 436.280669 
L 682.241402 433.27021 
L 685.067921 434.919804 
L 690.62978 434.5143 
L 693.365121 433.252725 
L 696.191639 431.322823 
L 699.018158 434.962385 
L 701.753499 434.246627 
L 704.580017 436.834683 
L 707.315358 435.653775 
L 710.141877 437.687573 
L 712.968395 440.581024 
L 715.52138 438.33946 
L 718.347899 435.619606 
L 721.083239 432.66595 
L 723.909758 433.801788 
L 726.645099 433.375328 
L 729.471618 433.712672 
L 732.298136 431.899069 
L 737.859996 436.260143 
L 740.595336 434.235064 
L 743.421855 437.678155 
L 746.248374 438.607934 
L 748.892536 439.272532 
L 751.719055 437.429152 
L 754.454396 439.587998 
L 757.280914 437.461717 
L 760.016255 437.732112 
L 762.842774 435.346786 
L 765.669292 434.043871 
L 768.404633 435.946897 
L 771.231152 434.185051 
L 773.966492 437.870346 
L 776.793011 436.305167 
L 779.61953 439.671368 
L 782.172515 441.862135 
L 784.999033 438.601612 
L 787.734374 431.191406 
L 790.560893 433.932318 
L 793.296233 435.369335 
L 796.122752 433.256362 
L 798.949271 433.759962 
L 801.684611 434.370574 
L 804.51113 432.910094 
L 807.246471 434.865436 
L 810.072989 438.985089 
L 812.899508 432.277035 
L 815.452493 436.365224 
L 818.279011 431.027491 
L 821.014352 423.909298 
L 823.840871 426.627193 
L 826.576211 427.139094 
L 829.40273 425.990107 
L 832.229249 427.12407 
L 834.96459 426.686625 
L 837.791108 424.550898 
L 840.526449 425.95286 
L 843.352968 430.351236 
L 846.179486 428.199096 
L 848.732471 430.295189 
L 851.55899 426.68421 
L 854.29433 421.866266 
L 857.120849 423.737259 
L 859.85619 423.486886 
L 862.682708 422.937198 
L 865.509227 424.037431 
L 868.244568 423.989013 
L 871.071086 423.281975 
L 873.806427 424.740599 
L 876.632946 427.920522 
L 879.459465 430.516187 
L 882.103627 432.151382 
L 884.930146 429.981906 
L 887.665487 426.458764 
L 890.492005 426.00167 
L 893.227346 423.921038 
L 896.053865 422.943913 
L 898.880383 429.834627 
L 901.615724 427.522105 
L 904.442243 425.670453 
L 907.177583 432.954651 
L 910.004102 428.737826 
L 912.830621 436.059578 
L 915.383605 434.242049 
L 918.210124 433.732517 
L 920.945465 428.474359 
L 923.771983 426.58742 
L 929.333843 423.933246 
L 932.160362 427.150163 
L 934.895702 425.362914 
L 937.722221 424.798735 
L 940.457562 429.450823 
L 943.28408 429.509667 
L 946.110599 426.492084 
L 951.490102 425.194662 
L 954.225443 425.294213 
L 957.051962 426.359586 
L 959.787302 425.887273 
L 962.613821 426.731248 
L 965.44034 426.232665 
L 968.17568 426.764186 
L 971.002199 428.347195 
L 973.73754 428.233927 
L 976.564058 428.851411 
L 979.390577 431.247882 
L 981.943562 431.158133 
L 984.770081 431.892942 
L 987.505421 433.860418 
L 993.067281 435.432022 
L 995.893799 438.20809 
L 998.720318 442.654204 
L 1001.455659 442.439529 
L 1004.282177 444.290509 
L 1007.017518 444.204331 
L 1009.844037 444.572021 
L 1012.670555 444.341408 
L 1015.314718 444.815866 
L 1018.141237 444.837996 
L 1020.876577 444.563105 
L 1023.703096 445.432259 
L 1026.438437 445.374982 
L 1029.264956 445.712353 
L 1032.091474 446.689572 
L 1034.826815 447.163135 
L 1037.653334 447.127064 
L 1040.388674 448.386979 
L 1043.215193 448.440759 
L 1046.041712 448.755834 
L 1051.421215 447.938474 
L 1054.156556 449.417727 
L 1059.718415 449.172557 
L 1062.544934 448.830289 
L 1065.371452 448.362182 
L 1070.933312 448.150295 
L 1073.668652 449.496425 
L 1076.495171 442.362108 
L 1084.701193 442.142761 
L 1084.701193 442.142761 
" style="fill:none;stroke:#7f7f7f;stroke-linecap:square;stroke-width:2.5;"/>
   </g>
   <g id="line2d_39">
    <path clip-path="url(#pe5bae9c13c)" d="M 110.737557 358.576021 
L 113.564076 358.576021 
L 116.11706 364.499173 
L 118.943579 375.871867 
L 121.67892 384.927082 
L 124.505438 393.089079 
L 127.240779 397.627609 
L 130.067298 397.648107 
L 132.893816 394.419029 
L 138.455676 376.384583 
L 141.191016 370.159702 
L 144.017535 365.607864 
L 146.844054 358.608479 
L 149.397038 354.593137 
L 152.223557 351.708397 
L 154.958898 349.700906 
L 157.785416 348.425548 
L 160.520757 347.889182 
L 163.347276 348.027341 
L 166.173794 348.742054 
L 168.909135 349.126459 
L 171.735654 348.367725 
L 174.470995 346.582817 
L 177.297513 344.471849 
L 180.124032 342.837745 
L 182.677017 342.035255 
L 188.238876 340.543883 
L 191.065395 339.986344 
L 193.800735 339.776322 
L 196.627254 339.83083 
L 202.189113 340.221493 
L 205.015632 340.018843 
L 207.750973 339.321863 
L 210.577491 338.174736 
L 213.40401 336.315303 
L 218.874692 333.566968 
L 221.610032 332.464765 
L 224.436551 331.566128 
L 227.171892 330.964213 
L 229.99841 330.582251 
L 241.122129 329.712127 
L 243.948648 329.272157 
L 246.775166 331.629985 
L 252.15467 335.5768 
L 257.716529 340.081978 
L 260.45187 342.320081 
L 263.278388 345.089408 
L 266.104907 348.692433 
L 268.840248 354.981315 
L 271.666767 367.392166 
L 274.402107 381.153101 
L 280.055145 427.989634 
L 282.608129 429.957874 
L 285.434648 426.143242 
L 288.169989 429.54254 
L 293.731848 450.086688 
L 296.558367 454.440031 
L 299.384885 457.253673 
L 302.120226 451.986618 
L 304.946745 440.414441 
L 307.682085 431.480873 
L 310.508604 423.650391 
L 313.335123 402.699125 
L 315.888107 396.816078 
L 318.714626 393.185347 
L 324.276486 395.915972 
L 327.011826 395.985476 
L 329.838345 398.775552 
L 332.664864 400.626933 
L 335.400204 394.550762 
L 338.226723 384.046421 
L 340.962064 375.603239 
L 343.788582 369.221529 
L 346.615101 366.346348 
L 349.259264 364.338927 
L 352.085782 362.426934 
L 354.821123 361.573321 
L 357.647642 362.267103 
L 360.382982 366.335973 
L 363.209501 374.805579 
L 366.03602 381.662334 
L 368.77136 378.703782 
L 371.597879 372.116719 
L 374.33322 366.9741 
L 377.159739 363.710354 
L 379.986257 360.181738 
L 382.539242 359.378428 
L 385.365761 363.912486 
L 390.92762 383.396707 
L 393.662961 389.880406 
L 396.489479 391.46293 
L 399.315998 390.604015 
L 402.051339 384.083173 
L 404.877857 373.024355 
L 407.613198 365.566757 
L 410.439717 360.919597 
L 413.266235 360.386729 
L 415.81922 360.115769 
L 418.645739 360.560726 
L 421.381079 361.86379 
L 424.207598 365.762818 
L 426.942939 375.337739 
L 429.769458 384.168931 
L 432.595976 392.528471 
L 435.331317 396.011951 
L 438.157836 393.784563 
L 440.893176 403.26268 
L 443.719695 418.350352 
L 446.546214 430.208088 
L 449.099198 434.081593 
L 451.925717 434.62022 
L 454.661058 435.900353 
L 457.487576 439.061792 
L 460.222917 438.622958 
L 463.049436 436.691274 
L 465.875954 433.623193 
L 468.611295 421.103704 
L 471.437814 403.049422 
L 474.173155 391.219644 
L 476.999673 384.925945 
L 479.826192 376.824378 
L 482.470355 380.184629 
L 485.296873 381.930827 
L 488.032214 379.635837 
L 490.858733 379.573934 
L 493.594073 380.404014 
L 496.420592 380.653473 
L 499.247111 381.564257 
L 501.982451 377.585728 
L 504.80897 370.348592 
L 507.544311 365.003725 
L 510.370829 360.891015 
L 513.197348 354.89994 
L 515.750333 351.34594 
L 518.576851 348.523504 
L 521.312192 346.695022 
L 524.138711 346.557134 
L 526.874052 347.734182 
L 529.70057 349.586066 
L 532.527089 351.628323 
L 535.26243 352.226728 
L 538.088948 350.959073 
L 540.824289 348.857384 
L 543.650808 346.947293 
L 546.477326 348.017083 
L 549.030311 351.750279 
L 551.85683 356.931906 
L 554.59217 359.198677 
L 557.418689 360.869584 
L 560.15403 362.082657 
L 562.980548 362.971856 
L 565.807067 362.813172 
L 576.930786 347.570504 
L 579.757305 343.989352 
L 582.310289 341.601358 
L 585.136808 339.379201 
L 587.872149 337.521451 
L 590.698667 336.181185 
L 593.434008 335.758703 
L 596.260527 336.107331 
L 601.822386 338.090233 
L 604.648905 338.752643 
L 607.384245 339.008616 
L 610.210764 339.878764 
L 613.037283 343.147499 
L 615.681445 347.121724 
L 618.507964 351.146643 
L 621.243305 353.96539 
L 626.805164 360.933507 
L 629.631683 363.504347 
L 632.458202 365.116522 
L 635.193542 362.956576 
L 638.020061 358.231045 
L 643.58192 350.514111 
L 646.408439 345.376179 
L 648.961424 342.087632 
L 651.787942 339.359655 
L 654.523283 337.337555 
L 657.349802 335.881253 
L 660.085142 335.169477 
L 662.911661 335.183132 
L 668.47352 336.167956 
L 671.300039 336.201866 
L 674.03538 335.764021 
L 676.861899 334.955583 
L 682.241402 332.995676 
L 687.803261 331.377332 
L 690.62978 330.754338 
L 693.365121 330.407121 
L 696.191639 330.326224 
L 701.753499 330.4809 
L 704.580017 330.24556 
L 707.315358 329.723271 
L 712.968395 328.360057 
L 715.52138 327.858501 
L 718.347899 327.507376 
L 721.083239 327.438822 
L 723.909758 327.644847 
L 726.645099 328.298858 
L 729.471618 329.273253 
L 732.298136 330.393319 
L 735.033477 331.277868 
L 737.859996 331.464037 
L 740.595336 331.044975 
L 743.421855 330.309955 
L 746.248374 329.817189 
L 748.892536 329.47232 
L 751.719055 329.320399 
L 754.454396 329.63355 
L 757.280914 330.478245 
L 762.842774 332.646796 
L 765.669292 333.495422 
L 768.404633 333.952378 
L 771.231152 333.724272 
L 773.966492 332.783246 
L 776.793011 331.50392 
L 779.61953 330.082474 
L 782.172515 329.033408 
L 784.999033 328.22135 
L 790.560893 326.981858 
L 793.296233 326.914784 
L 796.122752 328.905354 
L 798.949271 335.482257 
L 801.684611 340.907413 
L 804.51113 342.272124 
L 807.246471 340.84683 
L 810.072989 337.866363 
L 812.899508 336.199705 
L 815.452493 335.026579 
L 818.279011 334.274988 
L 823.840871 333.171169 
L 826.576211 333.547639 
L 832.229249 335.199079 
L 834.96459 335.619964 
L 837.791108 334.751859 
L 840.526449 333.214188 
L 843.352968 330.746489 
L 846.179486 329.248475 
L 848.732471 328.230799 
L 851.55899 327.686285 
L 854.29433 327.890021 
L 857.120849 328.705316 
L 859.85619 330.205418 
L 865.509227 333.630804 
L 868.244568 335.132284 
L 871.071086 335.644574 
L 873.806427 335.531814 
L 876.632946 334.2584 
L 882.103627 333.035808 
L 884.930146 332.692827 
L 887.665487 332.569154 
L 890.492005 332.855228 
L 893.227346 333.99871 
L 896.053865 335.80371 
L 898.880383 338.286928 
L 901.615724 340.513361 
L 904.442243 341.508825 
L 907.177583 342.632987 
L 910.004102 345.842999 
L 912.830621 359.490815 
L 915.383605 375.760589 
L 918.210124 382.077976 
L 920.945465 364.965089 
L 923.771983 355.308732 
L 926.507324 356.715846 
L 929.333843 358.913482 
L 932.160362 362.591936 
L 934.895702 363.799078 
L 937.722221 362.150897 
L 940.457562 362.0517 
L 943.28408 364.046224 
L 946.110599 373.195143 
L 948.663584 374.332893 
L 951.490102 355.682609 
L 954.225443 353.854742 
L 957.051962 359.287023 
L 959.787302 368.098365 
L 962.613821 374.21429 
L 965.44034 375.758957 
L 968.17568 367.837901 
L 971.002199 357.976493 
L 973.73754 352.295415 
L 976.564058 348.181069 
L 979.390577 343.815999 
L 981.943562 340.909913 
L 984.770081 339.230108 
L 987.505421 338.374486 
L 990.33194 338.42745 
L 993.067281 339.257456 
L 995.893799 340.938859 
L 998.720318 342.829851 
L 1001.455659 343.857484 
L 1004.282177 342.76439 
L 1007.017518 340.423933 
L 1009.844037 337.518579 
L 1012.670555 335.142503 
L 1015.314718 333.403099 
L 1018.141237 332.49053 
L 1020.876577 332.20281 
L 1026.438437 332.2662 
L 1029.264956 332.326381 
L 1032.091474 332.218547 
L 1034.826815 331.765747 
L 1037.653334 330.642443 
L 1043.215193 327.886704 
L 1054.156556 323.602851 
L 1056.983074 322.637433 
L 1059.718415 321.855627 
L 1062.544934 321.235592 
L 1070.933312 319.9156 
L 1073.668652 319.469289 
L 1076.495171 319.364467 
L 1081.874674 318.749871 
L 1084.701193 318.36852 
L 1084.701193 318.36852 
" style="fill:none;stroke:#bcbd22;stroke-linecap:square;stroke-width:2.5;"/>
   </g>
   <g id="line2d_40">
    <path clip-path="url(#pe5bae9c13c)" d="M 110.737557 297.993339 
L 1084.701193 297.993339 
L 1084.701193 297.993339 
" style="fill:none;stroke:#17becf;stroke-linecap:square;stroke-width:2.5;"/>
   </g>
   <g id="patch_3">
    <path d="M 62.039375 478.6848 
L 62.039375 7.2 
" style="fill:none;stroke:#000000;stroke-linecap:square;stroke-linejoin:miter;stroke-width:0.8;"/>
   </g>
   <g id="patch_4">
    <path d="M 1133.399375 478.6848 
L 1133.399375 7.2 
" style="fill:none;stroke:#000000;stroke-linecap:square;stroke-linejoin:miter;stroke-width:0.8;"/>
   </g>
   <g id="patch_5">
    <path d="M 62.039375 478.6848 
L 1133.399375 478.6848 
" style="fill:none;stroke:#000000;stroke-linecap:square;stroke-linejoin:miter;stroke-width:0.8;"/>
   </g>
   <g id="patch_6">
    <path d="M 62.039375 7.2 
L 1133.399375 7.2 
" style="fill:none;stroke:#000000;stroke-linecap:square;stroke-linejoin:miter;stroke-width:0.8;"/>
   </g>
   <g id="legend_1">
    <g id="patch_7">
     <path d="M 980.274375 164.7625 
L 1126.399375 164.7625 
Q 1128.399375 164.7625 1128.399375 162.7625 
L 1128.399375 14.2 
Q 1128.399375 12.2 1126.399375 12.2 
L 980.274375 12.2 
Q 978.274375 12.2 978.274375 14.2 
L 978.274375 162.7625 
Q 978.274375 164.7625 980.274375 164.7625 
z
" style="fill:#ffffff;opacity:0.8;stroke:#cccccc;stroke-linejoin:miter;"/>
    </g>
    <g id="line2d_41">
     <path d="M 982.274375 20.298437 
L 1002.274375 20.298437 
" style="fill:none;stroke:#1f77b4;stroke-linecap:square;stroke-width:2.5;"/>
    </g>
    <g id="line2d_42"/>
    <g id="text_17">
     <!-- STORAGE_IN -->
     <defs>
      <path d="M 53.515625 70.515625 
L 53.515625 60.890625 
Q 47.90625 63.578125 42.921875 64.890625 
Q 37.9375 66.21875 33.296875 66.21875 
Q 25.25 66.21875 20.875 63.09375 
Q 16.5 59.96875 16.5 54.203125 
Q 16.5 49.359375 19.40625 46.890625 
Q 22.3125 44.4375 30.421875 42.921875 
L 36.375 41.703125 
Q 47.40625 39.59375 52.65625 34.296875 
Q 57.90625 29 57.90625 20.125 
Q 57.90625 9.515625 50.796875 4.046875 
Q 43.703125 -1.421875 29.984375 -1.421875 
Q 24.8125 -1.421875 18.96875 -0.25 
Q 13.140625 0.921875 6.890625 3.21875 
L 6.890625 13.375 
Q 12.890625 10.015625 18.65625 8.296875 
Q 24.421875 6.59375 29.984375 6.59375 
Q 38.421875 6.59375 43.015625 9.90625 
Q 47.609375 13.234375 47.609375 19.390625 
Q 47.609375 24.75 44.3125 27.78125 
Q 41.015625 30.8125 33.5 32.328125 
L 27.484375 33.5 
Q 16.453125 35.6875 11.515625 40.375 
Q 6.59375 45.0625 6.59375 53.421875 
Q 6.59375 63.09375 13.40625 68.65625 
Q 20.21875 74.21875 32.171875 74.21875 
Q 37.3125 74.21875 42.625 73.28125 
Q 47.953125 72.359375 53.515625 70.515625 
z
" id="DejaVuSans-83"/>
      <path d="M -0.296875 72.90625 
L 61.375 72.90625 
L 61.375 64.59375 
L 35.5 64.59375 
L 35.5 0 
L 25.59375 0 
L 25.59375 64.59375 
L -0.296875 64.59375 
z
" id="DejaVuSans-84"/>
      <path d="M 39.40625 66.21875 
Q 28.65625 66.21875 22.328125 58.203125 
Q 16.015625 50.203125 16.015625 36.375 
Q 16.015625 22.609375 22.328125 14.59375 
Q 28.65625 6.59375 39.40625 6.59375 
Q 50.140625 6.59375 56.421875 14.59375 
Q 62.703125 22.609375 62.703125 36.375 
Q 62.703125 50.203125 56.421875 58.203125 
Q 50.140625 66.21875 39.40625 66.21875 
z
M 39.40625 74.21875 
Q 54.734375 74.21875 63.90625 63.9375 
Q 73.09375 53.65625 73.09375 36.375 
Q 73.09375 19.140625 63.90625 8.859375 
Q 54.734375 -1.421875 39.40625 -1.421875 
Q 24.03125 -1.421875 14.8125 8.828125 
Q 5.609375 19.09375 5.609375 36.375 
Q 5.609375 53.65625 14.8125 63.9375 
Q 24.03125 74.21875 39.40625 74.21875 
z
" id="DejaVuSans-79"/>
      <path d="M 44.390625 34.1875 
Q 47.5625 33.109375 50.5625 29.59375 
Q 53.5625 26.078125 56.59375 19.921875 
L 66.609375 0 
L 56 0 
L 46.6875 18.703125 
Q 43.0625 26.03125 39.671875 28.421875 
Q 36.28125 30.8125 30.421875 30.8125 
L 19.671875 30.8125 
L 19.671875 0 
L 9.8125 0 
L 9.8125 72.90625 
L 32.078125 72.90625 
Q 44.578125 72.90625 50.734375 67.671875 
Q 56.890625 62.453125 56.890625 51.90625 
Q 56.890625 45.015625 53.6875 40.46875 
Q 50.484375 35.9375 44.390625 34.1875 
z
M 19.671875 64.796875 
L 19.671875 38.921875 
L 32.078125 38.921875 
Q 39.203125 38.921875 42.84375 42.21875 
Q 46.484375 45.515625 46.484375 51.90625 
Q 46.484375 58.296875 42.84375 61.546875 
Q 39.203125 64.796875 32.078125 64.796875 
z
" id="DejaVuSans-82"/>
      <path d="M 34.1875 63.1875 
L 20.796875 26.90625 
L 47.609375 26.90625 
z
M 28.609375 72.90625 
L 39.796875 72.90625 
L 67.578125 0 
L 57.328125 0 
L 50.6875 18.703125 
L 17.828125 18.703125 
L 11.1875 0 
L 0.78125 0 
z
" id="DejaVuSans-65"/>
      <path d="M 59.515625 10.40625 
L 59.515625 29.984375 
L 43.40625 29.984375 
L 43.40625 38.09375 
L 69.28125 38.09375 
L 69.28125 6.78125 
Q 63.578125 2.734375 56.6875 0.65625 
Q 49.8125 -1.421875 42 -1.421875 
Q 24.90625 -1.421875 15.25 8.5625 
Q 5.609375 18.5625 5.609375 36.375 
Q 5.609375 54.25 15.25 64.234375 
Q 24.90625 74.21875 42 74.21875 
Q 49.125 74.21875 55.546875 72.453125 
Q 61.96875 70.703125 67.390625 67.28125 
L 67.390625 56.78125 
Q 61.921875 61.421875 55.765625 63.765625 
Q 49.609375 66.109375 42.828125 66.109375 
Q 29.4375 66.109375 22.71875 58.640625 
Q 16.015625 51.171875 16.015625 36.375 
Q 16.015625 21.625 22.71875 14.15625 
Q 29.4375 6.6875 42.828125 6.6875 
Q 48.046875 6.6875 52.140625 7.59375 
Q 56.25 8.5 59.515625 10.40625 
z
" id="DejaVuSans-71"/>
      <path d="M 9.8125 72.90625 
L 55.90625 72.90625 
L 55.90625 64.59375 
L 19.671875 64.59375 
L 19.671875 43.015625 
L 54.390625 43.015625 
L 54.390625 34.71875 
L 19.671875 34.71875 
L 19.671875 8.296875 
L 56.78125 8.296875 
L 56.78125 0 
L 9.8125 0 
z
" id="DejaVuSans-69"/>
      <path d="M 50.984375 -16.609375 
L 50.984375 -23.578125 
L -0.984375 -23.578125 
L -0.984375 -16.609375 
z
" id="DejaVuSans-95"/>
      <path d="M 9.8125 72.90625 
L 19.671875 72.90625 
L 19.671875 0 
L 9.8125 0 
z
" id="DejaVuSans-73"/>
      <path d="M 9.8125 72.90625 
L 23.09375 72.90625 
L 55.421875 11.921875 
L 55.421875 72.90625 
L 64.984375 72.90625 
L 64.984375 0 
L 51.703125 0 
L 19.390625 60.984375 
L 19.390625 0 
L 9.8125 0 
z
" id="DejaVuSans-78"/>
     </defs>
     <g transform="translate(1010.274375 23.798437)scale(0.1 -0.1)">
      <use xlink:href="#DejaVuSans-83"/>
      <use x="63.476562" xlink:href="#DejaVuSans-84"/>
      <use x="124.560547" xlink:href="#DejaVuSans-79"/>
      <use x="203.271484" xlink:href="#DejaVuSans-82"/>
      <use x="268.753906" xlink:href="#DejaVuSans-65"/>
      <use x="335.412109" xlink:href="#DejaVuSans-71"/>
      <use x="412.902344" xlink:href="#DejaVuSans-69"/>
      <use x="476.085938" xlink:href="#DejaVuSans-95"/>
      <use x="526.085938" xlink:href="#DejaVuSans-73"/>
      <use x="555.578125" xlink:href="#DejaVuSans-78"/>
     </g>
    </g>
    <g id="line2d_43">
     <path d="M 982.274375 35.254687 
L 1002.274375 35.254687 
" style="fill:none;stroke:#ff7f0e;stroke-linecap:square;stroke-width:2.5;"/>
    </g>
    <g id="line2d_44"/>
    <g id="text_18">
     <!-- CONSTANT_HEAD_IN -->
     <defs>
      <path d="M 64.40625 67.28125 
L 64.40625 56.890625 
Q 59.421875 61.53125 53.78125 63.8125 
Q 48.140625 66.109375 41.796875 66.109375 
Q 29.296875 66.109375 22.65625 58.46875 
Q 16.015625 50.828125 16.015625 36.375 
Q 16.015625 21.96875 22.65625 14.328125 
Q 29.296875 6.6875 41.796875 6.6875 
Q 48.140625 6.6875 53.78125 8.984375 
Q 59.421875 11.28125 64.40625 15.921875 
L 64.40625 5.609375 
Q 59.234375 2.09375 53.4375 0.328125 
Q 47.65625 -1.421875 41.21875 -1.421875 
Q 24.65625 -1.421875 15.125 8.703125 
Q 5.609375 18.84375 5.609375 36.375 
Q 5.609375 53.953125 15.125 64.078125 
Q 24.65625 74.21875 41.21875 74.21875 
Q 47.75 74.21875 53.53125 72.484375 
Q 59.328125 70.75 64.40625 67.28125 
z
" id="DejaVuSans-67"/>
      <path d="M 9.8125 72.90625 
L 19.671875 72.90625 
L 19.671875 43.015625 
L 55.515625 43.015625 
L 55.515625 72.90625 
L 65.375 72.90625 
L 65.375 0 
L 55.515625 0 
L 55.515625 34.71875 
L 19.671875 34.71875 
L 19.671875 0 
L 9.8125 0 
z
" id="DejaVuSans-72"/>
      <path d="M 19.671875 64.796875 
L 19.671875 8.109375 
L 31.59375 8.109375 
Q 46.6875 8.109375 53.6875 14.9375 
Q 60.6875 21.78125 60.6875 36.53125 
Q 60.6875 51.171875 53.6875 57.984375 
Q 46.6875 64.796875 31.59375 64.796875 
z
M 9.8125 72.90625 
L 30.078125 72.90625 
Q 51.265625 72.90625 61.171875 64.09375 
Q 71.09375 55.28125 71.09375 36.53125 
Q 71.09375 17.671875 61.125 8.828125 
Q 51.171875 0 30.078125 0 
L 9.8125 0 
z
" id="DejaVuSans-68"/>
     </defs>
     <g transform="translate(1010.274375 38.754687)scale(0.1 -0.1)">
      <use xlink:href="#DejaVuSans-67"/>
      <use x="69.824219" xlink:href="#DejaVuSans-79"/>
      <use x="148.535156" xlink:href="#DejaVuSans-78"/>
      <use x="223.339844" xlink:href="#DejaVuSans-83"/>
      <use x="286.816406" xlink:href="#DejaVuSans-84"/>
      <use x="340.150391" xlink:href="#DejaVuSans-65"/>
      <use x="408.558594" xlink:href="#DejaVuSans-78"/>
      <use x="483.363281" xlink:href="#DejaVuSans-84"/>
      <use x="544.447266" xlink:href="#DejaVuSans-95"/>
      <use x="594.447266" xlink:href="#DejaVuSans-72"/>
      <use x="669.642578" xlink:href="#DejaVuSans-69"/>
      <use x="732.826172" xlink:href="#DejaVuSans-65"/>
      <use x="801.234375" xlink:href="#DejaVuSans-68"/>
      <use x="878.236328" xlink:href="#DejaVuSans-95"/>
      <use x="928.236328" xlink:href="#DejaVuSans-73"/>
      <use x="957.728516" xlink:href="#DejaVuSans-78"/>
     </g>
    </g>
    <g id="line2d_45">
     <path d="M 982.274375 50.210937 
L 1002.274375 50.210937 
" style="fill:none;stroke:#2ca02c;stroke-linecap:square;stroke-width:2.5;"/>
    </g>
    <g id="line2d_46"/>
    <g id="text_19">
     <!-- WELLS_IN -->
     <defs>
      <path d="M 3.328125 72.90625 
L 13.28125 72.90625 
L 28.609375 11.28125 
L 43.890625 72.90625 
L 54.984375 72.90625 
L 70.3125 11.28125 
L 85.59375 72.90625 
L 95.609375 72.90625 
L 77.296875 0 
L 64.890625 0 
L 49.515625 63.28125 
L 33.984375 0 
L 21.578125 0 
z
" id="DejaVuSans-87"/>
      <path d="M 9.8125 72.90625 
L 19.671875 72.90625 
L 19.671875 8.296875 
L 55.171875 8.296875 
L 55.171875 0 
L 9.8125 0 
z
" id="DejaVuSans-76"/>
     </defs>
     <g transform="translate(1010.274375 53.710937)scale(0.1 -0.1)">
      <use xlink:href="#DejaVuSans-87"/>
      <use x="98.876953" xlink:href="#DejaVuSans-69"/>
      <use x="162.060547" xlink:href="#DejaVuSans-76"/>
      <use x="217.773438" xlink:href="#DejaVuSans-76"/>
      <use x="273.486328" xlink:href="#DejaVuSans-83"/>
      <use x="336.962891" xlink:href="#DejaVuSans-95"/>
      <use x="386.962891" xlink:href="#DejaVuSans-73"/>
      <use x="416.455078" xlink:href="#DejaVuSans-78"/>
     </g>
    </g>
    <g id="line2d_47">
     <path d="M 982.274375 65.167187 
L 1002.274375 65.167187 
" style="fill:none;stroke:#d62728;stroke-linecap:square;stroke-width:2.5;"/>
    </g>
    <g id="line2d_48"/>
    <g id="text_20">
     <!-- DRAINS_IN -->
     <g transform="translate(1010.274375 68.667187)scale(0.1 -0.1)">
      <use xlink:href="#DejaVuSans-68"/>
      <use x="77.001953" xlink:href="#DejaVuSans-82"/>
      <use x="142.484375" xlink:href="#DejaVuSans-65"/>
      <use x="210.892578" xlink:href="#DejaVuSans-73"/>
      <use x="240.384766" xlink:href="#DejaVuSans-78"/>
      <use x="315.189453" xlink:href="#DejaVuSans-83"/>
      <use x="378.666016" xlink:href="#DejaVuSans-95"/>
      <use x="428.666016" xlink:href="#DejaVuSans-73"/>
      <use x="458.158203" xlink:href="#DejaVuSans-78"/>
     </g>
    </g>
    <g id="line2d_49">
     <path d="M 982.274375 80.123437 
L 1002.274375 80.123437 
" style="fill:none;stroke:#9467bd;stroke-linecap:square;stroke-width:2.5;"/>
    </g>
    <g id="line2d_50"/>
    <g id="text_21">
     <!-- RECHARGE_IN -->
     <g transform="translate(1010.274375 83.623437)scale(0.1 -0.1)">
      <use xlink:href="#DejaVuSans-82"/>
      <use x="69.482422" xlink:href="#DejaVuSans-69"/>
      <use x="132.666016" xlink:href="#DejaVuSans-67"/>
      <use x="202.490234" xlink:href="#DejaVuSans-72"/>
      <use x="277.685547" xlink:href="#DejaVuSans-65"/>
      <use x="346.09375" xlink:href="#DejaVuSans-82"/>
      <use x="415.576172" xlink:href="#DejaVuSans-71"/>
      <use x="493.066406" xlink:href="#DejaVuSans-69"/>
      <use x="556.25" xlink:href="#DejaVuSans-95"/>
      <use x="606.25" xlink:href="#DejaVuSans-73"/>
      <use x="635.742188" xlink:href="#DejaVuSans-78"/>
     </g>
    </g>
    <g id="line2d_51">
     <path d="M 982.274375 95.079687 
L 1002.274375 95.079687 
" style="fill:none;stroke:#8c564b;stroke-linecap:square;stroke-width:2.5;"/>
    </g>
    <g id="line2d_52"/>
    <g id="text_22">
     <!-- STORAGE_OUT -->
     <defs>
      <path d="M 8.6875 72.90625 
L 18.609375 72.90625 
L 18.609375 28.609375 
Q 18.609375 16.890625 22.84375 11.734375 
Q 27.09375 6.59375 36.625 6.59375 
Q 46.09375 6.59375 50.34375 11.734375 
Q 54.59375 16.890625 54.59375 28.609375 
L 54.59375 72.90625 
L 64.5 72.90625 
L 64.5 27.390625 
Q 64.5 13.140625 57.4375 5.859375 
Q 50.390625 -1.421875 36.625 -1.421875 
Q 22.796875 -1.421875 15.734375 5.859375 
Q 8.6875 13.140625 8.6875 27.390625 
z
" id="DejaVuSans-85"/>
     </defs>
     <g transform="translate(1010.274375 98.579687)scale(0.1 -0.1)">
      <use xlink:href="#DejaVuSans-83"/>
      <use x="63.476562" xlink:href="#DejaVuSans-84"/>
      <use x="124.560547" xlink:href="#DejaVuSans-79"/>
      <use x="203.271484" xlink:href="#DejaVuSans-82"/>
      <use x="268.753906" xlink:href="#DejaVuSans-65"/>
      <use x="335.412109" xlink:href="#DejaVuSans-71"/>
      <use x="412.902344" xlink:href="#DejaVuSans-69"/>
      <use x="476.085938" xlink:href="#DejaVuSans-95"/>
      <use x="526.085938" xlink:href="#DejaVuSans-79"/>
      <use x="604.796875" xlink:href="#DejaVuSans-85"/>
      <use x="677.990234" xlink:href="#DejaVuSans-84"/>
     </g>
    </g>
    <g id="line2d_53">
     <path d="M 982.274375 110.035937 
L 1002.274375 110.035937 
" style="fill:none;stroke:#e377c2;stroke-linecap:square;stroke-width:2.5;"/>
    </g>
    <g id="line2d_54"/>
    <g id="text_23">
     <!-- CONSTANT_HEAD_OUT -->
     <g transform="translate(1010.274375 113.535937)scale(0.1 -0.1)">
      <use xlink:href="#DejaVuSans-67"/>
      <use x="69.824219" xlink:href="#DejaVuSans-79"/>
      <use x="148.535156" xlink:href="#DejaVuSans-78"/>
      <use x="223.339844" xlink:href="#DejaVuSans-83"/>
      <use x="286.816406" xlink:href="#DejaVuSans-84"/>
      <use x="340.150391" xlink:href="#DejaVuSans-65"/>
      <use x="408.558594" xlink:href="#DejaVuSans-78"/>
      <use x="483.363281" xlink:href="#DejaVuSans-84"/>
      <use x="544.447266" xlink:href="#DejaVuSans-95"/>
      <use x="594.447266" xlink:href="#DejaVuSans-72"/>
      <use x="669.642578" xlink:href="#DejaVuSans-69"/>
      <use x="732.826172" xlink:href="#DejaVuSans-65"/>
      <use x="801.234375" xlink:href="#DejaVuSans-68"/>
      <use x="878.236328" xlink:href="#DejaVuSans-95"/>
      <use x="928.236328" xlink:href="#DejaVuSans-79"/>
      <use x="1006.947266" xlink:href="#DejaVuSans-85"/>
      <use x="1080.140625" xlink:href="#DejaVuSans-84"/>
     </g>
    </g>
    <g id="line2d_55">
     <path d="M 982.274375 124.992187 
L 1002.274375 124.992187 
" style="fill:none;stroke:#7f7f7f;stroke-linecap:square;stroke-width:2.5;"/>
    </g>
    <g id="line2d_56"/>
    <g id="text_24">
     <!-- WELLS_OUT -->
     <g transform="translate(1010.274375 128.492187)scale(0.1 -0.1)">
      <use xlink:href="#DejaVuSans-87"/>
      <use x="98.876953" xlink:href="#DejaVuSans-69"/>
      <use x="162.060547" xlink:href="#DejaVuSans-76"/>
      <use x="217.773438" xlink:href="#DejaVuSans-76"/>
      <use x="273.486328" xlink:href="#DejaVuSans-83"/>
      <use x="336.962891" xlink:href="#DejaVuSans-95"/>
      <use x="386.962891" xlink:href="#DejaVuSans-79"/>
      <use x="465.673828" xlink:href="#DejaVuSans-85"/>
      <use x="538.867188" xlink:href="#DejaVuSans-84"/>
     </g>
    </g>
    <g id="line2d_57">
     <path d="M 982.274375 139.948437 
L 1002.274375 139.948437 
" style="fill:none;stroke:#bcbd22;stroke-linecap:square;stroke-width:2.5;"/>
    </g>
    <g id="line2d_58"/>
    <g id="text_25">
     <!-- DRAINS_OUT -->
     <g transform="translate(1010.274375 143.448437)scale(0.1 -0.1)">
      <use xlink:href="#DejaVuSans-68"/>
      <use x="77.001953" xlink:href="#DejaVuSans-82"/>
      <use x="142.484375" xlink:href="#DejaVuSans-65"/>
      <use x="210.892578" xlink:href="#DejaVuSans-73"/>
      <use x="240.384766" xlink:href="#DejaVuSans-78"/>
      <use x="315.189453" xlink:href="#DejaVuSans-83"/>
      <use x="378.666016" xlink:href="#DejaVuSans-95"/>
      <use x="428.666016" xlink:href="#DejaVuSans-79"/>
      <use x="507.376953" xlink:href="#DejaVuSans-85"/>
      <use x="580.570312" xlink:href="#DejaVuSans-84"/>
     </g>
    </g>
    <g id="line2d_59">
     <path d="M 982.274375 154.904687 
L 1002.274375 154.904687 
" style="fill:none;stroke:#17becf;stroke-linecap:square;stroke-width:2.5;"/>
    </g>
    <g id="line2d_60"/>
    <g id="text_26">
     <!-- RECHARGE_OUT -->
     <g transform="translate(1010.274375 158.404687)scale(0.1 -0.1)">
      <use xlink:href="#DejaVuSans-82"/>
      <use x="69.482422" xlink:href="#DejaVuSans-69"/>
      <use x="132.666016" xlink:href="#DejaVuSans-67"/>
      <use x="202.490234" xlink:href="#DejaVuSans-72"/>
      <use x="277.685547" xlink:href="#DejaVuSans-65"/>
      <use x="346.09375" xlink:href="#DejaVuSans-82"/>
      <use x="415.576172" xlink:href="#DejaVuSans-71"/>
      <use x="493.066406" xlink:href="#DejaVuSans-69"/>
      <use x="556.25" xlink:href="#DejaVuSans-95"/>
      <use x="606.25" xlink:href="#DejaVuSans-79"/>
      <use x="684.960938" xlink:href="#DejaVuSans-85"/>
      <use x="758.154297" xlink:href="#DejaVuSans-84"/>
     </g>
    </g>
   </g>
  </g>
 </g>
 <defs>
  <clipPath id="pe5bae9c13c">
   <rect height="471.4848" width="1071.36" x="62.039375" y="7.2"/>
  </clipPath>
 </defs>
</svg>
