<?xml version="1.0" encoding="utf-8" standalone="no"?>
<!DOCTYPE svg PUBLIC "-//W3C//DTD SVG 1.1//EN"
  "http://www.w3.org/Graphics/SVG/1.1/DTD/svg11.dtd">
<svg xmlns:xlink="http://www.w3.org/1999/xlink" width="1122.002187pt" height="523.783302pt" viewBox="0 0 1122.002187 523.783302" xmlns="http://www.w3.org/2000/svg" version="1.1">
 <metadata>
  <rdf:RDF xmlns:dc="http://purl.org/dc/elements/1.1/" xmlns:cc="http://creativecommons.org/ns#" xmlns:rdf="http://www.w3.org/1999/02/22-rdf-syntax-ns#">
   <cc:Work>
    <dc:type rdf:resource="http://purl.org/dc/dcmitype/StillImage"/>
    <dc:date>2023-01-05T11:57:40.958187</dc:date>
    <dc:format>image/svg+xml</dc:format>
    <dc:creator>
     <cc:Agent>
      <dc:title>Matplotlib v3.6.2, https://matplotlib.org/</dc:title>
     </cc:Agent>
    </dc:creator>
   </cc:Work>
  </rdf:RDF>
 </metadata>
 <defs>
  <style type="text/css">*{stroke-linejoin: round; stroke-linecap: butt}</style>
 </defs>
 <g id="figure_1">
  <g id="patch_1">
   <path d="M 0 523.783302 
L 1122.002187 523.783302 
L 1122.002187 0 
L 0 0 
z
" style="fill: #ffffff"/>
  </g>
  <g id="axes_1">
   <g id="patch_2">
    <path d="M 43.442188 488.4768 
L 1114.802187 488.4768 
L 1114.802187 7.2 
L 43.442188 7.2 
z
" style="fill: #ffffff"/>
   </g>
   <g id="matplotlib.axis_1">
    <g id="xtick_1">
     <g id="line2d_1">
      <defs>
       <path id="m4b5d9e74ca" d="M 0 0 
L 0 3.5 
" style="stroke: #000000; stroke-width: 0.8"/>
      </defs>
      <g>
       <use xlink:href="#m4b5d9e74ca" x="58.678035" y="488.4768" style="stroke: #000000; stroke-width: 0.8"/>
      </g>
     </g>
     <g id="text_1">
      <!-- 1992 -->
      <g transform="translate(35.597845 514.78224) rotate(-30) scale(0.1 -0.1)">
       <defs>
        <path id="DejaVuSans-31" d="M 794 531 
L 1825 531 
L 1825 4091 
L 703 3866 
L 703 4441 
L 1819 4666 
L 2450 4666 
L 2450 531 
L 3481 531 
L 3481 0 
L 794 0 
L 794 531 
z
" transform="scale(0.015625)"/>
        <path id="DejaVuSans-39" d="M 703 97 
L 703 672 
Q 941 559 1184 500 
Q 1428 441 1663 441 
Q 2288 441 2617 861 
Q 2947 1281 2994 2138 
Q 2813 1869 2534 1725 
Q 2256 1581 1919 1581 
Q 1219 1581 811 2004 
Q 403 2428 403 3163 
Q 403 3881 828 4315 
Q 1253 4750 1959 4750 
Q 2769 4750 3195 4129 
Q 3622 3509 3622 2328 
Q 3622 1225 3098 567 
Q 2575 -91 1691 -91 
Q 1453 -91 1209 -44 
Q 966 3 703 97 
z
M 1959 2075 
Q 2384 2075 2632 2365 
Q 2881 2656 2881 3163 
Q 2881 3666 2632 3958 
Q 2384 4250 1959 4250 
Q 1534 4250 1286 3958 
Q 1038 3666 1038 3163 
Q 1038 2656 1286 2365 
Q 1534 2075 1959 2075 
z
" transform="scale(0.015625)"/>
        <path id="DejaVuSans-32" d="M 1228 531 
L 3431 531 
L 3431 0 
L 469 0 
L 469 531 
Q 828 903 1448 1529 
Q 2069 2156 2228 2338 
Q 2531 2678 2651 2914 
Q 2772 3150 2772 3378 
Q 2772 3750 2511 3984 
Q 2250 4219 1831 4219 
Q 1534 4219 1204 4116 
Q 875 4013 500 3803 
L 500 4441 
Q 881 4594 1212 4672 
Q 1544 4750 1819 4750 
Q 2544 4750 2975 4387 
Q 3406 4025 3406 3419 
Q 3406 3131 3298 2873 
Q 3191 2616 2906 2266 
Q 2828 2175 2409 1742 
Q 1991 1309 1228 531 
z
" transform="scale(0.015625)"/>
       </defs>
       <use xlink:href="#DejaVuSans-31"/>
       <use xlink:href="#DejaVuSans-39" x="63.623047"/>
       <use xlink:href="#DejaVuSans-39" x="127.246094"/>
       <use xlink:href="#DejaVuSans-32" x="190.869141"/>
      </g>
     </g>
    </g>
    <g id="xtick_2">
     <g id="line2d_2">
      <g>
       <use xlink:href="#m4b5d9e74ca" x="191.889126" y="488.4768" style="stroke: #000000; stroke-width: 0.8"/>
      </g>
     </g>
     <g id="text_2">
      <!-- 1996 -->
      <g transform="translate(168.808936 514.78224) rotate(-30) scale(0.1 -0.1)">
       <defs>
        <path id="DejaVuSans-36" d="M 2113 2584 
Q 1688 2584 1439 2293 
Q 1191 2003 1191 1497 
Q 1191 994 1439 701 
Q 1688 409 2113 409 
Q 2538 409 2786 701 
Q 3034 994 3034 1497 
Q 3034 2003 2786 2293 
Q 2538 2584 2113 2584 
z
M 3366 4563 
L 3366 3988 
Q 3128 4100 2886 4159 
Q 2644 4219 2406 4219 
Q 1781 4219 1451 3797 
Q 1122 3375 1075 2522 
Q 1259 2794 1537 2939 
Q 1816 3084 2150 3084 
Q 2853 3084 3261 2657 
Q 3669 2231 3669 1497 
Q 3669 778 3244 343 
Q 2819 -91 2113 -91 
Q 1303 -91 875 529 
Q 447 1150 447 2328 
Q 447 3434 972 4092 
Q 1497 4750 2381 4750 
Q 2619 4750 2861 4703 
Q 3103 4656 3366 4563 
z
" transform="scale(0.015625)"/>
       </defs>
       <use xlink:href="#DejaVuSans-31"/>
       <use xlink:href="#DejaVuSans-39" x="63.623047"/>
       <use xlink:href="#DejaVuSans-39" x="127.246094"/>
       <use xlink:href="#DejaVuSans-36" x="190.869141"/>
      </g>
     </g>
    </g>
    <g id="xtick_3">
     <g id="line2d_3">
      <g>
       <use xlink:href="#m4b5d9e74ca" x="325.100217" y="488.4768" style="stroke: #000000; stroke-width: 0.8"/>
      </g>
     </g>
     <g id="text_3">
      <!-- 2000 -->
      <g transform="translate(302.020027 514.78224) rotate(-30) scale(0.1 -0.1)">
       <defs>
        <path id="DejaVuSans-30" d="M 2034 4250 
Q 1547 4250 1301 3770 
Q 1056 3291 1056 2328 
Q 1056 1369 1301 889 
Q 1547 409 2034 409 
Q 2525 409 2770 889 
Q 3016 1369 3016 2328 
Q 3016 3291 2770 3770 
Q 2525 4250 2034 4250 
z
M 2034 4750 
Q 2819 4750 3233 4129 
Q 3647 3509 3647 2328 
Q 3647 1150 3233 529 
Q 2819 -91 2034 -91 
Q 1250 -91 836 529 
Q 422 1150 422 2328 
Q 422 3509 836 4129 
Q 1250 4750 2034 4750 
z
" transform="scale(0.015625)"/>
       </defs>
       <use xlink:href="#DejaVuSans-32"/>
       <use xlink:href="#DejaVuSans-30" x="63.623047"/>
       <use xlink:href="#DejaVuSans-30" x="127.246094"/>
       <use xlink:href="#DejaVuSans-30" x="190.869141"/>
      </g>
     </g>
    </g>
    <g id="xtick_4">
     <g id="line2d_4">
      <g>
       <use xlink:href="#m4b5d9e74ca" x="458.311308" y="488.4768" style="stroke: #000000; stroke-width: 0.8"/>
      </g>
     </g>
     <g id="text_4">
      <!-- 2004 -->
      <g transform="translate(435.231117 514.78224) rotate(-30) scale(0.1 -0.1)">
       <defs>
        <path id="DejaVuSans-34" d="M 2419 4116 
L 825 1625 
L 2419 1625 
L 2419 4116 
z
M 2253 4666 
L 3047 4666 
L 3047 1625 
L 3713 1625 
L 3713 1100 
L 3047 1100 
L 3047 0 
L 2419 0 
L 2419 1100 
L 313 1100 
L 313 1709 
L 2253 4666 
z
" transform="scale(0.015625)"/>
       </defs>
       <use xlink:href="#DejaVuSans-32"/>
       <use xlink:href="#DejaVuSans-30" x="63.623047"/>
       <use xlink:href="#DejaVuSans-30" x="127.246094"/>
       <use xlink:href="#DejaVuSans-34" x="190.869141"/>
      </g>
     </g>
    </g>
    <g id="xtick_5">
     <g id="line2d_5">
      <g>
       <use xlink:href="#m4b5d9e74ca" x="591.522399" y="488.4768" style="stroke: #000000; stroke-width: 0.8"/>
      </g>
     </g>
     <g id="text_5">
      <!-- 2008 -->
      <g transform="translate(568.442208 514.78224) rotate(-30) scale(0.1 -0.1)">
       <defs>
        <path id="DejaVuSans-38" d="M 2034 2216 
Q 1584 2216 1326 1975 
Q 1069 1734 1069 1313 
Q 1069 891 1326 650 
Q 1584 409 2034 409 
Q 2484 409 2743 651 
Q 3003 894 3003 1313 
Q 3003 1734 2745 1975 
Q 2488 2216 2034 2216 
z
M 1403 2484 
Q 997 2584 770 2862 
Q 544 3141 544 3541 
Q 544 4100 942 4425 
Q 1341 4750 2034 4750 
Q 2731 4750 3128 4425 
Q 3525 4100 3525 3541 
Q 3525 3141 3298 2862 
Q 3072 2584 2669 2484 
Q 3125 2378 3379 2068 
Q 3634 1759 3634 1313 
Q 3634 634 3220 271 
Q 2806 -91 2034 -91 
Q 1263 -91 848 271 
Q 434 634 434 1313 
Q 434 1759 690 2068 
Q 947 2378 1403 2484 
z
M 1172 3481 
Q 1172 3119 1398 2916 
Q 1625 2713 2034 2713 
Q 2441 2713 2670 2916 
Q 2900 3119 2900 3481 
Q 2900 3844 2670 4047 
Q 2441 4250 2034 4250 
Q 1625 4250 1398 4047 
Q 1172 3844 1172 3481 
z
" transform="scale(0.015625)"/>
       </defs>
       <use xlink:href="#DejaVuSans-32"/>
       <use xlink:href="#DejaVuSans-30" x="63.623047"/>
       <use xlink:href="#DejaVuSans-30" x="127.246094"/>
       <use xlink:href="#DejaVuSans-38" x="190.869141"/>
      </g>
     </g>
    </g>
    <g id="xtick_6">
     <g id="line2d_6">
      <g>
       <use xlink:href="#m4b5d9e74ca" x="724.733489" y="488.4768" style="stroke: #000000; stroke-width: 0.8"/>
      </g>
     </g>
     <g id="text_6">
      <!-- 2012 -->
      <g transform="translate(701.653299 514.78224) rotate(-30) scale(0.1 -0.1)">
       <use xlink:href="#DejaVuSans-32"/>
       <use xlink:href="#DejaVuSans-30" x="63.623047"/>
       <use xlink:href="#DejaVuSans-31" x="127.246094"/>
       <use xlink:href="#DejaVuSans-32" x="190.869141"/>
      </g>
     </g>
    </g>
    <g id="xtick_7">
     <g id="line2d_7">
      <g>
       <use xlink:href="#m4b5d9e74ca" x="857.94458" y="488.4768" style="stroke: #000000; stroke-width: 0.8"/>
      </g>
     </g>
     <g id="text_7">
      <!-- 2016 -->
      <g transform="translate(834.86439 514.78224) rotate(-30) scale(0.1 -0.1)">
       <use xlink:href="#DejaVuSans-32"/>
       <use xlink:href="#DejaVuSans-30" x="63.623047"/>
       <use xlink:href="#DejaVuSans-31" x="127.246094"/>
       <use xlink:href="#DejaVuSans-36" x="190.869141"/>
      </g>
     </g>
    </g>
    <g id="xtick_8">
     <g id="line2d_8">
      <g>
       <use xlink:href="#m4b5d9e74ca" x="991.155671" y="488.4768" style="stroke: #000000; stroke-width: 0.8"/>
      </g>
     </g>
     <g id="text_8">
      <!-- 2020 -->
      <g transform="translate(968.075481 514.78224) rotate(-30) scale(0.1 -0.1)">
       <use xlink:href="#DejaVuSans-32"/>
       <use xlink:href="#DejaVuSans-30" x="63.623047"/>
       <use xlink:href="#DejaVuSans-32" x="127.246094"/>
       <use xlink:href="#DejaVuSans-30" x="190.869141"/>
      </g>
     </g>
    </g>
   </g>
   <g id="matplotlib.axis_2">
    <g id="ytick_1">
     <g id="line2d_9">
      <defs>
       <path id="mb2a3543a0d" d="M 0 0 
L -3.5 0 
" style="stroke: #000000; stroke-width: 0.8"/>
      </defs>
      <g>
       <use xlink:href="#mb2a3543a0d" x="43.442188" y="480.549944" style="stroke: #000000; stroke-width: 0.8"/>
      </g>
     </g>
     <g id="text_9">
      <!-- −6 -->
      <g transform="translate(21.7 484.349163) scale(0.1 -0.1)">
       <defs>
        <path id="DejaVuSans-2212" d="M 678 2272 
L 4684 2272 
L 4684 1741 
L 678 1741 
L 678 2272 
z
" transform="scale(0.015625)"/>
       </defs>
       <use xlink:href="#DejaVuSans-2212"/>
       <use xlink:href="#DejaVuSans-36" x="83.789062"/>
      </g>
     </g>
    </g>
    <g id="ytick_2">
     <g id="line2d_10">
      <g>
       <use xlink:href="#mb2a3543a0d" x="43.442188" y="414.139737" style="stroke: #000000; stroke-width: 0.8"/>
      </g>
     </g>
     <g id="text_10">
      <!-- −4 -->
      <g transform="translate(21.7 417.938956) scale(0.1 -0.1)">
       <use xlink:href="#DejaVuSans-2212"/>
       <use xlink:href="#DejaVuSans-34" x="83.789062"/>
      </g>
     </g>
    </g>
    <g id="ytick_3">
     <g id="line2d_11">
      <g>
       <use xlink:href="#mb2a3543a0d" x="43.442188" y="347.729531" style="stroke: #000000; stroke-width: 0.8"/>
      </g>
     </g>
     <g id="text_11">
      <!-- −2 -->
      <g transform="translate(21.7 351.528749) scale(0.1 -0.1)">
       <use xlink:href="#DejaVuSans-2212"/>
       <use xlink:href="#DejaVuSans-32" x="83.789062"/>
      </g>
     </g>
    </g>
    <g id="ytick_4">
     <g id="line2d_12">
      <g>
       <use xlink:href="#mb2a3543a0d" x="43.442188" y="281.319324" style="stroke: #000000; stroke-width: 0.8"/>
      </g>
     </g>
     <g id="text_12">
      <!-- 0 -->
      <g transform="translate(30.079688 285.118543) scale(0.1 -0.1)">
       <use xlink:href="#DejaVuSans-30"/>
      </g>
     </g>
    </g>
    <g id="ytick_5">
     <g id="line2d_13">
      <g>
       <use xlink:href="#mb2a3543a0d" x="43.442188" y="214.909117" style="stroke: #000000; stroke-width: 0.8"/>
      </g>
     </g>
     <g id="text_13">
      <!-- 2 -->
      <g transform="translate(30.079688 218.708336) scale(0.1 -0.1)">
       <use xlink:href="#DejaVuSans-32"/>
      </g>
     </g>
    </g>
    <g id="ytick_6">
     <g id="line2d_14">
      <g>
       <use xlink:href="#mb2a3543a0d" x="43.442188" y="148.49891" style="stroke: #000000; stroke-width: 0.8"/>
      </g>
     </g>
     <g id="text_14">
      <!-- 4 -->
      <g transform="translate(30.079688 152.298129) scale(0.1 -0.1)">
       <use xlink:href="#DejaVuSans-34"/>
      </g>
     </g>
    </g>
    <g id="ytick_7">
     <g id="line2d_15">
      <g>
       <use xlink:href="#mb2a3543a0d" x="43.442188" y="82.088704" style="stroke: #000000; stroke-width: 0.8"/>
      </g>
     </g>
     <g id="text_15">
      <!-- 6 -->
      <g transform="translate(30.079688 85.887922) scale(0.1 -0.1)">
       <use xlink:href="#DejaVuSans-36"/>
      </g>
     </g>
    </g>
    <g id="ytick_8">
     <g id="line2d_16">
      <g>
       <use xlink:href="#mb2a3543a0d" x="43.442188" y="15.678497" style="stroke: #000000; stroke-width: 0.8"/>
      </g>
     </g>
     <g id="text_16">
      <!-- 8 -->
      <g transform="translate(30.079688 19.477716) scale(0.1 -0.1)">
       <use xlink:href="#DejaVuSans-38"/>
      </g>
     </g>
    </g>
    <g id="text_17">
     <!-- Balance ($m^3/s$) -->
     <g transform="translate(15.620313 285.0384) rotate(-90) scale(0.1 -0.1)">
      <defs>
       <path id="DejaVuSans-42" d="M 1259 2228 
L 1259 519 
L 2272 519 
Q 2781 519 3026 730 
Q 3272 941 3272 1375 
Q 3272 1813 3026 2020 
Q 2781 2228 2272 2228 
L 1259 2228 
z
M 1259 4147 
L 1259 2741 
L 2194 2741 
Q 2656 2741 2882 2914 
Q 3109 3088 3109 3444 
Q 3109 3797 2882 3972 
Q 2656 4147 2194 4147 
L 1259 4147 
z
M 628 4666 
L 2241 4666 
Q 2963 4666 3353 4366 
Q 3744 4066 3744 3513 
Q 3744 3084 3544 2831 
Q 3344 2578 2956 2516 
Q 3422 2416 3680 2098 
Q 3938 1781 3938 1306 
Q 3938 681 3513 340 
Q 3088 0 2303 0 
L 628 0 
L 628 4666 
z
" transform="scale(0.015625)"/>
       <path id="DejaVuSans-61" d="M 2194 1759 
Q 1497 1759 1228 1600 
Q 959 1441 959 1056 
Q 959 750 1161 570 
Q 1363 391 1709 391 
Q 2188 391 2477 730 
Q 2766 1069 2766 1631 
L 2766 1759 
L 2194 1759 
z
M 3341 1997 
L 3341 0 
L 2766 0 
L 2766 531 
Q 2569 213 2275 61 
Q 1981 -91 1556 -91 
Q 1019 -91 701 211 
Q 384 513 384 1019 
Q 384 1609 779 1909 
Q 1175 2209 1959 2209 
L 2766 2209 
L 2766 2266 
Q 2766 2663 2505 2880 
Q 2244 3097 1772 3097 
Q 1472 3097 1187 3025 
Q 903 2953 641 2809 
L 641 3341 
Q 956 3463 1253 3523 
Q 1550 3584 1831 3584 
Q 2591 3584 2966 3190 
Q 3341 2797 3341 1997 
z
" transform="scale(0.015625)"/>
       <path id="DejaVuSans-6c" d="M 603 4863 
L 1178 4863 
L 1178 0 
L 603 0 
L 603 4863 
z
" transform="scale(0.015625)"/>
       <path id="DejaVuSans-6e" d="M 3513 2113 
L 3513 0 
L 2938 0 
L 2938 2094 
Q 2938 2591 2744 2837 
Q 2550 3084 2163 3084 
Q 1697 3084 1428 2787 
Q 1159 2491 1159 1978 
L 1159 0 
L 581 0 
L 581 3500 
L 1159 3500 
L 1159 2956 
Q 1366 3272 1645 3428 
Q 1925 3584 2291 3584 
Q 2894 3584 3203 3211 
Q 3513 2838 3513 2113 
z
" transform="scale(0.015625)"/>
       <path id="DejaVuSans-63" d="M 3122 3366 
L 3122 2828 
Q 2878 2963 2633 3030 
Q 2388 3097 2138 3097 
Q 1578 3097 1268 2742 
Q 959 2388 959 1747 
Q 959 1106 1268 751 
Q 1578 397 2138 397 
Q 2388 397 2633 464 
Q 2878 531 3122 666 
L 3122 134 
Q 2881 22 2623 -34 
Q 2366 -91 2075 -91 
Q 1284 -91 818 406 
Q 353 903 353 1747 
Q 353 2603 823 3093 
Q 1294 3584 2113 3584 
Q 2378 3584 2631 3529 
Q 2884 3475 3122 3366 
z
" transform="scale(0.015625)"/>
       <path id="DejaVuSans-65" d="M 3597 1894 
L 3597 1613 
L 953 1613 
Q 991 1019 1311 708 
Q 1631 397 2203 397 
Q 2534 397 2845 478 
Q 3156 559 3463 722 
L 3463 178 
Q 3153 47 2828 -22 
Q 2503 -91 2169 -91 
Q 1331 -91 842 396 
Q 353 884 353 1716 
Q 353 2575 817 3079 
Q 1281 3584 2069 3584 
Q 2775 3584 3186 3129 
Q 3597 2675 3597 1894 
z
M 3022 2063 
Q 3016 2534 2758 2815 
Q 2500 3097 2075 3097 
Q 1594 3097 1305 2825 
Q 1016 2553 972 2059 
L 3022 2063 
z
" transform="scale(0.015625)"/>
       <path id="DejaVuSans-20" transform="scale(0.015625)"/>
       <path id="DejaVuSans-28" d="M 1984 4856 
Q 1566 4138 1362 3434 
Q 1159 2731 1159 2009 
Q 1159 1288 1364 580 
Q 1569 -128 1984 -844 
L 1484 -844 
Q 1016 -109 783 600 
Q 550 1309 550 2009 
Q 550 2706 781 3412 
Q 1013 4119 1484 4856 
L 1984 4856 
z
" transform="scale(0.015625)"/>
       <path id="DejaVuSans-Oblique-6d" d="M 5747 2113 
L 5338 0 
L 4763 0 
L 5166 2094 
Q 5191 2228 5203 2325 
Q 5216 2422 5216 2491 
Q 5216 2772 5059 2928 
Q 4903 3084 4622 3084 
Q 4203 3084 3875 2770 
Q 3547 2456 3450 1953 
L 3066 0 
L 2491 0 
L 2900 2094 
Q 2925 2209 2937 2307 
Q 2950 2406 2950 2484 
Q 2950 2769 2794 2926 
Q 2638 3084 2363 3084 
Q 1938 3084 1609 2770 
Q 1281 2456 1184 1953 
L 800 0 
L 225 0 
L 909 3500 
L 1484 3500 
L 1375 2956 
Q 1609 3263 1923 3423 
Q 2238 3584 2597 3584 
Q 2978 3584 3223 3384 
Q 3469 3184 3519 2828 
Q 3781 3197 4126 3390 
Q 4472 3584 4856 3584 
Q 5306 3584 5551 3325 
Q 5797 3066 5797 2591 
Q 5797 2488 5784 2364 
Q 5772 2241 5747 2113 
z
" transform="scale(0.015625)"/>
       <path id="DejaVuSans-33" d="M 2597 2516 
Q 3050 2419 3304 2112 
Q 3559 1806 3559 1356 
Q 3559 666 3084 287 
Q 2609 -91 1734 -91 
Q 1441 -91 1130 -33 
Q 819 25 488 141 
L 488 750 
Q 750 597 1062 519 
Q 1375 441 1716 441 
Q 2309 441 2620 675 
Q 2931 909 2931 1356 
Q 2931 1769 2642 2001 
Q 2353 2234 1838 2234 
L 1294 2234 
L 1294 2753 
L 1863 2753 
Q 2328 2753 2575 2939 
Q 2822 3125 2822 3475 
Q 2822 3834 2567 4026 
Q 2313 4219 1838 4219 
Q 1578 4219 1281 4162 
Q 984 4106 628 3988 
L 628 4550 
Q 988 4650 1302 4700 
Q 1616 4750 1894 4750 
Q 2613 4750 3031 4423 
Q 3450 4097 3450 3541 
Q 3450 3153 3228 2886 
Q 3006 2619 2597 2516 
z
" transform="scale(0.015625)"/>
       <path id="DejaVuSans-2f" d="M 1625 4666 
L 2156 4666 
L 531 -594 
L 0 -594 
L 1625 4666 
z
" transform="scale(0.015625)"/>
       <path id="DejaVuSans-Oblique-73" d="M 3200 3397 
L 3091 2853 
Q 2863 2978 2609 3040 
Q 2356 3103 2088 3103 
Q 1634 3103 1373 2948 
Q 1113 2794 1113 2528 
Q 1113 2219 1719 2053 
Q 1766 2041 1788 2034 
L 1972 1978 
Q 2547 1819 2739 1644 
Q 2931 1469 2931 1166 
Q 2931 609 2489 259 
Q 2047 -91 1331 -91 
Q 1053 -91 747 -37 
Q 441 16 72 128 
L 184 722 
Q 500 559 806 475 
Q 1113 391 1394 391 
Q 1816 391 2080 572 
Q 2344 753 2344 1031 
Q 2344 1331 1650 1516 
L 1591 1531 
L 1394 1581 
Q 956 1697 753 1886 
Q 550 2075 550 2369 
Q 550 2928 970 3256 
Q 1391 3584 2113 3584 
Q 2397 3584 2667 3537 
Q 2938 3491 3200 3397 
z
" transform="scale(0.015625)"/>
       <path id="DejaVuSans-29" d="M 513 4856 
L 1013 4856 
Q 1481 4119 1714 3412 
Q 1947 2706 1947 2009 
Q 1947 1309 1714 600 
Q 1481 -109 1013 -844 
L 513 -844 
Q 928 -128 1133 580 
Q 1338 1288 1338 2009 
Q 1338 2731 1133 3434 
Q 928 4138 513 4856 
z
" transform="scale(0.015625)"/>
      </defs>
      <use xlink:href="#DejaVuSans-42" transform="translate(0 0.765625)"/>
      <use xlink:href="#DejaVuSans-61" transform="translate(68.603516 0.765625)"/>
      <use xlink:href="#DejaVuSans-6c" transform="translate(129.882812 0.765625)"/>
      <use xlink:href="#DejaVuSans-61" transform="translate(157.666016 0.765625)"/>
      <use xlink:href="#DejaVuSans-6e" transform="translate(218.945312 0.765625)"/>
      <use xlink:href="#DejaVuSans-63" transform="translate(282.324219 0.765625)"/>
      <use xlink:href="#DejaVuSans-65" transform="translate(337.304688 0.765625)"/>
      <use xlink:href="#DejaVuSans-20" transform="translate(398.828125 0.765625)"/>
      <use xlink:href="#DejaVuSans-28" transform="translate(430.615234 0.765625)"/>
      <use xlink:href="#DejaVuSans-Oblique-6d" transform="translate(469.628906 0.765625)"/>
      <use xlink:href="#DejaVuSans-33" transform="translate(571.690911 39.046875) scale(0.7)"/>
      <use xlink:href="#DejaVuSans-2f" transform="translate(618.961419 0.765625)"/>
      <use xlink:href="#DejaVuSans-Oblique-73" transform="translate(652.652826 0.765625)"/>
      <use xlink:href="#DejaVuSans-29" transform="translate(704.752435 0.765625)"/>
     </g>
    </g>
   </g>
   <g id="line2d_17">
    <path d="M 92.140369 281.319324 
L 94.966888 278.907974 
L 125.420348 278.907539 
L 128.246866 203.919493 
L 130.799851 209.085091 
L 133.62637 213.591536 
L 136.36171 217.316493 
L 139.188229 220.445006 
L 141.92357 222.747998 
L 144.750088 224.611407 
L 147.576607 226.125195 
L 150.311948 227.284906 
L 155.873807 229.079985 
L 158.700326 229.907254 
L 161.526844 219.453123 
L 164.079829 220.799726 
L 166.906348 222.085157 
L 172.468207 224.098619 
L 178.030067 225.771869 
L 186.418445 227.711715 
L 191.980304 228.807161 
L 194.806823 207.450705 
L 200.277504 209.202951 
L 208.574704 211.451153 
L 216.963082 213.491811 
L 225.35146 215.270953 
L 228.177979 263.651883 
L 230.730964 266.062256 
L 233.557482 267.104392 
L 236.292823 267.666267 
L 241.854682 268.419877 
L 250.24306 269.109357 
L 258.631438 269.589941 
L 261.457957 278.542351 
L 264.010942 278.994779 
L 269.572801 279.665127 
L 277.961179 280.283962 
L 286.349557 280.687373 
L 291.911417 280.857941 
L 294.737935 170.452146 
L 297.29092 180.412236 
L 300.117439 187.022625 
L 302.852779 191.457617 
L 305.679298 194.88376 
L 308.414639 197.490303 
L 311.241157 199.643663 
L 314.067676 201.33802 
L 316.803017 202.62249 
L 319.629535 203.704791 
L 325.191395 205.342743 
L 328.017914 236.874528 
L 330.662076 242.492133 
L 333.488595 244.982999 
L 336.223936 246.502062 
L 339.050454 247.665126 
L 341.785795 248.569187 
L 344.612314 249.308421 
L 350.174173 250.404529 
L 358.562551 251.651507 
L 361.38907 225.554362 
L 363.942054 227.385561 
L 366.768573 228.392908 
L 369.503914 229.076111 
L 375.065773 230.080221 
L 380.718811 230.861774 
L 389.016011 231.771048 
L 391.842529 232.034225 
L 394.669048 262.481997 
L 397.222033 264.579755 
L 400.048551 265.300727 
L 402.783892 265.669937 
L 408.345751 266.139454 
L 416.734129 266.566336 
L 425.122507 266.838418 
L 427.949026 276.946962 
L 430.502011 277.332231 
L 436.06387 277.856953 
L 444.452248 278.307953 
L 458.402486 278.747566 
L 461.229004 213.166246 
L 463.873167 217.56878 
L 466.699686 220.845334 
L 469.435026 223.076932 
L 472.261545 224.796673 
L 474.996886 226.152188 
L 477.823405 227.300681 
L 480.649923 228.258768 
L 486.211783 229.769614 
L 491.773642 230.947504 
L 494.600161 199.366491 
L 497.153145 203.079481 
L 499.979664 206.337269 
L 502.715005 208.957323 
L 505.541523 211.222447 
L 508.276864 212.998947 
L 511.103383 214.43398 
L 513.929901 215.685362 
L 516.665242 216.720794 
L 519.491761 217.662926 
L 525.05362 219.156021 
L 527.880139 220.525107 
L 530.433123 221.28037 
L 535.994983 222.181843 
L 544.383361 223.112512 
L 552.771739 223.787477 
L 558.333598 224.079337 
L 561.160117 204.321027 
L 563.713102 210.653885 
L 566.53962 207.362697 
L 569.274961 210.195453 
L 572.10148 212.900195 
L 574.83682 215.068249 
L 577.663339 217.523419 
L 580.489858 216.314839 
L 583.225199 214.249375 
L 586.051717 213.035055 
L 588.787058 213.994031 
L 591.613577 212.864021 
L 594.440095 209.129912 
L 597.084258 215.662555 
L 599.910777 215.757572 
L 602.646117 218.557601 
L 605.472636 219.709908 
L 608.207977 221.120644 
L 611.034495 218.932402 
L 613.861014 218.101637 
L 616.596355 216.959545 
L 619.422873 218.692125 
L 622.158214 217.809255 
L 624.984733 211.633278 
L 627.811252 186.444766 
L 630.364236 194.062088 
L 633.190755 189.514491 
L 635.926096 194.512965 
L 638.752614 197.648715 
L 641.487955 201.487917 
L 644.314474 199.739046 
L 647.140992 203.548475 
L 649.876333 204.606978 
L 652.702852 201.919206 
L 655.438192 204.363026 
L 658.264711 199.771779 
L 661.09123 190.36112 
L 663.644214 194.927783 
L 666.470733 193.493291 
L 672.032592 195.151798 
L 674.767933 197.305915 
L 677.594452 200.14452 
L 680.42097 196.141016 
L 683.156311 197.449878 
L 685.98283 194.667575 
L 688.718171 196.580021 
L 691.544689 194.447151 
L 694.371208 186.488248 
L 699.750711 193.809242 
L 702.486052 198.057227 
L 705.312571 197.172418 
L 708.047911 197.938965 
L 710.87443 197.920656 
L 713.700949 200.289924 
L 716.436289 198.364441 
L 719.262808 195.80559 
L 721.998149 198.635536 
L 724.824667 194.392409 
L 727.651186 192.085665 
L 730.295349 192.370745 
L 733.121868 193.532203 
L 735.857208 192.515291 
L 738.683727 195.396501 
L 741.419068 194.73109 
L 744.245586 197.670104 
L 747.072105 198.643697 
L 749.807446 196.771892 
L 752.633964 198.753444 
L 755.369305 195.602946 
L 758.195824 197.487313 
L 761.022342 192.968096 
L 763.575327 190.890603 
L 766.401846 194.537832 
L 769.137186 202.693607 
L 771.963705 200.191365 
L 774.699046 198.775554 
L 777.525564 202.256649 
L 780.352083 201.868278 
L 783.087424 200.979806 
L 785.913943 203.088554 
L 788.649283 201.092093 
L 791.475802 196.141394 
L 794.302321 203.366266 
L 796.855305 199.605513 
L 799.681824 205.178069 
L 802.417165 212.830501 
L 805.243683 210.541856 
L 807.979024 210.02831 
L 810.805543 212.447204 
L 813.632061 211.235106 
L 816.367402 211.625189 
L 819.193921 213.790481 
L 821.929261 212.269217 
L 824.75578 207.006211 
L 827.582299 209.649168 
L 830.135283 208.101747 
L 832.961802 211.539816 
L 835.697143 216.559866 
L 838.523662 215.840441 
L 841.259002 216.606333 
L 844.085521 217.659761 
L 846.91204 215.651386 
L 849.64738 215.874489 
L 852.473899 217.497423 
L 855.20924 216.010381 
L 858.035758 211.974438 
L 860.862277 208.920483 
L 863.50644 206.902271 
L 866.332958 209.30626 
L 869.068299 213.542367 
L 871.894818 213.451722 
L 874.630158 216.410487 
L 877.456677 217.881207 
L 880.283196 208.554318 
L 883.018536 211.541828 
L 885.845055 214.839081 
L 888.580396 206.138535 
L 891.406915 210.649357 
L 894.233433 202.446695 
L 896.786418 204.542629 
L 899.612937 205.044116 
L 902.348277 211.084795 
L 905.174796 212.429741 
L 907.910137 214.467385 
L 910.736655 216.072419 
L 913.563174 211.745235 
L 916.298515 214.310109 
L 919.125033 216.283277 
L 921.860374 211.084165 
L 924.686893 210.753663 
L 927.513411 191.738721 
L 930.066396 203.942534 
L 932.892915 209.915615 
L 935.628255 213.383554 
L 938.454774 216.726637 
L 941.190115 219.017978 
L 944.016634 220.807178 
L 946.843152 222.316937 
L 949.578493 223.56381 
L 952.405012 224.662882 
L 957.966871 226.397827 
L 963.346374 227.764913 
L 971.734752 229.575869 
L 985.68499 232.241865 
L 994.073368 233.630917 
L 1002.27939 234.767569 
L 1010.667768 235.710728 
L 1021.791487 236.640115 
L 1032.824027 237.320853 
L 1049.509606 238.080828 
L 1066.104006 238.601447 
L 1066.104006 238.601447 
" clip-path="url(#pa83716ffca)" style="fill: none; stroke: #1f77b4; stroke-width: 1.5; stroke-linecap: square"/>
   </g>
   <g id="line2d_18">
    <path d="M 92.140369 269.90774 
L 125.420348 269.90774 
L 130.799851 269.687208 
L 144.750088 269.592523 
L 216.963082 269.35137 
L 225.35146 269.300213 
L 228.177979 269.862319 
L 230.730964 270.144208 
L 236.292823 270.441701 
L 247.50772 270.667354 
L 258.631438 270.78554 
L 264.010942 271.11819 
L 275.13466 271.340794 
L 291.911417 271.498652 
L 294.737935 271.052291 
L 300.117439 270.732435 
L 308.414639 270.583885 
L 330.662076 270.290285 
L 347.438832 270.155349 
L 361.38907 270.19407 
L 375.065773 270.272113 
L 391.842529 270.29079 
L 397.222033 270.537078 
L 408.345751 270.646953 
L 438.890389 270.876659 
L 458.402486 270.958267 
L 461.229004 270.666587 
L 466.699686 270.443792 
L 480.649923 270.26082 
L 535.994983 269.941865 
L 572.10148 269.815722 
L 591.613577 269.751161 
L 597.084258 269.961499 
L 611.034495 270.066801 
L 624.984733 270.105261 
L 630.364236 269.736647 
L 641.487955 269.518096 
L 663.644214 269.332408 
L 702.486052 269.364616 
L 735.857208 269.353801 
L 824.75578 269.23988 
L 1066.104006 269.137303 
L 1066.104006 269.137303 
" clip-path="url(#pa83716ffca)" style="fill: none; stroke: #ff7f0e; stroke-width: 1.5; stroke-linecap: square"/>
   </g>
   <g id="line2d_19">
    <path d="M 92.140369 281.319324 
L 1066.104006 281.319324 
L 1066.104006 281.319324 
" clip-path="url(#pa83716ffca)" style="fill: none; stroke: #2ca02c; stroke-width: 1.5; stroke-linecap: square"/>
   </g>
   <g id="line2d_20">
    <path d="M 92.140369 281.319324 
L 1066.104006 281.319324 
L 1066.104006 281.319324 
" clip-path="url(#pa83716ffca)" style="fill: none; stroke: #d62728; stroke-width: 1.5; stroke-linecap: square"/>
   </g>
   <g id="line2d_21">
    <path d="M 92.140369 117.03304 
L 125.420348 117.03304 
L 128.246866 165.658916 
L 158.700326 165.658916 
L 161.526844 168.553121 
L 191.980304 168.553121 
L 194.806823 180.587323 
L 225.35146 180.587323 
L 228.177979 117.309112 
L 258.631438 117.309112 
L 261.457957 29.076218 
L 291.911417 29.076218 
L 294.737935 116.064798 
L 325.191395 116.064798 
L 328.017914 137.834509 
L 358.562551 137.834509 
L 361.38907 122.183662 
L 391.842529 122.183662 
L 394.669048 107.537014 
L 425.122507 107.537014 
L 427.949026 65.522302 
L 458.402486 65.522302 
L 461.229004 127.036185 
L 491.773642 127.036185 
L 494.600161 133.818455 
L 525.05362 133.818455 
L 527.880139 134.573256 
L 558.333598 134.573256 
L 561.160117 155.211066 
L 591.613577 155.211066 
L 594.440095 128.567069 
L 624.984733 128.567069 
L 627.811252 164.103495 
L 658.264711 164.103495 
L 661.09123 173.790671 
L 691.544689 173.790671 
L 694.371208 177.633326 
L 724.824667 177.633326 
L 727.651186 177.023413 
L 1066.104006 177.023413 
L 1066.104006 177.023413 
" clip-path="url(#pa83716ffca)" style="fill: none; stroke: #9467bd; stroke-width: 1.5; stroke-linecap: square"/>
   </g>
   <g id="line2d_22">
    <path d="M 92.140369 281.319324 
L 158.700326 281.319484 
L 161.526844 282.356544 
L 164.079829 282.022851 
L 169.641688 281.67387 
L 178.030067 281.492536 
L 216.963082 281.319324 
L 225.35146 281.319324 
L 228.177979 338.65718 
L 230.730964 333.942063 
L 233.557482 330.761543 
L 236.292823 328.296393 
L 239.119342 326.079333 
L 241.854682 324.107555 
L 247.50772 320.481169 
L 253.069579 317.286088 
L 255.80492 315.350015 
L 258.631438 313.563532 
L 261.457957 441.918098 
L 264.010942 435.680191 
L 266.83746 428.353895 
L 269.572801 420.0491 
L 272.39932 412.29095 
L 275.13466 405.353308 
L 277.961179 399.27129 
L 280.787698 394.059837 
L 283.523039 389.763315 
L 286.349557 385.870302 
L 289.084898 382.606875 
L 291.911417 379.564533 
L 294.737935 291.287888 
L 297.29092 287.665577 
L 300.117439 285.711902 
L 302.852779 284.557367 
L 305.679298 283.730356 
L 308.414639 283.179755 
L 314.067676 282.425659 
L 319.629535 282.058608 
L 325.191395 281.862557 
L 328.017914 290.488927 
L 330.662076 285.561917 
L 333.488595 283.894674 
L 336.223936 283.120623 
L 339.050454 282.643184 
L 341.785795 282.325689 
L 347.438832 282.008098 
L 358.562551 281.729607 
L 361.38907 283.31171 
L 363.942054 282.494146 
L 369.503914 282.149172 
L 380.718811 281.841686 
L 391.842529 281.669478 
L 394.669048 300.868319 
L 397.222033 297.271026 
L 400.048551 295.353446 
L 402.783892 294.074929 
L 405.610411 293.030036 
L 408.345751 292.193185 
L 413.998789 290.808829 
L 422.295989 289.016983 
L 425.122507 288.549569 
L 427.949026 322.737355 
L 430.502011 319.711445 
L 433.32853 316.921394 
L 436.06387 314.663361 
L 438.890389 312.741241 
L 441.62573 311.188859 
L 444.452248 309.859229 
L 447.278767 308.739226 
L 450.014108 307.801012 
L 455.575967 306.186116 
L 458.402486 305.46153 
L 461.229004 282.762409 
L 463.873167 282.165183 
L 466.699686 281.842184 
L 474.996886 281.543204 
L 488.947123 281.377455 
L 522.227101 281.328527 
L 525.05362 281.328045 
L 527.880139 289.440547 
L 530.433123 288.074666 
L 533.259642 286.793669 
L 535.994983 285.693669 
L 538.821502 284.723643 
L 541.556842 283.923544 
L 544.383361 283.248474 
L 549.94522 282.30338 
L 555.50708 281.761301 
L 558.333598 281.613688 
L 561.160117 284.953909 
L 563.713102 284.315612 
L 566.53962 283.864613 
L 574.83682 283.160921 
L 580.489858 282.958164 
L 583.225199 282.668752 
L 591.613577 282.299868 
L 594.440095 302.877747 
L 597.084258 302.225344 
L 599.910777 300.658187 
L 602.646117 300.370728 
L 605.472636 298.206673 
L 608.207977 297.180685 
L 611.034495 295.723003 
L 616.596355 293.070089 
L 622.158214 291.100911 
L 624.984733 289.694922 
L 627.811252 281.571139 
L 630.364236 281.687002 
L 633.190755 281.363199 
L 644.314474 281.380848 
L 647.140992 281.799102 
L 649.876333 281.422949 
L 652.702852 281.321151 
L 655.438192 281.383575 
L 658.264711 281.325115 
L 661.09123 281.522651 
L 666.470733 281.334146 
L 677.594452 281.503308 
L 680.42097 281.325043 
L 683.156311 281.410054 
L 685.98283 281.328073 
L 691.544689 281.32058 
L 694.371208 282.091972 
L 696.924193 281.874151 
L 702.486052 281.84589 
L 705.312571 281.653501 
L 708.047911 281.797042 
L 710.87443 281.740675 
L 713.700949 282.047799 
L 716.436289 281.600699 
L 719.262808 281.54373 
L 724.824667 281.672768 
L 727.651186 283.552113 
L 730.295349 282.54246 
L 733.121868 283.858013 
L 735.857208 282.166688 
L 738.683727 282.078984 
L 741.419068 282.438778 
L 744.245586 282.60975 
L 747.072105 283.349551 
L 749.807446 282.804188 
L 752.633964 283.126936 
L 755.369305 281.566381 
L 758.195824 281.735057 
L 761.022342 282.149034 
L 763.575327 281.607168 
L 766.401846 282.301517 
L 769.137186 283.844749 
L 771.963705 282.943782 
L 774.699046 282.599634 
L 777.525564 281.909662 
L 780.352083 281.713703 
L 783.087424 281.857798 
L 785.913943 281.832335 
L 788.649283 281.507565 
L 791.475802 281.416465 
L 794.302321 282.960457 
L 796.855305 281.595386 
L 799.681824 282.972485 
L 802.417165 284.564625 
L 805.243683 283.402274 
L 807.979024 283.277814 
L 810.805543 282.341657 
L 813.632061 282.096777 
L 816.367402 282.258266 
L 819.193921 282.992091 
L 824.75578 282.656768 
L 827.582299 282.900452 
L 830.135283 281.867172 
L 835.697143 284.375298 
L 838.523662 282.701039 
L 844.085521 281.898406 
L 846.91204 282.483176 
L 849.64738 282.313033 
L 852.473899 281.718436 
L 855.20924 281.461622 
L 858.035758 281.580475 
L 860.862277 281.39869 
L 863.50644 281.422426 
L 869.068299 282.196214 
L 871.894818 282.876493 
L 877.456677 282.337581 
L 880.283196 282.772134 
L 883.018536 282.748109 
L 885.845055 281.951386 
L 888.580396 281.407024 
L 891.406915 282.506836 
L 894.233433 281.389529 
L 896.786418 281.739497 
L 899.612937 281.908681 
L 902.348277 282.664581 
L 905.174796 283.729641 
L 907.910137 283.394954 
L 910.736655 283.433751 
L 913.563174 283.590283 
L 916.298515 283.300133 
L 919.125033 282.134661 
L 921.860374 281.443881 
L 924.686893 281.823668 
L 927.513411 336.713586 
L 930.066396 324.824978 
L 932.892915 319.02493 
L 935.628255 315.611793 
L 938.454774 312.974204 
L 941.190115 310.907262 
L 944.016634 308.917703 
L 946.843152 307.116274 
L 949.578493 305.633098 
L 952.405012 304.235901 
L 957.966871 301.998516 
L 963.346374 300.245847 
L 968.908234 298.796089 
L 974.470093 297.623451 
L 980.12313 296.645281 
L 988.420331 295.501033 
L 996.717531 294.587834 
L 1007.841249 293.592978 
L 1019.056146 292.816395 
L 1032.824027 292.10138 
L 1052.336124 291.356774 
L 1066.104006 290.97059 
L 1066.104006 290.97059 
" clip-path="url(#pa83716ffca)" style="fill: none; stroke: #8c564b; stroke-width: 1.5; stroke-linecap: square"/>
   </g>
   <g id="line2d_23">
    <path d="M 92.140369 281.319324 
L 1066.104006 281.319324 
L 1066.104006 281.319324 
" clip-path="url(#pa83716ffca)" style="fill: none; stroke: #e377c2; stroke-width: 1.5; stroke-linecap: square"/>
   </g>
   <g id="line2d_24">
    <path d="M 92.140369 378.99068 
L 94.966888 381.401947 
L 125.420348 381.401947 
L 128.246866 415.1816 
L 158.700326 415.143457 
L 161.526844 422.90288 
L 191.980304 422.892287 
L 194.806823 433.43546 
L 225.35146 433.42184 
L 228.177979 387.930921 
L 255.80492 387.960261 
L 258.631438 387.960525 
L 261.457957 330.934751 
L 291.911417 330.934751 
L 294.737935 457.873962 
L 308.414639 457.796209 
L 319.629535 457.70252 
L 325.191395 457.695314 
L 328.017914 396.2223 
L 341.785795 396.260108 
L 358.562551 396.260108 
L 361.38907 438.13954 
L 386.28067 438.030562 
L 391.842529 438.02828 
L 394.669048 400.330279 
L 419.560648 400.356413 
L 425.122507 400.35598 
L 427.949026 394.387553 
L 458.402486 394.387553 
L 461.229004 427.739694 
L 486.211783 427.709705 
L 491.773642 427.708972 
L 494.600161 457.868257 
L 522.227101 457.843865 
L 525.05362 457.843276 
L 527.880139 447.096775 
L 558.333598 447.098096 
L 561.160117 444.800197 
L 563.713102 440.95747 
L 566.53962 446.486946 
L 572.10148 443.957159 
L 574.83682 443.092851 
L 577.663339 441.816421 
L 580.489858 444.096558 
L 583.225199 447.282749 
L 586.051717 449.439087 
L 588.787058 449.32886 
L 591.613577 451.209906 
L 594.440095 460.180628 
L 597.084258 453.578736 
L 599.910777 453.996142 
L 602.646117 450.361163 
L 605.472636 450.141429 
L 608.207977 448.537645 
L 611.034495 451.011622 
L 613.861014 451.756274 
L 616.596355 452.974347 
L 619.422873 450.989295 
L 622.158214 451.731642 
L 624.984733 458.319975 
L 627.811252 458.588109 
L 630.364236 452.908701 
L 633.190755 459.718113 
L 635.926096 456.063498 
L 638.752614 454.308869 
L 641.487955 451.633401 
L 644.314474 454.697066 
L 647.140992 451.536288 
L 649.876333 451.819435 
L 652.702852 455.543035 
L 655.438192 453.790483 
L 658.264711 459.173306 
L 661.09123 459.412484 
L 663.644214 455.535481 
L 666.470733 457.659896 
L 672.032592 457.13768 
L 674.767933 455.512962 
L 677.594452 453.027527 
L 680.42097 457.714734 
L 683.156311 456.792958 
L 685.98283 460.125983 
L 688.718171 458.605151 
L 691.544689 461.224377 
L 694.371208 464.950691 
L 696.924193 462.063896 
L 699.750711 458.561135 
L 702.486052 454.757272 
L 705.312571 456.220072 
L 708.047911 455.670845 
L 710.87443 456.105293 
L 713.700949 453.769658 
L 719.262808 459.386062 
L 721.998149 456.778066 
L 724.824667 461.212235 
L 727.651186 462.409651 
L 730.295349 463.265563 
L 733.121868 460.891569 
L 735.857208 463.671824 
L 738.683727 460.933508 
L 741.419068 461.281724 
L 744.245586 458.209784 
L 747.072105 456.531838 
L 749.807446 458.982648 
L 752.633964 456.713645 
L 755.369305 461.459748 
L 758.195824 459.444034 
L 761.022342 463.779193 
L 763.575327 466.600582 
L 766.401846 462.40152 
L 769.137186 452.858283 
L 771.963705 456.388163 
L 774.699046 458.238824 
L 777.525564 455.517634 
L 780.352083 456.166195 
L 783.087424 456.95257 
L 785.913943 455.071693 
L 788.649283 457.589878 
L 791.475802 462.895381 
L 794.302321 454.256409 
L 796.855305 459.521378 
L 799.681824 452.647184 
L 802.417165 443.480039 
L 805.243683 446.980267 
L 807.979024 447.639517 
L 810.805543 446.159807 
L 813.632061 447.619952 
L 816.367402 447.05641 
L 819.193921 444.305807 
L 821.929261 446.111299 
L 824.75578 451.775755 
L 827.582299 449.004207 
L 830.135283 451.703707 
L 832.961802 447.053359 
L 835.697143 440.848588 
L 838.523662 443.257867 
L 841.259002 442.934259 
L 844.085521 442.225624 
L 846.91204 443.642066 
L 849.64738 443.579422 
L 852.473899 442.668671 
L 855.20924 444.547027 
L 858.035758 448.642203 
L 860.862277 451.984968 
L 863.50644 454.090804 
L 866.332958 451.296822 
L 869.068299 446.759536 
L 871.894818 446.17088 
L 874.630158 443.491353 
L 877.456677 442.232974 
L 880.283196 451.107197 
L 883.018536 448.12903 
L 885.845055 445.744407 
L 888.580396 455.125377 
L 891.406915 449.694767 
L 894.233433 459.124101 
L 896.786418 456.783422 
L 899.612937 456.127247 
L 902.348277 449.355558 
L 905.174796 446.925501 
L 910.736655 443.507386 
L 913.563174 447.650302 
L 916.298515 445.348607 
L 919.125033 444.622053 
L 921.860374 450.612291 
L 924.686893 450.686993 
L 927.513411 413.724577 
L 930.066396 412.824384 
L 932.892915 412.202593 
L 935.628255 411.793966 
L 938.454774 410.773493 
L 941.190115 410.278419 
L 946.843152 409.796099 
L 955.140352 409.337163 
L 974.470093 408.730925 
L 980.12313 408.564804 
L 988.420331 408.006761 
L 999.544049 407.459756 
L 1013.494287 407.039 
L 1029.997509 406.800206 
L 1055.071465 406.702421 
L 1066.104006 406.698326 
L 1066.104006 406.698326 
" clip-path="url(#pa83716ffca)" style="fill: none; stroke: #7f7f7f; stroke-width: 1.5; stroke-linecap: square"/>
   </g>
   <g id="line2d_25">
    <path d="M 92.140369 359.34584 
L 125.420348 359.345732 
L 128.246866 352.079353 
L 130.799851 346.983316 
L 133.62637 342.517886 
L 136.36171 338.818245 
L 139.188229 335.713061 
L 141.92357 333.427532 
L 144.750088 331.577256 
L 147.576607 330.073115 
L 150.311948 328.92064 
L 155.873807 327.136521 
L 158.700326 326.314079 
L 164.079829 324.049571 
L 166.906348 322.977311 
L 172.468207 321.190014 
L 178.030067 319.610961 
L 186.418445 317.722796 
L 191.980304 316.652644 
L 194.806823 315.586719 
L 200.277504 313.90726 
L 208.574704 311.723341 
L 216.963082 309.741402 
L 225.35146 308.01545 
L 228.177979 310.504524 
L 230.730964 312.515001 
L 236.292823 316.248653 
L 241.854682 319.542036 
L 247.50772 322.58736 
L 253.069579 325.338694 
L 255.80492 327.090246 
L 258.631438 328.707572 
L 261.457957 336.435256 
L 264.010942 342.111914 
L 266.83746 348.972734 
L 269.572801 356.935486 
L 272.39932 364.407763 
L 275.13466 371.107572 
L 277.961179 376.97478 
L 280.787698 382.000763 
L 283.523039 386.138532 
L 286.349557 389.891004 
L 289.084898 393.040409 
L 291.911417 395.983843 
L 294.737935 381.184837 
L 297.29092 375.046643 
L 300.117439 370.510215 
L 302.852779 367.299932 
L 305.679298 364.753013 
L 308.414639 362.800946 
L 311.241157 361.151776 
L 314.067676 359.825974 
L 316.803017 358.78841 
L 319.629535 357.873571 
L 325.191395 356.461915 
L 328.017914 356.141718 
L 333.488595 354.695612 
L 339.050454 353.313021 
L 344.612314 352.219077 
L 350.174173 351.355412 
L 358.562551 350.325048 
L 361.38907 348.53257 
L 363.942054 347.506872 
L 366.768573 346.732639 
L 369.503914 346.189969 
L 375.065773 345.369924 
L 383.454151 344.438967 
L 391.842529 343.708888 
L 394.669048 346.23903 
L 397.222033 347.647172 
L 400.048551 348.789024 
L 402.783892 349.666513 
L 408.345751 351.042913 
L 413.998789 352.095267 
L 422.295989 353.559459 
L 425.122507 353.94125 
L 427.949026 357.550449 
L 430.502011 360.15474 
L 433.32853 362.615542 
L 436.06387 364.62895 
L 438.890389 366.350996 
L 441.62573 367.743634 
L 444.452248 368.933862 
L 447.278767 369.930868 
L 452.840626 371.507846 
L 458.402486 372.838728 
L 461.229004 366.544783 
L 463.873167 362.89078 
L 466.699686 360.030894 
L 469.435026 357.992223 
L 472.261545 356.41199 
L 474.996886 355.160229 
L 477.823405 354.092989 
L 480.649923 353.200992 
L 486.211783 351.784593 
L 491.773642 350.669596 
L 494.600161 345.348558 
L 497.153145 341.716558 
L 499.979664 338.496655 
L 502.715005 335.902632 
L 505.541523 333.658285 
L 508.276864 331.898678 
L 511.103383 330.479267 
L 513.929901 329.240129 
L 516.665242 328.216119 
L 519.491761 327.284675 
L 525.05362 325.810076 
L 527.880139 326.328161 
L 533.259642 327.71107 
L 538.821502 329.0473 
L 541.556842 329.548559 
L 544.383361 329.942014 
L 549.94522 330.412186 
L 555.50708 330.599502 
L 558.333598 330.617706 
L 561.160117 328.745788 
L 563.713102 326.915901 
L 566.53962 325.146535 
L 572.10148 322.676236 
L 577.663339 320.512206 
L 583.225199 318.728656 
L 588.787058 317.207681 
L 591.613577 316.579083 
L 597.084258 317.920186 
L 602.646117 320.034168 
L 611.034495 323.614468 
L 616.596355 326.259677 
L 619.422873 327.522592 
L 622.158214 328.607499 
L 624.984733 329.594669 
L 630.364236 325.4169 
L 633.190755 323.557775 
L 638.752614 320.930377 
L 644.314474 318.513654 
L 649.876333 316.548365 
L 652.702852 315.645664 
L 661.09123 313.493568 
L 666.470733 312.309784 
L 674.767933 310.659854 
L 685.98283 308.715786 
L 699.750711 306.648036 
L 710.87443 305.130608 
L 721.998149 303.864259 
L 724.824667 303.603171 
L 733.121868 303.248149 
L 744.245586 303.067173 
L 758.195824 302.914577 
L 766.401846 302.351174 
L 774.699046 301.988576 
L 785.913943 301.623157 
L 796.855305 300.905938 
L 807.979024 300.692464 
L 816.367402 300.705478 
L 832.961802 299.931033 
L 841.259002 299.857306 
L 849.64738 299.900636 
L 869.068299 299.178454 
L 885.845055 299.147973 
L 896.786418 298.620437 
L 907.910137 298.625183 
L 916.298515 298.732248 
L 924.686893 298.428376 
L 927.513411 299.51737 
L 930.066396 300.103272 
L 935.628255 300.909311 
L 941.190115 301.499941 
L 955.140352 303.731395 
L 960.79339 304.394077 
L 966.172893 304.855317 
L 974.470093 305.266624 
L 985.68499 305.496128 
L 1002.27939 305.559654 
L 1066.104006 305.484437 
L 1066.104006 305.484437 
" clip-path="url(#pa83716ffca)" style="fill: none; stroke: #bcbd22; stroke-width: 1.5; stroke-linecap: square"/>
   </g>
   <g id="line2d_26">
    <path d="M 92.140369 281.319324 
L 1066.104006 281.319324 
L 1066.104006 281.319324 
" clip-path="url(#pa83716ffca)" style="fill: none; stroke: #17becf; stroke-width: 1.5; stroke-linecap: square"/>
   </g>
   <g id="patch_3">
    <path d="M 43.442188 488.4768 
L 43.442188 7.2 
" style="fill: none; stroke: #000000; stroke-width: 0.8; stroke-linejoin: miter; stroke-linecap: square"/>
   </g>
   <g id="patch_4">
    <path d="M 1114.802187 488.4768 
L 1114.802187 7.2 
" style="fill: none; stroke: #000000; stroke-width: 0.8; stroke-linejoin: miter; stroke-linecap: square"/>
   </g>
   <g id="patch_5">
    <path d="M 43.442188 488.4768 
L 1114.802187 488.4768 
" style="fill: none; stroke: #000000; stroke-width: 0.8; stroke-linejoin: miter; stroke-linecap: square"/>
   </g>
   <g id="patch_6">
    <path d="M 43.442188 7.2 
L 1114.802187 7.2 
" style="fill: none; stroke: #000000; stroke-width: 0.8; stroke-linejoin: miter; stroke-linecap: square"/>
   </g>
   <g id="legend_1">
    <g id="patch_7">
     <path d="M 961.677187 164.7625 
L 1107.802187 164.7625 
Q 1109.802187 164.7625 1109.802187 162.7625 
L 1109.802187 14.2 
Q 1109.802187 12.2 1107.802187 12.2 
L 961.677187 12.2 
Q 959.677187 12.2 959.677187 14.2 
L 959.677187 162.7625 
Q 959.677187 164.7625 961.677187 164.7625 
z
" style="fill: #ffffff; opacity: 0.8; stroke: #cccccc; stroke-linejoin: miter"/>
    </g>
    <g id="line2d_27">
     <path d="M 963.677187 20.298437 
L 973.677187 20.298437 
L 983.677187 20.298437 
" style="fill: none; stroke: #1f77b4; stroke-width: 1.5; stroke-linecap: square"/>
    </g>
    <g id="text_18">
     <!-- STORAGE_IN -->
     <g transform="translate(991.677187 23.798437) scale(0.1 -0.1)">
      <defs>
       <path id="DejaVuSans-53" d="M 3425 4513 
L 3425 3897 
Q 3066 4069 2747 4153 
Q 2428 4238 2131 4238 
Q 1616 4238 1336 4038 
Q 1056 3838 1056 3469 
Q 1056 3159 1242 3001 
Q 1428 2844 1947 2747 
L 2328 2669 
Q 3034 2534 3370 2195 
Q 3706 1856 3706 1288 
Q 3706 609 3251 259 
Q 2797 -91 1919 -91 
Q 1588 -91 1214 -16 
Q 841 59 441 206 
L 441 856 
Q 825 641 1194 531 
Q 1563 422 1919 422 
Q 2459 422 2753 634 
Q 3047 847 3047 1241 
Q 3047 1584 2836 1778 
Q 2625 1972 2144 2069 
L 1759 2144 
Q 1053 2284 737 2584 
Q 422 2884 422 3419 
Q 422 4038 858 4394 
Q 1294 4750 2059 4750 
Q 2388 4750 2728 4690 
Q 3069 4631 3425 4513 
z
" transform="scale(0.015625)"/>
       <path id="DejaVuSans-54" d="M -19 4666 
L 3928 4666 
L 3928 4134 
L 2272 4134 
L 2272 0 
L 1638 0 
L 1638 4134 
L -19 4134 
L -19 4666 
z
" transform="scale(0.015625)"/>
       <path id="DejaVuSans-4f" d="M 2522 4238 
Q 1834 4238 1429 3725 
Q 1025 3213 1025 2328 
Q 1025 1447 1429 934 
Q 1834 422 2522 422 
Q 3209 422 3611 934 
Q 4013 1447 4013 2328 
Q 4013 3213 3611 3725 
Q 3209 4238 2522 4238 
z
M 2522 4750 
Q 3503 4750 4090 4092 
Q 4678 3434 4678 2328 
Q 4678 1225 4090 567 
Q 3503 -91 2522 -91 
Q 1538 -91 948 565 
Q 359 1222 359 2328 
Q 359 3434 948 4092 
Q 1538 4750 2522 4750 
z
" transform="scale(0.015625)"/>
       <path id="DejaVuSans-52" d="M 2841 2188 
Q 3044 2119 3236 1894 
Q 3428 1669 3622 1275 
L 4263 0 
L 3584 0 
L 2988 1197 
Q 2756 1666 2539 1819 
Q 2322 1972 1947 1972 
L 1259 1972 
L 1259 0 
L 628 0 
L 628 4666 
L 2053 4666 
Q 2853 4666 3247 4331 
Q 3641 3997 3641 3322 
Q 3641 2881 3436 2590 
Q 3231 2300 2841 2188 
z
M 1259 4147 
L 1259 2491 
L 2053 2491 
Q 2509 2491 2742 2702 
Q 2975 2913 2975 3322 
Q 2975 3731 2742 3939 
Q 2509 4147 2053 4147 
L 1259 4147 
z
" transform="scale(0.015625)"/>
       <path id="DejaVuSans-41" d="M 2188 4044 
L 1331 1722 
L 3047 1722 
L 2188 4044 
z
M 1831 4666 
L 2547 4666 
L 4325 0 
L 3669 0 
L 3244 1197 
L 1141 1197 
L 716 0 
L 50 0 
L 1831 4666 
z
" transform="scale(0.015625)"/>
       <path id="DejaVuSans-47" d="M 3809 666 
L 3809 1919 
L 2778 1919 
L 2778 2438 
L 4434 2438 
L 4434 434 
Q 4069 175 3628 42 
Q 3188 -91 2688 -91 
Q 1594 -91 976 548 
Q 359 1188 359 2328 
Q 359 3472 976 4111 
Q 1594 4750 2688 4750 
Q 3144 4750 3555 4637 
Q 3966 4525 4313 4306 
L 4313 3634 
Q 3963 3931 3569 4081 
Q 3175 4231 2741 4231 
Q 1884 4231 1454 3753 
Q 1025 3275 1025 2328 
Q 1025 1384 1454 906 
Q 1884 428 2741 428 
Q 3075 428 3337 486 
Q 3600 544 3809 666 
z
" transform="scale(0.015625)"/>
       <path id="DejaVuSans-45" d="M 628 4666 
L 3578 4666 
L 3578 4134 
L 1259 4134 
L 1259 2753 
L 3481 2753 
L 3481 2222 
L 1259 2222 
L 1259 531 
L 3634 531 
L 3634 0 
L 628 0 
L 628 4666 
z
" transform="scale(0.015625)"/>
       <path id="DejaVuSans-5f" d="M 3263 -1063 
L 3263 -1509 
L -63 -1509 
L -63 -1063 
L 3263 -1063 
z
" transform="scale(0.015625)"/>
       <path id="DejaVuSans-49" d="M 628 4666 
L 1259 4666 
L 1259 0 
L 628 0 
L 628 4666 
z
" transform="scale(0.015625)"/>
       <path id="DejaVuSans-4e" d="M 628 4666 
L 1478 4666 
L 3547 763 
L 3547 4666 
L 4159 4666 
L 4159 0 
L 3309 0 
L 1241 3903 
L 1241 0 
L 628 0 
L 628 4666 
z
" transform="scale(0.015625)"/>
      </defs>
      <use xlink:href="#DejaVuSans-53"/>
      <use xlink:href="#DejaVuSans-54" x="63.476562"/>
      <use xlink:href="#DejaVuSans-4f" x="124.560547"/>
      <use xlink:href="#DejaVuSans-52" x="203.271484"/>
      <use xlink:href="#DejaVuSans-41" x="268.753906"/>
      <use xlink:href="#DejaVuSans-47" x="335.412109"/>
      <use xlink:href="#DejaVuSans-45" x="412.902344"/>
      <use xlink:href="#DejaVuSans-5f" x="476.085938"/>
      <use xlink:href="#DejaVuSans-49" x="526.085938"/>
      <use xlink:href="#DejaVuSans-4e" x="555.578125"/>
     </g>
    </g>
    <g id="line2d_28">
     <path d="M 963.677187 35.254687 
L 973.677187 35.254687 
L 983.677187 35.254687 
" style="fill: none; stroke: #ff7f0e; stroke-width: 1.5; stroke-linecap: square"/>
    </g>
    <g id="text_19">
     <!-- CONSTANT_HEAD_IN -->
     <g transform="translate(991.677187 38.754687) scale(0.1 -0.1)">
      <defs>
       <path id="DejaVuSans-43" d="M 4122 4306 
L 4122 3641 
Q 3803 3938 3442 4084 
Q 3081 4231 2675 4231 
Q 1875 4231 1450 3742 
Q 1025 3253 1025 2328 
Q 1025 1406 1450 917 
Q 1875 428 2675 428 
Q 3081 428 3442 575 
Q 3803 722 4122 1019 
L 4122 359 
Q 3791 134 3420 21 
Q 3050 -91 2638 -91 
Q 1578 -91 968 557 
Q 359 1206 359 2328 
Q 359 3453 968 4101 
Q 1578 4750 2638 4750 
Q 3056 4750 3426 4639 
Q 3797 4528 4122 4306 
z
" transform="scale(0.015625)"/>
       <path id="DejaVuSans-48" d="M 628 4666 
L 1259 4666 
L 1259 2753 
L 3553 2753 
L 3553 4666 
L 4184 4666 
L 4184 0 
L 3553 0 
L 3553 2222 
L 1259 2222 
L 1259 0 
L 628 0 
L 628 4666 
z
" transform="scale(0.015625)"/>
       <path id="DejaVuSans-44" d="M 1259 4147 
L 1259 519 
L 2022 519 
Q 2988 519 3436 956 
Q 3884 1394 3884 2338 
Q 3884 3275 3436 3711 
Q 2988 4147 2022 4147 
L 1259 4147 
z
M 628 4666 
L 1925 4666 
Q 3281 4666 3915 4102 
Q 4550 3538 4550 2338 
Q 4550 1131 3912 565 
Q 3275 0 1925 0 
L 628 0 
L 628 4666 
z
" transform="scale(0.015625)"/>
      </defs>
      <use xlink:href="#DejaVuSans-43"/>
      <use xlink:href="#DejaVuSans-4f" x="69.824219"/>
      <use xlink:href="#DejaVuSans-4e" x="148.535156"/>
      <use xlink:href="#DejaVuSans-53" x="223.339844"/>
      <use xlink:href="#DejaVuSans-54" x="286.816406"/>
      <use xlink:href="#DejaVuSans-41" x="340.150391"/>
      <use xlink:href="#DejaVuSans-4e" x="408.558594"/>
      <use xlink:href="#DejaVuSans-54" x="483.363281"/>
      <use xlink:href="#DejaVuSans-5f" x="544.447266"/>
      <use xlink:href="#DejaVuSans-48" x="594.447266"/>
      <use xlink:href="#DejaVuSans-45" x="669.642578"/>
      <use xlink:href="#DejaVuSans-41" x="732.826172"/>
      <use xlink:href="#DejaVuSans-44" x="801.234375"/>
      <use xlink:href="#DejaVuSans-5f" x="878.236328"/>
      <use xlink:href="#DejaVuSans-49" x="928.236328"/>
      <use xlink:href="#DejaVuSans-4e" x="957.728516"/>
     </g>
    </g>
    <g id="line2d_29">
     <path d="M 963.677187 50.210937 
L 973.677187 50.210937 
L 983.677187 50.210937 
" style="fill: none; stroke: #2ca02c; stroke-width: 1.5; stroke-linecap: square"/>
    </g>
    <g id="text_20">
     <!-- WELLS_IN -->
     <g transform="translate(991.677187 53.710937) scale(0.1 -0.1)">
      <defs>
       <path id="DejaVuSans-57" d="M 213 4666 
L 850 4666 
L 1831 722 
L 2809 4666 
L 3519 4666 
L 4500 722 
L 5478 4666 
L 6119 4666 
L 4947 0 
L 4153 0 
L 3169 4050 
L 2175 0 
L 1381 0 
L 213 4666 
z
" transform="scale(0.015625)"/>
       <path id="DejaVuSans-4c" d="M 628 4666 
L 1259 4666 
L 1259 531 
L 3531 531 
L 3531 0 
L 628 0 
L 628 4666 
z
" transform="scale(0.015625)"/>
      </defs>
      <use xlink:href="#DejaVuSans-57"/>
      <use xlink:href="#DejaVuSans-45" x="98.876953"/>
      <use xlink:href="#DejaVuSans-4c" x="162.060547"/>
      <use xlink:href="#DejaVuSans-4c" x="217.773438"/>
      <use xlink:href="#DejaVuSans-53" x="273.486328"/>
      <use xlink:href="#DejaVuSans-5f" x="336.962891"/>
      <use xlink:href="#DejaVuSans-49" x="386.962891"/>
      <use xlink:href="#DejaVuSans-4e" x="416.455078"/>
     </g>
    </g>
    <g id="line2d_30">
     <path d="M 963.677187 65.167187 
L 973.677187 65.167187 
L 983.677187 65.167187 
" style="fill: none; stroke: #d62728; stroke-width: 1.5; stroke-linecap: square"/>
    </g>
    <g id="text_21">
     <!-- DRAINS_IN -->
     <g transform="translate(991.677187 68.667187) scale(0.1 -0.1)">
      <use xlink:href="#DejaVuSans-44"/>
      <use xlink:href="#DejaVuSans-52" x="77.001953"/>
      <use xlink:href="#DejaVuSans-41" x="142.484375"/>
      <use xlink:href="#DejaVuSans-49" x="210.892578"/>
      <use xlink:href="#DejaVuSans-4e" x="240.384766"/>
      <use xlink:href="#DejaVuSans-53" x="315.189453"/>
      <use xlink:href="#DejaVuSans-5f" x="378.666016"/>
      <use xlink:href="#DejaVuSans-49" x="428.666016"/>
      <use xlink:href="#DejaVuSans-4e" x="458.158203"/>
     </g>
    </g>
    <g id="line2d_31">
     <path d="M 963.677187 80.123437 
L 973.677187 80.123437 
L 983.677187 80.123437 
" style="fill: none; stroke: #9467bd; stroke-width: 1.5; stroke-linecap: square"/>
    </g>
    <g id="text_22">
     <!-- RECHARGE_IN -->
     <g transform="translate(991.677187 83.623437) scale(0.1 -0.1)">
      <use xlink:href="#DejaVuSans-52"/>
      <use xlink:href="#DejaVuSans-45" x="69.482422"/>
      <use xlink:href="#DejaVuSans-43" x="132.666016"/>
      <use xlink:href="#DejaVuSans-48" x="202.490234"/>
      <use xlink:href="#DejaVuSans-41" x="277.685547"/>
      <use xlink:href="#DejaVuSans-52" x="346.09375"/>
      <use xlink:href="#DejaVuSans-47" x="415.576172"/>
      <use xlink:href="#DejaVuSans-45" x="493.066406"/>
      <use xlink:href="#DejaVuSans-5f" x="556.25"/>
      <use xlink:href="#DejaVuSans-49" x="606.25"/>
      <use xlink:href="#DejaVuSans-4e" x="635.742188"/>
     </g>
    </g>
    <g id="line2d_32">
     <path d="M 963.677187 95.079687 
L 973.677187 95.079687 
L 983.677187 95.079687 
" style="fill: none; stroke: #8c564b; stroke-width: 1.5; stroke-linecap: square"/>
    </g>
    <g id="text_23">
     <!-- STORAGE_OUT -->
     <g transform="translate(991.677187 98.579687) scale(0.1 -0.1)">
      <defs>
       <path id="DejaVuSans-55" d="M 556 4666 
L 1191 4666 
L 1191 1831 
Q 1191 1081 1462 751 
Q 1734 422 2344 422 
Q 2950 422 3222 751 
Q 3494 1081 3494 1831 
L 3494 4666 
L 4128 4666 
L 4128 1753 
Q 4128 841 3676 375 
Q 3225 -91 2344 -91 
Q 1459 -91 1007 375 
Q 556 841 556 1753 
L 556 4666 
z
" transform="scale(0.015625)"/>
      </defs>
      <use xlink:href="#DejaVuSans-53"/>
      <use xlink:href="#DejaVuSans-54" x="63.476562"/>
      <use xlink:href="#DejaVuSans-4f" x="124.560547"/>
      <use xlink:href="#DejaVuSans-52" x="203.271484"/>
      <use xlink:href="#DejaVuSans-41" x="268.753906"/>
      <use xlink:href="#DejaVuSans-47" x="335.412109"/>
      <use xlink:href="#DejaVuSans-45" x="412.902344"/>
      <use xlink:href="#DejaVuSans-5f" x="476.085938"/>
      <use xlink:href="#DejaVuSans-4f" x="526.085938"/>
      <use xlink:href="#DejaVuSans-55" x="604.796875"/>
      <use xlink:href="#DejaVuSans-54" x="677.990234"/>
     </g>
    </g>
    <g id="line2d_33">
     <path d="M 963.677187 110.035937 
L 973.677187 110.035937 
L 983.677187 110.035937 
" style="fill: none; stroke: #e377c2; stroke-width: 1.5; stroke-linecap: square"/>
    </g>
    <g id="text_24">
     <!-- CONSTANT_HEAD_OUT -->
     <g transform="translate(991.677187 113.535937) scale(0.1 -0.1)">
      <use xlink:href="#DejaVuSans-43"/>
      <use xlink:href="#DejaVuSans-4f" x="69.824219"/>
      <use xlink:href="#DejaVuSans-4e" x="148.535156"/>
      <use xlink:href="#DejaVuSans-53" x="223.339844"/>
      <use xlink:href="#DejaVuSans-54" x="286.816406"/>
      <use xlink:href="#DejaVuSans-41" x="340.150391"/>
      <use xlink:href="#DejaVuSans-4e" x="408.558594"/>
      <use xlink:href="#DejaVuSans-54" x="483.363281"/>
      <use xlink:href="#DejaVuSans-5f" x="544.447266"/>
      <use xlink:href="#DejaVuSans-48" x="594.447266"/>
      <use xlink:href="#DejaVuSans-45" x="669.642578"/>
      <use xlink:href="#DejaVuSans-41" x="732.826172"/>
      <use xlink:href="#DejaVuSans-44" x="801.234375"/>
      <use xlink:href="#DejaVuSans-5f" x="878.236328"/>
      <use xlink:href="#DejaVuSans-4f" x="928.236328"/>
      <use xlink:href="#DejaVuSans-55" x="1006.947266"/>
      <use xlink:href="#DejaVuSans-54" x="1080.140625"/>
     </g>
    </g>
    <g id="line2d_34">
     <path d="M 963.677187 124.992187 
L 973.677187 124.992187 
L 983.677187 124.992187 
" style="fill: none; stroke: #7f7f7f; stroke-width: 1.5; stroke-linecap: square"/>
    </g>
    <g id="text_25">
     <!-- WELLS_OUT -->
     <g transform="translate(991.677187 128.492187) scale(0.1 -0.1)">
      <use xlink:href="#DejaVuSans-57"/>
      <use xlink:href="#DejaVuSans-45" x="98.876953"/>
      <use xlink:href="#DejaVuSans-4c" x="162.060547"/>
      <use xlink:href="#DejaVuSans-4c" x="217.773438"/>
      <use xlink:href="#DejaVuSans-53" x="273.486328"/>
      <use xlink:href="#DejaVuSans-5f" x="336.962891"/>
      <use xlink:href="#DejaVuSans-4f" x="386.962891"/>
      <use xlink:href="#DejaVuSans-55" x="465.673828"/>
      <use xlink:href="#DejaVuSans-54" x="538.867188"/>
     </g>
    </g>
    <g id="line2d_35">
     <path d="M 963.677187 139.948437 
L 973.677187 139.948437 
L 983.677187 139.948437 
" style="fill: none; stroke: #bcbd22; stroke-width: 1.5; stroke-linecap: square"/>
    </g>
    <g id="text_26">
     <!-- DRAINS_OUT -->
     <g transform="translate(991.677187 143.448437) scale(0.1 -0.1)">
      <use xlink:href="#DejaVuSans-44"/>
      <use xlink:href="#DejaVuSans-52" x="77.001953"/>
      <use xlink:href="#DejaVuSans-41" x="142.484375"/>
      <use xlink:href="#DejaVuSans-49" x="210.892578"/>
      <use xlink:href="#DejaVuSans-4e" x="240.384766"/>
      <use xlink:href="#DejaVuSans-53" x="315.189453"/>
      <use xlink:href="#DejaVuSans-5f" x="378.666016"/>
      <use xlink:href="#DejaVuSans-4f" x="428.666016"/>
      <use xlink:href="#DejaVuSans-55" x="507.376953"/>
      <use xlink:href="#DejaVuSans-54" x="580.570312"/>
     </g>
    </g>
    <g id="line2d_36">
     <path d="M 963.677187 154.904687 
L 973.677187 154.904687 
L 983.677187 154.904687 
" style="fill: none; stroke: #17becf; stroke-width: 1.5; stroke-linecap: square"/>
    </g>
    <g id="text_27">
     <!-- RECHARGE_OUT -->
     <g transform="translate(991.677187 158.404687) scale(0.1 -0.1)">
      <use xlink:href="#DejaVuSans-52"/>
      <use xlink:href="#DejaVuSans-45" x="69.482422"/>
      <use xlink:href="#DejaVuSans-43" x="132.666016"/>
      <use xlink:href="#DejaVuSans-48" x="202.490234"/>
      <use xlink:href="#DejaVuSans-41" x="277.685547"/>
      <use xlink:href="#DejaVuSans-52" x="346.09375"/>
      <use xlink:href="#DejaVuSans-47" x="415.576172"/>
      <use xlink:href="#DejaVuSans-45" x="493.066406"/>
      <use xlink:href="#DejaVuSans-5f" x="556.25"/>
      <use xlink:href="#DejaVuSans-4f" x="606.25"/>
      <use xlink:href="#DejaVuSans-55" x="684.960938"/>
      <use xlink:href="#DejaVuSans-54" x="758.154297"/>
     </g>
    </g>
   </g>
  </g>
 </g>
 <defs>
  <clipPath id="pa83716ffca">
   <rect x="43.442188" y="7.2" width="1071.36" height="481.2768"/>
  </clipPath>
 </defs>
</svg>
