<?xml version="1.0" encoding="utf-8" standalone="no"?>
<!DOCTYPE svg PUBLIC "-//W3C//DTD SVG 1.1//EN"
  "http://www.w3.org/Graphics/SVG/1.1/DTD/svg11.dtd">
<!-- Created with matplotlib (https://matplotlib.org/) -->
<svg height="277.514502pt" version="1.1" viewBox="0 0 421.502813 277.514502" width="421.502813pt" xmlns="http://www.w3.org/2000/svg" xmlns:xlink="http://www.w3.org/1999/xlink">
 <defs>
  <style type="text/css">
*{stroke-linecap:butt;stroke-linejoin:round;}
  </style>
 </defs>
 <g id="figure_1">
  <g id="patch_1">
   <path d="M 0 277.514502 
L 421.502813 277.514502 
L 421.502813 0 
L 0 0 
z
" style="fill:#ffffff;"/>
  </g>
  <g id="axes_1">
   <g id="patch_2">
    <path d="M 57.182813 242.208 
L 414.302813 242.208 
L 414.302813 7.2 
L 57.182813 7.2 
z
" style="fill:#ffffff;"/>
   </g>
   <g id="matplotlib.axis_1">
    <g id="xtick_1">
     <g id="line2d_1">
      <defs>
       <path d="M 0 0 
L 0 3.5 
" id="m8455879f19" style="stroke:#000000;stroke-width:0.8;"/>
      </defs>
      <g>
       <use style="stroke:#000000;stroke-width:0.8;" x="62.261428" xlink:href="#m8455879f19" y="242.208"/>
      </g>
     </g>
     <g id="text_1">
      <!-- 1992 -->
      <defs>
       <path d="M 12.40625 8.296875 
L 28.515625 8.296875 
L 28.515625 63.921875 
L 10.984375 60.40625 
L 10.984375 69.390625 
L 28.421875 72.90625 
L 38.28125 72.90625 
L 38.28125 8.296875 
L 54.390625 8.296875 
L 54.390625 0 
L 12.40625 0 
z
" id="DejaVuSans-49"/>
       <path d="M 10.984375 1.515625 
L 10.984375 10.5 
Q 14.703125 8.734375 18.5 7.8125 
Q 22.3125 6.890625 25.984375 6.890625 
Q 35.75 6.890625 40.890625 13.453125 
Q 46.046875 20.015625 46.78125 33.40625 
Q 43.953125 29.203125 39.59375 26.953125 
Q 35.25 24.703125 29.984375 24.703125 
Q 19.046875 24.703125 12.671875 31.3125 
Q 6.296875 37.9375 6.296875 49.421875 
Q 6.296875 60.640625 12.9375 67.421875 
Q 19.578125 74.21875 30.609375 74.21875 
Q 43.265625 74.21875 49.921875 64.515625 
Q 56.59375 54.828125 56.59375 36.375 
Q 56.59375 19.140625 48.40625 8.859375 
Q 40.234375 -1.421875 26.421875 -1.421875 
Q 22.703125 -1.421875 18.890625 -0.6875 
Q 15.09375 0.046875 10.984375 1.515625 
z
M 30.609375 32.421875 
Q 37.25 32.421875 41.125 36.953125 
Q 45.015625 41.5 45.015625 49.421875 
Q 45.015625 57.28125 41.125 61.84375 
Q 37.25 66.40625 30.609375 66.40625 
Q 23.96875 66.40625 20.09375 61.84375 
Q 16.21875 57.28125 16.21875 49.421875 
Q 16.21875 41.5 20.09375 36.953125 
Q 23.96875 32.421875 30.609375 32.421875 
z
" id="DejaVuSans-57"/>
       <path d="M 19.1875 8.296875 
L 53.609375 8.296875 
L 53.609375 0 
L 7.328125 0 
L 7.328125 8.296875 
Q 12.9375 14.109375 22.625 23.890625 
Q 32.328125 33.6875 34.8125 36.53125 
Q 39.546875 41.84375 41.421875 45.53125 
Q 43.3125 49.21875 43.3125 52.78125 
Q 43.3125 58.59375 39.234375 62.25 
Q 35.15625 65.921875 28.609375 65.921875 
Q 23.96875 65.921875 18.8125 64.3125 
Q 13.671875 62.703125 7.8125 59.421875 
L 7.8125 69.390625 
Q 13.765625 71.78125 18.9375 73 
Q 24.125 74.21875 28.421875 74.21875 
Q 39.75 74.21875 46.484375 68.546875 
Q 53.21875 62.890625 53.21875 53.421875 
Q 53.21875 48.921875 51.53125 44.890625 
Q 49.859375 40.875 45.40625 35.40625 
Q 44.1875 33.984375 37.640625 27.21875 
Q 31.109375 20.453125 19.1875 8.296875 
z
" id="DejaVuSans-50"/>
      </defs>
      <g transform="translate(39.181238 268.51344)rotate(-30)scale(0.1 -0.1)">
       <use xlink:href="#DejaVuSans-49"/>
       <use x="63.623047" xlink:href="#DejaVuSans-57"/>
       <use x="127.246094" xlink:href="#DejaVuSans-57"/>
       <use x="190.869141" xlink:href="#DejaVuSans-50"/>
      </g>
     </g>
    </g>
    <g id="xtick_2">
     <g id="line2d_2">
      <g>
       <use style="stroke:#000000;stroke-width:0.8;" x="106.665125" xlink:href="#m8455879f19" y="242.208"/>
      </g>
     </g>
     <g id="text_2">
      <!-- 1996 -->
      <defs>
       <path d="M 33.015625 40.375 
Q 26.375 40.375 22.484375 35.828125 
Q 18.609375 31.296875 18.609375 23.390625 
Q 18.609375 15.53125 22.484375 10.953125 
Q 26.375 6.390625 33.015625 6.390625 
Q 39.65625 6.390625 43.53125 10.953125 
Q 47.40625 15.53125 47.40625 23.390625 
Q 47.40625 31.296875 43.53125 35.828125 
Q 39.65625 40.375 33.015625 40.375 
z
M 52.59375 71.296875 
L 52.59375 62.3125 
Q 48.875 64.0625 45.09375 64.984375 
Q 41.3125 65.921875 37.59375 65.921875 
Q 27.828125 65.921875 22.671875 59.328125 
Q 17.53125 52.734375 16.796875 39.40625 
Q 19.671875 43.65625 24.015625 45.921875 
Q 28.375 48.1875 33.59375 48.1875 
Q 44.578125 48.1875 50.953125 41.515625 
Q 57.328125 34.859375 57.328125 23.390625 
Q 57.328125 12.15625 50.6875 5.359375 
Q 44.046875 -1.421875 33.015625 -1.421875 
Q 20.359375 -1.421875 13.671875 8.265625 
Q 6.984375 17.96875 6.984375 36.375 
Q 6.984375 53.65625 15.1875 63.9375 
Q 23.390625 74.21875 37.203125 74.21875 
Q 40.921875 74.21875 44.703125 73.484375 
Q 48.484375 72.75 52.59375 71.296875 
z
" id="DejaVuSans-54"/>
      </defs>
      <g transform="translate(83.584935 268.51344)rotate(-30)scale(0.1 -0.1)">
       <use xlink:href="#DejaVuSans-49"/>
       <use x="63.623047" xlink:href="#DejaVuSans-57"/>
       <use x="127.246094" xlink:href="#DejaVuSans-57"/>
       <use x="190.869141" xlink:href="#DejaVuSans-54"/>
      </g>
     </g>
    </g>
    <g id="xtick_3">
     <g id="line2d_3">
      <g>
       <use style="stroke:#000000;stroke-width:0.8;" x="151.068822" xlink:href="#m8455879f19" y="242.208"/>
      </g>
     </g>
     <g id="text_3">
      <!-- 2000 -->
      <defs>
       <path d="M 31.78125 66.40625 
Q 24.171875 66.40625 20.328125 58.90625 
Q 16.5 51.421875 16.5 36.375 
Q 16.5 21.390625 20.328125 13.890625 
Q 24.171875 6.390625 31.78125 6.390625 
Q 39.453125 6.390625 43.28125 13.890625 
Q 47.125 21.390625 47.125 36.375 
Q 47.125 51.421875 43.28125 58.90625 
Q 39.453125 66.40625 31.78125 66.40625 
z
M 31.78125 74.21875 
Q 44.046875 74.21875 50.515625 64.515625 
Q 56.984375 54.828125 56.984375 36.375 
Q 56.984375 17.96875 50.515625 8.265625 
Q 44.046875 -1.421875 31.78125 -1.421875 
Q 19.53125 -1.421875 13.0625 8.265625 
Q 6.59375 17.96875 6.59375 36.375 
Q 6.59375 54.828125 13.0625 64.515625 
Q 19.53125 74.21875 31.78125 74.21875 
z
" id="DejaVuSans-48"/>
      </defs>
      <g transform="translate(127.988632 268.51344)rotate(-30)scale(0.1 -0.1)">
       <use xlink:href="#DejaVuSans-50"/>
       <use x="63.623047" xlink:href="#DejaVuSans-48"/>
       <use x="127.246094" xlink:href="#DejaVuSans-48"/>
       <use x="190.869141" xlink:href="#DejaVuSans-48"/>
      </g>
     </g>
    </g>
    <g id="xtick_4">
     <g id="line2d_4">
      <g>
       <use style="stroke:#000000;stroke-width:0.8;" x="195.472519" xlink:href="#m8455879f19" y="242.208"/>
      </g>
     </g>
     <g id="text_4">
      <!-- 2004 -->
      <defs>
       <path d="M 37.796875 64.3125 
L 12.890625 25.390625 
L 37.796875 25.390625 
z
M 35.203125 72.90625 
L 47.609375 72.90625 
L 47.609375 25.390625 
L 58.015625 25.390625 
L 58.015625 17.1875 
L 47.609375 17.1875 
L 47.609375 0 
L 37.796875 0 
L 37.796875 17.1875 
L 4.890625 17.1875 
L 4.890625 26.703125 
z
" id="DejaVuSans-52"/>
      </defs>
      <g transform="translate(172.392329 268.51344)rotate(-30)scale(0.1 -0.1)">
       <use xlink:href="#DejaVuSans-50"/>
       <use x="63.623047" xlink:href="#DejaVuSans-48"/>
       <use x="127.246094" xlink:href="#DejaVuSans-48"/>
       <use x="190.869141" xlink:href="#DejaVuSans-52"/>
      </g>
     </g>
    </g>
    <g id="xtick_5">
     <g id="line2d_5">
      <g>
       <use style="stroke:#000000;stroke-width:0.8;" x="239.876216" xlink:href="#m8455879f19" y="242.208"/>
      </g>
     </g>
     <g id="text_5">
      <!-- 2008 -->
      <defs>
       <path d="M 31.78125 34.625 
Q 24.75 34.625 20.71875 30.859375 
Q 16.703125 27.09375 16.703125 20.515625 
Q 16.703125 13.921875 20.71875 10.15625 
Q 24.75 6.390625 31.78125 6.390625 
Q 38.8125 6.390625 42.859375 10.171875 
Q 46.921875 13.96875 46.921875 20.515625 
Q 46.921875 27.09375 42.890625 30.859375 
Q 38.875 34.625 31.78125 34.625 
z
M 21.921875 38.8125 
Q 15.578125 40.375 12.03125 44.71875 
Q 8.5 49.078125 8.5 55.328125 
Q 8.5 64.0625 14.71875 69.140625 
Q 20.953125 74.21875 31.78125 74.21875 
Q 42.671875 74.21875 48.875 69.140625 
Q 55.078125 64.0625 55.078125 55.328125 
Q 55.078125 49.078125 51.53125 44.71875 
Q 48 40.375 41.703125 38.8125 
Q 48.828125 37.15625 52.796875 32.3125 
Q 56.78125 27.484375 56.78125 20.515625 
Q 56.78125 9.90625 50.3125 4.234375 
Q 43.84375 -1.421875 31.78125 -1.421875 
Q 19.734375 -1.421875 13.25 4.234375 
Q 6.78125 9.90625 6.78125 20.515625 
Q 6.78125 27.484375 10.78125 32.3125 
Q 14.796875 37.15625 21.921875 38.8125 
z
M 18.3125 54.390625 
Q 18.3125 48.734375 21.84375 45.5625 
Q 25.390625 42.390625 31.78125 42.390625 
Q 38.140625 42.390625 41.71875 45.5625 
Q 45.3125 48.734375 45.3125 54.390625 
Q 45.3125 60.0625 41.71875 63.234375 
Q 38.140625 66.40625 31.78125 66.40625 
Q 25.390625 66.40625 21.84375 63.234375 
Q 18.3125 60.0625 18.3125 54.390625 
z
" id="DejaVuSans-56"/>
      </defs>
      <g transform="translate(216.796026 268.51344)rotate(-30)scale(0.1 -0.1)">
       <use xlink:href="#DejaVuSans-50"/>
       <use x="63.623047" xlink:href="#DejaVuSans-48"/>
       <use x="127.246094" xlink:href="#DejaVuSans-48"/>
       <use x="190.869141" xlink:href="#DejaVuSans-56"/>
      </g>
     </g>
    </g>
    <g id="xtick_6">
     <g id="line2d_6">
      <g>
       <use style="stroke:#000000;stroke-width:0.8;" x="284.279913" xlink:href="#m8455879f19" y="242.208"/>
      </g>
     </g>
     <g id="text_6">
      <!-- 2012 -->
      <g transform="translate(261.199723 268.51344)rotate(-30)scale(0.1 -0.1)">
       <use xlink:href="#DejaVuSans-50"/>
       <use x="63.623047" xlink:href="#DejaVuSans-48"/>
       <use x="127.246094" xlink:href="#DejaVuSans-49"/>
       <use x="190.869141" xlink:href="#DejaVuSans-50"/>
      </g>
     </g>
    </g>
    <g id="xtick_7">
     <g id="line2d_7">
      <g>
       <use style="stroke:#000000;stroke-width:0.8;" x="328.68361" xlink:href="#m8455879f19" y="242.208"/>
      </g>
     </g>
     <g id="text_7">
      <!-- 2016 -->
      <g transform="translate(305.60342 268.51344)rotate(-30)scale(0.1 -0.1)">
       <use xlink:href="#DejaVuSans-50"/>
       <use x="63.623047" xlink:href="#DejaVuSans-48"/>
       <use x="127.246094" xlink:href="#DejaVuSans-49"/>
       <use x="190.869141" xlink:href="#DejaVuSans-54"/>
      </g>
     </g>
    </g>
    <g id="xtick_8">
     <g id="line2d_8">
      <g>
       <use style="stroke:#000000;stroke-width:0.8;" x="373.087307" xlink:href="#m8455879f19" y="242.208"/>
      </g>
     </g>
     <g id="text_8">
      <!-- 2020 -->
      <g transform="translate(350.007117 268.51344)rotate(-30)scale(0.1 -0.1)">
       <use xlink:href="#DejaVuSans-50"/>
       <use x="63.623047" xlink:href="#DejaVuSans-48"/>
       <use x="127.246094" xlink:href="#DejaVuSans-50"/>
       <use x="190.869141" xlink:href="#DejaVuSans-48"/>
      </g>
     </g>
    </g>
   </g>
   <g id="matplotlib.axis_2">
    <g id="ytick_1">
     <g id="line2d_9">
      <defs>
       <path d="M 0 0 
L -3.5 0 
" id="m654b48510d" style="stroke:#000000;stroke-width:0.8;"/>
      </defs>
      <g>
       <use style="stroke:#000000;stroke-width:0.8;" x="57.182813" xlink:href="#m654b48510d" y="216.401377"/>
      </g>
     </g>
     <g id="text_9">
      <!-- −5.0 -->
      <defs>
       <path d="M 10.59375 35.5 
L 73.1875 35.5 
L 73.1875 27.203125 
L 10.59375 27.203125 
z
" id="DejaVuSans-8722"/>
       <path d="M 10.796875 72.90625 
L 49.515625 72.90625 
L 49.515625 64.59375 
L 19.828125 64.59375 
L 19.828125 46.734375 
Q 21.96875 47.46875 24.109375 47.828125 
Q 26.265625 48.1875 28.421875 48.1875 
Q 40.625 48.1875 47.75 41.5 
Q 54.890625 34.8125 54.890625 23.390625 
Q 54.890625 11.625 47.5625 5.09375 
Q 40.234375 -1.421875 26.90625 -1.421875 
Q 22.3125 -1.421875 17.546875 -0.640625 
Q 12.796875 0.140625 7.71875 1.703125 
L 7.71875 11.625 
Q 12.109375 9.234375 16.796875 8.0625 
Q 21.484375 6.890625 26.703125 6.890625 
Q 35.15625 6.890625 40.078125 11.328125 
Q 45.015625 15.765625 45.015625 23.390625 
Q 45.015625 31 40.078125 35.4375 
Q 35.15625 39.890625 26.703125 39.890625 
Q 22.75 39.890625 18.8125 39.015625 
Q 14.890625 38.140625 10.796875 36.28125 
z
" id="DejaVuSans-53"/>
       <path d="M 10.6875 12.40625 
L 21 12.40625 
L 21 0 
L 10.6875 0 
z
" id="DejaVuSans-46"/>
      </defs>
      <g transform="translate(25.9 220.200596)scale(0.1 -0.1)">
       <use xlink:href="#DejaVuSans-8722"/>
       <use x="83.789062" xlink:href="#DejaVuSans-53"/>
       <use x="147.412109" xlink:href="#DejaVuSans-46"/>
       <use x="179.199219" xlink:href="#DejaVuSans-48"/>
      </g>
     </g>
    </g>
    <g id="ytick_2">
     <g id="line2d_10">
      <g>
       <use style="stroke:#000000;stroke-width:0.8;" x="57.182813" xlink:href="#m654b48510d" y="184.272549"/>
      </g>
     </g>
     <g id="text_10">
      <!-- −2.5 -->
      <g transform="translate(25.9 188.071767)scale(0.1 -0.1)">
       <use xlink:href="#DejaVuSans-8722"/>
       <use x="83.789062" xlink:href="#DejaVuSans-50"/>
       <use x="147.412109" xlink:href="#DejaVuSans-46"/>
       <use x="179.199219" xlink:href="#DejaVuSans-53"/>
      </g>
     </g>
    </g>
    <g id="ytick_3">
     <g id="line2d_11">
      <g>
       <use style="stroke:#000000;stroke-width:0.8;" x="57.182813" xlink:href="#m654b48510d" y="152.143721"/>
      </g>
     </g>
     <g id="text_11">
      <!-- 0.0 -->
      <g transform="translate(34.279688 155.942939)scale(0.1 -0.1)">
       <use xlink:href="#DejaVuSans-48"/>
       <use x="63.623047" xlink:href="#DejaVuSans-46"/>
       <use x="95.410156" xlink:href="#DejaVuSans-48"/>
      </g>
     </g>
    </g>
    <g id="ytick_4">
     <g id="line2d_12">
      <g>
       <use style="stroke:#000000;stroke-width:0.8;" x="57.182813" xlink:href="#m654b48510d" y="120.014892"/>
      </g>
     </g>
     <g id="text_12">
      <!-- 2.5 -->
      <g transform="translate(34.279688 123.814111)scale(0.1 -0.1)">
       <use xlink:href="#DejaVuSans-50"/>
       <use x="63.623047" xlink:href="#DejaVuSans-46"/>
       <use x="95.410156" xlink:href="#DejaVuSans-53"/>
      </g>
     </g>
    </g>
    <g id="ytick_5">
     <g id="line2d_13">
      <g>
       <use style="stroke:#000000;stroke-width:0.8;" x="57.182813" xlink:href="#m654b48510d" y="87.886064"/>
      </g>
     </g>
     <g id="text_13">
      <!-- 5.0 -->
      <g transform="translate(34.279688 91.685283)scale(0.1 -0.1)">
       <use xlink:href="#DejaVuSans-53"/>
       <use x="63.623047" xlink:href="#DejaVuSans-46"/>
       <use x="95.410156" xlink:href="#DejaVuSans-48"/>
      </g>
     </g>
    </g>
    <g id="ytick_6">
     <g id="line2d_14">
      <g>
       <use style="stroke:#000000;stroke-width:0.8;" x="57.182813" xlink:href="#m654b48510d" y="55.757236"/>
      </g>
     </g>
     <g id="text_14">
      <!-- 7.5 -->
      <defs>
       <path d="M 8.203125 72.90625 
L 55.078125 72.90625 
L 55.078125 68.703125 
L 28.609375 0 
L 18.3125 0 
L 43.21875 64.59375 
L 8.203125 64.59375 
z
" id="DejaVuSans-55"/>
      </defs>
      <g transform="translate(34.279688 59.556455)scale(0.1 -0.1)">
       <use xlink:href="#DejaVuSans-55"/>
       <use x="63.623047" xlink:href="#DejaVuSans-46"/>
       <use x="95.410156" xlink:href="#DejaVuSans-53"/>
      </g>
     </g>
    </g>
    <g id="ytick_7">
     <g id="line2d_15">
      <g>
       <use style="stroke:#000000;stroke-width:0.8;" x="57.182813" xlink:href="#m654b48510d" y="23.628408"/>
      </g>
     </g>
     <g id="text_15">
      <!-- 10.0 -->
      <g transform="translate(27.917188 27.427627)scale(0.1 -0.1)">
       <use xlink:href="#DejaVuSans-49"/>
       <use x="63.623047" xlink:href="#DejaVuSans-48"/>
       <use x="127.246094" xlink:href="#DejaVuSans-46"/>
       <use x="159.033203" xlink:href="#DejaVuSans-48"/>
      </g>
     </g>
    </g>
    <g id="text_16">
     <!-- Balance ($m^3/s$) -->
     <defs>
      <path d="M 19.671875 34.8125 
L 19.671875 8.109375 
L 35.5 8.109375 
Q 43.453125 8.109375 47.28125 11.40625 
Q 51.125 14.703125 51.125 21.484375 
Q 51.125 28.328125 47.28125 31.5625 
Q 43.453125 34.8125 35.5 34.8125 
z
M 19.671875 64.796875 
L 19.671875 42.828125 
L 34.28125 42.828125 
Q 41.5 42.828125 45.03125 45.53125 
Q 48.578125 48.25 48.578125 53.8125 
Q 48.578125 59.328125 45.03125 62.0625 
Q 41.5 64.796875 34.28125 64.796875 
z
M 9.8125 72.90625 
L 35.015625 72.90625 
Q 46.296875 72.90625 52.390625 68.21875 
Q 58.5 63.53125 58.5 54.890625 
Q 58.5 48.1875 55.375 44.234375 
Q 52.25 40.28125 46.1875 39.3125 
Q 53.46875 37.75 57.5 32.78125 
Q 61.53125 27.828125 61.53125 20.40625 
Q 61.53125 10.640625 54.890625 5.3125 
Q 48.25 0 35.984375 0 
L 9.8125 0 
z
" id="DejaVuSans-66"/>
      <path d="M 34.28125 27.484375 
Q 23.390625 27.484375 19.1875 25 
Q 14.984375 22.515625 14.984375 16.5 
Q 14.984375 11.71875 18.140625 8.90625 
Q 21.296875 6.109375 26.703125 6.109375 
Q 34.1875 6.109375 38.703125 11.40625 
Q 43.21875 16.703125 43.21875 25.484375 
L 43.21875 27.484375 
z
M 52.203125 31.203125 
L 52.203125 0 
L 43.21875 0 
L 43.21875 8.296875 
Q 40.140625 3.328125 35.546875 0.953125 
Q 30.953125 -1.421875 24.3125 -1.421875 
Q 15.921875 -1.421875 10.953125 3.296875 
Q 6 8.015625 6 15.921875 
Q 6 25.140625 12.171875 29.828125 
Q 18.359375 34.515625 30.609375 34.515625 
L 43.21875 34.515625 
L 43.21875 35.40625 
Q 43.21875 41.609375 39.140625 45 
Q 35.0625 48.390625 27.6875 48.390625 
Q 23 48.390625 18.546875 47.265625 
Q 14.109375 46.140625 10.015625 43.890625 
L 10.015625 52.203125 
Q 14.9375 54.109375 19.578125 55.046875 
Q 24.21875 56 28.609375 56 
Q 40.484375 56 46.34375 49.84375 
Q 52.203125 43.703125 52.203125 31.203125 
z
" id="DejaVuSans-97"/>
      <path d="M 9.421875 75.984375 
L 18.40625 75.984375 
L 18.40625 0 
L 9.421875 0 
z
" id="DejaVuSans-108"/>
      <path d="M 54.890625 33.015625 
L 54.890625 0 
L 45.90625 0 
L 45.90625 32.71875 
Q 45.90625 40.484375 42.875 44.328125 
Q 39.84375 48.1875 33.796875 48.1875 
Q 26.515625 48.1875 22.3125 43.546875 
Q 18.109375 38.921875 18.109375 30.90625 
L 18.109375 0 
L 9.078125 0 
L 9.078125 54.6875 
L 18.109375 54.6875 
L 18.109375 46.1875 
Q 21.34375 51.125 25.703125 53.5625 
Q 30.078125 56 35.796875 56 
Q 45.21875 56 50.046875 50.171875 
Q 54.890625 44.34375 54.890625 33.015625 
z
" id="DejaVuSans-110"/>
      <path d="M 48.78125 52.59375 
L 48.78125 44.1875 
Q 44.96875 46.296875 41.140625 47.34375 
Q 37.3125 48.390625 33.40625 48.390625 
Q 24.65625 48.390625 19.8125 42.84375 
Q 14.984375 37.3125 14.984375 27.296875 
Q 14.984375 17.28125 19.8125 11.734375 
Q 24.65625 6.203125 33.40625 6.203125 
Q 37.3125 6.203125 41.140625 7.25 
Q 44.96875 8.296875 48.78125 10.40625 
L 48.78125 2.09375 
Q 45.015625 0.34375 40.984375 -0.53125 
Q 36.96875 -1.421875 32.421875 -1.421875 
Q 20.0625 -1.421875 12.78125 6.34375 
Q 5.515625 14.109375 5.515625 27.296875 
Q 5.515625 40.671875 12.859375 48.328125 
Q 20.21875 56 33.015625 56 
Q 37.15625 56 41.109375 55.140625 
Q 45.0625 54.296875 48.78125 52.59375 
z
" id="DejaVuSans-99"/>
      <path d="M 56.203125 29.59375 
L 56.203125 25.203125 
L 14.890625 25.203125 
Q 15.484375 15.921875 20.484375 11.0625 
Q 25.484375 6.203125 34.421875 6.203125 
Q 39.59375 6.203125 44.453125 7.46875 
Q 49.3125 8.734375 54.109375 11.28125 
L 54.109375 2.78125 
Q 49.265625 0.734375 44.1875 -0.34375 
Q 39.109375 -1.421875 33.890625 -1.421875 
Q 20.796875 -1.421875 13.15625 6.1875 
Q 5.515625 13.8125 5.515625 26.8125 
Q 5.515625 40.234375 12.765625 48.109375 
Q 20.015625 56 32.328125 56 
Q 43.359375 56 49.78125 48.890625 
Q 56.203125 41.796875 56.203125 29.59375 
z
M 47.21875 32.234375 
Q 47.125 39.59375 43.09375 43.984375 
Q 39.0625 48.390625 32.421875 48.390625 
Q 24.90625 48.390625 20.390625 44.140625 
Q 15.875 39.890625 15.1875 32.171875 
z
" id="DejaVuSans-101"/>
      <path id="DejaVuSans-32"/>
      <path d="M 31 75.875 
Q 24.46875 64.65625 21.28125 53.65625 
Q 18.109375 42.671875 18.109375 31.390625 
Q 18.109375 20.125 21.3125 9.0625 
Q 24.515625 -2 31 -13.1875 
L 23.1875 -13.1875 
Q 15.875 -1.703125 12.234375 9.375 
Q 8.59375 20.453125 8.59375 31.390625 
Q 8.59375 42.28125 12.203125 53.3125 
Q 15.828125 64.359375 23.1875 75.875 
z
" id="DejaVuSans-40"/>
      <path d="M 89.796875 33.015625 
L 83.40625 0 
L 74.421875 0 
L 80.71875 32.71875 
Q 81.109375 34.8125 81.296875 36.328125 
Q 81.5 37.84375 81.5 38.921875 
Q 81.5 43.3125 79.046875 45.75 
Q 76.609375 48.1875 72.21875 48.1875 
Q 65.671875 48.1875 60.546875 43.28125 
Q 55.421875 38.375 53.90625 30.515625 
L 47.90625 0 
L 38.921875 0 
L 45.3125 32.71875 
Q 45.703125 34.515625 45.890625 36.046875 
Q 46.09375 37.59375 46.09375 38.8125 
Q 46.09375 43.265625 43.65625 45.71875 
Q 41.21875 48.1875 36.921875 48.1875 
Q 30.28125 48.1875 25.140625 43.28125 
Q 20.015625 38.375 18.5 30.515625 
L 12.5 0 
L 3.515625 0 
L 14.203125 54.6875 
L 23.1875 54.6875 
L 21.484375 46.1875 
Q 25.140625 50.984375 30.046875 53.484375 
Q 34.96875 56 40.578125 56 
Q 46.53125 56 50.359375 52.875 
Q 54.203125 49.75 54.984375 44.1875 
Q 59.078125 49.953125 64.46875 52.96875 
Q 69.875 56 75.875 56 
Q 82.90625 56 86.734375 51.953125 
Q 90.578125 47.90625 90.578125 40.484375 
Q 90.578125 38.875 90.375 36.9375 
Q 90.1875 35.015625 89.796875 33.015625 
z
" id="DejaVuSans-Oblique-109"/>
      <path d="M 40.578125 39.3125 
Q 47.65625 37.796875 51.625 33 
Q 55.609375 28.21875 55.609375 21.1875 
Q 55.609375 10.40625 48.1875 4.484375 
Q 40.765625 -1.421875 27.09375 -1.421875 
Q 22.515625 -1.421875 17.65625 -0.515625 
Q 12.796875 0.390625 7.625 2.203125 
L 7.625 11.71875 
Q 11.71875 9.328125 16.59375 8.109375 
Q 21.484375 6.890625 26.8125 6.890625 
Q 36.078125 6.890625 40.9375 10.546875 
Q 45.796875 14.203125 45.796875 21.1875 
Q 45.796875 27.640625 41.28125 31.265625 
Q 36.765625 34.90625 28.71875 34.90625 
L 20.21875 34.90625 
L 20.21875 43.015625 
L 29.109375 43.015625 
Q 36.375 43.015625 40.234375 45.921875 
Q 44.09375 48.828125 44.09375 54.296875 
Q 44.09375 59.90625 40.109375 62.90625 
Q 36.140625 65.921875 28.71875 65.921875 
Q 24.65625 65.921875 20.015625 65.03125 
Q 15.375 64.15625 9.8125 62.3125 
L 9.8125 71.09375 
Q 15.4375 72.65625 20.34375 73.4375 
Q 25.25 74.21875 29.59375 74.21875 
Q 40.828125 74.21875 47.359375 69.109375 
Q 53.90625 64.015625 53.90625 55.328125 
Q 53.90625 49.265625 50.4375 45.09375 
Q 46.96875 40.921875 40.578125 39.3125 
z
" id="DejaVuSans-51"/>
      <path d="M 25.390625 72.90625 
L 33.6875 72.90625 
L 8.296875 -9.28125 
L 0 -9.28125 
z
" id="DejaVuSans-47"/>
      <path d="M 50 53.078125 
L 48.296875 44.578125 
Q 44.734375 46.53125 40.765625 47.5 
Q 36.8125 48.484375 32.625 48.484375 
Q 25.53125 48.484375 21.453125 46.0625 
Q 17.390625 43.65625 17.390625 39.5 
Q 17.390625 34.671875 26.859375 32.078125 
Q 27.59375 31.890625 27.9375 31.78125 
L 30.8125 30.90625 
Q 39.796875 28.421875 42.796875 25.6875 
Q 45.796875 22.953125 45.796875 18.21875 
Q 45.796875 9.515625 38.890625 4.046875 
Q 31.984375 -1.421875 20.796875 -1.421875 
Q 16.453125 -1.421875 11.671875 -0.578125 
Q 6.890625 0.25 1.125 2 
L 2.875 11.28125 
Q 7.8125 8.734375 12.59375 7.421875 
Q 17.390625 6.109375 21.78125 6.109375 
Q 28.375 6.109375 32.5 8.9375 
Q 36.625 11.765625 36.625 16.109375 
Q 36.625 20.796875 25.78125 23.6875 
L 24.859375 23.921875 
L 21.78125 24.703125 
Q 14.9375 26.515625 11.765625 29.46875 
Q 8.59375 32.421875 8.59375 37.015625 
Q 8.59375 45.75 15.15625 50.875 
Q 21.734375 56 33.015625 56 
Q 37.453125 56 41.671875 55.265625 
Q 45.90625 54.546875 50 53.078125 
z
" id="DejaVuSans-Oblique-115"/>
      <path d="M 8.015625 75.875 
L 15.828125 75.875 
Q 23.140625 64.359375 26.78125 53.3125 
Q 30.421875 42.28125 30.421875 31.390625 
Q 30.421875 20.453125 26.78125 9.375 
Q 23.140625 -1.703125 15.828125 -13.1875 
L 8.015625 -13.1875 
Q 14.5 -2 17.703125 9.0625 
Q 20.90625 20.125 20.90625 31.390625 
Q 20.90625 42.671875 17.703125 53.65625 
Q 14.5 64.65625 8.015625 75.875 
z
" id="DejaVuSans-41"/>
     </defs>
     <g transform="translate(18.988437 176.784)rotate(-90)scale(0.14 -0.14)">
      <use transform="translate(0 0.765625)" xlink:href="#DejaVuSans-66"/>
      <use transform="translate(68.603516 0.765625)" xlink:href="#DejaVuSans-97"/>
      <use transform="translate(129.882812 0.765625)" xlink:href="#DejaVuSans-108"/>
      <use transform="translate(157.666016 0.765625)" xlink:href="#DejaVuSans-97"/>
      <use transform="translate(218.945312 0.765625)" xlink:href="#DejaVuSans-110"/>
      <use transform="translate(282.324219 0.765625)" xlink:href="#DejaVuSans-99"/>
      <use transform="translate(337.304688 0.765625)" xlink:href="#DejaVuSans-101"/>
      <use transform="translate(398.828125 0.765625)" xlink:href="#DejaVuSans-32"/>
      <use transform="translate(430.615234 0.765625)" xlink:href="#DejaVuSans-40"/>
      <use transform="translate(469.628906 0.765625)" xlink:href="#DejaVuSans-Oblique-109"/>
      <use transform="translate(571.690911 39.046875)scale(0.7)" xlink:href="#DejaVuSans-51"/>
      <use transform="translate(618.961419 0.765625)" xlink:href="#DejaVuSans-47"/>
      <use transform="translate(652.652826 0.765625)" xlink:href="#DejaVuSans-Oblique-115"/>
      <use transform="translate(704.752435 0.765625)" xlink:href="#DejaVuSans-41"/>
     </g>
    </g>
   </g>
   <g id="line2d_16">
    <path clip-path="url(#pd51b1480b3)" d="M 73.41554 152.143721 
L 74.357713 151.210444 
L 79.858787 151.115128 
L 80.80096 150.526345 
L 81.71274 148.801917 
L 83.566693 144.596563 
L 84.508866 144.039449 
L 85.451039 123.463638 
L 86.302034 127.253236 
L 87.244207 129.537764 
L 88.155987 130.706371 
L 89.09816 132.35501 
L 90.00994 133.476953 
L 90.952113 134.155307 
L 91.894286 134.682352 
L 92.806066 134.651139 
L 94.660019 129.720406 
L 95.602192 129.11948 
L 97.39536 131.962133 
L 98.337533 131.352606 
L 99.249313 131.298949 
L 100.191486 132.638849 
L 101.103266 133.425739 
L 102.987612 134.021842 
L 103.899392 133.88906 
L 104.841565 132.907101 
L 105.753345 131.077017 
L 106.695518 130.295113 
L 107.637691 124.24708 
L 108.519078 124.549501 
L 109.461251 124.177272 
L 110.373032 124.844619 
L 112.226985 127.625188 
L 113.169158 128.451066 
L 114.11133 128.878528 
L 115.023111 128.833591 
L 115.965284 128.118608 
L 116.877064 126.534665 
L 117.819237 125.476256 
L 118.76141 145.287905 
L 119.612405 146.242314 
L 120.554577 146.651891 
L 122.408531 147.032583 
L 125.204657 147.348059 
L 128.912563 147.609592 
L 129.854736 151.071514 
L 130.705731 150.969821 
L 131.647903 150.501774 
L 132.559684 151.482399 
L 135.35581 151.744404 
L 136.297983 151.804292 
L 138.151936 149.882229 
L 140.005889 149.911565 
L 140.948062 107.916525 
L 141.799057 113.181504 
L 142.74123 116.052546 
L 143.65301 118.159648 
L 144.595183 119.497375 
L 146.449136 121.2462 
L 147.391309 121.874471 
L 148.303089 121.198481 
L 149.245262 119.704667 
L 150.157042 118.883753 
L 151.099215 118.342199 
L 152.041388 132.711759 
L 152.922775 134.633083 
L 153.864948 135.581638 
L 154.776729 138.146169 
L 155.718901 139.56253 
L 156.630682 140.431511 
L 157.572855 141.048183 
L 158.515027 141.422209 
L 159.426808 140.617219 
L 160.368981 137.773408 
L 161.280761 135.583796 
L 162.222934 136.234107 
L 163.165107 127.401515 
L 164.016101 130.797903 
L 164.958274 132.262239 
L 165.870055 132.8172 
L 167.724008 133.31848 
L 168.666181 133.455919 
L 169.608354 133.387518 
L 170.520134 132.087948 
L 171.462307 129.495834 
L 172.374087 127.391742 
L 173.31626 126.888158 
L 174.258433 142.027686 
L 175.109428 144.612294 
L 176.0516 145.704591 
L 176.963381 146.036986 
L 178.817334 146.258311 
L 181.61346 146.4245 
L 182.555633 145.989536 
L 183.467413 146.498796 
L 184.409586 146.529933 
L 185.351759 150.451617 
L 186.202754 150.600979 
L 187.144927 150.639902 
L 188.99888 150.874916 
L 189.91066 150.809165 
L 191.795006 150.456619 
L 192.706786 149.042573 
L 193.648959 147.321145 
L 194.560739 147.053065 
L 195.502912 147.761431 
L 196.445085 125.205339 
L 197.326472 129.160378 
L 198.268645 130.388653 
L 199.180425 130.554068 
L 200.122598 131.381504 
L 201.976552 132.180655 
L 202.918724 132.521513 
L 203.830505 131.450626 
L 204.772678 128.687336 
L 205.684458 126.360213 
L 206.626631 125.618138 
L 207.568804 119.333222 
L 208.419798 121.760582 
L 209.361971 123.135147 
L 210.273752 125.109194 
L 211.215924 127.492078 
L 212.127705 128.391255 
L 214.01205 129.398497 
L 214.923831 128.816897 
L 215.866004 126.186251 
L 216.777784 124.49186 
L 217.719957 126.228202 
L 218.66213 128.691235 
L 219.513124 129.435051 
L 220.455297 129.845393 
L 224.163204 130.334363 
L 225.105377 130.158331 
L 226.017157 127.482428 
L 226.95933 123.894869 
L 227.87111 121.653537 
L 228.813283 120.796273 
L 229.755456 121.953104 
L 230.606451 124.65193 
L 231.548623 122.658125 
L 232.460404 124.549155 
L 234.314357 129.686418 
L 235.25653 130.939907 
L 236.198703 130.527736 
L 237.110483 129.610942 
L 238.052656 128.495813 
L 238.964436 128.486805 
L 239.906609 128.691043 
L 240.848782 124.270805 
L 241.730169 126.75992 
L 242.672342 126.770843 
L 243.584122 127.85359 
L 245.438076 128.844152 
L 246.380248 127.996759 
L 247.322421 127.675363 
L 248.234202 125.911469 
L 249.176374 123.655067 
L 250.088155 120.734751 
L 251.030328 117.303576 
L 251.972501 112.866321 
L 252.823495 116.818811 
L 253.765668 115.806922 
L 254.677449 118.966311 
L 256.531402 124.348129 
L 257.473575 124.16395 
L 258.415747 125.689347 
L 259.327528 125.809695 
L 260.269701 123.462278 
L 261.181481 123.08535 
L 262.123654 120.564009 
L 263.065827 117.567863 
L 263.916821 119.380227 
L 264.858994 118.858761 
L 265.770775 119.176668 
L 266.712947 120.185242 
L 267.624728 121.971571 
L 268.566901 123.413039 
L 269.509073 121.897592 
L 270.420854 121.884193 
L 271.363027 118.984787 
L 272.274807 118.139511 
L 273.21698 116.394698 
L 274.159153 113.996773 
L 275.95232 120.158449 
L 276.864101 122.286896 
L 277.806274 121.998415 
L 278.718054 122.292792 
L 279.660227 122.221488 
L 280.6024 123.051132 
L 281.51418 121.962888 
L 282.456353 119.056475 
L 283.368133 118.583017 
L 284.310306 116.777427 
L 285.252479 117.012272 
L 286.133866 117.01996 
L 287.076039 118.260099 
L 287.987819 118.148218 
L 288.929992 119.32122 
L 289.841773 119.077897 
L 290.783945 120.203584 
L 291.726118 120.578983 
L 292.637899 119.550691 
L 293.580071 118.101565 
L 294.491852 114.655353 
L 295.434025 114.677921 
L 296.376197 113.855008 
L 297.227192 114.402636 
L 298.169365 115.750555 
L 299.081145 118.281969 
L 300.023318 118.901212 
L 301.877271 122.159931 
L 302.819444 121.686214 
L 303.731225 120.728137 
L 304.673398 119.189922 
L 305.585178 115.531196 
L 306.527351 112.756603 
L 307.469524 118.676628 
L 308.320518 119.329082 
L 309.262691 122.138481 
L 310.174472 124.33126 
L 311.116644 124.437989 
L 312.028425 124.937143 
L 312.970598 125.879003 
L 314.824551 124.33021 
L 315.766724 122.480768 
L 317.620677 117.199599 
L 318.56285 118.855224 
L 321.267798 127.118331 
L 323.121751 127.290868 
L 324.063924 127.685901 
L 325.006097 126.812199 
L 325.917877 126.892749 
L 326.86005 127.221098 
L 327.77183 126.039687 
L 328.714003 122.841585 
L 329.656176 122.686982 
L 330.537563 123.026408 
L 331.479736 123.849781 
L 332.391516 125.918746 
L 333.333689 126.267092 
L 334.245469 127.134549 
L 335.187642 127.679817 
L 336.129815 124.043188 
L 337.041595 125.189365 
L 337.983768 126.6116 
L 338.895549 123.455041 
L 339.837722 126.519081 
L 340.779894 122.00205 
L 341.630889 123.098602 
L 342.573062 122.936798 
L 343.484842 120.910769 
L 344.427015 119.728141 
L 345.338796 125.970541 
L 346.280968 126.921173 
L 347.223141 125.265237 
L 348.134922 126.249103 
L 349.077094 126.470444 
L 349.988875 125.157469 
L 350.931048 126.252257 
L 351.87322 111.345919 
L 352.724215 116.528392 
L 353.666388 106.567351 
L 354.578168 117.902217 
L 355.520341 120.817558 
L 356.432122 122.083885 
L 357.374295 122.280867 
L 358.316467 122.966891 
L 359.228248 120.713938 
L 360.170421 116.837522 
L 361.082201 114.797146 
L 362.024374 114.794132 
L 362.966547 111.840253 
L 364.759714 118.870226 
L 366.613667 120.879038 
L 367.525448 121.231807 
L 368.467621 120.497922 
L 369.409793 119.004905 
L 370.321574 118.70446 
L 372.175527 112.236081 
L 373.1177 110.495732 
L 374.94126 115.529593 
L 375.883433 118.154432 
L 376.795213 119.228663 
L 377.737386 119.175153 
L 378.649166 119.407517 
L 379.591339 119.307205 
L 380.533512 118.254154 
L 381.445292 116.517006 
L 382.387465 114.373315 
L 383.299246 111.720746 
L 384.241418 110.320888 
L 386.034586 111.561422 
L 386.976759 112.783382 
L 387.888539 112.66453 
L 388.830712 113.568075 
L 390.684665 115.683053 
L 391.626838 116.659614 
L 392.538619 116.495461 
L 393.480791 115.422738 
L 394.392572 113.772884 
L 397.127912 116.923657 
L 398.070085 117.657386 
L 398.070085 117.657386 
" style="fill:none;stroke:#1f77b4;stroke-linecap:square;stroke-width:1.5;"/>
   </g>
   <g id="line2d_17">
    <path clip-path="url(#pd51b1480b3)" d="M 73.41554 147.727003 
L 88.155987 147.616942 
L 117.819237 147.492547 
L 119.612405 147.819008 
L 123.320311 147.98736 
L 140.005889 148.342953 
L 141.799057 148.093018 
L 145.506963 147.989013 
L 167.724008 147.868619 
L 176.0516 147.989666 
L 195.502912 148.133598 
L 197.326472 147.967979 
L 202.918724 147.863955 
L 237.110483 147.675961 
L 242.672342 147.763129 
L 251.030328 147.803616 
L 253.765668 147.630599 
L 263.916821 147.505576 
L 336.129815 147.457601 
L 369.409793 147.337343 
L 398.070085 147.18568 
L 398.070085 147.18568 
" style="fill:none;stroke:#ff7f0e;stroke-linecap:square;stroke-width:1.5;"/>
   </g>
   <g id="line2d_18">
    <path clip-path="url(#pd51b1480b3)" d="M 73.41554 152.143721 
L 398.070085 152.143721 
L 398.070085 152.143721 
" style="fill:none;stroke:#2ca02c;stroke-linecap:square;stroke-width:1.5;"/>
   </g>
   <g id="line2d_19">
    <path clip-path="url(#pd51b1480b3)" d="M 73.41554 152.143721 
L 398.070085 152.143721 
L 398.070085 152.143721 
" style="fill:none;stroke:#d62728;stroke-linecap:square;stroke-width:1.5;"/>
   </g>
   <g id="line2d_20">
    <path clip-path="url(#pd51b1480b3)" d="M 73.41554 88.561248 
L 74.357713 88.561248 
L 75.208708 71.837278 
L 76.15088 70.806673 
L 77.062661 69.026535 
L 78.004834 66.028393 
L 78.916614 65.122715 
L 79.858787 66.684236 
L 80.80096 69.619914 
L 82.654913 83.704896 
L 83.566693 89.178046 
L 84.508866 92.144951 
L 85.451039 103.261131 
L 86.302034 101.504411 
L 87.244207 100.676805 
L 88.155987 100.520651 
L 89.09816 99.396352 
L 91.894286 94.633694 
L 92.806066 96.210833 
L 94.660019 103.097172 
L 95.602192 104.752393 
L 96.544365 100.02324 
L 97.39536 99.39082 
L 98.337533 100.905505 
L 99.249313 101.381771 
L 101.103266 99.016054 
L 102.987612 97.712182 
L 103.899392 98.727173 
L 104.841565 100.12474 
L 105.753345 102.310881 
L 106.695518 103.669411 
L 107.637691 106.624929 
L 108.519078 107.030932 
L 109.461251 108.092768 
L 110.373032 107.98346 
L 111.315204 107.038741 
L 112.226985 105.617747 
L 113.169158 104.907255 
L 114.11133 104.719869 
L 115.023111 105.172712 
L 115.965284 105.992514 
L 116.877064 107.718002 
L 117.819237 109.00236 
L 118.76141 85.562507 
L 119.612405 83.696483 
L 120.554577 82.423838 
L 122.408531 83.758941 
L 123.320311 82.21303 
L 125.204657 74.64743 
L 126.116437 67.089639 
L 127.97039 59.937851 
L 128.912563 47.601776 
L 129.854736 17.882182 
L 131.647903 28.344401 
L 132.559684 27.345042 
L 133.501857 22.316927 
L 134.413637 18.19449 
L 135.35581 17.975863 
L 136.297983 18.007109 
L 137.209763 23.035224 
L 138.151936 31.123926 
L 139.063716 36.651721 
L 140.005889 41.601782 
L 140.948062 76.262168 
L 141.799057 75.356495 
L 142.74123 75.059796 
L 143.65301 72.014804 
L 144.595183 70.250294 
L 145.506963 69.844305 
L 146.449136 67.314634 
L 147.391309 66.065384 
L 148.303089 70.531365 
L 149.245262 77.324009 
L 150.157042 82.398974 
L 151.099215 86.162254 
L 152.041388 93.816868 
L 152.922775 94.769396 
L 153.864948 95.425239 
L 154.776729 93.356216 
L 155.718901 89.780317 
L 156.630682 84.471121 
L 157.572855 79.677228 
L 158.515027 77.600414 
L 159.426808 82.566052 
L 160.368981 89.171324 
L 161.280761 93.973022 
L 162.222934 94.980204 
L 163.165107 88.903379 
L 164.016101 84.21099 
L 164.958274 76.434568 
L 165.870055 71.562621 
L 166.812227 67.47142 
L 167.724008 65.410192 
L 168.666181 66.09728 
L 169.608354 67.408947 
L 170.520134 72.530771 
L 171.462307 80.838086 
L 172.374087 86.678202 
L 173.31626 89.512372 
L 174.258433 83.625006 
L 176.0516 80.673723 
L 176.963381 78.471969 
L 177.905554 74.006001 
L 178.817334 67.822336 
L 179.759507 65.167757 
L 180.70168 61.794862 
L 181.61346 61.732389 
L 182.555633 64.792986 
L 183.467413 57.891042 
L 184.409586 49.552477 
L 185.351759 32.307235 
L 186.202754 32.213545 
L 187.144927 33.337831 
L 188.056707 33.24414 
L 188.99888 31.838764 
L 189.91066 32.963078 
L 190.852833 34.618289 
L 191.795006 36.741971 
L 192.706786 44.95561 
L 193.648959 56.245453 
L 194.560739 62.835098 
L 195.502912 65.583386 
L 196.445085 86.815061 
L 197.326472 78.898127 
L 198.268645 78.211038 
L 199.180425 80.412797 
L 200.122598 79.538342 
L 201.034379 78.429656 
L 201.976552 78.164193 
L 202.918724 77.258515 
L 203.830505 80.756337 
L 204.772678 87.142978 
L 205.684458 92.147675 
L 206.626631 94.950618 
L 207.568804 92.56449 
L 208.419798 91.939884 
L 209.361971 91.986724 
L 210.273752 90.917079 
L 211.215924 85.576656 
L 212.127705 82.812754 
L 213.069878 81.82899 
L 214.01205 81.04823 
L 214.923831 83.827745 
L 215.866004 87.747183 
L 216.777784 90.511085 
L 217.719957 89.73032 
L 218.66213 86.480521 
L 219.513124 79.968948 
L 220.455297 80.234406 
L 221.367078 81.967708 
L 224.163204 80.999548 
L 225.105377 81.749095 
L 226.017157 86.433676 
L 226.95933 91.945871 
L 227.87111 96.091726 
L 228.813283 98.941514 
L 230.606451 99.393437 
L 231.548623 100.53726 
L 232.460404 100.182011 
L 233.402577 98.518982 
L 234.314357 95.099237 
L 236.198703 91.343762 
L 237.110483 91.65607 
L 238.052656 93.444017 
L 238.964436 94.068632 
L 239.906609 89.485547 
L 240.848782 82.227983 
L 241.730169 79.760771 
L 242.672342 80.697685 
L 243.584122 81.415991 
L 245.438076 78.386622 
L 246.380248 77.793252 
L 247.322421 77.730779 
L 248.234202 81.525295 
L 249.176374 87.552793 
L 250.088155 92.55749 
L 251.030328 95.852312 
L 251.972501 103.554055 
L 253.765668 103.312015 
L 254.677449 102.585909 
L 255.619621 101.328878 
L 257.473575 96.909756 
L 258.415747 95.777647 
L 259.327528 96.886333 
L 260.269701 98.830434 
L 261.181481 100.228001 
L 262.123654 101.102457 
L 263.065827 104.447964 
L 265.770775 104.955457 
L 266.712947 104.354273 
L 267.624728 102.855202 
L 268.566901 101.918288 
L 269.509073 101.566944 
L 270.420854 102.745894 
L 272.274807 106.353029 
L 274.159153 108.451991 
L 275.010148 106.488372 
L 275.95232 103.615162 
L 276.864101 101.827215 
L 277.806274 100.85126 
L 278.718054 99.328771 
L 279.660227 99.406847 
L 280.6024 99.250694 
L 281.51418 100.905909 
L 282.456353 103.865011 
L 283.368133 105.793493 
L 284.310306 106.246337 
L 285.252479 105.368972 
L 286.133866 105.603202 
L 287.076039 103.91675 
L 287.987819 100.676582 
L 288.929992 99.28682 
L 290.783945 100.16128 
L 291.726118 100.426738 
L 292.637899 101.488574 
L 294.491852 107.094455 
L 295.434025 108.437372 
L 296.376197 108.140683 
L 297.227192 107.234996 
L 298.169365 107.656607 
L 299.081145 108.538872 
L 300.023318 107.094455 
L 300.935099 97.850217 
L 301.877271 82.250569 
L 302.819444 82.500395 
L 304.673398 97.959521 
L 305.585178 103.050104 
L 306.527351 105.790583 
L 308.320518 101.800882 
L 309.262691 101.738419 
L 310.174472 102.792451 
L 311.116644 101.996072 
L 312.028425 98.131288 
L 312.970598 97.990753 
L 313.91277 98.833976 
L 314.824551 101.168462 
L 316.678504 107.180346 
L 317.620677 108.94487 
L 318.56285 109.022947 
L 319.413844 105.938928 
L 320.356017 103.799637 
L 321.267798 98.318674 
L 322.209971 98.271829 
L 323.121751 97.209988 
L 324.063924 97.850217 
L 325.006097 97.537909 
L 325.917877 96.819608 
L 326.86005 99.38051 
L 327.77183 100.598505 
L 328.714003 103.112563 
L 329.656176 102.417684 
L 330.537563 101.457343 
L 331.479736 101.847723 
L 332.391516 101.387075 
L 334.245469 95.835843 
L 335.187642 93.759011 
L 336.129815 92.806484 
L 337.983768 94.727162 
L 338.895549 92.197491 
L 339.837722 85.404851 
L 341.630889 69.352332 
L 342.573062 70.5391 
L 343.484842 87.341129 
L 344.427015 94.711548 
L 345.338796 87.294284 
L 346.280968 85.654682 
L 347.223141 83.406101 
L 348.134922 84.093152 
L 349.077094 86.013826 
L 349.988875 85.186234 
L 350.931048 82.219333 
L 351.87322 78.659048 
L 352.724215 80.064405 
L 353.666388 102.815873 
L 354.578168 92.431717 
L 355.520341 84.436701 
L 356.432122 79.533485 
L 357.374295 77.909515 
L 358.316467 78.627811 
L 360.170421 94.508545 
L 361.082201 99.692818 
L 362.024374 101.660342 
L 362.966547 105.798393 
L 363.817541 104.002632 
L 364.759714 100.629732 
L 365.671495 98.59975 
L 366.613667 96.226228 
L 368.467621 92.291177 
L 369.409793 91.135659 
L 370.321574 93.665321 
L 371.263747 97.522291 
L 372.175527 102.042917 
L 373.1177 105.23624 
L 374.059873 104.150981 
L 374.94126 102.238107 
L 375.883433 99.146284 
L 376.795213 98.506055 
L 378.649166 98.474828 
L 379.591339 98.677827 
L 380.533512 99.442974 
L 381.445292 101.199689 
L 383.299246 106.65723 
L 384.241418 108.80433 
L 385.183591 108.554485 
L 386.034586 108.734062 
L 386.976759 108.273414 
L 387.888539 108.171914 
L 388.830712 107.836184 
L 389.742493 107.156923 
L 391.626838 106.149737 
L 392.538619 106.579153 
L 394.392572 109.155678 
L 395.334745 109.745149 
L 397.127912 108.741866 
L 398.070085 108.445181 
L 398.070085 108.445181 
" style="fill:none;stroke:#9467bd;stroke-linecap:square;stroke-width:1.5;"/>
   </g>
   <g id="line2d_21">
    <path clip-path="url(#pd51b1480b3)" d="M 73.41554 152.143721 
L 74.357713 152.143742 
L 75.208708 165.915351 
L 76.15088 161.277318 
L 77.062661 158.543955 
L 78.004834 157.473815 
L 79.858787 154.640904 
L 81.71274 153.270866 
L 82.654913 152.71632 
L 83.566693 152.367015 
L 85.451039 152.159028 
L 88.155987 152.149267 
L 89.09816 152.269637 
L 91.894286 154.562762 
L 92.806066 152.827976 
L 93.748239 152.146462 
L 95.602192 152.144099 
L 96.544365 153.227602 
L 97.39536 152.868505 
L 98.337533 152.336525 
L 99.249313 152.283916 
L 100.191486 152.354389 
L 101.103266 152.906256 
L 102.987612 153.460791 
L 103.899392 152.511528 
L 104.841565 152.197472 
L 111.315204 152.156811 
L 112.226985 152.492893 
L 113.169158 152.575729 
L 114.11133 152.460195 
L 115.023111 152.143746 
L 117.819237 152.143721 
L 118.76141 171.986096 
L 119.612405 171.874728 
L 120.554577 171.60614 
L 122.408531 167.567499 
L 123.320311 167.84887 
L 124.262484 170.244961 
L 125.204657 172.014357 
L 126.116437 176.348109 
L 127.05861 173.921509 
L 127.97039 170.301817 
L 128.912563 170.679249 
L 129.854736 207.469126 
L 130.705731 201.613214 
L 131.647903 198.423977 
L 132.559684 196.726132 
L 133.501857 196.437215 
L 134.413637 195.411258 
L 135.35581 193.377009 
L 138.151936 189.050559 
L 140.005889 186.882881 
L 140.948062 155.703353 
L 141.799057 154.353633 
L 142.74123 153.635539 
L 143.65301 153.943867 
L 144.595183 153.686489 
L 145.506963 153.190477 
L 146.449136 153.517254 
L 147.391309 153.232289 
L 148.303089 152.481694 
L 151.099215 152.351301 
L 152.041388 155.604627 
L 152.922775 153.745488 
L 153.864948 153.106276 
L 154.776729 153.046424 
L 155.718901 154.868466 
L 156.630682 157.287201 
L 157.572855 157.24852 
L 158.515027 155.53863 
L 159.426808 152.857086 
L 160.368981 152.382977 
L 162.222934 152.310482 
L 163.165107 152.739366 
L 164.016101 154.431081 
L 164.958274 158.490237 
L 165.870055 158.119612 
L 167.724008 155.52102 
L 168.666181 153.907359 
L 169.608354 153.091462 
L 170.520134 152.518865 
L 171.462307 152.315576 
L 173.31626 152.281214 
L 174.258433 157.820216 
L 175.109428 156.779712 
L 176.0516 156.951304 
L 176.963381 158.158884 
L 177.905554 160.532036 
L 178.817334 161.857348 
L 179.759507 160.039311 
L 180.70168 159.186814 
L 181.61346 157.465217 
L 182.555633 155.947116 
L 183.467413 157.613359 
L 184.409586 158.398536 
L 185.351759 168.091733 
L 186.202754 166.091332 
L 187.144927 164.648916 
L 188.056707 163.931823 
L 188.99888 163.683807 
L 189.91066 162.837977 
L 194.560739 160.327304 
L 195.502912 160.004228 
L 196.445085 152.571175 
L 197.326472 154.916718 
L 199.180425 152.340922 
L 200.122598 152.435884 
L 201.034379 152.693795 
L 201.976552 152.496631 
L 202.918724 152.616887 
L 203.830505 152.181307 
L 210.273752 152.167874 
L 211.215924 155.20139 
L 212.127705 156.484894 
L 213.069878 155.987412 
L 214.01205 155.310975 
L 214.923831 152.818845 
L 215.866004 152.165771 
L 217.719957 152.147021 
L 219.513124 160.470606 
L 221.367078 154.211603 
L 222.309251 153.536963 
L 226.017157 152.307754 
L 228.813283 152.225719 
L 229.755456 153.544555 
L 231.548623 153.122284 
L 232.460404 153.022054 
L 233.402577 153.054059 
L 234.314357 154.665589 
L 236.198703 156.549407 
L 237.110483 155.412055 
L 238.052656 153.577741 
L 238.964436 152.880157 
L 239.906609 156.100119 
L 240.848782 162.620416 
L 241.730169 163.147842 
L 242.672342 160.017205 
L 243.584122 158.208656 
L 244.526295 157.60885 
L 245.438076 157.468072 
L 247.322421 155.954183 
L 248.234202 154.525285 
L 249.176374 153.874941 
L 251.030328 152.930931 
L 251.972501 152.221547 
L 252.823495 152.283665 
L 253.765668 152.159594 
L 255.619621 152.227136 
L 256.531402 153.035606 
L 257.473575 154.297975 
L 258.415747 154.883662 
L 259.327528 153.324303 
L 260.269701 152.281596 
L 262.123654 152.145956 
L 263.916821 152.186752 
L 266.712947 152.158856 
L 268.566901 153.175814 
L 269.509073 153.178129 
L 270.420854 152.346849 
L 271.363027 152.147102 
L 273.21698 152.144206 
L 275.010148 152.620243 
L 276.864101 155.139083 
L 277.806274 155.731521 
L 278.718054 156.843843 
L 279.660227 156.181225 
L 280.6024 155.851754 
L 281.51418 153.802041 
L 282.456353 152.52195 
L 283.368133 152.284118 
L 284.310306 152.286044 
L 285.252479 152.717801 
L 286.133866 152.321049 
L 287.076039 153.765634 
L 287.987819 155.888573 
L 288.929992 156.746894 
L 290.783945 154.968057 
L 291.726118 154.55578 
L 292.637899 153.34785 
L 293.580071 152.909722 
L 294.491852 152.264917 
L 296.376197 152.471191 
L 297.227192 152.261061 
L 298.169365 152.522952 
L 299.081145 153.120315 
L 300.023318 152.882451 
L 300.935099 159.763464 
L 301.877271 173.848861 
L 302.819444 170.544844 
L 303.731225 160.656586 
L 304.673398 154.623365 
L 305.585178 152.928397 
L 306.527351 152.395819 
L 307.469524 152.853492 
L 308.320518 152.537009 
L 309.262691 152.826002 
L 310.174472 153.419232 
L 311.116644 153.014452 
L 312.028425 155.93832 
L 312.970598 155.326245 
L 313.91277 154.196479 
L 314.824551 152.703458 
L 315.766724 152.810815 
L 317.620677 152.663049 
L 319.413844 152.801172 
L 320.356017 154.00203 
L 321.267798 159.026503 
L 322.209971 157.600242 
L 323.121751 158.00192 
L 324.063924 156.387209 
L 325.006097 156.172152 
L 325.917877 156.086216 
L 326.86005 153.294568 
L 327.77183 152.587658 
L 328.714003 152.321886 
L 329.656176 152.18901 
L 332.391516 152.54276 
L 334.245469 157.431512 
L 335.187642 158.550882 
L 336.129815 158.468278 
L 337.041595 156.350398 
L 337.983768 154.449325 
L 338.895549 155.944795 
L 339.837722 160.175861 
L 340.779894 162.98565 
L 341.630889 161.993727 
L 343.484842 154.449147 
L 344.427015 154.014966 
L 345.338796 155.156025 
L 346.280968 155.405648 
L 347.223141 155.873738 
L 348.134922 154.491931 
L 349.077094 153.452863 
L 349.988875 153.324578 
L 350.931048 154.173178 
L 351.87322 169.593922 
L 352.724215 162.775455 
L 353.666388 159.613853 
L 354.578168 159.533442 
L 355.520341 161.381817 
L 356.432122 160.868081 
L 358.316467 156.910488 
L 359.228248 155.371398 
L 360.170421 154.977179 
L 362.966547 154.307982 
L 363.817541 154.15147 
L 364.759714 154.417681 
L 365.671495 154.841956 
L 366.613667 155.852661 
L 367.525448 156.631153 
L 368.467621 157.147846 
L 369.409793 156.643435 
L 370.321574 154.014197 
L 371.263747 153.020913 
L 374.94126 152.669506 
L 375.883433 153.585576 
L 376.795213 153.437003 
L 377.737386 153.071402 
L 380.533512 152.426913 
L 390.684665 152.245185 
L 394.392572 152.223961 
L 395.334745 154.125707 
L 397.127912 153.482416 
L 398.070085 153.280178 
L 398.070085 153.280178 
" style="fill:none;stroke:#8c564b;stroke-linecap:square;stroke-width:1.5;"/>
   </g>
   <g id="line2d_22">
    <path clip-path="url(#pd51b1480b3)" d="M 73.41554 152.143721 
L 398.070085 152.143721 
L 398.070085 152.143721 
" style="fill:none;stroke:#e377c2;stroke-linecap:square;stroke-width:1.5;"/>
   </g>
   <g id="line2d_23">
    <path clip-path="url(#pd51b1480b3)" d="M 73.41554 189.945936 
L 74.357713 190.879181 
L 84.508866 190.879181 
L 85.451039 203.953083 
L 95.602192 203.93832 
L 96.544365 206.941491 
L 106.695518 206.937392 
L 107.637691 211.017967 
L 117.819237 211.012696 
L 118.76141 193.406126 
L 128.912563 193.417584 
L 129.854736 171.346618 
L 140.005889 171.346618 
L 140.948062 220.476513 
L 151.099215 220.407375 
L 152.041388 196.615183 
L 162.222934 196.629806 
L 163.165107 212.838605 
L 173.31626 212.795548 
L 174.258433 198.205114 
L 184.409586 198.215056 
L 185.351759 195.905067 
L 195.502912 195.905067 
L 196.445085 208.813507 
L 206.626631 208.801617 
L 207.568804 220.47431 
L 217.719957 220.464642 
L 218.66213 216.305372 
L 228.813283 216.305883 
L 229.755456 215.41652 
L 230.606451 213.929247 
L 231.548623 216.069346 
L 233.402577 215.090235 
L 234.314357 214.755718 
L 235.25653 214.261691 
L 236.198703 215.144183 
L 237.110483 216.37735 
L 238.052656 217.211928 
L 238.964436 217.169266 
L 239.906609 217.897296 
L 240.848782 221.369278 
L 241.730169 218.814116 
L 242.672342 218.975667 
L 243.584122 217.568808 
L 244.526295 217.483759 
L 245.438076 216.863038 
L 246.380248 217.820553 
L 247.322421 218.108765 
L 248.234202 218.580201 
L 249.176374 217.811912 
L 250.088155 218.099226 
L 251.030328 220.649141 
L 251.972501 220.752918 
L 252.823495 218.554794 
L 253.765668 221.190274 
L 254.677449 219.775806 
L 255.619621 219.096703 
L 256.531402 218.061204 
L 257.473575 219.246949 
L 258.415747 218.023622 
L 259.327528 218.13321 
L 260.269701 219.574368 
L 261.181481 218.896074 
L 262.123654 220.979409 
L 263.065827 221.071984 
L 263.916821 219.571444 
L 264.858994 220.393672 
L 266.712947 220.191551 
L 267.624728 219.562729 
L 268.566901 218.600784 
L 269.509073 220.414896 
L 270.420854 220.058132 
L 271.363027 221.348129 
L 272.274807 220.759514 
L 273.21698 221.773245 
L 274.159153 223.215463 
L 275.95232 220.742483 
L 276.864101 219.270255 
L 277.806274 219.836405 
L 278.718054 219.62384 
L 279.660227 219.791986 
L 280.6024 218.88801 
L 282.456353 221.061754 
L 283.368133 220.052368 
L 284.310306 221.768551 
L 286.133866 222.563256 
L 287.076039 221.644437 
L 287.987819 222.720497 
L 288.929992 221.660669 
L 289.841773 221.795445 
L 290.783945 220.606498 
L 291.726118 219.957069 
L 292.637899 220.905618 
L 293.580071 220.02744 
L 294.491852 221.864347 
L 295.434025 221.084195 
L 296.376197 222.762053 
L 297.227192 223.854024 
L 298.169365 222.228841 
L 299.081145 218.53528 
L 300.023318 219.901467 
L 300.935099 220.617737 
L 301.877271 219.564542 
L 303.731225 220.119912 
L 304.673398 219.391947 
L 305.585178 220.366573 
L 306.527351 222.419982 
L 307.469524 219.076404 
L 308.320518 221.11413 
L 309.262691 218.453578 
L 310.174472 214.905569 
L 311.116644 216.260283 
L 312.028425 216.515436 
L 312.970598 215.942732 
L 313.91277 216.507948 
L 314.824551 216.289907 
L 315.766724 215.22537 
L 316.678504 215.924167 
L 317.620677 218.116504 
L 318.56285 217.043786 
L 319.413844 218.088568 
L 320.356017 216.288703 
L 321.267798 213.887236 
L 322.209971 214.819818 
L 323.121751 214.695021 
L 324.063924 214.421033 
L 325.006097 214.969436 
L 325.917877 214.945302 
L 326.86005 214.592885 
L 327.77183 215.319925 
L 328.714003 216.904933 
L 329.656176 218.198723 
L 330.537563 219.013773 
L 331.479736 217.932414 
L 332.391516 216.176331 
L 333.333689 215.948496 
L 334.245469 214.911421 
L 335.187642 214.42438 
L 336.129815 217.859004 
L 337.041595 216.706345 
L 337.983768 215.783404 
L 338.895549 219.414156 
L 339.837722 217.312312 
L 340.779894 220.961783 
L 341.630889 220.05585 
L 342.573062 219.801878 
L 343.484842 217.180989 
L 344.427015 216.240458 
L 346.280968 214.917506 
L 347.223141 216.520954 
L 348.134922 215.630113 
L 349.077094 215.348902 
L 349.988875 217.6677 
L 350.931048 217.69703 
L 351.87322 216.192939 
L 353.666388 215.546249 
L 354.578168 215.595869 
L 355.520341 216.126897 
L 356.432122 215.891476 
L 357.374295 216.312149 
L 358.316467 216.063634 
L 359.228248 216.328566 
L 360.170421 217.117605 
L 361.082201 217.061147 
L 362.024374 217.368928 
L 362.966547 218.56343 
L 363.817541 218.518695 
L 364.759714 218.884956 
L 365.671495 219.865629 
L 367.525448 220.648983 
L 368.467621 222.032693 
L 369.409793 224.248825 
L 370.321574 224.141821 
L 371.263747 225.064428 
L 372.175527 225.021474 
L 373.1177 225.204745 
L 374.059873 225.089798 
L 374.94126 225.326288 
L 375.883433 225.337319 
L 376.795213 225.200302 
L 377.737386 225.633525 
L 378.649166 225.604975 
L 379.591339 225.773136 
L 380.533512 226.260223 
L 381.445292 226.496267 
L 382.387465 226.478287 
L 383.299246 227.106282 
L 384.241418 227.133089 
L 385.183591 227.290135 
L 386.976759 226.882728 
L 387.888539 227.620051 
L 390.684665 227.327247 
L 391.626838 227.093922 
L 393.480791 226.988309 
L 394.392572 227.659277 
L 395.334745 224.103231 
L 398.070085 223.9939 
L 398.070085 223.9939 
" style="fill:none;stroke:#7f7f7f;stroke-linecap:square;stroke-width:1.5;"/>
   </g>
   <g id="line2d_24">
    <path clip-path="url(#pd51b1480b3)" d="M 73.41554 182.340696 
L 74.357713 182.340696 
L 75.208708 185.293046 
L 76.15088 190.961678 
L 77.062661 195.475181 
L 78.004834 199.543466 
L 78.916614 201.805662 
L 79.858787 201.815879 
L 80.80096 200.20637 
L 82.654913 191.217238 
L 83.566693 188.114493 
L 84.508866 185.845664 
L 85.451039 182.356874 
L 86.302034 180.355458 
L 87.244207 178.917581 
L 88.155987 177.916963 
L 89.09816 177.28127 
L 90.00994 177.013923 
L 90.952113 177.082787 
L 91.894286 177.43903 
L 92.806066 177.630634 
L 93.748239 177.252449 
L 96.544365 174.496072 
L 98.337533 173.722593 
L 100.191486 173.074813 
L 101.103266 172.970129 
L 102.987612 173.124443 
L 103.899392 173.192021 
L 104.841565 173.091012 
L 105.753345 172.743608 
L 106.695518 172.171831 
L 107.637691 171.245011 
L 109.461251 169.875124 
L 111.315204 168.877821 
L 112.226985 168.577801 
L 114.11133 168.270499 
L 116.877064 167.953708 
L 117.819237 167.734409 
L 119.612405 169.818876 
L 122.408531 173.122481 
L 123.320311 174.238047 
L 124.262484 175.618396 
L 125.204657 177.414297 
L 126.116437 180.548942 
L 127.05861 186.735036 
L 127.97039 193.594069 
L 129.854736 216.939381 
L 130.705731 217.920435 
L 131.647903 216.019061 
L 132.559684 217.713416 
L 134.413637 227.953489 
L 135.35581 230.12338 
L 136.297983 231.525818 
L 137.209763 228.900495 
L 138.151936 223.132431 
L 139.063716 218.679563 
L 140.005889 214.776519 
L 140.948062 204.33352 
L 141.799057 201.40116 
L 142.74123 199.59145 
L 144.595183 200.95251 
L 145.506963 200.987153 
L 146.449136 202.377845 
L 147.391309 203.300652 
L 148.303089 200.272031 
L 149.245262 195.036222 
L 150.157042 190.827783 
L 151.099215 187.646868 
L 152.041388 186.213756 
L 153.864948 184.260154 
L 154.776729 183.834677 
L 155.718901 184.180487 
L 156.630682 186.208585 
L 157.572855 190.430195 
L 158.515027 193.847892 
L 159.426808 192.373225 
L 160.368981 189.089953 
L 161.280761 186.526654 
L 163.165107 183.141053 
L 164.016101 182.740649 
L 164.958274 185.000616 
L 166.812227 194.712377 
L 167.724008 197.944127 
L 168.666181 198.732925 
L 169.608354 198.304805 
L 170.520134 195.054541 
L 171.462307 189.542357 
L 172.374087 185.825175 
L 173.31626 183.508834 
L 175.109428 183.108172 
L 176.0516 183.329957 
L 176.963381 183.979459 
L 177.905554 185.9229 
L 179.759507 195.097286 
L 180.70168 199.264036 
L 181.61346 201.00035 
L 182.555633 199.890125 
L 183.467413 204.61442 
L 184.409586 212.134755 
L 185.351759 218.045153 
L 186.202754 219.975872 
L 187.144927 220.244346 
L 188.056707 220.882419 
L 188.99888 222.458214 
L 189.91066 222.239481 
L 190.852833 221.276648 
L 191.795006 219.747386 
L 192.706786 213.507142 
L 193.648959 204.508123 
L 194.560739 198.61166 
L 195.502912 195.474614 
L 196.445085 191.43645 
L 197.326472 193.111342 
L 198.268645 193.981721 
L 199.180425 192.837801 
L 200.122598 192.806945 
L 201.034379 193.220692 
L 201.976552 193.345033 
L 202.918724 193.799007 
L 203.830505 191.815939 
L 204.772678 188.208644 
L 205.684458 185.544536 
L 206.626631 183.494587 
L 207.568804 180.508381 
L 208.419798 178.736917 
L 209.361971 177.330096 
L 210.273752 176.418703 
L 211.215924 176.349973 
L 212.127705 176.936664 
L 214.01205 178.877669 
L 214.923831 179.175939 
L 215.866004 178.544086 
L 217.719957 176.544445 
L 218.66213 177.077674 
L 219.513124 178.938457 
L 220.455297 181.521199 
L 221.367078 182.651054 
L 222.309251 183.483905 
L 223.221031 184.088552 
L 224.163204 184.531766 
L 225.105377 184.452671 
L 229.755456 175.070082 
L 230.606451 173.879805 
L 232.460404 171.846206 
L 233.402577 171.178161 
L 234.314357 170.967578 
L 235.25653 171.141349 
L 238.052656 172.459884 
L 238.964436 172.587472 
L 239.906609 173.021191 
L 240.848782 174.650467 
L 242.672342 178.637579 
L 243.584122 180.042562 
L 245.438076 183.515766 
L 246.380248 184.797182 
L 247.322421 185.600759 
L 248.234202 184.52415 
L 249.176374 182.168745 
L 251.030328 178.322299 
L 251.972501 175.761335 
L 252.823495 174.122184 
L 253.765668 172.762445 
L 254.677449 171.754545 
L 255.619621 171.028662 
L 256.531402 170.673883 
L 257.473575 170.680689 
L 259.327528 171.171567 
L 260.269701 171.188469 
L 261.181481 170.970228 
L 263.065827 170.047543 
L 264.858994 169.165721 
L 266.712947 168.47319 
L 267.624728 168.300123 
L 269.509073 168.312353 
L 270.420854 168.336897 
L 271.363027 168.219594 
L 273.21698 167.603986 
L 275.010148 167.029782 
L 275.95232 166.854767 
L 276.864101 166.820596 
L 277.806274 166.923288 
L 278.718054 167.249275 
L 281.51418 168.73414 
L 282.456353 168.826934 
L 283.368133 168.618056 
L 284.310306 168.251691 
L 286.133866 167.834178 
L 287.076039 167.758454 
L 287.987819 167.914542 
L 288.929992 168.335574 
L 290.783945 169.416472 
L 291.726118 169.839463 
L 292.637899 170.067229 
L 293.580071 169.953531 
L 294.491852 169.484484 
L 297.227192 167.615406 
L 299.081145 166.894574 
L 300.023318 166.592827 
L 300.935099 166.559394 
L 301.877271 167.551578 
L 302.819444 170.829786 
L 303.731225 173.533913 
L 304.673398 174.214143 
L 305.585178 173.503716 
L 306.527351 172.018125 
L 307.469524 171.187392 
L 308.320518 170.602656 
L 310.174472 169.937078 
L 311.116644 169.677841 
L 312.028425 169.86549 
L 314.824551 170.898424 
L 315.766724 170.465724 
L 316.678504 169.699284 
L 317.620677 168.469278 
L 318.56285 167.722604 
L 319.413844 167.215352 
L 320.356017 166.943943 
L 321.267798 167.045494 
L 322.209971 167.451871 
L 324.063924 169.053662 
L 325.917877 170.655344 
L 326.86005 170.910691 
L 327.77183 170.854487 
L 328.714003 170.219763 
L 330.537563 169.610372 
L 332.391516 169.377771 
L 333.333689 169.520363 
L 334.245469 170.090323 
L 335.187642 170.990011 
L 337.041595 173.337501 
L 338.895549 174.394012 
L 339.837722 175.994018 
L 340.779894 182.796668 
L 341.630889 190.906213 
L 342.573062 194.055066 
L 343.484842 185.525278 
L 344.427015 180.71214 
L 345.338796 181.413506 
L 346.280968 182.508901 
L 347.223141 184.342398 
L 348.134922 184.944089 
L 349.077094 184.122565 
L 349.988875 184.073122 
L 350.931048 185.067277 
L 351.87322 189.627486 
L 352.724215 190.194588 
L 353.666388 180.898496 
L 354.578168 179.98741 
L 355.520341 182.695089 
L 356.432122 187.087035 
L 357.374295 190.135472 
L 358.316467 190.905399 
L 359.228248 186.957209 
L 360.170421 182.041866 
L 361.082201 179.210176 
L 362.966547 174.983675 
L 363.817541 173.535159 
L 364.759714 172.697873 
L 365.671495 172.271395 
L 366.613667 172.297795 
L 367.525448 172.711504 
L 369.409793 174.492137 
L 370.321574 175.004353 
L 371.263747 174.459509 
L 372.175527 173.292926 
L 373.1177 171.844774 
L 374.059873 170.660438 
L 374.94126 169.793445 
L 375.883433 169.338582 
L 376.795213 169.19517 
L 380.533512 169.203014 
L 381.445292 168.97732 
L 383.299246 167.755425 
L 384.241418 167.04384 
L 388.830712 164.427381 
L 390.684665 163.728644 
L 394.392572 162.848244 
L 396.276917 162.652475 
L 398.070085 162.299574 
L 398.070085 162.299574 
" style="fill:none;stroke:#bcbd22;stroke-linecap:square;stroke-width:1.5;"/>
   </g>
   <g id="line2d_25">
    <path clip-path="url(#pd51b1480b3)" d="M 73.41554 152.143721 
L 398.070085 152.143721 
L 398.070085 152.143721 
" style="fill:none;stroke:#17becf;stroke-linecap:square;stroke-width:1.5;"/>
   </g>
   <g id="patch_3">
    <path d="M 57.182813 242.208 
L 57.182813 7.2 
" style="fill:none;stroke:#000000;stroke-linecap:square;stroke-linejoin:miter;stroke-width:0.8;"/>
   </g>
   <g id="patch_4">
    <path d="M 414.302813 242.208 
L 414.302813 7.2 
" style="fill:none;stroke:#000000;stroke-linecap:square;stroke-linejoin:miter;stroke-width:0.8;"/>
   </g>
   <g id="patch_5">
    <path d="M 57.182813 242.208 
L 414.302813 242.208 
" style="fill:none;stroke:#000000;stroke-linecap:square;stroke-linejoin:miter;stroke-width:0.8;"/>
   </g>
   <g id="patch_6">
    <path d="M 57.182813 7.2 
L 414.302813 7.2 
" style="fill:none;stroke:#000000;stroke-linecap:square;stroke-linejoin:miter;stroke-width:0.8;"/>
   </g>
   <g id="legend_1">
    <g id="patch_7">
     <path d="M 64.182813 164.7625 
L 210.307813 164.7625 
Q 212.307813 164.7625 212.307813 162.7625 
L 212.307813 14.2 
Q 212.307813 12.2 210.307813 12.2 
L 64.182813 12.2 
Q 62.182813 12.2 62.182813 14.2 
L 62.182813 162.7625 
Q 62.182813 164.7625 64.182813 164.7625 
z
" style="fill:#ffffff;opacity:0.8;stroke:#cccccc;stroke-linejoin:miter;"/>
    </g>
    <g id="line2d_26">
     <path d="M 66.182813 20.298438 
L 86.182813 20.298438 
" style="fill:none;stroke:#1f77b4;stroke-linecap:square;stroke-width:1.5;"/>
    </g>
    <g id="line2d_27"/>
    <g id="text_17">
     <!-- STORAGE_IN -->
     <defs>
      <path d="M 53.515625 70.515625 
L 53.515625 60.890625 
Q 47.90625 63.578125 42.921875 64.890625 
Q 37.9375 66.21875 33.296875 66.21875 
Q 25.25 66.21875 20.875 63.09375 
Q 16.5 59.96875 16.5 54.203125 
Q 16.5 49.359375 19.40625 46.890625 
Q 22.3125 44.4375 30.421875 42.921875 
L 36.375 41.703125 
Q 47.40625 39.59375 52.65625 34.296875 
Q 57.90625 29 57.90625 20.125 
Q 57.90625 9.515625 50.796875 4.046875 
Q 43.703125 -1.421875 29.984375 -1.421875 
Q 24.8125 -1.421875 18.96875 -0.25 
Q 13.140625 0.921875 6.890625 3.21875 
L 6.890625 13.375 
Q 12.890625 10.015625 18.65625 8.296875 
Q 24.421875 6.59375 29.984375 6.59375 
Q 38.421875 6.59375 43.015625 9.90625 
Q 47.609375 13.234375 47.609375 19.390625 
Q 47.609375 24.75 44.3125 27.78125 
Q 41.015625 30.8125 33.5 32.328125 
L 27.484375 33.5 
Q 16.453125 35.6875 11.515625 40.375 
Q 6.59375 45.0625 6.59375 53.421875 
Q 6.59375 63.09375 13.40625 68.65625 
Q 20.21875 74.21875 32.171875 74.21875 
Q 37.3125 74.21875 42.625 73.28125 
Q 47.953125 72.359375 53.515625 70.515625 
z
" id="DejaVuSans-83"/>
      <path d="M -0.296875 72.90625 
L 61.375 72.90625 
L 61.375 64.59375 
L 35.5 64.59375 
L 35.5 0 
L 25.59375 0 
L 25.59375 64.59375 
L -0.296875 64.59375 
z
" id="DejaVuSans-84"/>
      <path d="M 39.40625 66.21875 
Q 28.65625 66.21875 22.328125 58.203125 
Q 16.015625 50.203125 16.015625 36.375 
Q 16.015625 22.609375 22.328125 14.59375 
Q 28.65625 6.59375 39.40625 6.59375 
Q 50.140625 6.59375 56.421875 14.59375 
Q 62.703125 22.609375 62.703125 36.375 
Q 62.703125 50.203125 56.421875 58.203125 
Q 50.140625 66.21875 39.40625 66.21875 
z
M 39.40625 74.21875 
Q 54.734375 74.21875 63.90625 63.9375 
Q 73.09375 53.65625 73.09375 36.375 
Q 73.09375 19.140625 63.90625 8.859375 
Q 54.734375 -1.421875 39.40625 -1.421875 
Q 24.03125 -1.421875 14.8125 8.828125 
Q 5.609375 19.09375 5.609375 36.375 
Q 5.609375 53.65625 14.8125 63.9375 
Q 24.03125 74.21875 39.40625 74.21875 
z
" id="DejaVuSans-79"/>
      <path d="M 44.390625 34.1875 
Q 47.5625 33.109375 50.5625 29.59375 
Q 53.5625 26.078125 56.59375 19.921875 
L 66.609375 0 
L 56 0 
L 46.6875 18.703125 
Q 43.0625 26.03125 39.671875 28.421875 
Q 36.28125 30.8125 30.421875 30.8125 
L 19.671875 30.8125 
L 19.671875 0 
L 9.8125 0 
L 9.8125 72.90625 
L 32.078125 72.90625 
Q 44.578125 72.90625 50.734375 67.671875 
Q 56.890625 62.453125 56.890625 51.90625 
Q 56.890625 45.015625 53.6875 40.46875 
Q 50.484375 35.9375 44.390625 34.1875 
z
M 19.671875 64.796875 
L 19.671875 38.921875 
L 32.078125 38.921875 
Q 39.203125 38.921875 42.84375 42.21875 
Q 46.484375 45.515625 46.484375 51.90625 
Q 46.484375 58.296875 42.84375 61.546875 
Q 39.203125 64.796875 32.078125 64.796875 
z
" id="DejaVuSans-82"/>
      <path d="M 34.1875 63.1875 
L 20.796875 26.90625 
L 47.609375 26.90625 
z
M 28.609375 72.90625 
L 39.796875 72.90625 
L 67.578125 0 
L 57.328125 0 
L 50.6875 18.703125 
L 17.828125 18.703125 
L 11.1875 0 
L 0.78125 0 
z
" id="DejaVuSans-65"/>
      <path d="M 59.515625 10.40625 
L 59.515625 29.984375 
L 43.40625 29.984375 
L 43.40625 38.09375 
L 69.28125 38.09375 
L 69.28125 6.78125 
Q 63.578125 2.734375 56.6875 0.65625 
Q 49.8125 -1.421875 42 -1.421875 
Q 24.90625 -1.421875 15.25 8.5625 
Q 5.609375 18.5625 5.609375 36.375 
Q 5.609375 54.25 15.25 64.234375 
Q 24.90625 74.21875 42 74.21875 
Q 49.125 74.21875 55.546875 72.453125 
Q 61.96875 70.703125 67.390625 67.28125 
L 67.390625 56.78125 
Q 61.921875 61.421875 55.765625 63.765625 
Q 49.609375 66.109375 42.828125 66.109375 
Q 29.4375 66.109375 22.71875 58.640625 
Q 16.015625 51.171875 16.015625 36.375 
Q 16.015625 21.625 22.71875 14.15625 
Q 29.4375 6.6875 42.828125 6.6875 
Q 48.046875 6.6875 52.140625 7.59375 
Q 56.25 8.5 59.515625 10.40625 
z
" id="DejaVuSans-71"/>
      <path d="M 9.8125 72.90625 
L 55.90625 72.90625 
L 55.90625 64.59375 
L 19.671875 64.59375 
L 19.671875 43.015625 
L 54.390625 43.015625 
L 54.390625 34.71875 
L 19.671875 34.71875 
L 19.671875 8.296875 
L 56.78125 8.296875 
L 56.78125 0 
L 9.8125 0 
z
" id="DejaVuSans-69"/>
      <path d="M 50.984375 -16.609375 
L 50.984375 -23.578125 
L -0.984375 -23.578125 
L -0.984375 -16.609375 
z
" id="DejaVuSans-95"/>
      <path d="M 9.8125 72.90625 
L 19.671875 72.90625 
L 19.671875 0 
L 9.8125 0 
z
" id="DejaVuSans-73"/>
      <path d="M 9.8125 72.90625 
L 23.09375 72.90625 
L 55.421875 11.921875 
L 55.421875 72.90625 
L 64.984375 72.90625 
L 64.984375 0 
L 51.703125 0 
L 19.390625 60.984375 
L 19.390625 0 
L 9.8125 0 
z
" id="DejaVuSans-78"/>
     </defs>
     <g transform="translate(94.182813 23.798438)scale(0.1 -0.1)">
      <use xlink:href="#DejaVuSans-83"/>
      <use x="63.476562" xlink:href="#DejaVuSans-84"/>
      <use x="124.560547" xlink:href="#DejaVuSans-79"/>
      <use x="203.271484" xlink:href="#DejaVuSans-82"/>
      <use x="268.753906" xlink:href="#DejaVuSans-65"/>
      <use x="335.412109" xlink:href="#DejaVuSans-71"/>
      <use x="412.902344" xlink:href="#DejaVuSans-69"/>
      <use x="476.085938" xlink:href="#DejaVuSans-95"/>
      <use x="526.085938" xlink:href="#DejaVuSans-73"/>
      <use x="555.578125" xlink:href="#DejaVuSans-78"/>
     </g>
    </g>
    <g id="line2d_28">
     <path d="M 66.182813 35.254688 
L 86.182813 35.254688 
" style="fill:none;stroke:#ff7f0e;stroke-linecap:square;stroke-width:1.5;"/>
    </g>
    <g id="line2d_29"/>
    <g id="text_18">
     <!-- CONSTANT_HEAD_IN -->
     <defs>
      <path d="M 64.40625 67.28125 
L 64.40625 56.890625 
Q 59.421875 61.53125 53.78125 63.8125 
Q 48.140625 66.109375 41.796875 66.109375 
Q 29.296875 66.109375 22.65625 58.46875 
Q 16.015625 50.828125 16.015625 36.375 
Q 16.015625 21.96875 22.65625 14.328125 
Q 29.296875 6.6875 41.796875 6.6875 
Q 48.140625 6.6875 53.78125 8.984375 
Q 59.421875 11.28125 64.40625 15.921875 
L 64.40625 5.609375 
Q 59.234375 2.09375 53.4375 0.328125 
Q 47.65625 -1.421875 41.21875 -1.421875 
Q 24.65625 -1.421875 15.125 8.703125 
Q 5.609375 18.84375 5.609375 36.375 
Q 5.609375 53.953125 15.125 64.078125 
Q 24.65625 74.21875 41.21875 74.21875 
Q 47.75 74.21875 53.53125 72.484375 
Q 59.328125 70.75 64.40625 67.28125 
z
" id="DejaVuSans-67"/>
      <path d="M 9.8125 72.90625 
L 19.671875 72.90625 
L 19.671875 43.015625 
L 55.515625 43.015625 
L 55.515625 72.90625 
L 65.375 72.90625 
L 65.375 0 
L 55.515625 0 
L 55.515625 34.71875 
L 19.671875 34.71875 
L 19.671875 0 
L 9.8125 0 
z
" id="DejaVuSans-72"/>
      <path d="M 19.671875 64.796875 
L 19.671875 8.109375 
L 31.59375 8.109375 
Q 46.6875 8.109375 53.6875 14.9375 
Q 60.6875 21.78125 60.6875 36.53125 
Q 60.6875 51.171875 53.6875 57.984375 
Q 46.6875 64.796875 31.59375 64.796875 
z
M 9.8125 72.90625 
L 30.078125 72.90625 
Q 51.265625 72.90625 61.171875 64.09375 
Q 71.09375 55.28125 71.09375 36.53125 
Q 71.09375 17.671875 61.125 8.828125 
Q 51.171875 0 30.078125 0 
L 9.8125 0 
z
" id="DejaVuSans-68"/>
     </defs>
     <g transform="translate(94.182813 38.754688)scale(0.1 -0.1)">
      <use xlink:href="#DejaVuSans-67"/>
      <use x="69.824219" xlink:href="#DejaVuSans-79"/>
      <use x="148.535156" xlink:href="#DejaVuSans-78"/>
      <use x="223.339844" xlink:href="#DejaVuSans-83"/>
      <use x="286.816406" xlink:href="#DejaVuSans-84"/>
      <use x="340.150391" xlink:href="#DejaVuSans-65"/>
      <use x="408.558594" xlink:href="#DejaVuSans-78"/>
      <use x="483.363281" xlink:href="#DejaVuSans-84"/>
      <use x="544.447266" xlink:href="#DejaVuSans-95"/>
      <use x="594.447266" xlink:href="#DejaVuSans-72"/>
      <use x="669.642578" xlink:href="#DejaVuSans-69"/>
      <use x="732.826172" xlink:href="#DejaVuSans-65"/>
      <use x="801.234375" xlink:href="#DejaVuSans-68"/>
      <use x="878.236328" xlink:href="#DejaVuSans-95"/>
      <use x="928.236328" xlink:href="#DejaVuSans-73"/>
      <use x="957.728516" xlink:href="#DejaVuSans-78"/>
     </g>
    </g>
    <g id="line2d_30">
     <path d="M 66.182813 50.210938 
L 86.182813 50.210938 
" style="fill:none;stroke:#2ca02c;stroke-linecap:square;stroke-width:1.5;"/>
    </g>
    <g id="line2d_31"/>
    <g id="text_19">
     <!-- WELLS_IN -->
     <defs>
      <path d="M 3.328125 72.90625 
L 13.28125 72.90625 
L 28.609375 11.28125 
L 43.890625 72.90625 
L 54.984375 72.90625 
L 70.3125 11.28125 
L 85.59375 72.90625 
L 95.609375 72.90625 
L 77.296875 0 
L 64.890625 0 
L 49.515625 63.28125 
L 33.984375 0 
L 21.578125 0 
z
" id="DejaVuSans-87"/>
      <path d="M 9.8125 72.90625 
L 19.671875 72.90625 
L 19.671875 8.296875 
L 55.171875 8.296875 
L 55.171875 0 
L 9.8125 0 
z
" id="DejaVuSans-76"/>
     </defs>
     <g transform="translate(94.182813 53.710938)scale(0.1 -0.1)">
      <use xlink:href="#DejaVuSans-87"/>
      <use x="98.876953" xlink:href="#DejaVuSans-69"/>
      <use x="162.060547" xlink:href="#DejaVuSans-76"/>
      <use x="217.773438" xlink:href="#DejaVuSans-76"/>
      <use x="273.486328" xlink:href="#DejaVuSans-83"/>
      <use x="336.962891" xlink:href="#DejaVuSans-95"/>
      <use x="386.962891" xlink:href="#DejaVuSans-73"/>
      <use x="416.455078" xlink:href="#DejaVuSans-78"/>
     </g>
    </g>
    <g id="line2d_32">
     <path d="M 66.182813 65.167188 
L 86.182813 65.167188 
" style="fill:none;stroke:#d62728;stroke-linecap:square;stroke-width:1.5;"/>
    </g>
    <g id="line2d_33"/>
    <g id="text_20">
     <!-- DRAINS_IN -->
     <g transform="translate(94.182813 68.667188)scale(0.1 -0.1)">
      <use xlink:href="#DejaVuSans-68"/>
      <use x="77.001953" xlink:href="#DejaVuSans-82"/>
      <use x="142.484375" xlink:href="#DejaVuSans-65"/>
      <use x="210.892578" xlink:href="#DejaVuSans-73"/>
      <use x="240.384766" xlink:href="#DejaVuSans-78"/>
      <use x="315.189453" xlink:href="#DejaVuSans-83"/>
      <use x="378.666016" xlink:href="#DejaVuSans-95"/>
      <use x="428.666016" xlink:href="#DejaVuSans-73"/>
      <use x="458.158203" xlink:href="#DejaVuSans-78"/>
     </g>
    </g>
    <g id="line2d_34">
     <path d="M 66.182813 80.123438 
L 86.182813 80.123438 
" style="fill:none;stroke:#9467bd;stroke-linecap:square;stroke-width:1.5;"/>
    </g>
    <g id="line2d_35"/>
    <g id="text_21">
     <!-- RECHARGE_IN -->
     <g transform="translate(94.182813 83.623438)scale(0.1 -0.1)">
      <use xlink:href="#DejaVuSans-82"/>
      <use x="69.482422" xlink:href="#DejaVuSans-69"/>
      <use x="132.666016" xlink:href="#DejaVuSans-67"/>
      <use x="202.490234" xlink:href="#DejaVuSans-72"/>
      <use x="277.685547" xlink:href="#DejaVuSans-65"/>
      <use x="346.09375" xlink:href="#DejaVuSans-82"/>
      <use x="415.576172" xlink:href="#DejaVuSans-71"/>
      <use x="493.066406" xlink:href="#DejaVuSans-69"/>
      <use x="556.25" xlink:href="#DejaVuSans-95"/>
      <use x="606.25" xlink:href="#DejaVuSans-73"/>
      <use x="635.742188" xlink:href="#DejaVuSans-78"/>
     </g>
    </g>
    <g id="line2d_36">
     <path d="M 66.182813 95.079688 
L 86.182813 95.079688 
" style="fill:none;stroke:#8c564b;stroke-linecap:square;stroke-width:1.5;"/>
    </g>
    <g id="line2d_37"/>
    <g id="text_22">
     <!-- STORAGE_OUT -->
     <defs>
      <path d="M 8.6875 72.90625 
L 18.609375 72.90625 
L 18.609375 28.609375 
Q 18.609375 16.890625 22.84375 11.734375 
Q 27.09375 6.59375 36.625 6.59375 
Q 46.09375 6.59375 50.34375 11.734375 
Q 54.59375 16.890625 54.59375 28.609375 
L 54.59375 72.90625 
L 64.5 72.90625 
L 64.5 27.390625 
Q 64.5 13.140625 57.4375 5.859375 
Q 50.390625 -1.421875 36.625 -1.421875 
Q 22.796875 -1.421875 15.734375 5.859375 
Q 8.6875 13.140625 8.6875 27.390625 
z
" id="DejaVuSans-85"/>
     </defs>
     <g transform="translate(94.182813 98.579688)scale(0.1 -0.1)">
      <use xlink:href="#DejaVuSans-83"/>
      <use x="63.476562" xlink:href="#DejaVuSans-84"/>
      <use x="124.560547" xlink:href="#DejaVuSans-79"/>
      <use x="203.271484" xlink:href="#DejaVuSans-82"/>
      <use x="268.753906" xlink:href="#DejaVuSans-65"/>
      <use x="335.412109" xlink:href="#DejaVuSans-71"/>
      <use x="412.902344" xlink:href="#DejaVuSans-69"/>
      <use x="476.085938" xlink:href="#DejaVuSans-95"/>
      <use x="526.085938" xlink:href="#DejaVuSans-79"/>
      <use x="604.796875" xlink:href="#DejaVuSans-85"/>
      <use x="677.990234" xlink:href="#DejaVuSans-84"/>
     </g>
    </g>
    <g id="line2d_38">
     <path d="M 66.182813 110.035938 
L 86.182813 110.035938 
" style="fill:none;stroke:#e377c2;stroke-linecap:square;stroke-width:1.5;"/>
    </g>
    <g id="line2d_39"/>
    <g id="text_23">
     <!-- CONSTANT_HEAD_OUT -->
     <g transform="translate(94.182813 113.535938)scale(0.1 -0.1)">
      <use xlink:href="#DejaVuSans-67"/>
      <use x="69.824219" xlink:href="#DejaVuSans-79"/>
      <use x="148.535156" xlink:href="#DejaVuSans-78"/>
      <use x="223.339844" xlink:href="#DejaVuSans-83"/>
      <use x="286.816406" xlink:href="#DejaVuSans-84"/>
      <use x="340.150391" xlink:href="#DejaVuSans-65"/>
      <use x="408.558594" xlink:href="#DejaVuSans-78"/>
      <use x="483.363281" xlink:href="#DejaVuSans-84"/>
      <use x="544.447266" xlink:href="#DejaVuSans-95"/>
      <use x="594.447266" xlink:href="#DejaVuSans-72"/>
      <use x="669.642578" xlink:href="#DejaVuSans-69"/>
      <use x="732.826172" xlink:href="#DejaVuSans-65"/>
      <use x="801.234375" xlink:href="#DejaVuSans-68"/>
      <use x="878.236328" xlink:href="#DejaVuSans-95"/>
      <use x="928.236328" xlink:href="#DejaVuSans-79"/>
      <use x="1006.947266" xlink:href="#DejaVuSans-85"/>
      <use x="1080.140625" xlink:href="#DejaVuSans-84"/>
     </g>
    </g>
    <g id="line2d_40">
     <path d="M 66.182813 124.992188 
L 86.182813 124.992188 
" style="fill:none;stroke:#7f7f7f;stroke-linecap:square;stroke-width:1.5;"/>
    </g>
    <g id="line2d_41"/>
    <g id="text_24">
     <!-- WELLS_OUT -->
     <g transform="translate(94.182813 128.492188)scale(0.1 -0.1)">
      <use xlink:href="#DejaVuSans-87"/>
      <use x="98.876953" xlink:href="#DejaVuSans-69"/>
      <use x="162.060547" xlink:href="#DejaVuSans-76"/>
      <use x="217.773438" xlink:href="#DejaVuSans-76"/>
      <use x="273.486328" xlink:href="#DejaVuSans-83"/>
      <use x="336.962891" xlink:href="#DejaVuSans-95"/>
      <use x="386.962891" xlink:href="#DejaVuSans-79"/>
      <use x="465.673828" xlink:href="#DejaVuSans-85"/>
      <use x="538.867188" xlink:href="#DejaVuSans-84"/>
     </g>
    </g>
    <g id="line2d_42">
     <path d="M 66.182813 139.948438 
L 86.182813 139.948438 
" style="fill:none;stroke:#bcbd22;stroke-linecap:square;stroke-width:1.5;"/>
    </g>
    <g id="line2d_43"/>
    <g id="text_25">
     <!-- DRAINS_OUT -->
     <g transform="translate(94.182813 143.448438)scale(0.1 -0.1)">
      <use xlink:href="#DejaVuSans-68"/>
      <use x="77.001953" xlink:href="#DejaVuSans-82"/>
      <use x="142.484375" xlink:href="#DejaVuSans-65"/>
      <use x="210.892578" xlink:href="#DejaVuSans-73"/>
      <use x="240.384766" xlink:href="#DejaVuSans-78"/>
      <use x="315.189453" xlink:href="#DejaVuSans-83"/>
      <use x="378.666016" xlink:href="#DejaVuSans-95"/>
      <use x="428.666016" xlink:href="#DejaVuSans-79"/>
      <use x="507.376953" xlink:href="#DejaVuSans-85"/>
      <use x="580.570312" xlink:href="#DejaVuSans-84"/>
     </g>
    </g>
    <g id="line2d_44">
     <path d="M 66.182813 154.904688 
L 86.182813 154.904688 
" style="fill:none;stroke:#17becf;stroke-linecap:square;stroke-width:1.5;"/>
    </g>
    <g id="line2d_45"/>
    <g id="text_26">
     <!-- RECHARGE_OUT -->
     <g transform="translate(94.182813 158.404688)scale(0.1 -0.1)">
      <use xlink:href="#DejaVuSans-82"/>
      <use x="69.482422" xlink:href="#DejaVuSans-69"/>
      <use x="132.666016" xlink:href="#DejaVuSans-67"/>
      <use x="202.490234" xlink:href="#DejaVuSans-72"/>
      <use x="277.685547" xlink:href="#DejaVuSans-65"/>
      <use x="346.09375" xlink:href="#DejaVuSans-82"/>
      <use x="415.576172" xlink:href="#DejaVuSans-71"/>
      <use x="493.066406" xlink:href="#DejaVuSans-69"/>
      <use x="556.25" xlink:href="#DejaVuSans-95"/>
      <use x="606.25" xlink:href="#DejaVuSans-79"/>
      <use x="684.960938" xlink:href="#DejaVuSans-85"/>
      <use x="758.154297" xlink:href="#DejaVuSans-84"/>
     </g>
    </g>
   </g>
  </g>
 </g>
 <defs>
  <clipPath id="pd51b1480b3">
   <rect height="235.008" width="357.12" x="57.182813" y="7.2"/>
  </clipPath>
 </defs>
</svg>
