<?xml version="1.0" encoding="utf-8" standalone="no"?>
<!DOCTYPE svg PUBLIC "-//W3C//DTD SVG 1.1//EN"
  "http://www.w3.org/Graphics/SVG/1.1/DTD/svg11.dtd">
<svg xmlns:xlink="http://www.w3.org/1999/xlink" width="1027.142188pt" height="411.175302pt" viewBox="0 0 1027.142188 411.175302" xmlns="http://www.w3.org/2000/svg" version="1.1">
 <metadata>
  <rdf:RDF xmlns:dc="http://purl.org/dc/elements/1.1/" xmlns:cc="http://creativecommons.org/ns#" xmlns:rdf="http://www.w3.org/1999/02/22-rdf-syntax-ns#">
   <cc:Work>
    <dc:type rdf:resource="http://purl.org/dc/dcmitype/StillImage"/>
    <dc:date>2023-01-05T01:06:59.779180</dc:date>
    <dc:format>image/svg+xml</dc:format>
    <dc:creator>
     <cc:Agent>
      <dc:title>Matplotlib v3.6.2, https://matplotlib.org/</dc:title>
     </cc:Agent>
    </dc:creator>
   </cc:Work>
  </rdf:RDF>
 </metadata>
 <defs>
  <style type="text/css">*{stroke-linejoin: round; stroke-linecap: butt}</style>
 </defs>
 <g id="figure_1">
  <g id="patch_1">
   <path d="M 0 411.175302 
L 1027.142188 411.175302 
L 1027.142188 0 
L 0 0 
z
" style="fill: #ffffff"/>
  </g>
  <g id="axes_1">
   <g id="patch_2">
    <path d="M 43.442188 375.8688 
L 1019.942188 375.8688 
L 1019.942188 7.2 
L 43.442188 7.2 
z
" style="fill: #ffffff"/>
   </g>
   <g id="matplotlib.axis_1">
    <g id="xtick_1">
     <g id="line2d_1">
      <defs>
       <path id="m73667f4d22" d="M 0 0 
L 0 3.5 
" style="stroke: #000000; stroke-width: 0.8"/>
      </defs>
      <g>
       <use xlink:href="#m73667f4d22" x="134.778144" y="375.8688" style="stroke: #000000; stroke-width: 0.8"/>
      </g>
     </g>
     <g id="text_1">
      <!-- 1995 -->
      <g transform="translate(111.697953 402.17424) rotate(-30) scale(0.1 -0.1)">
       <defs>
        <path id="DejaVuSans-31" d="M 794 531 
L 1825 531 
L 1825 4091 
L 703 3866 
L 703 4441 
L 1819 4666 
L 2450 4666 
L 2450 531 
L 3481 531 
L 3481 0 
L 794 0 
L 794 531 
z
" transform="scale(0.015625)"/>
        <path id="DejaVuSans-39" d="M 703 97 
L 703 672 
Q 941 559 1184 500 
Q 1428 441 1663 441 
Q 2288 441 2617 861 
Q 2947 1281 2994 2138 
Q 2813 1869 2534 1725 
Q 2256 1581 1919 1581 
Q 1219 1581 811 2004 
Q 403 2428 403 3163 
Q 403 3881 828 4315 
Q 1253 4750 1959 4750 
Q 2769 4750 3195 4129 
Q 3622 3509 3622 2328 
Q 3622 1225 3098 567 
Q 2575 -91 1691 -91 
Q 1453 -91 1209 -44 
Q 966 3 703 97 
z
M 1959 2075 
Q 2384 2075 2632 2365 
Q 2881 2656 2881 3163 
Q 2881 3666 2632 3958 
Q 2384 4250 1959 4250 
Q 1534 4250 1286 3958 
Q 1038 3666 1038 3163 
Q 1038 2656 1286 2365 
Q 1534 2075 1959 2075 
z
" transform="scale(0.015625)"/>
        <path id="DejaVuSans-35" d="M 691 4666 
L 3169 4666 
L 3169 4134 
L 1269 4134 
L 1269 2991 
Q 1406 3038 1543 3061 
Q 1681 3084 1819 3084 
Q 2600 3084 3056 2656 
Q 3513 2228 3513 1497 
Q 3513 744 3044 326 
Q 2575 -91 1722 -91 
Q 1428 -91 1123 -41 
Q 819 9 494 109 
L 494 744 
Q 775 591 1075 516 
Q 1375 441 1709 441 
Q 2250 441 2565 725 
Q 2881 1009 2881 1497 
Q 2881 1984 2565 2268 
Q 2250 2553 1709 2553 
Q 1456 2553 1204 2497 
Q 953 2441 691 2322 
L 691 4666 
z
" transform="scale(0.015625)"/>
       </defs>
       <use xlink:href="#DejaVuSans-31"/>
       <use xlink:href="#DejaVuSans-39" x="63.623047"/>
       <use xlink:href="#DejaVuSans-39" x="127.246094"/>
       <use xlink:href="#DejaVuSans-35" x="190.869141"/>
      </g>
     </g>
    </g>
    <g id="xtick_2">
     <g id="line2d_2">
      <g>
       <use xlink:href="#m73667f4d22" x="252.377534" y="375.8688" style="stroke: #000000; stroke-width: 0.8"/>
      </g>
     </g>
     <g id="text_2">
      <!-- 2000 -->
      <g transform="translate(229.297344 402.17424) rotate(-30) scale(0.1 -0.1)">
       <defs>
        <path id="DejaVuSans-32" d="M 1228 531 
L 3431 531 
L 3431 0 
L 469 0 
L 469 531 
Q 828 903 1448 1529 
Q 2069 2156 2228 2338 
Q 2531 2678 2651 2914 
Q 2772 3150 2772 3378 
Q 2772 3750 2511 3984 
Q 2250 4219 1831 4219 
Q 1534 4219 1204 4116 
Q 875 4013 500 3803 
L 500 4441 
Q 881 4594 1212 4672 
Q 1544 4750 1819 4750 
Q 2544 4750 2975 4387 
Q 3406 4025 3406 3419 
Q 3406 3131 3298 2873 
Q 3191 2616 2906 2266 
Q 2828 2175 2409 1742 
Q 1991 1309 1228 531 
z
" transform="scale(0.015625)"/>
        <path id="DejaVuSans-30" d="M 2034 4250 
Q 1547 4250 1301 3770 
Q 1056 3291 1056 2328 
Q 1056 1369 1301 889 
Q 1547 409 2034 409 
Q 2525 409 2770 889 
Q 3016 1369 3016 2328 
Q 3016 3291 2770 3770 
Q 2525 4250 2034 4250 
z
M 2034 4750 
Q 2819 4750 3233 4129 
Q 3647 3509 3647 2328 
Q 3647 1150 3233 529 
Q 2819 -91 2034 -91 
Q 1250 -91 836 529 
Q 422 1150 422 2328 
Q 422 3509 836 4129 
Q 1250 4750 2034 4750 
z
" transform="scale(0.015625)"/>
       </defs>
       <use xlink:href="#DejaVuSans-32"/>
       <use xlink:href="#DejaVuSans-30" x="63.623047"/>
       <use xlink:href="#DejaVuSans-30" x="127.246094"/>
       <use xlink:href="#DejaVuSans-30" x="190.869141"/>
      </g>
     </g>
    </g>
    <g id="xtick_3">
     <g id="line2d_3">
      <g>
       <use xlink:href="#m73667f4d22" x="370.041327" y="375.8688" style="stroke: #000000; stroke-width: 0.8"/>
      </g>
     </g>
     <g id="text_3">
      <!-- 2005 -->
      <g transform="translate(346.961137 402.17424) rotate(-30) scale(0.1 -0.1)">
       <use xlink:href="#DejaVuSans-32"/>
       <use xlink:href="#DejaVuSans-30" x="63.623047"/>
       <use xlink:href="#DejaVuSans-30" x="127.246094"/>
       <use xlink:href="#DejaVuSans-35" x="190.869141"/>
      </g>
     </g>
    </g>
    <g id="xtick_4">
     <g id="line2d_4">
      <g>
       <use xlink:href="#m73667f4d22" x="487.640718" y="375.8688" style="stroke: #000000; stroke-width: 0.8"/>
      </g>
     </g>
     <g id="text_4">
      <!-- 2010 -->
      <g transform="translate(464.560528 402.17424) rotate(-30) scale(0.1 -0.1)">
       <use xlink:href="#DejaVuSans-32"/>
       <use xlink:href="#DejaVuSans-30" x="63.623047"/>
       <use xlink:href="#DejaVuSans-31" x="127.246094"/>
       <use xlink:href="#DejaVuSans-30" x="190.869141"/>
      </g>
     </g>
    </g>
    <g id="xtick_5">
     <g id="line2d_5">
      <g>
       <use xlink:href="#m73667f4d22" x="605.240109" y="375.8688" style="stroke: #000000; stroke-width: 0.8"/>
      </g>
     </g>
     <g id="text_5">
      <!-- 2015 -->
      <g transform="translate(582.159918 402.17424) rotate(-30) scale(0.1 -0.1)">
       <use xlink:href="#DejaVuSans-32"/>
       <use xlink:href="#DejaVuSans-30" x="63.623047"/>
       <use xlink:href="#DejaVuSans-31" x="127.246094"/>
       <use xlink:href="#DejaVuSans-35" x="190.869141"/>
      </g>
     </g>
    </g>
    <g id="xtick_6">
     <g id="line2d_6">
      <g>
       <use xlink:href="#m73667f4d22" x="722.839499" y="375.8688" style="stroke: #000000; stroke-width: 0.8"/>
      </g>
     </g>
     <g id="text_6">
      <!-- 2020 -->
      <g transform="translate(699.759309 402.17424) rotate(-30) scale(0.1 -0.1)">
       <use xlink:href="#DejaVuSans-32"/>
       <use xlink:href="#DejaVuSans-30" x="63.623047"/>
       <use xlink:href="#DejaVuSans-32" x="127.246094"/>
       <use xlink:href="#DejaVuSans-30" x="190.869141"/>
      </g>
     </g>
    </g>
    <g id="xtick_7">
     <g id="line2d_7">
      <g>
       <use xlink:href="#m73667f4d22" x="840.503293" y="375.8688" style="stroke: #000000; stroke-width: 0.8"/>
      </g>
     </g>
     <g id="text_7">
      <!-- 2025 -->
      <g transform="translate(817.423102 402.17424) rotate(-30) scale(0.1 -0.1)">
       <use xlink:href="#DejaVuSans-32"/>
       <use xlink:href="#DejaVuSans-30" x="63.623047"/>
       <use xlink:href="#DejaVuSans-32" x="127.246094"/>
       <use xlink:href="#DejaVuSans-35" x="190.869141"/>
      </g>
     </g>
    </g>
    <g id="xtick_8">
     <g id="line2d_8">
      <g>
       <use xlink:href="#m73667f4d22" x="958.102683" y="375.8688" style="stroke: #000000; stroke-width: 0.8"/>
      </g>
     </g>
     <g id="text_8">
      <!-- 2030 -->
      <g transform="translate(935.022493 402.17424) rotate(-30) scale(0.1 -0.1)">
       <defs>
        <path id="DejaVuSans-33" d="M 2597 2516 
Q 3050 2419 3304 2112 
Q 3559 1806 3559 1356 
Q 3559 666 3084 287 
Q 2609 -91 1734 -91 
Q 1441 -91 1130 -33 
Q 819 25 488 141 
L 488 750 
Q 750 597 1062 519 
Q 1375 441 1716 441 
Q 2309 441 2620 675 
Q 2931 909 2931 1356 
Q 2931 1769 2642 2001 
Q 2353 2234 1838 2234 
L 1294 2234 
L 1294 2753 
L 1863 2753 
Q 2328 2753 2575 2939 
Q 2822 3125 2822 3475 
Q 2822 3834 2567 4026 
Q 2313 4219 1838 4219 
Q 1578 4219 1281 4162 
Q 984 4106 628 3988 
L 628 4550 
Q 988 4650 1302 4700 
Q 1616 4750 1894 4750 
Q 2613 4750 3031 4423 
Q 3450 4097 3450 3541 
Q 3450 3153 3228 2886 
Q 3006 2619 2597 2516 
z
" transform="scale(0.015625)"/>
       </defs>
       <use xlink:href="#DejaVuSans-32"/>
       <use xlink:href="#DejaVuSans-30" x="63.623047"/>
       <use xlink:href="#DejaVuSans-33" x="127.246094"/>
       <use xlink:href="#DejaVuSans-30" x="190.869141"/>
      </g>
     </g>
    </g>
   </g>
   <g id="matplotlib.axis_2">
    <g id="ytick_1">
     <g id="line2d_9">
      <defs>
       <path id="m5ba9750591" d="M 0 0 
L -3.5 0 
" style="stroke: #000000; stroke-width: 0.8"/>
      </defs>
      <g>
       <use xlink:href="#m5ba9750591" x="43.442188" y="369.796651" style="stroke: #000000; stroke-width: 0.8"/>
      </g>
     </g>
     <g id="text_9">
      <!-- −6 -->
      <g transform="translate(21.7 373.59587) scale(0.1 -0.1)">
       <defs>
        <path id="DejaVuSans-2212" d="M 678 2272 
L 4684 2272 
L 4684 1741 
L 678 1741 
L 678 2272 
z
" transform="scale(0.015625)"/>
        <path id="DejaVuSans-36" d="M 2113 2584 
Q 1688 2584 1439 2293 
Q 1191 2003 1191 1497 
Q 1191 994 1439 701 
Q 1688 409 2113 409 
Q 2538 409 2786 701 
Q 3034 994 3034 1497 
Q 3034 2003 2786 2293 
Q 2538 2584 2113 2584 
z
M 3366 4563 
L 3366 3988 
Q 3128 4100 2886 4159 
Q 2644 4219 2406 4219 
Q 1781 4219 1451 3797 
Q 1122 3375 1075 2522 
Q 1259 2794 1537 2939 
Q 1816 3084 2150 3084 
Q 2853 3084 3261 2657 
Q 3669 2231 3669 1497 
Q 3669 778 3244 343 
Q 2819 -91 2113 -91 
Q 1303 -91 875 529 
Q 447 1150 447 2328 
Q 447 3434 972 4092 
Q 1497 4750 2381 4750 
Q 2619 4750 2861 4703 
Q 3103 4656 3366 4563 
z
" transform="scale(0.015625)"/>
       </defs>
       <use xlink:href="#DejaVuSans-2212"/>
       <use xlink:href="#DejaVuSans-36" x="83.789062"/>
      </g>
     </g>
    </g>
    <g id="ytick_2">
     <g id="line2d_10">
      <g>
       <use xlink:href="#m5ba9750591" x="43.442188" y="318.924946" style="stroke: #000000; stroke-width: 0.8"/>
      </g>
     </g>
     <g id="text_10">
      <!-- −4 -->
      <g transform="translate(21.7 322.724165) scale(0.1 -0.1)">
       <defs>
        <path id="DejaVuSans-34" d="M 2419 4116 
L 825 1625 
L 2419 1625 
L 2419 4116 
z
M 2253 4666 
L 3047 4666 
L 3047 1625 
L 3713 1625 
L 3713 1100 
L 3047 1100 
L 3047 0 
L 2419 0 
L 2419 1100 
L 313 1100 
L 313 1709 
L 2253 4666 
z
" transform="scale(0.015625)"/>
       </defs>
       <use xlink:href="#DejaVuSans-2212"/>
       <use xlink:href="#DejaVuSans-34" x="83.789062"/>
      </g>
     </g>
    </g>
    <g id="ytick_3">
     <g id="line2d_11">
      <g>
       <use xlink:href="#m5ba9750591" x="43.442188" y="268.053242" style="stroke: #000000; stroke-width: 0.8"/>
      </g>
     </g>
     <g id="text_11">
      <!-- −2 -->
      <g transform="translate(21.7 271.85246) scale(0.1 -0.1)">
       <use xlink:href="#DejaVuSans-2212"/>
       <use xlink:href="#DejaVuSans-32" x="83.789062"/>
      </g>
     </g>
    </g>
    <g id="ytick_4">
     <g id="line2d_12">
      <g>
       <use xlink:href="#m5ba9750591" x="43.442188" y="217.181537" style="stroke: #000000; stroke-width: 0.8"/>
      </g>
     </g>
     <g id="text_12">
      <!-- 0 -->
      <g transform="translate(30.079688 220.980756) scale(0.1 -0.1)">
       <use xlink:href="#DejaVuSans-30"/>
      </g>
     </g>
    </g>
    <g id="ytick_5">
     <g id="line2d_13">
      <g>
       <use xlink:href="#m5ba9750591" x="43.442188" y="166.309832" style="stroke: #000000; stroke-width: 0.8"/>
      </g>
     </g>
     <g id="text_13">
      <!-- 2 -->
      <g transform="translate(30.079688 170.109051) scale(0.1 -0.1)">
       <use xlink:href="#DejaVuSans-32"/>
      </g>
     </g>
    </g>
    <g id="ytick_6">
     <g id="line2d_14">
      <g>
       <use xlink:href="#m5ba9750591" x="43.442188" y="115.438128" style="stroke: #000000; stroke-width: 0.8"/>
      </g>
     </g>
     <g id="text_14">
      <!-- 4 -->
      <g transform="translate(30.079688 119.237346) scale(0.1 -0.1)">
       <use xlink:href="#DejaVuSans-34"/>
      </g>
     </g>
    </g>
    <g id="ytick_7">
     <g id="line2d_15">
      <g>
       <use xlink:href="#m5ba9750591" x="43.442188" y="64.566423" style="stroke: #000000; stroke-width: 0.8"/>
      </g>
     </g>
     <g id="text_15">
      <!-- 6 -->
      <g transform="translate(30.079688 68.365642) scale(0.1 -0.1)">
       <use xlink:href="#DejaVuSans-36"/>
      </g>
     </g>
    </g>
    <g id="ytick_8">
     <g id="line2d_16">
      <g>
       <use xlink:href="#m5ba9750591" x="43.442188" y="13.694718" style="stroke: #000000; stroke-width: 0.8"/>
      </g>
     </g>
     <g id="text_16">
      <!-- 8 -->
      <g transform="translate(30.079688 17.493937) scale(0.1 -0.1)">
       <defs>
        <path id="DejaVuSans-38" d="M 2034 2216 
Q 1584 2216 1326 1975 
Q 1069 1734 1069 1313 
Q 1069 891 1326 650 
Q 1584 409 2034 409 
Q 2484 409 2743 651 
Q 3003 894 3003 1313 
Q 3003 1734 2745 1975 
Q 2488 2216 2034 2216 
z
M 1403 2484 
Q 997 2584 770 2862 
Q 544 3141 544 3541 
Q 544 4100 942 4425 
Q 1341 4750 2034 4750 
Q 2731 4750 3128 4425 
Q 3525 4100 3525 3541 
Q 3525 3141 3298 2862 
Q 3072 2584 2669 2484 
Q 3125 2378 3379 2068 
Q 3634 1759 3634 1313 
Q 3634 634 3220 271 
Q 2806 -91 2034 -91 
Q 1263 -91 848 271 
Q 434 634 434 1313 
Q 434 1759 690 2068 
Q 947 2378 1403 2484 
z
M 1172 3481 
Q 1172 3119 1398 2916 
Q 1625 2713 2034 2713 
Q 2441 2713 2670 2916 
Q 2900 3119 2900 3481 
Q 2900 3844 2670 4047 
Q 2441 4250 2034 4250 
Q 1625 4250 1398 4047 
Q 1172 3844 1172 3481 
z
" transform="scale(0.015625)"/>
       </defs>
       <use xlink:href="#DejaVuSans-38"/>
      </g>
     </g>
    </g>
    <g id="text_17">
     <!-- Balance ($m^3/s$) -->
     <g transform="translate(15.620313 228.7344) rotate(-90) scale(0.1 -0.1)">
      <defs>
       <path id="DejaVuSans-42" d="M 1259 2228 
L 1259 519 
L 2272 519 
Q 2781 519 3026 730 
Q 3272 941 3272 1375 
Q 3272 1813 3026 2020 
Q 2781 2228 2272 2228 
L 1259 2228 
z
M 1259 4147 
L 1259 2741 
L 2194 2741 
Q 2656 2741 2882 2914 
Q 3109 3088 3109 3444 
Q 3109 3797 2882 3972 
Q 2656 4147 2194 4147 
L 1259 4147 
z
M 628 4666 
L 2241 4666 
Q 2963 4666 3353 4366 
Q 3744 4066 3744 3513 
Q 3744 3084 3544 2831 
Q 3344 2578 2956 2516 
Q 3422 2416 3680 2098 
Q 3938 1781 3938 1306 
Q 3938 681 3513 340 
Q 3088 0 2303 0 
L 628 0 
L 628 4666 
z
" transform="scale(0.015625)"/>
       <path id="DejaVuSans-61" d="M 2194 1759 
Q 1497 1759 1228 1600 
Q 959 1441 959 1056 
Q 959 750 1161 570 
Q 1363 391 1709 391 
Q 2188 391 2477 730 
Q 2766 1069 2766 1631 
L 2766 1759 
L 2194 1759 
z
M 3341 1997 
L 3341 0 
L 2766 0 
L 2766 531 
Q 2569 213 2275 61 
Q 1981 -91 1556 -91 
Q 1019 -91 701 211 
Q 384 513 384 1019 
Q 384 1609 779 1909 
Q 1175 2209 1959 2209 
L 2766 2209 
L 2766 2266 
Q 2766 2663 2505 2880 
Q 2244 3097 1772 3097 
Q 1472 3097 1187 3025 
Q 903 2953 641 2809 
L 641 3341 
Q 956 3463 1253 3523 
Q 1550 3584 1831 3584 
Q 2591 3584 2966 3190 
Q 3341 2797 3341 1997 
z
" transform="scale(0.015625)"/>
       <path id="DejaVuSans-6c" d="M 603 4863 
L 1178 4863 
L 1178 0 
L 603 0 
L 603 4863 
z
" transform="scale(0.015625)"/>
       <path id="DejaVuSans-6e" d="M 3513 2113 
L 3513 0 
L 2938 0 
L 2938 2094 
Q 2938 2591 2744 2837 
Q 2550 3084 2163 3084 
Q 1697 3084 1428 2787 
Q 1159 2491 1159 1978 
L 1159 0 
L 581 0 
L 581 3500 
L 1159 3500 
L 1159 2956 
Q 1366 3272 1645 3428 
Q 1925 3584 2291 3584 
Q 2894 3584 3203 3211 
Q 3513 2838 3513 2113 
z
" transform="scale(0.015625)"/>
       <path id="DejaVuSans-63" d="M 3122 3366 
L 3122 2828 
Q 2878 2963 2633 3030 
Q 2388 3097 2138 3097 
Q 1578 3097 1268 2742 
Q 959 2388 959 1747 
Q 959 1106 1268 751 
Q 1578 397 2138 397 
Q 2388 397 2633 464 
Q 2878 531 3122 666 
L 3122 134 
Q 2881 22 2623 -34 
Q 2366 -91 2075 -91 
Q 1284 -91 818 406 
Q 353 903 353 1747 
Q 353 2603 823 3093 
Q 1294 3584 2113 3584 
Q 2378 3584 2631 3529 
Q 2884 3475 3122 3366 
z
" transform="scale(0.015625)"/>
       <path id="DejaVuSans-65" d="M 3597 1894 
L 3597 1613 
L 953 1613 
Q 991 1019 1311 708 
Q 1631 397 2203 397 
Q 2534 397 2845 478 
Q 3156 559 3463 722 
L 3463 178 
Q 3153 47 2828 -22 
Q 2503 -91 2169 -91 
Q 1331 -91 842 396 
Q 353 884 353 1716 
Q 353 2575 817 3079 
Q 1281 3584 2069 3584 
Q 2775 3584 3186 3129 
Q 3597 2675 3597 1894 
z
M 3022 2063 
Q 3016 2534 2758 2815 
Q 2500 3097 2075 3097 
Q 1594 3097 1305 2825 
Q 1016 2553 972 2059 
L 3022 2063 
z
" transform="scale(0.015625)"/>
       <path id="DejaVuSans-20" transform="scale(0.015625)"/>
       <path id="DejaVuSans-28" d="M 1984 4856 
Q 1566 4138 1362 3434 
Q 1159 2731 1159 2009 
Q 1159 1288 1364 580 
Q 1569 -128 1984 -844 
L 1484 -844 
Q 1016 -109 783 600 
Q 550 1309 550 2009 
Q 550 2706 781 3412 
Q 1013 4119 1484 4856 
L 1984 4856 
z
" transform="scale(0.015625)"/>
       <path id="DejaVuSans-Oblique-6d" d="M 5747 2113 
L 5338 0 
L 4763 0 
L 5166 2094 
Q 5191 2228 5203 2325 
Q 5216 2422 5216 2491 
Q 5216 2772 5059 2928 
Q 4903 3084 4622 3084 
Q 4203 3084 3875 2770 
Q 3547 2456 3450 1953 
L 3066 0 
L 2491 0 
L 2900 2094 
Q 2925 2209 2937 2307 
Q 2950 2406 2950 2484 
Q 2950 2769 2794 2926 
Q 2638 3084 2363 3084 
Q 1938 3084 1609 2770 
Q 1281 2456 1184 1953 
L 800 0 
L 225 0 
L 909 3500 
L 1484 3500 
L 1375 2956 
Q 1609 3263 1923 3423 
Q 2238 3584 2597 3584 
Q 2978 3584 3223 3384 
Q 3469 3184 3519 2828 
Q 3781 3197 4126 3390 
Q 4472 3584 4856 3584 
Q 5306 3584 5551 3325 
Q 5797 3066 5797 2591 
Q 5797 2488 5784 2364 
Q 5772 2241 5747 2113 
z
" transform="scale(0.015625)"/>
       <path id="DejaVuSans-2f" d="M 1625 4666 
L 2156 4666 
L 531 -594 
L 0 -594 
L 1625 4666 
z
" transform="scale(0.015625)"/>
       <path id="DejaVuSans-Oblique-73" d="M 3200 3397 
L 3091 2853 
Q 2863 2978 2609 3040 
Q 2356 3103 2088 3103 
Q 1634 3103 1373 2948 
Q 1113 2794 1113 2528 
Q 1113 2219 1719 2053 
Q 1766 2041 1788 2034 
L 1972 1978 
Q 2547 1819 2739 1644 
Q 2931 1469 2931 1166 
Q 2931 609 2489 259 
Q 2047 -91 1331 -91 
Q 1053 -91 747 -37 
Q 441 16 72 128 
L 184 722 
Q 500 559 806 475 
Q 1113 391 1394 391 
Q 1816 391 2080 572 
Q 2344 753 2344 1031 
Q 2344 1331 1650 1516 
L 1591 1531 
L 1394 1581 
Q 956 1697 753 1886 
Q 550 2075 550 2369 
Q 550 2928 970 3256 
Q 1391 3584 2113 3584 
Q 2397 3584 2667 3537 
Q 2938 3491 3200 3397 
z
" transform="scale(0.015625)"/>
       <path id="DejaVuSans-29" d="M 513 4856 
L 1013 4856 
Q 1481 4119 1714 3412 
Q 1947 2706 1947 2009 
Q 1947 1309 1714 600 
Q 1481 -109 1013 -844 
L 513 -844 
Q 928 -128 1133 580 
Q 1338 1288 1338 2009 
Q 1338 2731 1133 3434 
Q 928 4138 513 4856 
z
" transform="scale(0.015625)"/>
      </defs>
      <use xlink:href="#DejaVuSans-42" transform="translate(0 0.765625)"/>
      <use xlink:href="#DejaVuSans-61" transform="translate(68.603516 0.765625)"/>
      <use xlink:href="#DejaVuSans-6c" transform="translate(129.882812 0.765625)"/>
      <use xlink:href="#DejaVuSans-61" transform="translate(157.666016 0.765625)"/>
      <use xlink:href="#DejaVuSans-6e" transform="translate(218.945312 0.765625)"/>
      <use xlink:href="#DejaVuSans-63" transform="translate(282.324219 0.765625)"/>
      <use xlink:href="#DejaVuSans-65" transform="translate(337.304688 0.765625)"/>
      <use xlink:href="#DejaVuSans-20" transform="translate(398.828125 0.765625)"/>
      <use xlink:href="#DejaVuSans-28" transform="translate(430.615234 0.765625)"/>
      <use xlink:href="#DejaVuSans-Oblique-6d" transform="translate(469.628906 0.765625)"/>
      <use xlink:href="#DejaVuSans-33" transform="translate(571.690911 39.046875) scale(0.7)"/>
      <use xlink:href="#DejaVuSans-2f" transform="translate(618.961419 0.765625)"/>
      <use xlink:href="#DejaVuSans-Oblique-73" transform="translate(652.652826 0.765625)"/>
      <use xlink:href="#DejaVuSans-29" transform="translate(704.752435 0.765625)"/>
     </g>
    </g>
   </g>
   <g id="line2d_17">
    <path d="M 87.828551 217.181537 
L 89.825036 215.334389 
L 111.335549 215.334056 
L 113.332033 157.891534 
L 115.13531 161.848498 
L 117.131795 165.300536 
L 119.063877 168.153936 
L 121.060361 170.550447 
L 122.992443 172.31459 
L 124.988928 173.742004 
L 126.985413 174.901599 
L 128.917495 175.789963 
L 132.846062 177.165034 
L 134.842546 177.798741 
L 136.839031 169.790642 
L 138.642308 170.822171 
L 140.638792 171.806839 
L 144.567359 173.349196 
L 148.495926 174.630943 
L 154.420977 176.116909 
L 158.349544 176.956045 
L 160.346029 160.596522 
L 164.210193 161.938781 
L 170.070841 163.660954 
L 175.995893 165.224144 
L 181.920944 166.587007 
L 183.917429 203.647882 
L 185.720705 205.494281 
L 187.71719 206.292581 
L 189.649272 206.72299 
L 193.577839 207.300272 
L 199.50289 207.828429 
L 205.427942 208.196567 
L 207.424426 215.054314 
L 211.224188 215.69636 
L 217.084836 216.250035 
L 225.006373 216.697448 
L 228.934939 216.828107 
L 230.931424 132.254797 
L 232.734701 139.884449 
L 234.731185 144.948155 
L 236.663267 148.345458 
L 238.659752 150.969961 
L 240.591834 152.966631 
L 242.588319 154.616153 
L 244.584803 155.914068 
L 246.516885 156.898001 
L 248.51337 157.727068 
L 252.441937 158.981776 
L 254.438422 183.135828 
L 256.306101 187.43904 
L 258.302586 189.347099 
L 260.234668 190.510735 
L 262.231152 191.401669 
L 264.163234 192.094199 
L 268.156204 193.117682 
L 272.08477 193.850366 
L 276.013337 194.455326 
L 278.009822 174.464328 
L 279.813098 175.867068 
L 281.809583 176.638718 
L 283.741665 177.162067 
L 287.670232 177.931238 
L 293.595283 178.778407 
L 299.520335 179.428048 
L 301.516819 202.751723 
L 303.320096 204.358653 
L 305.316581 204.910934 
L 309.245147 205.39833 
L 315.170199 205.791761 
L 323.027332 206.088839 
L 325.023817 213.83221 
L 328.823578 214.358199 
L 334.684227 214.778877 
L 344.537845 215.157625 
L 346.53433 215.211513 
L 348.530815 164.974754 
L 350.398494 168.347194 
L 352.394979 170.857107 
L 354.327061 172.566562 
L 356.323545 173.883921 
L 358.255627 174.922276 
L 360.252112 175.802048 
L 364.180679 177.14599 
L 368.109245 178.162164 
L 370.10573 178.595596 
L 372.102215 154.403833 
L 373.905491 157.248066 
L 375.901976 159.743605 
L 377.834058 161.750625 
L 379.830543 163.485761 
L 381.762625 164.846599 
L 383.75911 165.945866 
L 385.755594 166.904453 
L 389.684161 168.419312 
L 393.612728 169.563056 
L 395.609213 170.611806 
L 397.412489 171.190355 
L 401.341056 171.880903 
L 407.266107 172.593816 
L 413.191159 173.110855 
L 417.119725 173.334426 
L 419.11621 158.199118 
L 420.919487 163.050229 
L 422.915971 160.529105 
L 424.848053 162.69906 
L 426.844538 164.770953 
L 428.77662 166.431731 
L 430.773105 168.312446 
L 432.769589 167.386647 
L 434.701671 165.804455 
L 436.698156 164.874259 
L 438.630238 165.608856 
L 440.626723 164.743243 
L 442.623208 161.882832 
L 444.490887 166.886983 
L 446.487372 166.959768 
L 448.419454 169.104653 
L 450.415938 169.987345 
L 452.34802 171.068001 
L 454.344505 169.391758 
L 456.34099 168.755374 
L 458.273072 167.880506 
L 460.269557 169.207701 
L 462.201639 168.531403 
L 464.198123 163.800466 
L 466.194608 144.505503 
L 467.997884 150.340541 
L 469.994369 146.85698 
L 471.926451 150.685924 
L 473.922936 153.087978 
L 475.855018 156.028892 
L 477.851503 154.689218 
L 479.847987 157.607326 
L 481.780069 158.418163 
L 483.776554 156.35927 
L 485.708636 158.23129 
L 487.705121 154.714293 
L 489.701606 147.505517 
L 491.504882 151.003683 
L 493.501367 149.90483 
L 497.429934 151.175284 
L 499.362015 152.825385 
L 501.3585 154.99982 
L 503.354985 151.933047 
L 505.287067 152.935664 
L 507.283552 150.804358 
L 509.215634 152.269335 
L 511.212118 150.635508 
L 513.208603 144.538811 
L 517.008364 150.146856 
L 518.940446 153.400907 
L 520.936931 152.723124 
L 522.869013 153.310316 
L 524.865498 153.296291 
L 526.861983 155.111203 
L 528.794065 153.63624 
L 530.790549 151.676103 
L 532.722631 153.843905 
L 534.719116 150.593575 
L 536.715601 148.826557 
L 538.58328 149.044935 
L 540.579765 149.934638 
L 542.511847 149.15566 
L 544.508331 151.362732 
L 546.440413 150.853012 
L 548.436898 153.104363 
L 550.433383 153.850156 
L 552.365465 152.416312 
L 554.36195 153.934225 
L 556.294032 151.520873 
L 558.290516 152.96434 
L 560.287001 149.502519 
L 562.090278 147.911113 
L 564.086762 150.704972 
L 566.018844 156.952478 
L 568.015329 155.035705 
L 569.947411 153.951162 
L 571.943896 156.617759 
L 573.94038 156.320257 
L 575.872462 155.639668 
L 577.868947 157.255017 
L 579.801029 155.725682 
L 581.797514 151.933336 
L 583.793999 157.46775 
L 585.597275 154.586929 
L 587.59376 158.855632 
L 589.525842 164.717566 
L 591.522327 162.964412 
L 593.454409 162.571025 
L 595.450893 164.423952 
L 597.447378 163.495458 
L 599.37946 163.79427 
L 601.375945 165.452932 
L 603.308027 164.287609 
L 605.304511 160.25603 
L 607.300996 162.280594 
L 609.104273 161.095234 
L 611.100757 163.728873 
L 613.032839 167.574343 
L 615.029324 167.023247 
L 616.961406 167.609938 
L 618.957891 168.416887 
L 620.954376 166.878427 
L 622.886458 167.049329 
L 624.882942 168.292533 
L 626.815024 167.153425 
L 628.811509 164.061803 
L 630.807994 161.722404 
L 632.675673 160.176409 
L 634.672158 162.017919 
L 636.60424 165.262871 
L 638.600724 165.193435 
L 640.532806 167.459915 
L 642.529291 168.58652 
L 644.525776 161.441914 
L 648.454343 166.256183 
L 650.386425 159.59137 
L 652.382909 163.046761 
L 654.379394 156.763338 
L 656.182671 158.36887 
L 658.179155 158.753021 
L 660.111237 163.380316 
L 662.107722 164.410575 
L 664.039804 165.971456 
L 666.036289 167.200947 
L 668.032773 163.886227 
L 669.964855 165.850979 
L 671.96134 167.36247 
L 673.893422 163.379833 
L 675.889907 163.126662 
L 677.886392 148.560791 
L 679.689668 157.909184 
L 681.686153 162.484698 
L 685.61472 167.702093 
L 687.546802 169.457312 
L 689.543286 170.827879 
L 691.539771 171.984388 
L 693.471853 172.939521 
L 695.468338 173.781435 
L 699.396904 175.110441 
L 703.196666 176.15766 
L 709.121717 177.544893 
L 720.907417 179.946685 
L 726.768066 180.949572 
L 734.625199 182.024464 
L 742.546736 182.800171 
L 752.271548 183.477724 
L 764.057248 184.059881 
L 781.574792 184.630868 
L 797.289059 184.996984 
L 830.585272 185.715848 
L 881.463431 187.060747 
L 922.68118 187.902744 
L 975.555824 188.797107 
L 975.555824 188.797107 
" clip-path="url(#p94ff0b93c8)" style="fill: none; stroke: #1f77b4; stroke-width: 1.5; stroke-linecap: square"/>
   </g>
   <g id="line2d_18">
    <path d="M 87.828551 208.440009 
L 111.335549 208.440009 
L 115.13531 208.271076 
L 126.985413 208.194401 
L 177.992377 208.000118 
L 181.920944 207.974629 
L 183.917429 208.405215 
L 187.71719 208.761895 
L 193.577839 208.954933 
L 207.424426 209.283803 
L 213.15627 209.472244 
L 228.934939 209.658683 
L 230.931424 209.31676 
L 234.731185 209.071743 
L 242.588319 208.939254 
L 256.306101 208.733046 
L 270.088286 208.620974 
L 279.813098 208.684946 
L 346.53433 209.244735 
L 350.398494 208.916763 
L 358.255627 208.750107 
L 393.612728 208.479494 
L 442.623208 208.432025 
L 450.415938 208.543155 
L 464.198123 208.591314 
L 467.997884 208.308947 
L 477.851503 208.112955 
L 493.501367 207.995182 
L 522.869013 208.035053 
L 554.36195 207.989198 
L 666.036289 207.899313 
L 975.555824 207.809276 
L 975.555824 207.809276 
" clip-path="url(#p94ff0b93c8)" style="fill: none; stroke: #ff7f0e; stroke-width: 1.5; stroke-linecap: square"/>
   </g>
   <g id="line2d_19">
    <path d="M 87.828551 217.181537 
L 975.555824 217.181537 
L 975.555824 217.181537 
" clip-path="url(#p94ff0b93c8)" style="fill: none; stroke: #2ca02c; stroke-width: 1.5; stroke-linecap: square"/>
   </g>
   <g id="line2d_20">
    <path d="M 87.828551 217.181537 
L 975.555824 217.181537 
L 975.555824 217.181537 
" clip-path="url(#p94ff0b93c8)" style="fill: none; stroke: #d62728; stroke-width: 1.5; stroke-linecap: square"/>
   </g>
   <g id="line2d_21">
    <path d="M 87.828551 91.334566 
L 111.335549 91.334566 
L 113.332033 128.583076 
L 134.842546 128.583076 
L 136.839031 130.800102 
L 158.349544 130.800102 
L 160.346029 140.01857 
L 181.920944 140.01857 
L 183.917429 91.546044 
L 205.427942 91.546044 
L 207.424426 23.957673 
L 228.934939 23.957673 
L 230.931424 90.592871 
L 252.441937 90.592871 
L 254.438422 107.268958 
L 276.013337 107.268958 
L 278.009822 95.280058 
L 299.520335 95.280058 
L 301.516819 84.060398 
L 323.027332 84.060398 
L 325.023817 51.876189 
L 346.53433 51.876189 
L 348.530815 98.9972 
L 370.10573 98.9972 
L 372.102215 104.19257 
L 393.612728 104.19257 
L 395.609213 104.770765 
L 417.119725 104.770765 
L 419.11621 120.579789 
L 440.626723 120.579789 
L 442.623208 100.169891 
L 464.198123 100.169891 
L 466.194608 127.391589 
L 487.705121 127.391589 
L 489.701606 134.812183 
L 511.212118 134.812183 
L 513.208603 137.755742 
L 534.719116 137.755742 
L 536.715601 137.288535 
L 975.555824 137.288535 
L 975.555824 137.288535 
" clip-path="url(#p94ff0b93c8)" style="fill: none; stroke: #9467bd; stroke-width: 1.5; stroke-linecap: square"/>
   </g>
   <g id="line2d_22">
    <path d="M 87.828551 217.181537 
L 134.842546 217.18166 
L 136.839031 217.976071 
L 138.642308 217.720454 
L 142.570874 217.453127 
L 148.495926 217.314221 
L 179.924459 217.181537 
L 181.920944 217.181537 
L 183.917429 261.103618 
L 185.720705 257.491733 
L 187.71719 255.055384 
L 189.649272 253.167024 
L 193.577839 249.958279 
L 197.570808 247.180387 
L 201.499375 244.732883 
L 203.431457 243.249808 
L 205.427942 241.881322 
L 207.424426 340.203792 
L 209.227703 335.425416 
L 211.224188 329.813309 
L 213.15627 323.45165 
L 215.152754 317.508734 
L 217.084836 312.194344 
L 219.081321 307.535383 
L 221.077806 303.543293 
L 223.009888 300.252061 
L 225.006373 297.269926 
L 226.938455 294.770068 
L 228.934939 292.439566 
L 230.931424 224.81768 
L 232.734701 222.042909 
L 234.731185 220.54635 
L 236.663267 219.66195 
L 238.659752 219.028442 
L 242.588319 218.277932 
L 246.516885 217.861346 
L 252.441937 217.597665 
L 254.438422 224.205658 
L 256.306101 220.431459 
L 258.302586 219.154313 
L 260.234668 218.561373 
L 264.163234 217.952435 
L 268.156204 217.709153 
L 276.013337 217.495823 
L 278.009822 218.707749 
L 279.813098 218.081477 
L 283.741665 217.81722 
L 293.595283 217.543097 
L 299.520335 217.449763 
L 301.516819 232.156505 
L 303.320096 229.400898 
L 305.316581 227.931989 
L 307.248663 226.952616 
L 309.245147 226.152205 
L 313.173714 224.940307 
L 321.030848 223.078116 
L 323.027332 222.720067 
L 325.023817 248.908676 
L 326.827094 246.590761 
L 328.823578 244.453519 
L 330.75566 242.723816 
L 332.752145 241.251429 
L 334.684227 240.06227 
L 336.680712 239.043743 
L 340.609278 237.467103 
L 344.537845 236.230056 
L 346.53433 235.675007 
L 348.530815 218.286972 
L 350.398494 217.829484 
L 352.394979 217.58206 
L 358.255627 217.353034 
L 370.10573 217.216064 
L 379.830543 217.193759 
L 393.612728 217.188218 
L 395.609213 223.402576 
L 397.412489 222.35628 
L 401.341056 220.532383 
L 405.269622 219.176428 
L 409.262592 218.251912 
L 413.191159 217.690572 
L 417.119725 217.407026 
L 419.11621 219.965711 
L 420.919487 219.476761 
L 422.915971 219.131285 
L 428.77662 218.592242 
L 432.769589 218.436925 
L 434.701671 218.215229 
L 440.626723 217.932656 
L 442.623208 233.695772 
L 444.490887 233.196017 
L 446.487372 231.995539 
L 448.419454 231.775339 
L 450.415938 230.117625 
L 452.34802 229.331694 
L 456.34099 227.219818 
L 458.273072 226.182886 
L 462.201639 224.674451 
L 464.198123 223.597432 
L 466.194608 217.374433 
L 467.997884 217.463187 
L 469.994369 217.215146 
L 477.851503 217.228666 
L 479.847987 217.549058 
L 481.780069 217.260916 
L 483.776554 217.182937 
L 491.504882 217.269819 
L 495.433449 217.209513 
L 499.362015 217.194693 
L 501.3585 217.322473 
L 503.354985 217.185918 
L 505.287067 217.251039 
L 509.215634 217.222908 
L 511.212118 217.1825 
L 513.208603 217.773403 
L 515.01188 217.606547 
L 518.940446 217.584899 
L 520.936931 217.437524 
L 522.869013 217.547479 
L 524.865498 217.504301 
L 526.861983 217.739565 
L 528.794065 217.397077 
L 532.722631 217.400658 
L 534.719116 217.452283 
L 536.715601 218.891904 
L 538.58328 218.118487 
L 540.579765 219.12623 
L 542.511847 217.830637 
L 544.508331 217.763454 
L 546.440413 218.039064 
L 548.436898 218.170032 
L 550.433383 218.736736 
L 552.365465 218.318976 
L 554.36195 218.566208 
L 556.294032 217.370788 
L 558.290516 217.499998 
L 560.287001 217.817113 
L 562.090278 217.402032 
L 564.086762 217.933919 
L 566.018844 219.116069 
L 568.015329 218.425908 
L 569.947411 218.162283 
L 571.943896 217.633749 
L 573.94038 217.48364 
L 575.872462 217.59402 
L 577.868947 217.574515 
L 579.801029 217.325734 
L 581.797514 217.25595 
L 583.793999 218.438681 
L 585.597275 217.393007 
L 587.59376 218.447895 
L 589.525842 219.66751 
L 591.522327 218.777124 
L 593.454409 218.681785 
L 595.450893 217.964667 
L 597.447378 217.777083 
L 599.37946 217.900788 
L 601.375945 218.462914 
L 605.304511 218.206049 
L 607.300996 218.392716 
L 609.104273 217.601201 
L 613.032839 219.522481 
L 615.029324 218.239962 
L 618.957891 217.625127 
L 620.954376 218.073074 
L 622.886458 217.942741 
L 624.882942 217.487266 
L 626.815024 217.290541 
L 628.811509 217.381585 
L 630.807994 217.242333 
L 632.675673 217.260516 
L 636.60424 217.853254 
L 638.600724 218.374364 
L 642.529291 217.961544 
L 644.525776 218.294422 
L 646.457858 218.276018 
L 648.454343 217.665711 
L 650.386425 217.248717 
L 652.382909 218.091198 
L 654.379394 217.235315 
L 656.182671 217.503399 
L 658.179155 217.632998 
L 660.111237 218.212034 
L 662.107722 219.027894 
L 664.039804 218.771516 
L 668.032773 218.921143 
L 669.964855 218.698881 
L 671.96134 217.806103 
L 673.893422 217.27695 
L 675.889907 217.567876 
L 677.886392 259.614782 
L 679.689668 250.507842 
L 681.686153 246.064875 
L 683.618235 243.450336 
L 685.61472 241.429884 
L 689.543286 238.322513 
L 691.539771 236.942578 
L 695.468338 234.736148 
L 699.396904 233.022261 
L 703.196666 231.679677 
L 707.125232 230.56913 
L 711.053799 229.670863 
L 716.978851 228.606622 
L 722.903902 227.79139 
L 730.696633 226.942282 
L 740.550251 226.124736 
L 750.275064 225.540632 
L 764.057248 224.938327 
L 783.506874 224.380701 
L 805.081789 224.002595 
L 858.020836 223.343531 
L 928.541829 222.703276 
L 975.555824 222.36413 
L 975.555824 222.36413 
" clip-path="url(#p94ff0b93c8)" style="fill: none; stroke: #8c564b; stroke-width: 1.5; stroke-linecap: square"/>
   </g>
   <g id="line2d_23">
    <path d="M 87.828551 217.181537 
L 975.555824 217.181537 
L 975.555824 217.181537 
" clip-path="url(#p94ff0b93c8)" style="fill: none; stroke: #e377c2; stroke-width: 1.5; stroke-linecap: square"/>
   </g>
   <g id="line2d_24">
    <path d="M 87.828551 291.999981 
L 89.825036 293.847066 
L 111.335549 293.847066 
L 113.332033 319.723037 
L 134.842546 319.693818 
L 136.839031 325.637709 
L 158.349544 325.629595 
L 160.346029 333.705901 
L 181.920944 333.695469 
L 183.917429 298.848406 
L 205.427942 298.871084 
L 207.424426 255.188064 
L 228.934939 255.188064 
L 230.931424 352.426341 
L 242.588319 352.327258 
L 252.441937 352.289493 
L 254.438422 305.199789 
L 266.159719 305.22875 
L 276.013337 305.22875 
L 278.009822 337.309332 
L 299.520335 337.224104 
L 301.516819 308.346592 
L 323.027332 308.36628 
L 325.023817 303.794331 
L 346.53433 303.794331 
L 348.530815 329.342817 
L 370.10573 329.319284 
L 372.102215 352.421971 
L 393.612728 352.402835 
L 395.609213 344.170775 
L 417.119725 344.171787 
L 419.11621 342.411544 
L 420.919487 339.46793 
L 422.915971 343.703632 
L 426.844538 341.765758 
L 428.77662 341.103679 
L 430.773105 340.125906 
L 432.769589 341.872541 
L 434.701671 344.313235 
L 436.698156 345.965038 
L 438.630238 345.880602 
L 440.626723 347.321525 
L 442.623208 354.193299 
L 444.490887 349.136102 
L 446.487372 349.455844 
L 448.419454 346.671369 
L 450.415938 346.503048 
L 452.34802 345.274513 
L 454.344505 347.169635 
L 456.34099 347.740056 
L 458.273072 348.673127 
L 460.269557 347.152532 
L 462.201639 347.721187 
L 464.198123 352.767997 
L 466.194608 352.973394 
L 467.997884 348.62284 
L 469.994369 353.839002 
L 471.926451 351.039485 
L 473.922936 349.6954 
L 475.855018 347.645932 
L 477.851503 349.992768 
L 479.847987 347.571541 
L 481.780069 347.788438 
L 483.776554 350.640799 
L 485.708636 349.298305 
L 487.705121 353.421668 
L 489.701606 353.604883 
L 491.504882 350.635012 
L 493.501367 352.262362 
L 497.429934 351.862333 
L 499.362015 350.617762 
L 501.3585 348.713864 
L 503.354985 352.304369 
L 505.287067 351.598268 
L 507.283552 354.15144 
L 509.215634 352.986449 
L 511.212118 354.992834 
L 513.208603 357.847274 
L 515.01188 355.635925 
L 517.008364 352.952731 
L 518.940446 350.038887 
L 520.936931 351.159424 
L 522.869013 350.738704 
L 524.865498 351.071501 
L 526.861983 349.282353 
L 530.790549 353.584644 
L 532.722631 351.58686 
L 534.719116 354.983533 
L 536.715601 355.90078 
L 538.58328 356.556429 
L 540.579765 354.737896 
L 542.511847 356.867633 
L 544.508331 354.770022 
L 546.440413 355.036763 
L 548.436898 352.683588 
L 550.433383 351.398244 
L 552.365465 353.275619 
L 554.36195 351.537512 
L 556.294032 355.173133 
L 558.290516 353.629052 
L 560.287001 356.94988 
L 562.090278 359.111127 
L 564.086762 355.894552 
L 566.018844 348.584219 
L 568.015329 351.288186 
L 569.947411 352.705834 
L 571.943896 350.621341 
L 573.94038 351.118154 
L 575.872462 351.720535 
L 577.868947 350.27974 
L 579.801029 352.208727 
L 581.797514 356.27286 
L 583.793999 349.655215 
L 585.597275 353.688299 
L 587.59376 348.422513 
L 589.525842 341.400274 
L 591.522327 344.081527 
L 593.454409 344.586527 
L 595.450893 343.453036 
L 597.447378 344.57154 
L 599.37946 344.139854 
L 601.375945 342.032831 
L 603.308027 343.415878 
L 605.304511 347.754978 
L 607.300996 345.63191 
L 609.104273 347.699788 
L 611.100757 344.137517 
L 613.032839 339.384523 
L 615.029324 341.230086 
L 616.961406 340.982195 
L 618.957891 340.439364 
L 620.954376 341.52439 
L 622.886458 341.476403 
L 624.882942 340.778748 
L 626.815024 342.217611 
L 628.811509 345.354607 
L 630.807994 347.91524 
L 632.675673 349.528358 
L 634.672158 347.388105 
L 636.60424 343.912442 
L 638.600724 343.461519 
L 640.532806 341.408941 
L 642.529291 340.444995 
L 644.525776 347.242848 
L 646.457858 344.961505 
L 648.454343 343.134831 
L 650.386425 350.320864 
L 652.382909 346.160895 
L 654.379394 353.383976 
L 656.182671 351.590963 
L 658.179155 351.088318 
L 660.111237 345.901053 
L 662.107722 344.039575 
L 666.036289 341.421222 
L 668.032773 344.594788 
L 669.964855 342.831639 
L 671.96134 342.275083 
L 673.893422 346.863739 
L 675.889907 346.920962 
L 677.886392 318.606924 
L 679.689668 317.917356 
L 681.686153 317.44105 
L 683.618235 317.128033 
L 685.61472 316.346328 
L 687.546802 315.96709 
L 693.471853 315.458309 
L 699.396904 315.16646 
L 716.978851 314.493378 
L 724.900387 313.99307 
L 734.625199 313.593252 
L 746.475302 313.345204 
L 764.057248 313.233619 
L 828.65319 313.012665 
L 904.970428 312.00456 
L 975.555824 311.402915 
L 975.555824 311.402915 
" clip-path="url(#p94ff0b93c8)" style="fill: none; stroke: #7f7f7f; stroke-width: 1.5; stroke-linecap: square"/>
   </g>
   <g id="line2d_25">
    <path d="M 87.828551 276.951595 
L 111.335549 276.951512 
L 113.332033 271.385303 
L 115.13531 267.481625 
L 117.131795 264.061005 
L 119.063877 261.226998 
L 121.060361 258.848357 
L 122.992443 257.097591 
L 124.988928 255.680238 
L 126.985413 254.528032 
L 128.917495 253.645211 
L 132.846062 252.278535 
L 134.842546 251.648527 
L 138.642308 249.913862 
L 142.570874 248.400179 
L 146.499441 247.101604 
L 150.49241 246.003434 
L 156.353059 244.636247 
L 158.349544 244.247651 
L 162.213708 242.78597 
L 168.138759 240.998632 
L 175.995893 238.953485 
L 181.920944 237.631367 
L 183.917429 239.538053 
L 185.720705 241.078124 
L 189.649272 243.938185 
L 193.577839 246.46099 
L 197.570808 248.793776 
L 201.499375 250.90136 
L 203.431457 252.243088 
L 205.427942 253.481996 
L 207.424426 259.401574 
L 209.227703 263.750021 
L 211.224188 269.005563 
L 213.15627 275.105209 
L 215.152754 280.829141 
L 217.084836 285.961345 
L 219.081321 290.455757 
L 221.077806 294.305773 
L 223.009888 297.475396 
L 225.006373 300.349874 
L 226.938455 302.762389 
L 228.934939 305.017125 
L 230.931424 293.680755 
L 232.734701 288.978761 
L 234.731185 285.503756 
L 236.663267 283.044607 
L 238.659752 281.09361 
L 240.591834 279.598283 
L 242.588319 278.334982 
L 244.584803 277.319388 
L 246.516885 276.524591 
L 250.445452 275.259533 
L 252.441937 274.742444 
L 254.438422 274.497166 
L 264.163234 271.893583 
L 268.156204 271.134675 
L 274.016852 270.289785 
L 276.013337 270.041466 
L 278.009822 268.668388 
L 279.813098 267.88268 
L 281.809583 267.2896 
L 285.73815 266.532666 
L 291.663201 265.743582 
L 299.520335 264.97334 
L 301.516819 266.911485 
L 303.320096 267.990153 
L 305.316581 268.864837 
L 309.245147 270.116588 
L 313.173714 271.023315 
L 323.027332 272.811557 
L 325.023817 275.576285 
L 326.827094 277.57123 
L 328.823578 279.45626 
L 330.75566 280.998575 
L 332.752145 282.317701 
L 334.684227 283.384493 
L 336.680712 284.296234 
L 340.609278 285.696724 
L 346.53433 287.287449 
L 348.530815 282.466146 
L 350.398494 279.667098 
L 352.394979 277.476361 
L 354.327061 275.914694 
L 356.323545 274.7042 
L 358.255627 273.745323 
L 360.252112 272.927793 
L 364.180679 271.674304 
L 368.109245 270.716416 
L 370.10573 270.305397 
L 372.102215 266.229364 
L 373.905491 263.44717 
L 375.901976 260.980652 
L 377.834058 258.993573 
L 379.830543 257.274353 
L 381.762625 255.926454 
L 383.75911 254.839154 
L 385.755594 253.889946 
L 389.684161 252.392025 
L 393.612728 251.262449 
L 397.412489 252.127878 
L 401.341056 253.264218 
L 405.269622 254.126211 
L 409.262592 254.639965 
L 413.191159 254.882715 
L 417.119725 254.945201 
L 422.915971 250.754162 
L 426.844538 248.861857 
L 430.773105 247.204162 
L 434.701671 245.837923 
L 438.630238 244.672821 
L 440.626723 244.191302 
L 444.490887 245.218616 
L 448.419454 246.837974 
L 456.34099 250.634441 
L 460.269557 252.574275 
L 464.198123 254.161532 
L 467.997884 250.961267 
L 469.994369 249.537136 
L 475.855018 246.587445 
L 477.851503 245.673227 
L 481.780069 244.167771 
L 485.708636 242.921034 
L 493.501367 240.920923 
L 501.3585 239.263255 
L 509.215634 237.837024 
L 522.869013 235.701122 
L 530.790549 234.670808 
L 534.719116 234.251462 
L 542.511847 233.930221 
L 560.287001 233.551634 
L 566.018844 233.175875 
L 571.943896 232.96373 
L 577.868947 232.734727 
L 585.597275 232.185322 
L 593.454409 232.021796 
L 601.375945 231.919754 
L 611.100757 231.438523 
L 616.961406 231.382046 
L 622.886458 231.415238 
L 636.60424 230.86203 
L 648.454343 230.838681 
L 658.179155 230.424058 
L 664.039804 230.438212 
L 669.964855 230.520227 
L 675.889907 230.287453 
L 677.886392 231.121648 
L 679.689668 231.570462 
L 683.618235 232.187906 
L 689.543286 232.996945 
L 695.468338 234.061779 
L 701.393389 234.857314 
L 707.125232 235.341275 
L 713.050284 235.589189 
L 722.903902 235.734585 
L 750.275064 235.746559 
L 975.555824 235.426876 
L 975.555824 235.426876 
" clip-path="url(#p94ff0b93c8)" style="fill: none; stroke: #bcbd22; stroke-width: 1.5; stroke-linecap: square"/>
   </g>
   <g id="line2d_26">
    <path d="M 87.828551 217.181537 
L 975.555824 217.181537 
L 975.555824 217.181537 
" clip-path="url(#p94ff0b93c8)" style="fill: none; stroke: #17becf; stroke-width: 1.5; stroke-linecap: square"/>
   </g>
   <g id="patch_3">
    <path d="M 43.442188 375.8688 
L 43.442188 7.2 
" style="fill: none; stroke: #000000; stroke-width: 0.8; stroke-linejoin: miter; stroke-linecap: square"/>
   </g>
   <g id="patch_4">
    <path d="M 1019.942188 375.8688 
L 1019.942188 7.2 
" style="fill: none; stroke: #000000; stroke-width: 0.8; stroke-linejoin: miter; stroke-linecap: square"/>
   </g>
   <g id="patch_5">
    <path d="M 43.442187 375.8688 
L 1019.942187 375.8688 
" style="fill: none; stroke: #000000; stroke-width: 0.8; stroke-linejoin: miter; stroke-linecap: square"/>
   </g>
   <g id="patch_6">
    <path d="M 43.442187 7.2 
L 1019.942187 7.2 
" style="fill: none; stroke: #000000; stroke-width: 0.8; stroke-linejoin: miter; stroke-linecap: square"/>
   </g>
   <g id="legend_1">
    <g id="patch_7">
     <path d="M 866.817188 164.7625 
L 1012.942188 164.7625 
Q 1014.942188 164.7625 1014.942188 162.7625 
L 1014.942188 14.2 
Q 1014.942188 12.2 1012.942188 12.2 
L 866.817188 12.2 
Q 864.817188 12.2 864.817188 14.2 
L 864.817188 162.7625 
Q 864.817188 164.7625 866.817188 164.7625 
z
" style="fill: #ffffff; opacity: 0.8; stroke: #cccccc; stroke-linejoin: miter"/>
    </g>
    <g id="line2d_27">
     <path d="M 868.817188 20.298437 
L 878.817188 20.298437 
L 888.817188 20.298437 
" style="fill: none; stroke: #1f77b4; stroke-width: 1.5; stroke-linecap: square"/>
    </g>
    <g id="text_18">
     <!-- STORAGE_IN -->
     <g transform="translate(896.817188 23.798437) scale(0.1 -0.1)">
      <defs>
       <path id="DejaVuSans-53" d="M 3425 4513 
L 3425 3897 
Q 3066 4069 2747 4153 
Q 2428 4238 2131 4238 
Q 1616 4238 1336 4038 
Q 1056 3838 1056 3469 
Q 1056 3159 1242 3001 
Q 1428 2844 1947 2747 
L 2328 2669 
Q 3034 2534 3370 2195 
Q 3706 1856 3706 1288 
Q 3706 609 3251 259 
Q 2797 -91 1919 -91 
Q 1588 -91 1214 -16 
Q 841 59 441 206 
L 441 856 
Q 825 641 1194 531 
Q 1563 422 1919 422 
Q 2459 422 2753 634 
Q 3047 847 3047 1241 
Q 3047 1584 2836 1778 
Q 2625 1972 2144 2069 
L 1759 2144 
Q 1053 2284 737 2584 
Q 422 2884 422 3419 
Q 422 4038 858 4394 
Q 1294 4750 2059 4750 
Q 2388 4750 2728 4690 
Q 3069 4631 3425 4513 
z
" transform="scale(0.015625)"/>
       <path id="DejaVuSans-54" d="M -19 4666 
L 3928 4666 
L 3928 4134 
L 2272 4134 
L 2272 0 
L 1638 0 
L 1638 4134 
L -19 4134 
L -19 4666 
z
" transform="scale(0.015625)"/>
       <path id="DejaVuSans-4f" d="M 2522 4238 
Q 1834 4238 1429 3725 
Q 1025 3213 1025 2328 
Q 1025 1447 1429 934 
Q 1834 422 2522 422 
Q 3209 422 3611 934 
Q 4013 1447 4013 2328 
Q 4013 3213 3611 3725 
Q 3209 4238 2522 4238 
z
M 2522 4750 
Q 3503 4750 4090 4092 
Q 4678 3434 4678 2328 
Q 4678 1225 4090 567 
Q 3503 -91 2522 -91 
Q 1538 -91 948 565 
Q 359 1222 359 2328 
Q 359 3434 948 4092 
Q 1538 4750 2522 4750 
z
" transform="scale(0.015625)"/>
       <path id="DejaVuSans-52" d="M 2841 2188 
Q 3044 2119 3236 1894 
Q 3428 1669 3622 1275 
L 4263 0 
L 3584 0 
L 2988 1197 
Q 2756 1666 2539 1819 
Q 2322 1972 1947 1972 
L 1259 1972 
L 1259 0 
L 628 0 
L 628 4666 
L 2053 4666 
Q 2853 4666 3247 4331 
Q 3641 3997 3641 3322 
Q 3641 2881 3436 2590 
Q 3231 2300 2841 2188 
z
M 1259 4147 
L 1259 2491 
L 2053 2491 
Q 2509 2491 2742 2702 
Q 2975 2913 2975 3322 
Q 2975 3731 2742 3939 
Q 2509 4147 2053 4147 
L 1259 4147 
z
" transform="scale(0.015625)"/>
       <path id="DejaVuSans-41" d="M 2188 4044 
L 1331 1722 
L 3047 1722 
L 2188 4044 
z
M 1831 4666 
L 2547 4666 
L 4325 0 
L 3669 0 
L 3244 1197 
L 1141 1197 
L 716 0 
L 50 0 
L 1831 4666 
z
" transform="scale(0.015625)"/>
       <path id="DejaVuSans-47" d="M 3809 666 
L 3809 1919 
L 2778 1919 
L 2778 2438 
L 4434 2438 
L 4434 434 
Q 4069 175 3628 42 
Q 3188 -91 2688 -91 
Q 1594 -91 976 548 
Q 359 1188 359 2328 
Q 359 3472 976 4111 
Q 1594 4750 2688 4750 
Q 3144 4750 3555 4637 
Q 3966 4525 4313 4306 
L 4313 3634 
Q 3963 3931 3569 4081 
Q 3175 4231 2741 4231 
Q 1884 4231 1454 3753 
Q 1025 3275 1025 2328 
Q 1025 1384 1454 906 
Q 1884 428 2741 428 
Q 3075 428 3337 486 
Q 3600 544 3809 666 
z
" transform="scale(0.015625)"/>
       <path id="DejaVuSans-45" d="M 628 4666 
L 3578 4666 
L 3578 4134 
L 1259 4134 
L 1259 2753 
L 3481 2753 
L 3481 2222 
L 1259 2222 
L 1259 531 
L 3634 531 
L 3634 0 
L 628 0 
L 628 4666 
z
" transform="scale(0.015625)"/>
       <path id="DejaVuSans-5f" d="M 3263 -1063 
L 3263 -1509 
L -63 -1509 
L -63 -1063 
L 3263 -1063 
z
" transform="scale(0.015625)"/>
       <path id="DejaVuSans-49" d="M 628 4666 
L 1259 4666 
L 1259 0 
L 628 0 
L 628 4666 
z
" transform="scale(0.015625)"/>
       <path id="DejaVuSans-4e" d="M 628 4666 
L 1478 4666 
L 3547 763 
L 3547 4666 
L 4159 4666 
L 4159 0 
L 3309 0 
L 1241 3903 
L 1241 0 
L 628 0 
L 628 4666 
z
" transform="scale(0.015625)"/>
      </defs>
      <use xlink:href="#DejaVuSans-53"/>
      <use xlink:href="#DejaVuSans-54" x="63.476562"/>
      <use xlink:href="#DejaVuSans-4f" x="124.560547"/>
      <use xlink:href="#DejaVuSans-52" x="203.271484"/>
      <use xlink:href="#DejaVuSans-41" x="268.753906"/>
      <use xlink:href="#DejaVuSans-47" x="335.412109"/>
      <use xlink:href="#DejaVuSans-45" x="412.902344"/>
      <use xlink:href="#DejaVuSans-5f" x="476.085938"/>
      <use xlink:href="#DejaVuSans-49" x="526.085938"/>
      <use xlink:href="#DejaVuSans-4e" x="555.578125"/>
     </g>
    </g>
    <g id="line2d_28">
     <path d="M 868.817188 35.254687 
L 878.817188 35.254687 
L 888.817188 35.254687 
" style="fill: none; stroke: #ff7f0e; stroke-width: 1.5; stroke-linecap: square"/>
    </g>
    <g id="text_19">
     <!-- CONSTANT_HEAD_IN -->
     <g transform="translate(896.817188 38.754687) scale(0.1 -0.1)">
      <defs>
       <path id="DejaVuSans-43" d="M 4122 4306 
L 4122 3641 
Q 3803 3938 3442 4084 
Q 3081 4231 2675 4231 
Q 1875 4231 1450 3742 
Q 1025 3253 1025 2328 
Q 1025 1406 1450 917 
Q 1875 428 2675 428 
Q 3081 428 3442 575 
Q 3803 722 4122 1019 
L 4122 359 
Q 3791 134 3420 21 
Q 3050 -91 2638 -91 
Q 1578 -91 968 557 
Q 359 1206 359 2328 
Q 359 3453 968 4101 
Q 1578 4750 2638 4750 
Q 3056 4750 3426 4639 
Q 3797 4528 4122 4306 
z
" transform="scale(0.015625)"/>
       <path id="DejaVuSans-48" d="M 628 4666 
L 1259 4666 
L 1259 2753 
L 3553 2753 
L 3553 4666 
L 4184 4666 
L 4184 0 
L 3553 0 
L 3553 2222 
L 1259 2222 
L 1259 0 
L 628 0 
L 628 4666 
z
" transform="scale(0.015625)"/>
       <path id="DejaVuSans-44" d="M 1259 4147 
L 1259 519 
L 2022 519 
Q 2988 519 3436 956 
Q 3884 1394 3884 2338 
Q 3884 3275 3436 3711 
Q 2988 4147 2022 4147 
L 1259 4147 
z
M 628 4666 
L 1925 4666 
Q 3281 4666 3915 4102 
Q 4550 3538 4550 2338 
Q 4550 1131 3912 565 
Q 3275 0 1925 0 
L 628 0 
L 628 4666 
z
" transform="scale(0.015625)"/>
      </defs>
      <use xlink:href="#DejaVuSans-43"/>
      <use xlink:href="#DejaVuSans-4f" x="69.824219"/>
      <use xlink:href="#DejaVuSans-4e" x="148.535156"/>
      <use xlink:href="#DejaVuSans-53" x="223.339844"/>
      <use xlink:href="#DejaVuSans-54" x="286.816406"/>
      <use xlink:href="#DejaVuSans-41" x="340.150391"/>
      <use xlink:href="#DejaVuSans-4e" x="408.558594"/>
      <use xlink:href="#DejaVuSans-54" x="483.363281"/>
      <use xlink:href="#DejaVuSans-5f" x="544.447266"/>
      <use xlink:href="#DejaVuSans-48" x="594.447266"/>
      <use xlink:href="#DejaVuSans-45" x="669.642578"/>
      <use xlink:href="#DejaVuSans-41" x="732.826172"/>
      <use xlink:href="#DejaVuSans-44" x="801.234375"/>
      <use xlink:href="#DejaVuSans-5f" x="878.236328"/>
      <use xlink:href="#DejaVuSans-49" x="928.236328"/>
      <use xlink:href="#DejaVuSans-4e" x="957.728516"/>
     </g>
    </g>
    <g id="line2d_29">
     <path d="M 868.817188 50.210937 
L 878.817188 50.210937 
L 888.817188 50.210937 
" style="fill: none; stroke: #2ca02c; stroke-width: 1.5; stroke-linecap: square"/>
    </g>
    <g id="text_20">
     <!-- WELLS_IN -->
     <g transform="translate(896.817188 53.710937) scale(0.1 -0.1)">
      <defs>
       <path id="DejaVuSans-57" d="M 213 4666 
L 850 4666 
L 1831 722 
L 2809 4666 
L 3519 4666 
L 4500 722 
L 5478 4666 
L 6119 4666 
L 4947 0 
L 4153 0 
L 3169 4050 
L 2175 0 
L 1381 0 
L 213 4666 
z
" transform="scale(0.015625)"/>
       <path id="DejaVuSans-4c" d="M 628 4666 
L 1259 4666 
L 1259 531 
L 3531 531 
L 3531 0 
L 628 0 
L 628 4666 
z
" transform="scale(0.015625)"/>
      </defs>
      <use xlink:href="#DejaVuSans-57"/>
      <use xlink:href="#DejaVuSans-45" x="98.876953"/>
      <use xlink:href="#DejaVuSans-4c" x="162.060547"/>
      <use xlink:href="#DejaVuSans-4c" x="217.773438"/>
      <use xlink:href="#DejaVuSans-53" x="273.486328"/>
      <use xlink:href="#DejaVuSans-5f" x="336.962891"/>
      <use xlink:href="#DejaVuSans-49" x="386.962891"/>
      <use xlink:href="#DejaVuSans-4e" x="416.455078"/>
     </g>
    </g>
    <g id="line2d_30">
     <path d="M 868.817188 65.167187 
L 878.817188 65.167187 
L 888.817188 65.167187 
" style="fill: none; stroke: #d62728; stroke-width: 1.5; stroke-linecap: square"/>
    </g>
    <g id="text_21">
     <!-- DRAINS_IN -->
     <g transform="translate(896.817188 68.667187) scale(0.1 -0.1)">
      <use xlink:href="#DejaVuSans-44"/>
      <use xlink:href="#DejaVuSans-52" x="77.001953"/>
      <use xlink:href="#DejaVuSans-41" x="142.484375"/>
      <use xlink:href="#DejaVuSans-49" x="210.892578"/>
      <use xlink:href="#DejaVuSans-4e" x="240.384766"/>
      <use xlink:href="#DejaVuSans-53" x="315.189453"/>
      <use xlink:href="#DejaVuSans-5f" x="378.666016"/>
      <use xlink:href="#DejaVuSans-49" x="428.666016"/>
      <use xlink:href="#DejaVuSans-4e" x="458.158203"/>
     </g>
    </g>
    <g id="line2d_31">
     <path d="M 868.817188 80.123437 
L 878.817188 80.123437 
L 888.817188 80.123437 
" style="fill: none; stroke: #9467bd; stroke-width: 1.5; stroke-linecap: square"/>
    </g>
    <g id="text_22">
     <!-- RECHARGE_IN -->
     <g transform="translate(896.817188 83.623437) scale(0.1 -0.1)">
      <use xlink:href="#DejaVuSans-52"/>
      <use xlink:href="#DejaVuSans-45" x="69.482422"/>
      <use xlink:href="#DejaVuSans-43" x="132.666016"/>
      <use xlink:href="#DejaVuSans-48" x="202.490234"/>
      <use xlink:href="#DejaVuSans-41" x="277.685547"/>
      <use xlink:href="#DejaVuSans-52" x="346.09375"/>
      <use xlink:href="#DejaVuSans-47" x="415.576172"/>
      <use xlink:href="#DejaVuSans-45" x="493.066406"/>
      <use xlink:href="#DejaVuSans-5f" x="556.25"/>
      <use xlink:href="#DejaVuSans-49" x="606.25"/>
      <use xlink:href="#DejaVuSans-4e" x="635.742188"/>
     </g>
    </g>
    <g id="line2d_32">
     <path d="M 868.817188 95.079687 
L 878.817188 95.079687 
L 888.817188 95.079687 
" style="fill: none; stroke: #8c564b; stroke-width: 1.5; stroke-linecap: square"/>
    </g>
    <g id="text_23">
     <!-- STORAGE_OUT -->
     <g transform="translate(896.817188 98.579687) scale(0.1 -0.1)">
      <defs>
       <path id="DejaVuSans-55" d="M 556 4666 
L 1191 4666 
L 1191 1831 
Q 1191 1081 1462 751 
Q 1734 422 2344 422 
Q 2950 422 3222 751 
Q 3494 1081 3494 1831 
L 3494 4666 
L 4128 4666 
L 4128 1753 
Q 4128 841 3676 375 
Q 3225 -91 2344 -91 
Q 1459 -91 1007 375 
Q 556 841 556 1753 
L 556 4666 
z
" transform="scale(0.015625)"/>
      </defs>
      <use xlink:href="#DejaVuSans-53"/>
      <use xlink:href="#DejaVuSans-54" x="63.476562"/>
      <use xlink:href="#DejaVuSans-4f" x="124.560547"/>
      <use xlink:href="#DejaVuSans-52" x="203.271484"/>
      <use xlink:href="#DejaVuSans-41" x="268.753906"/>
      <use xlink:href="#DejaVuSans-47" x="335.412109"/>
      <use xlink:href="#DejaVuSans-45" x="412.902344"/>
      <use xlink:href="#DejaVuSans-5f" x="476.085938"/>
      <use xlink:href="#DejaVuSans-4f" x="526.085938"/>
      <use xlink:href="#DejaVuSans-55" x="604.796875"/>
      <use xlink:href="#DejaVuSans-54" x="677.990234"/>
     </g>
    </g>
    <g id="line2d_33">
     <path d="M 868.817188 110.035937 
L 878.817188 110.035937 
L 888.817188 110.035937 
" style="fill: none; stroke: #e377c2; stroke-width: 1.5; stroke-linecap: square"/>
    </g>
    <g id="text_24">
     <!-- CONSTANT_HEAD_OUT -->
     <g transform="translate(896.817188 113.535937) scale(0.1 -0.1)">
      <use xlink:href="#DejaVuSans-43"/>
      <use xlink:href="#DejaVuSans-4f" x="69.824219"/>
      <use xlink:href="#DejaVuSans-4e" x="148.535156"/>
      <use xlink:href="#DejaVuSans-53" x="223.339844"/>
      <use xlink:href="#DejaVuSans-54" x="286.816406"/>
      <use xlink:href="#DejaVuSans-41" x="340.150391"/>
      <use xlink:href="#DejaVuSans-4e" x="408.558594"/>
      <use xlink:href="#DejaVuSans-54" x="483.363281"/>
      <use xlink:href="#DejaVuSans-5f" x="544.447266"/>
      <use xlink:href="#DejaVuSans-48" x="594.447266"/>
      <use xlink:href="#DejaVuSans-45" x="669.642578"/>
      <use xlink:href="#DejaVuSans-41" x="732.826172"/>
      <use xlink:href="#DejaVuSans-44" x="801.234375"/>
      <use xlink:href="#DejaVuSans-5f" x="878.236328"/>
      <use xlink:href="#DejaVuSans-4f" x="928.236328"/>
      <use xlink:href="#DejaVuSans-55" x="1006.947266"/>
      <use xlink:href="#DejaVuSans-54" x="1080.140625"/>
     </g>
    </g>
    <g id="line2d_34">
     <path d="M 868.817188 124.992187 
L 878.817188 124.992187 
L 888.817188 124.992187 
" style="fill: none; stroke: #7f7f7f; stroke-width: 1.5; stroke-linecap: square"/>
    </g>
    <g id="text_25">
     <!-- WELLS_OUT -->
     <g transform="translate(896.817188 128.492187) scale(0.1 -0.1)">
      <use xlink:href="#DejaVuSans-57"/>
      <use xlink:href="#DejaVuSans-45" x="98.876953"/>
      <use xlink:href="#DejaVuSans-4c" x="162.060547"/>
      <use xlink:href="#DejaVuSans-4c" x="217.773438"/>
      <use xlink:href="#DejaVuSans-53" x="273.486328"/>
      <use xlink:href="#DejaVuSans-5f" x="336.962891"/>
      <use xlink:href="#DejaVuSans-4f" x="386.962891"/>
      <use xlink:href="#DejaVuSans-55" x="465.673828"/>
      <use xlink:href="#DejaVuSans-54" x="538.867188"/>
     </g>
    </g>
    <g id="line2d_35">
     <path d="M 868.817188 139.948437 
L 878.817188 139.948437 
L 888.817188 139.948437 
" style="fill: none; stroke: #bcbd22; stroke-width: 1.5; stroke-linecap: square"/>
    </g>
    <g id="text_26">
     <!-- DRAINS_OUT -->
     <g transform="translate(896.817188 143.448437) scale(0.1 -0.1)">
      <use xlink:href="#DejaVuSans-44"/>
      <use xlink:href="#DejaVuSans-52" x="77.001953"/>
      <use xlink:href="#DejaVuSans-41" x="142.484375"/>
      <use xlink:href="#DejaVuSans-49" x="210.892578"/>
      <use xlink:href="#DejaVuSans-4e" x="240.384766"/>
      <use xlink:href="#DejaVuSans-53" x="315.189453"/>
      <use xlink:href="#DejaVuSans-5f" x="378.666016"/>
      <use xlink:href="#DejaVuSans-4f" x="428.666016"/>
      <use xlink:href="#DejaVuSans-55" x="507.376953"/>
      <use xlink:href="#DejaVuSans-54" x="580.570312"/>
     </g>
    </g>
    <g id="line2d_36">
     <path d="M 868.817188 154.904687 
L 878.817188 154.904687 
L 888.817188 154.904687 
" style="fill: none; stroke: #17becf; stroke-width: 1.5; stroke-linecap: square"/>
    </g>
    <g id="text_27">
     <!-- RECHARGE_OUT -->
     <g transform="translate(896.817188 158.404687) scale(0.1 -0.1)">
      <use xlink:href="#DejaVuSans-52"/>
      <use xlink:href="#DejaVuSans-45" x="69.482422"/>
      <use xlink:href="#DejaVuSans-43" x="132.666016"/>
      <use xlink:href="#DejaVuSans-48" x="202.490234"/>
      <use xlink:href="#DejaVuSans-41" x="277.685547"/>
      <use xlink:href="#DejaVuSans-52" x="346.09375"/>
      <use xlink:href="#DejaVuSans-47" x="415.576172"/>
      <use xlink:href="#DejaVuSans-45" x="493.066406"/>
      <use xlink:href="#DejaVuSans-5f" x="556.25"/>
      <use xlink:href="#DejaVuSans-4f" x="606.25"/>
      <use xlink:href="#DejaVuSans-55" x="684.960938"/>
      <use xlink:href="#DejaVuSans-54" x="758.154297"/>
     </g>
    </g>
   </g>
  </g>
 </g>
 <defs>
  <clipPath id="p94ff0b93c8">
   <rect x="43.442188" y="7.2" width="976.5" height="368.6688"/>
  </clipPath>
 </defs>
</svg>
