<?xml version="1.0" encoding="utf-8" standalone="no"?>
<!DOCTYPE svg PUBLIC "-//W3C//DTD SVG 1.1//EN"
  "http://www.w3.org/Graphics/SVG/1.1/DTD/svg11.dtd">
<!-- Created with matplotlib (https://matplotlib.org/) -->
<svg height="513.991302pt" version="1.1" viewBox="0 0 1135.742813 513.991302" width="1135.742813pt" xmlns="http://www.w3.org/2000/svg" xmlns:xlink="http://www.w3.org/1999/xlink">
 <defs>
  <style type="text/css">
*{stroke-linecap:butt;stroke-linejoin:round;}
  </style>
 </defs>
 <g id="figure_1">
  <g id="patch_1">
   <path d="M 0 513.991302 
L 1135.742813 513.991302 
L 1135.742813 0 
L 0 0 
z
" style="fill:#ffffff;"/>
  </g>
  <g id="axes_1">
   <g id="patch_2">
    <path d="M 57.182813 478.6848 
L 1128.542812 478.6848 
L 1128.542812 7.2 
L 57.182813 7.2 
z
" style="fill:#ffffff;"/>
   </g>
   <g id="matplotlib.axis_1">
    <g id="xtick_1">
     <g id="line2d_1">
      <defs>
       <path d="M 0 0 
L 0 3.5 
" id="mf3b7473cba" style="stroke:#000000;stroke-width:0.8;"/>
      </defs>
      <g>
       <use style="stroke:#000000;stroke-width:0.8;" x="72.41866" xlink:href="#mf3b7473cba" y="478.6848"/>
      </g>
     </g>
     <g id="text_1">
      <!-- 1992 -->
      <defs>
       <path d="M 12.40625 8.296875 
L 28.515625 8.296875 
L 28.515625 63.921875 
L 10.984375 60.40625 
L 10.984375 69.390625 
L 28.421875 72.90625 
L 38.28125 72.90625 
L 38.28125 8.296875 
L 54.390625 8.296875 
L 54.390625 0 
L 12.40625 0 
z
" id="DejaVuSans-49"/>
       <path d="M 10.984375 1.515625 
L 10.984375 10.5 
Q 14.703125 8.734375 18.5 7.8125 
Q 22.3125 6.890625 25.984375 6.890625 
Q 35.75 6.890625 40.890625 13.453125 
Q 46.046875 20.015625 46.78125 33.40625 
Q 43.953125 29.203125 39.59375 26.953125 
Q 35.25 24.703125 29.984375 24.703125 
Q 19.046875 24.703125 12.671875 31.3125 
Q 6.296875 37.9375 6.296875 49.421875 
Q 6.296875 60.640625 12.9375 67.421875 
Q 19.578125 74.21875 30.609375 74.21875 
Q 43.265625 74.21875 49.921875 64.515625 
Q 56.59375 54.828125 56.59375 36.375 
Q 56.59375 19.140625 48.40625 8.859375 
Q 40.234375 -1.421875 26.421875 -1.421875 
Q 22.703125 -1.421875 18.890625 -0.6875 
Q 15.09375 0.046875 10.984375 1.515625 
z
M 30.609375 32.421875 
Q 37.25 32.421875 41.125 36.953125 
Q 45.015625 41.5 45.015625 49.421875 
Q 45.015625 57.28125 41.125 61.84375 
Q 37.25 66.40625 30.609375 66.40625 
Q 23.96875 66.40625 20.09375 61.84375 
Q 16.21875 57.28125 16.21875 49.421875 
Q 16.21875 41.5 20.09375 36.953125 
Q 23.96875 32.421875 30.609375 32.421875 
z
" id="DejaVuSans-57"/>
       <path d="M 19.1875 8.296875 
L 53.609375 8.296875 
L 53.609375 0 
L 7.328125 0 
L 7.328125 8.296875 
Q 12.9375 14.109375 22.625 23.890625 
Q 32.328125 33.6875 34.8125 36.53125 
Q 39.546875 41.84375 41.421875 45.53125 
Q 43.3125 49.21875 43.3125 52.78125 
Q 43.3125 58.59375 39.234375 62.25 
Q 35.15625 65.921875 28.609375 65.921875 
Q 23.96875 65.921875 18.8125 64.3125 
Q 13.671875 62.703125 7.8125 59.421875 
L 7.8125 69.390625 
Q 13.765625 71.78125 18.9375 73 
Q 24.125 74.21875 28.421875 74.21875 
Q 39.75 74.21875 46.484375 68.546875 
Q 53.21875 62.890625 53.21875 53.421875 
Q 53.21875 48.921875 51.53125 44.890625 
Q 49.859375 40.875 45.40625 35.40625 
Q 44.1875 33.984375 37.640625 27.21875 
Q 31.109375 20.453125 19.1875 8.296875 
z
" id="DejaVuSans-50"/>
      </defs>
      <g transform="translate(49.33847 504.99024)rotate(-30)scale(0.1 -0.1)">
       <use xlink:href="#DejaVuSans-49"/>
       <use x="63.623047" xlink:href="#DejaVuSans-57"/>
       <use x="127.246094" xlink:href="#DejaVuSans-57"/>
       <use x="190.869141" xlink:href="#DejaVuSans-50"/>
      </g>
     </g>
    </g>
    <g id="xtick_2">
     <g id="line2d_2">
      <g>
       <use style="stroke:#000000;stroke-width:0.8;" x="205.629751" xlink:href="#mf3b7473cba" y="478.6848"/>
      </g>
     </g>
     <g id="text_2">
      <!-- 1996 -->
      <defs>
       <path d="M 33.015625 40.375 
Q 26.375 40.375 22.484375 35.828125 
Q 18.609375 31.296875 18.609375 23.390625 
Q 18.609375 15.53125 22.484375 10.953125 
Q 26.375 6.390625 33.015625 6.390625 
Q 39.65625 6.390625 43.53125 10.953125 
Q 47.40625 15.53125 47.40625 23.390625 
Q 47.40625 31.296875 43.53125 35.828125 
Q 39.65625 40.375 33.015625 40.375 
z
M 52.59375 71.296875 
L 52.59375 62.3125 
Q 48.875 64.0625 45.09375 64.984375 
Q 41.3125 65.921875 37.59375 65.921875 
Q 27.828125 65.921875 22.671875 59.328125 
Q 17.53125 52.734375 16.796875 39.40625 
Q 19.671875 43.65625 24.015625 45.921875 
Q 28.375 48.1875 33.59375 48.1875 
Q 44.578125 48.1875 50.953125 41.515625 
Q 57.328125 34.859375 57.328125 23.390625 
Q 57.328125 12.15625 50.6875 5.359375 
Q 44.046875 -1.421875 33.015625 -1.421875 
Q 20.359375 -1.421875 13.671875 8.265625 
Q 6.984375 17.96875 6.984375 36.375 
Q 6.984375 53.65625 15.1875 63.9375 
Q 23.390625 74.21875 37.203125 74.21875 
Q 40.921875 74.21875 44.703125 73.484375 
Q 48.484375 72.75 52.59375 71.296875 
z
" id="DejaVuSans-54"/>
      </defs>
      <g transform="translate(182.549561 504.99024)rotate(-30)scale(0.1 -0.1)">
       <use xlink:href="#DejaVuSans-49"/>
       <use x="63.623047" xlink:href="#DejaVuSans-57"/>
       <use x="127.246094" xlink:href="#DejaVuSans-57"/>
       <use x="190.869141" xlink:href="#DejaVuSans-54"/>
      </g>
     </g>
    </g>
    <g id="xtick_3">
     <g id="line2d_3">
      <g>
       <use style="stroke:#000000;stroke-width:0.8;" x="338.840842" xlink:href="#mf3b7473cba" y="478.6848"/>
      </g>
     </g>
     <g id="text_3">
      <!-- 2000 -->
      <defs>
       <path d="M 31.78125 66.40625 
Q 24.171875 66.40625 20.328125 58.90625 
Q 16.5 51.421875 16.5 36.375 
Q 16.5 21.390625 20.328125 13.890625 
Q 24.171875 6.390625 31.78125 6.390625 
Q 39.453125 6.390625 43.28125 13.890625 
Q 47.125 21.390625 47.125 36.375 
Q 47.125 51.421875 43.28125 58.90625 
Q 39.453125 66.40625 31.78125 66.40625 
z
M 31.78125 74.21875 
Q 44.046875 74.21875 50.515625 64.515625 
Q 56.984375 54.828125 56.984375 36.375 
Q 56.984375 17.96875 50.515625 8.265625 
Q 44.046875 -1.421875 31.78125 -1.421875 
Q 19.53125 -1.421875 13.0625 8.265625 
Q 6.59375 17.96875 6.59375 36.375 
Q 6.59375 54.828125 13.0625 64.515625 
Q 19.53125 74.21875 31.78125 74.21875 
z
" id="DejaVuSans-48"/>
      </defs>
      <g transform="translate(315.760652 504.99024)rotate(-30)scale(0.1 -0.1)">
       <use xlink:href="#DejaVuSans-50"/>
       <use x="63.623047" xlink:href="#DejaVuSans-48"/>
       <use x="127.246094" xlink:href="#DejaVuSans-48"/>
       <use x="190.869141" xlink:href="#DejaVuSans-48"/>
      </g>
     </g>
    </g>
    <g id="xtick_4">
     <g id="line2d_4">
      <g>
       <use style="stroke:#000000;stroke-width:0.8;" x="472.051933" xlink:href="#mf3b7473cba" y="478.6848"/>
      </g>
     </g>
     <g id="text_4">
      <!-- 2004 -->
      <defs>
       <path d="M 37.796875 64.3125 
L 12.890625 25.390625 
L 37.796875 25.390625 
z
M 35.203125 72.90625 
L 47.609375 72.90625 
L 47.609375 25.390625 
L 58.015625 25.390625 
L 58.015625 17.1875 
L 47.609375 17.1875 
L 47.609375 0 
L 37.796875 0 
L 37.796875 17.1875 
L 4.890625 17.1875 
L 4.890625 26.703125 
z
" id="DejaVuSans-52"/>
      </defs>
      <g transform="translate(448.971742 504.99024)rotate(-30)scale(0.1 -0.1)">
       <use xlink:href="#DejaVuSans-50"/>
       <use x="63.623047" xlink:href="#DejaVuSans-48"/>
       <use x="127.246094" xlink:href="#DejaVuSans-48"/>
       <use x="190.869141" xlink:href="#DejaVuSans-52"/>
      </g>
     </g>
    </g>
    <g id="xtick_5">
     <g id="line2d_5">
      <g>
       <use style="stroke:#000000;stroke-width:0.8;" x="605.263024" xlink:href="#mf3b7473cba" y="478.6848"/>
      </g>
     </g>
     <g id="text_5">
      <!-- 2008 -->
      <defs>
       <path d="M 31.78125 34.625 
Q 24.75 34.625 20.71875 30.859375 
Q 16.703125 27.09375 16.703125 20.515625 
Q 16.703125 13.921875 20.71875 10.15625 
Q 24.75 6.390625 31.78125 6.390625 
Q 38.8125 6.390625 42.859375 10.171875 
Q 46.921875 13.96875 46.921875 20.515625 
Q 46.921875 27.09375 42.890625 30.859375 
Q 38.875 34.625 31.78125 34.625 
z
M 21.921875 38.8125 
Q 15.578125 40.375 12.03125 44.71875 
Q 8.5 49.078125 8.5 55.328125 
Q 8.5 64.0625 14.71875 69.140625 
Q 20.953125 74.21875 31.78125 74.21875 
Q 42.671875 74.21875 48.875 69.140625 
Q 55.078125 64.0625 55.078125 55.328125 
Q 55.078125 49.078125 51.53125 44.71875 
Q 48 40.375 41.703125 38.8125 
Q 48.828125 37.15625 52.796875 32.3125 
Q 56.78125 27.484375 56.78125 20.515625 
Q 56.78125 9.90625 50.3125 4.234375 
Q 43.84375 -1.421875 31.78125 -1.421875 
Q 19.734375 -1.421875 13.25 4.234375 
Q 6.78125 9.90625 6.78125 20.515625 
Q 6.78125 27.484375 10.78125 32.3125 
Q 14.796875 37.15625 21.921875 38.8125 
z
M 18.3125 54.390625 
Q 18.3125 48.734375 21.84375 45.5625 
Q 25.390625 42.390625 31.78125 42.390625 
Q 38.140625 42.390625 41.71875 45.5625 
Q 45.3125 48.734375 45.3125 54.390625 
Q 45.3125 60.0625 41.71875 63.234375 
Q 38.140625 66.40625 31.78125 66.40625 
Q 25.390625 66.40625 21.84375 63.234375 
Q 18.3125 60.0625 18.3125 54.390625 
z
" id="DejaVuSans-56"/>
      </defs>
      <g transform="translate(582.182833 504.99024)rotate(-30)scale(0.1 -0.1)">
       <use xlink:href="#DejaVuSans-50"/>
       <use x="63.623047" xlink:href="#DejaVuSans-48"/>
       <use x="127.246094" xlink:href="#DejaVuSans-48"/>
       <use x="190.869141" xlink:href="#DejaVuSans-56"/>
      </g>
     </g>
    </g>
    <g id="xtick_6">
     <g id="line2d_6">
      <g>
       <use style="stroke:#000000;stroke-width:0.8;" x="738.474114" xlink:href="#mf3b7473cba" y="478.6848"/>
      </g>
     </g>
     <g id="text_6">
      <!-- 2012 -->
      <g transform="translate(715.393924 504.99024)rotate(-30)scale(0.1 -0.1)">
       <use xlink:href="#DejaVuSans-50"/>
       <use x="63.623047" xlink:href="#DejaVuSans-48"/>
       <use x="127.246094" xlink:href="#DejaVuSans-49"/>
       <use x="190.869141" xlink:href="#DejaVuSans-50"/>
      </g>
     </g>
    </g>
    <g id="xtick_7">
     <g id="line2d_7">
      <g>
       <use style="stroke:#000000;stroke-width:0.8;" x="871.685205" xlink:href="#mf3b7473cba" y="478.6848"/>
      </g>
     </g>
     <g id="text_7">
      <!-- 2016 -->
      <g transform="translate(848.605015 504.99024)rotate(-30)scale(0.1 -0.1)">
       <use xlink:href="#DejaVuSans-50"/>
       <use x="63.623047" xlink:href="#DejaVuSans-48"/>
       <use x="127.246094" xlink:href="#DejaVuSans-49"/>
       <use x="190.869141" xlink:href="#DejaVuSans-54"/>
      </g>
     </g>
    </g>
    <g id="xtick_8">
     <g id="line2d_8">
      <g>
       <use style="stroke:#000000;stroke-width:0.8;" x="1004.896296" xlink:href="#mf3b7473cba" y="478.6848"/>
      </g>
     </g>
     <g id="text_8">
      <!-- 2020 -->
      <g transform="translate(981.816106 504.99024)rotate(-30)scale(0.1 -0.1)">
       <use xlink:href="#DejaVuSans-50"/>
       <use x="63.623047" xlink:href="#DejaVuSans-48"/>
       <use x="127.246094" xlink:href="#DejaVuSans-50"/>
       <use x="190.869141" xlink:href="#DejaVuSans-48"/>
      </g>
     </g>
    </g>
   </g>
   <g id="matplotlib.axis_2">
    <g id="ytick_1">
     <g id="line2d_9">
      <defs>
       <path d="M 0 0 
L -3.5 0 
" id="m52d5df8c0d" style="stroke:#000000;stroke-width:0.8;"/>
      </defs>
      <g>
       <use style="stroke:#000000;stroke-width:0.8;" x="57.182813" xlink:href="#m52d5df8c0d" y="426.910262"/>
      </g>
     </g>
     <g id="text_9">
      <!-- −5.0 -->
      <defs>
       <path d="M 10.59375 35.5 
L 73.1875 35.5 
L 73.1875 27.203125 
L 10.59375 27.203125 
z
" id="DejaVuSans-8722"/>
       <path d="M 10.796875 72.90625 
L 49.515625 72.90625 
L 49.515625 64.59375 
L 19.828125 64.59375 
L 19.828125 46.734375 
Q 21.96875 47.46875 24.109375 47.828125 
Q 26.265625 48.1875 28.421875 48.1875 
Q 40.625 48.1875 47.75 41.5 
Q 54.890625 34.8125 54.890625 23.390625 
Q 54.890625 11.625 47.5625 5.09375 
Q 40.234375 -1.421875 26.90625 -1.421875 
Q 22.3125 -1.421875 17.546875 -0.640625 
Q 12.796875 0.140625 7.71875 1.703125 
L 7.71875 11.625 
Q 12.109375 9.234375 16.796875 8.0625 
Q 21.484375 6.890625 26.703125 6.890625 
Q 35.15625 6.890625 40.078125 11.328125 
Q 45.015625 15.765625 45.015625 23.390625 
Q 45.015625 31 40.078125 35.4375 
Q 35.15625 39.890625 26.703125 39.890625 
Q 22.75 39.890625 18.8125 39.015625 
Q 14.890625 38.140625 10.796875 36.28125 
z
" id="DejaVuSans-53"/>
       <path d="M 10.6875 12.40625 
L 21 12.40625 
L 21 0 
L 10.6875 0 
z
" id="DejaVuSans-46"/>
      </defs>
      <g transform="translate(25.9 430.709481)scale(0.1 -0.1)">
       <use xlink:href="#DejaVuSans-8722"/>
       <use x="83.789062" xlink:href="#DejaVuSans-53"/>
       <use x="147.412109" xlink:href="#DejaVuSans-46"/>
       <use x="179.199219" xlink:href="#DejaVuSans-48"/>
      </g>
     </g>
    </g>
    <g id="ytick_2">
     <g id="line2d_10">
      <g>
       <use style="stroke:#000000;stroke-width:0.8;" x="57.182813" xlink:href="#m52d5df8c0d" y="362.451801"/>
      </g>
     </g>
     <g id="text_10">
      <!-- −2.5 -->
      <g transform="translate(25.9 366.25102)scale(0.1 -0.1)">
       <use xlink:href="#DejaVuSans-8722"/>
       <use x="83.789062" xlink:href="#DejaVuSans-50"/>
       <use x="147.412109" xlink:href="#DejaVuSans-46"/>
       <use x="179.199219" xlink:href="#DejaVuSans-53"/>
      </g>
     </g>
    </g>
    <g id="ytick_3">
     <g id="line2d_11">
      <g>
       <use style="stroke:#000000;stroke-width:0.8;" x="57.182813" xlink:href="#m52d5df8c0d" y="297.993339"/>
      </g>
     </g>
     <g id="text_11">
      <!-- 0.0 -->
      <g transform="translate(34.279688 301.792558)scale(0.1 -0.1)">
       <use xlink:href="#DejaVuSans-48"/>
       <use x="63.623047" xlink:href="#DejaVuSans-46"/>
       <use x="95.410156" xlink:href="#DejaVuSans-48"/>
      </g>
     </g>
    </g>
    <g id="ytick_4">
     <g id="line2d_12">
      <g>
       <use style="stroke:#000000;stroke-width:0.8;" x="57.182813" xlink:href="#m52d5df8c0d" y="233.534878"/>
      </g>
     </g>
     <g id="text_12">
      <!-- 2.5 -->
      <g transform="translate(34.279688 237.334097)scale(0.1 -0.1)">
       <use xlink:href="#DejaVuSans-50"/>
       <use x="63.623047" xlink:href="#DejaVuSans-46"/>
       <use x="95.410156" xlink:href="#DejaVuSans-53"/>
      </g>
     </g>
    </g>
    <g id="ytick_5">
     <g id="line2d_13">
      <g>
       <use style="stroke:#000000;stroke-width:0.8;" x="57.182813" xlink:href="#m52d5df8c0d" y="169.076416"/>
      </g>
     </g>
     <g id="text_13">
      <!-- 5.0 -->
      <g transform="translate(34.279688 172.875635)scale(0.1 -0.1)">
       <use xlink:href="#DejaVuSans-53"/>
       <use x="63.623047" xlink:href="#DejaVuSans-46"/>
       <use x="95.410156" xlink:href="#DejaVuSans-48"/>
      </g>
     </g>
    </g>
    <g id="ytick_6">
     <g id="line2d_14">
      <g>
       <use style="stroke:#000000;stroke-width:0.8;" x="57.182813" xlink:href="#m52d5df8c0d" y="104.617955"/>
      </g>
     </g>
     <g id="text_14">
      <!-- 7.5 -->
      <defs>
       <path d="M 8.203125 72.90625 
L 55.078125 72.90625 
L 55.078125 68.703125 
L 28.609375 0 
L 18.3125 0 
L 43.21875 64.59375 
L 8.203125 64.59375 
z
" id="DejaVuSans-55"/>
      </defs>
      <g transform="translate(34.279688 108.417174)scale(0.1 -0.1)">
       <use xlink:href="#DejaVuSans-55"/>
       <use x="63.623047" xlink:href="#DejaVuSans-46"/>
       <use x="95.410156" xlink:href="#DejaVuSans-53"/>
      </g>
     </g>
    </g>
    <g id="ytick_7">
     <g id="line2d_15">
      <g>
       <use style="stroke:#000000;stroke-width:0.8;" x="57.182813" xlink:href="#m52d5df8c0d" y="40.159493"/>
      </g>
     </g>
     <g id="text_15">
      <!-- 10.0 -->
      <g transform="translate(27.917188 43.958712)scale(0.1 -0.1)">
       <use xlink:href="#DejaVuSans-49"/>
       <use x="63.623047" xlink:href="#DejaVuSans-48"/>
       <use x="127.246094" xlink:href="#DejaVuSans-46"/>
       <use x="159.033203" xlink:href="#DejaVuSans-48"/>
      </g>
     </g>
    </g>
    <g id="text_16">
     <!-- Balance ($m^3/s$) -->
     <defs>
      <path d="M 19.671875 34.8125 
L 19.671875 8.109375 
L 35.5 8.109375 
Q 43.453125 8.109375 47.28125 11.40625 
Q 51.125 14.703125 51.125 21.484375 
Q 51.125 28.328125 47.28125 31.5625 
Q 43.453125 34.8125 35.5 34.8125 
z
M 19.671875 64.796875 
L 19.671875 42.828125 
L 34.28125 42.828125 
Q 41.5 42.828125 45.03125 45.53125 
Q 48.578125 48.25 48.578125 53.8125 
Q 48.578125 59.328125 45.03125 62.0625 
Q 41.5 64.796875 34.28125 64.796875 
z
M 9.8125 72.90625 
L 35.015625 72.90625 
Q 46.296875 72.90625 52.390625 68.21875 
Q 58.5 63.53125 58.5 54.890625 
Q 58.5 48.1875 55.375 44.234375 
Q 52.25 40.28125 46.1875 39.3125 
Q 53.46875 37.75 57.5 32.78125 
Q 61.53125 27.828125 61.53125 20.40625 
Q 61.53125 10.640625 54.890625 5.3125 
Q 48.25 0 35.984375 0 
L 9.8125 0 
z
" id="DejaVuSans-66"/>
      <path d="M 34.28125 27.484375 
Q 23.390625 27.484375 19.1875 25 
Q 14.984375 22.515625 14.984375 16.5 
Q 14.984375 11.71875 18.140625 8.90625 
Q 21.296875 6.109375 26.703125 6.109375 
Q 34.1875 6.109375 38.703125 11.40625 
Q 43.21875 16.703125 43.21875 25.484375 
L 43.21875 27.484375 
z
M 52.203125 31.203125 
L 52.203125 0 
L 43.21875 0 
L 43.21875 8.296875 
Q 40.140625 3.328125 35.546875 0.953125 
Q 30.953125 -1.421875 24.3125 -1.421875 
Q 15.921875 -1.421875 10.953125 3.296875 
Q 6 8.015625 6 15.921875 
Q 6 25.140625 12.171875 29.828125 
Q 18.359375 34.515625 30.609375 34.515625 
L 43.21875 34.515625 
L 43.21875 35.40625 
Q 43.21875 41.609375 39.140625 45 
Q 35.0625 48.390625 27.6875 48.390625 
Q 23 48.390625 18.546875 47.265625 
Q 14.109375 46.140625 10.015625 43.890625 
L 10.015625 52.203125 
Q 14.9375 54.109375 19.578125 55.046875 
Q 24.21875 56 28.609375 56 
Q 40.484375 56 46.34375 49.84375 
Q 52.203125 43.703125 52.203125 31.203125 
z
" id="DejaVuSans-97"/>
      <path d="M 9.421875 75.984375 
L 18.40625 75.984375 
L 18.40625 0 
L 9.421875 0 
z
" id="DejaVuSans-108"/>
      <path d="M 54.890625 33.015625 
L 54.890625 0 
L 45.90625 0 
L 45.90625 32.71875 
Q 45.90625 40.484375 42.875 44.328125 
Q 39.84375 48.1875 33.796875 48.1875 
Q 26.515625 48.1875 22.3125 43.546875 
Q 18.109375 38.921875 18.109375 30.90625 
L 18.109375 0 
L 9.078125 0 
L 9.078125 54.6875 
L 18.109375 54.6875 
L 18.109375 46.1875 
Q 21.34375 51.125 25.703125 53.5625 
Q 30.078125 56 35.796875 56 
Q 45.21875 56 50.046875 50.171875 
Q 54.890625 44.34375 54.890625 33.015625 
z
" id="DejaVuSans-110"/>
      <path d="M 48.78125 52.59375 
L 48.78125 44.1875 
Q 44.96875 46.296875 41.140625 47.34375 
Q 37.3125 48.390625 33.40625 48.390625 
Q 24.65625 48.390625 19.8125 42.84375 
Q 14.984375 37.3125 14.984375 27.296875 
Q 14.984375 17.28125 19.8125 11.734375 
Q 24.65625 6.203125 33.40625 6.203125 
Q 37.3125 6.203125 41.140625 7.25 
Q 44.96875 8.296875 48.78125 10.40625 
L 48.78125 2.09375 
Q 45.015625 0.34375 40.984375 -0.53125 
Q 36.96875 -1.421875 32.421875 -1.421875 
Q 20.0625 -1.421875 12.78125 6.34375 
Q 5.515625 14.109375 5.515625 27.296875 
Q 5.515625 40.671875 12.859375 48.328125 
Q 20.21875 56 33.015625 56 
Q 37.15625 56 41.109375 55.140625 
Q 45.0625 54.296875 48.78125 52.59375 
z
" id="DejaVuSans-99"/>
      <path d="M 56.203125 29.59375 
L 56.203125 25.203125 
L 14.890625 25.203125 
Q 15.484375 15.921875 20.484375 11.0625 
Q 25.484375 6.203125 34.421875 6.203125 
Q 39.59375 6.203125 44.453125 7.46875 
Q 49.3125 8.734375 54.109375 11.28125 
L 54.109375 2.78125 
Q 49.265625 0.734375 44.1875 -0.34375 
Q 39.109375 -1.421875 33.890625 -1.421875 
Q 20.796875 -1.421875 13.15625 6.1875 
Q 5.515625 13.8125 5.515625 26.8125 
Q 5.515625 40.234375 12.765625 48.109375 
Q 20.015625 56 32.328125 56 
Q 43.359375 56 49.78125 48.890625 
Q 56.203125 41.796875 56.203125 29.59375 
z
M 47.21875 32.234375 
Q 47.125 39.59375 43.09375 43.984375 
Q 39.0625 48.390625 32.421875 48.390625 
Q 24.90625 48.390625 20.390625 44.140625 
Q 15.875 39.890625 15.1875 32.171875 
z
" id="DejaVuSans-101"/>
      <path id="DejaVuSans-32"/>
      <path d="M 31 75.875 
Q 24.46875 64.65625 21.28125 53.65625 
Q 18.109375 42.671875 18.109375 31.390625 
Q 18.109375 20.125 21.3125 9.0625 
Q 24.515625 -2 31 -13.1875 
L 23.1875 -13.1875 
Q 15.875 -1.703125 12.234375 9.375 
Q 8.59375 20.453125 8.59375 31.390625 
Q 8.59375 42.28125 12.203125 53.3125 
Q 15.828125 64.359375 23.1875 75.875 
z
" id="DejaVuSans-40"/>
      <path d="M 89.796875 33.015625 
L 83.40625 0 
L 74.421875 0 
L 80.71875 32.71875 
Q 81.109375 34.8125 81.296875 36.328125 
Q 81.5 37.84375 81.5 38.921875 
Q 81.5 43.3125 79.046875 45.75 
Q 76.609375 48.1875 72.21875 48.1875 
Q 65.671875 48.1875 60.546875 43.28125 
Q 55.421875 38.375 53.90625 30.515625 
L 47.90625 0 
L 38.921875 0 
L 45.3125 32.71875 
Q 45.703125 34.515625 45.890625 36.046875 
Q 46.09375 37.59375 46.09375 38.8125 
Q 46.09375 43.265625 43.65625 45.71875 
Q 41.21875 48.1875 36.921875 48.1875 
Q 30.28125 48.1875 25.140625 43.28125 
Q 20.015625 38.375 18.5 30.515625 
L 12.5 0 
L 3.515625 0 
L 14.203125 54.6875 
L 23.1875 54.6875 
L 21.484375 46.1875 
Q 25.140625 50.984375 30.046875 53.484375 
Q 34.96875 56 40.578125 56 
Q 46.53125 56 50.359375 52.875 
Q 54.203125 49.75 54.984375 44.1875 
Q 59.078125 49.953125 64.46875 52.96875 
Q 69.875 56 75.875 56 
Q 82.90625 56 86.734375 51.953125 
Q 90.578125 47.90625 90.578125 40.484375 
Q 90.578125 38.875 90.375 36.9375 
Q 90.1875 35.015625 89.796875 33.015625 
z
" id="DejaVuSans-Oblique-109"/>
      <path d="M 40.578125 39.3125 
Q 47.65625 37.796875 51.625 33 
Q 55.609375 28.21875 55.609375 21.1875 
Q 55.609375 10.40625 48.1875 4.484375 
Q 40.765625 -1.421875 27.09375 -1.421875 
Q 22.515625 -1.421875 17.65625 -0.515625 
Q 12.796875 0.390625 7.625 2.203125 
L 7.625 11.71875 
Q 11.71875 9.328125 16.59375 8.109375 
Q 21.484375 6.890625 26.8125 6.890625 
Q 36.078125 6.890625 40.9375 10.546875 
Q 45.796875 14.203125 45.796875 21.1875 
Q 45.796875 27.640625 41.28125 31.265625 
Q 36.765625 34.90625 28.71875 34.90625 
L 20.21875 34.90625 
L 20.21875 43.015625 
L 29.109375 43.015625 
Q 36.375 43.015625 40.234375 45.921875 
Q 44.09375 48.828125 44.09375 54.296875 
Q 44.09375 59.90625 40.109375 62.90625 
Q 36.140625 65.921875 28.71875 65.921875 
Q 24.65625 65.921875 20.015625 65.03125 
Q 15.375 64.15625 9.8125 62.3125 
L 9.8125 71.09375 
Q 15.4375 72.65625 20.34375 73.4375 
Q 25.25 74.21875 29.59375 74.21875 
Q 40.828125 74.21875 47.359375 69.109375 
Q 53.90625 64.015625 53.90625 55.328125 
Q 53.90625 49.265625 50.4375 45.09375 
Q 46.96875 40.921875 40.578125 39.3125 
z
" id="DejaVuSans-51"/>
      <path d="M 25.390625 72.90625 
L 33.6875 72.90625 
L 8.296875 -9.28125 
L 0 -9.28125 
z
" id="DejaVuSans-47"/>
      <path d="M 50 53.078125 
L 48.296875 44.578125 
Q 44.734375 46.53125 40.765625 47.5 
Q 36.8125 48.484375 32.625 48.484375 
Q 25.53125 48.484375 21.453125 46.0625 
Q 17.390625 43.65625 17.390625 39.5 
Q 17.390625 34.671875 26.859375 32.078125 
Q 27.59375 31.890625 27.9375 31.78125 
L 30.8125 30.90625 
Q 39.796875 28.421875 42.796875 25.6875 
Q 45.796875 22.953125 45.796875 18.21875 
Q 45.796875 9.515625 38.890625 4.046875 
Q 31.984375 -1.421875 20.796875 -1.421875 
Q 16.453125 -1.421875 11.671875 -0.578125 
Q 6.890625 0.25 1.125 2 
L 2.875 11.28125 
Q 7.8125 8.734375 12.59375 7.421875 
Q 17.390625 6.109375 21.78125 6.109375 
Q 28.375 6.109375 32.5 8.9375 
Q 36.625 11.765625 36.625 16.109375 
Q 36.625 20.796875 25.78125 23.6875 
L 24.859375 23.921875 
L 21.78125 24.703125 
Q 14.9375 26.515625 11.765625 29.46875 
Q 8.59375 32.421875 8.59375 37.015625 
Q 8.59375 45.75 15.15625 50.875 
Q 21.734375 56 33.015625 56 
Q 37.453125 56 41.671875 55.265625 
Q 45.90625 54.546875 50 53.078125 
z
" id="DejaVuSans-Oblique-115"/>
      <path d="M 8.015625 75.875 
L 15.828125 75.875 
Q 23.140625 64.359375 26.78125 53.3125 
Q 30.421875 42.28125 30.421875 31.390625 
Q 30.421875 20.453125 26.78125 9.375 
Q 23.140625 -1.703125 15.828125 -13.1875 
L 8.015625 -13.1875 
Q 14.5 -2 17.703125 9.0625 
Q 20.90625 20.125 20.90625 31.390625 
Q 20.90625 42.671875 17.703125 53.65625 
Q 14.5 64.65625 8.015625 75.875 
z
" id="DejaVuSans-41"/>
     </defs>
     <g transform="translate(18.988438 295.0224)rotate(-90)scale(0.14 -0.14)">
      <use transform="translate(0 0.765625)" xlink:href="#DejaVuSans-66"/>
      <use transform="translate(68.603516 0.765625)" xlink:href="#DejaVuSans-97"/>
      <use transform="translate(129.882812 0.765625)" xlink:href="#DejaVuSans-108"/>
      <use transform="translate(157.666016 0.765625)" xlink:href="#DejaVuSans-97"/>
      <use transform="translate(218.945312 0.765625)" xlink:href="#DejaVuSans-110"/>
      <use transform="translate(282.324219 0.765625)" xlink:href="#DejaVuSans-99"/>
      <use transform="translate(337.304688 0.765625)" xlink:href="#DejaVuSans-101"/>
      <use transform="translate(398.828125 0.765625)" xlink:href="#DejaVuSans-32"/>
      <use transform="translate(430.615234 0.765625)" xlink:href="#DejaVuSans-40"/>
      <use transform="translate(469.628906 0.765625)" xlink:href="#DejaVuSans-Oblique-109"/>
      <use transform="translate(571.690911 39.046875)scale(0.7)" xlink:href="#DejaVuSans-51"/>
      <use transform="translate(618.961419 0.765625)" xlink:href="#DejaVuSans-47"/>
      <use transform="translate(652.652826 0.765625)" xlink:href="#DejaVuSans-Oblique-115"/>
      <use transform="translate(704.752435 0.765625)" xlink:href="#DejaVuSans-41"/>
     </g>
    </g>
   </g>
   <g id="line2d_16">
    <path clip-path="url(#pe773a9bbbd)" d="M 105.880994 297.993339 
L 108.707513 296.120954 
L 122.384216 296.120986 
L 125.210735 295.929726 
L 128.037254 294.748479 
L 130.772594 291.288846 
L 136.334454 282.851854 
L 139.160973 281.734145 
L 141.987491 240.453923 
L 144.540476 248.056804 
L 147.366995 252.640139 
L 150.102335 254.984657 
L 152.928854 258.292238 
L 155.664195 260.543136 
L 158.490713 261.904085 
L 161.317232 262.961469 
L 164.052573 262.898847 
L 166.879091 257.620287 
L 169.614432 253.006565 
L 172.440951 251.800958 
L 177.820454 257.50403 
L 180.646973 256.281166 
L 183.382313 256.173516 
L 186.208832 258.861691 
L 188.944173 260.440389 
L 191.770692 261.135908 
L 194.59721 261.636321 
L 197.332551 261.369927 
L 200.15907 259.399871 
L 202.89441 255.728266 
L 205.720929 254.159571 
L 208.547448 242.025704 
L 211.19161 242.632436 
L 214.018129 241.885652 
L 216.75347 243.224518 
L 222.315329 248.803033 
L 225.141848 250.459952 
L 227.968366 251.317547 
L 230.703707 251.227392 
L 233.530226 249.792958 
L 236.265566 246.615171 
L 239.092085 244.491739 
L 241.918604 284.238859 
L 244.471589 286.153642 
L 247.298107 286.975357 
L 250.033448 287.409772 
L 255.595307 287.992015 
L 263.983685 288.524711 
L 272.372063 288.896744 
L 275.198582 295.842225 
L 277.751567 295.638203 
L 280.578085 294.699184 
L 283.313426 296.666563 
L 288.875285 297.052278 
L 294.528323 297.312361 
L 297.263664 295.506293 
L 300.090182 293.456221 
L 305.652042 293.515077 
L 308.47856 209.262527 
L 311.031545 219.825392 
L 313.858064 225.585421 
L 316.593404 229.812793 
L 319.419923 232.496609 
L 322.155264 234.31736 
L 324.981782 236.005189 
L 327.808301 237.265658 
L 330.543642 235.909452 
L 333.37016 232.912488 
L 336.105501 231.265529 
L 338.93202 230.179037 
L 341.758539 259.007967 
L 344.402701 262.862622 
L 347.22922 264.765662 
L 349.964561 269.910752 
L 352.791079 272.752326 
L 355.52642 274.495719 
L 358.352939 275.732917 
L 361.179457 276.483307 
L 363.914798 274.868295 
L 366.741317 269.162901 
L 369.476657 264.769992 
L 372.303176 266.074676 
L 375.129695 248.35429 
L 377.682679 255.168292 
L 380.509198 258.106118 
L 383.244539 259.219507 
L 386.071057 259.843092 
L 388.806398 260.225201 
L 391.632917 260.500938 
L 394.459436 260.363707 
L 397.194776 257.756446 
L 400.021295 252.556018 
L 402.756636 248.334683 
L 405.583154 247.324368 
L 408.409673 277.698044 
L 410.962658 282.883415 
L 413.789176 285.074836 
L 416.524517 285.741703 
L 419.351036 286.02492 
L 427.739414 286.429241 
L 430.474754 286.519153 
L 433.301273 285.646506 
L 436.036614 286.668209 
L 438.863132 286.730678 
L 441.689651 294.598557 
L 444.242636 294.898215 
L 447.069155 294.976303 
L 449.804495 295.306353 
L 452.631014 295.4478 
L 455.366355 295.315887 
L 461.019392 294.608592 
L 463.754733 291.771663 
L 466.581251 288.318047 
L 469.316592 287.780211 
L 472.143111 289.201371 
L 474.969629 243.948211 
L 477.613792 251.883009 
L 480.440311 254.347235 
L 483.175651 254.6791 
L 486.00217 256.339143 
L 488.737511 257.241794 
L 494.390548 258.626285 
L 497.125889 256.477819 
L 499.952408 250.933967 
L 502.687748 246.265177 
L 505.514267 244.776389 
L 508.340786 232.167276 
L 510.89377 237.037167 
L 513.720289 239.794888 
L 516.45563 243.755321 
L 519.282148 248.535981 
L 522.017489 250.339955 
L 524.844008 251.470207 
L 527.670526 252.360735 
L 530.405867 251.193899 
L 533.232386 245.916167 
L 535.967726 242.516794 
L 538.794245 246.00033 
L 541.620764 250.941791 
L 544.173748 252.434072 
L 547.000267 253.257321 
L 555.297467 254.053446 
L 558.123986 254.238316 
L 560.950505 253.885152 
L 563.685845 248.516621 
L 566.512364 241.319081 
L 569.247705 236.822409 
L 572.074223 235.102523 
L 574.900742 237.423415 
L 577.453727 242.837935 
L 580.280245 238.837864 
L 583.015586 242.631741 
L 585.842105 248.207944 
L 588.577445 252.938376 
L 591.403964 255.453189 
L 594.230483 254.62627 
L 596.965824 252.786952 
L 599.792342 250.549725 
L 602.527683 250.531652 
L 605.354202 250.941404 
L 608.18072 242.073302 
L 610.824883 247.067089 
L 613.651402 247.089004 
L 616.386742 249.261264 
L 619.213261 250.153914 
L 621.948602 251.24858 
L 624.77512 249.548497 
L 627.601639 248.903698 
L 630.33698 245.364885 
L 633.163498 240.837979 
L 635.898839 234.979094 
L 638.725358 228.0953 
L 641.551877 219.193057 
L 644.104861 227.122739 
L 646.93138 225.092638 
L 649.666721 231.43116 
L 652.493239 236.691981 
L 655.22858 242.228433 
L 658.055099 241.858925 
L 660.881617 244.919252 
L 663.616958 245.160701 
L 666.443477 240.451195 
L 669.178817 239.694983 
L 672.005336 234.636542 
L 674.831855 228.625525 
L 677.384839 232.261581 
L 680.211358 231.21539 
L 682.946699 231.85319 
L 685.773217 233.876642 
L 688.508558 237.460465 
L 691.335077 240.352409 
L 694.161595 237.312044 
L 696.896936 237.285163 
L 699.723455 231.46823 
L 702.458796 229.772395 
L 705.285314 226.271863 
L 708.111833 221.461026 
L 710.664818 227.721726 
L 713.491336 233.822889 
L 716.226677 238.093085 
L 719.053196 237.514321 
L 721.788536 238.104915 
L 724.615055 237.96186 
L 727.441574 239.626333 
L 730.176914 237.443045 
L 733.003433 231.612054 
L 735.738774 230.662177 
L 738.565292 227.039713 
L 741.391811 227.51087 
L 744.035974 227.526294 
L 746.862493 230.014324 
L 749.597833 229.789862 
L 752.424352 232.143197 
L 755.159693 231.65503 
L 757.986211 233.913441 
L 760.81273 234.666584 
L 763.548071 232.603573 
L 766.374589 229.696265 
L 769.10993 222.782303 
L 771.936449 222.827578 
L 774.762967 221.176609 
L 777.315952 222.275289 
L 780.142471 224.979551 
L 782.877811 230.058201 
L 785.70433 231.300556 
L 788.439671 234.675285 
L 791.266189 237.838361 
L 794.092708 236.887967 
L 796.828049 234.965824 
L 799.654568 231.879782 
L 802.389908 224.539463 
L 805.216427 218.972935 
L 808.042946 230.849985 
L 810.59593 232.158971 
L 813.422449 237.795328 
L 816.15779 242.19459 
L 818.984308 242.408715 
L 821.719649 243.410143 
L 824.546168 245.29975 
L 827.372686 243.862388 
L 830.108027 242.192483 
L 832.934546 238.482041 
L 838.496405 227.886696 
L 841.322924 231.208293 
L 843.875908 236.214236 
L 846.702427 242.254064 
L 849.437768 247.786152 
L 852.264287 248.056254 
L 854.999627 248.132304 
L 857.826146 248.924839 
L 860.652665 247.171974 
L 863.388005 247.333577 
L 866.214524 247.992327 
L 868.949865 245.622122 
L 871.776383 239.205931 
L 874.602902 238.895757 
L 877.247065 239.57673 
L 880.073583 241.228623 
L 882.808924 245.379484 
L 885.635443 246.078353 
L 888.370783 247.818689 
L 891.197302 248.912632 
L 894.023821 241.616646 
L 896.759161 243.916164 
L 899.58568 246.769523 
L 902.321021 240.436675 
L 905.14754 246.583907 
L 907.974058 237.521613 
L 910.527043 239.721571 
L 913.353562 239.396951 
L 916.088902 235.332231 
L 918.915421 232.959582 
L 921.650762 245.483399 
L 924.47728 247.390603 
L 927.303799 244.068381 
L 930.03914 246.042263 
L 932.865658 246.486328 
L 935.600999 243.852172 
L 938.427518 246.04859 
L 941.254036 216.14275 
L 943.807021 226.540086 
L 946.63354 206.555748 
L 949.36888 229.296324 
L 952.195399 235.145225 
L 954.93074 237.685795 
L 957.757259 238.08099 
L 960.583777 239.457325 
L 963.319118 234.937339 
L 966.145637 227.160279 
L 968.880977 223.066775 
L 971.707496 223.060728 
L 974.534015 217.134508 
L 977.086999 224.053581 
L 979.913518 231.238391 
L 982.648859 233.355505 
L 985.475377 235.26857 
L 988.210718 235.976312 
L 991.037237 234.503956 
L 993.863755 231.508591 
L 996.599096 230.905822 
L 1002.160956 217.928637 
L 1004.987474 214.437063 
L 1007.813993 219.388614 
L 1013.284674 229.80233 
L 1016.020015 231.957506 
L 1018.846534 231.85015 
L 1021.581874 232.316331 
L 1024.408393 232.11508 
L 1027.234912 230.002396 
L 1029.970252 226.517243 
L 1032.796771 222.216463 
L 1035.532112 216.894747 
L 1038.35863 214.086281 
L 1043.738134 216.575103 
L 1046.564652 219.02666 
L 1049.299993 218.788214 
L 1052.126512 220.60095 
L 1054.861853 222.861995 
L 1060.51489 226.803352 
L 1063.250231 226.474018 
L 1066.076749 224.321869 
L 1068.81209 221.011849 
L 1074.465127 225.567543 
L 1077.018112 227.333087 
L 1079.844631 228.805131 
L 1079.844631 228.805131 
" style="fill:none;stroke:#1f77b4;stroke-linecap:square;stroke-width:1.5;"/>
   </g>
   <g id="line2d_17">
    <path clip-path="url(#pe773a9bbbd)" d="M 105.880994 289.132299 
L 139.160973 289.13234 
L 144.540476 288.96107 
L 161.317232 288.883388 
L 233.530226 288.687705 
L 239.092085 288.661923 
L 241.918604 289.098269 
L 247.298107 289.459281 
L 255.595307 289.654641 
L 275.198582 289.987966 
L 283.313426 290.179001 
L 305.652042 290.36805 
L 308.47856 290.021543 
L 313.858064 289.773242 
L 324.981782 289.639029 
L 344.402701 289.430223 
L 363.914798 289.316813 
L 377.682679 289.381738 
L 472.143111 289.94803 
L 477.613792 289.615758 
L 488.737511 289.447058 
L 538.794245 289.173141 
L 608.18072 289.124995 
L 619.213261 289.237315 
L 638.725358 289.286006 
L 644.104861 289.000058 
L 658.055099 288.802625 
L 680.211358 288.683912 
L 721.788536 288.724026 
L 766.374589 288.67698 
L 921.650762 288.585431 
L 954.93074 288.472953 
L 1079.844631 288.04627 
L 1079.844631 288.04627 
" style="fill:none;stroke:#ff7f0e;stroke-linecap:square;stroke-width:1.5;"/>
   </g>
   <g id="line2d_18">
    <path clip-path="url(#pe773a9bbbd)" d="M 105.880994 297.993339 
L 1079.844631 297.993339 
L 1079.844631 297.993339 
" style="fill:none;stroke:#2ca02c;stroke-linecap:square;stroke-width:1.5;"/>
   </g>
   <g id="line2d_19">
    <path clip-path="url(#pe773a9bbbd)" d="M 105.880994 297.993339 
L 1079.844631 297.993339 
L 1079.844631 297.993339 
" style="fill:none;stroke:#d62728;stroke-linecap:square;stroke-width:1.5;"/>
   </g>
   <g id="line2d_20">
    <path clip-path="url(#pe773a9bbbd)" d="M 105.880994 170.431005 
L 108.707513 170.431005 
L 111.260498 136.878538 
L 114.087016 134.810888 
L 116.822357 131.239486 
L 119.648876 125.224463 
L 122.384216 123.407447 
L 125.210735 126.540248 
L 128.037254 132.429953 
L 130.772594 145.932397 
L 133.599113 160.687948 
L 136.334454 171.668454 
L 139.160973 177.620809 
L 141.987491 199.922644 
L 144.540476 196.398224 
L 147.366995 194.737841 
L 150.102335 194.424557 
L 152.928854 192.168931 
L 155.664195 189.020454 
L 158.490713 185.997285 
L 161.317232 182.61385 
L 164.052573 185.777984 
L 166.879091 193.187098 
L 169.614432 199.593702 
L 172.440951 202.914488 
L 175.267469 193.426626 
L 177.820454 192.157833 
L 180.646973 195.196669 
L 183.382313 196.152178 
L 186.208832 193.880885 
L 188.944173 191.405958 
L 191.770692 190.168499 
L 194.59721 188.790065 
L 197.332551 190.826391 
L 200.15907 193.630259 
L 202.89441 198.016205 
L 205.720929 200.741757 
L 208.547448 206.671264 
L 211.19161 207.485807 
L 214.018129 209.616116 
L 216.75347 209.396816 
L 219.579988 207.501474 
L 222.315329 204.650605 
L 225.141848 203.225179 
L 227.968366 202.849237 
L 230.703707 203.757754 
L 233.530226 205.40248 
L 236.265566 208.864241 
L 239.092085 211.440985 
L 241.918604 164.414779 
L 244.471589 160.671068 
L 247.298107 158.117825 
L 250.033448 159.527593 
L 252.859967 160.796376 
L 255.595307 157.694891 
L 258.421826 149.878519 
L 261.248345 142.516406 
L 263.983685 127.353588 
L 266.810204 119.646848 
L 269.545545 113.005314 
L 272.372063 88.256062 
L 275.198582 28.631127 
L 280.578085 49.620955 
L 283.313426 47.615991 
L 286.139945 37.528335 
L 288.875285 29.257695 
L 291.701804 28.819075 
L 294.528323 28.881762 
L 297.263664 38.969418 
L 300.090182 55.197376 
L 302.825523 66.287514 
L 305.652042 76.218575 
L 308.47856 145.755975 
L 311.031545 143.938969 
L 313.858064 143.343716 
L 316.593404 137.234701 
L 319.419923 133.694652 
L 322.155264 132.880137 
L 324.981782 127.804984 
L 327.808301 125.298676 
L 330.543642 134.258552 
L 333.37016 147.886294 
L 336.105501 158.067942 
L 338.93202 165.618022 
L 341.758539 180.975092 
L 344.402701 182.886101 
L 347.22922 184.201885 
L 349.964561 180.050908 
L 352.791079 172.876761 
L 355.52642 162.225187 
L 358.352939 152.607438 
L 361.179457 148.440831 
L 363.914798 158.403141 
L 366.741317 171.654969 
L 369.476657 181.288376 
L 372.303176 183.309035 
L 375.129695 171.117405 
L 377.682679 161.703299 
L 380.509198 146.101852 
L 383.244539 136.327508 
L 386.071057 128.119536 
L 388.806398 123.984197 
L 391.632917 125.362668 
L 394.459436 127.9942 
L 397.194776 138.26986 
L 400.021295 154.93641 
L 402.756636 166.653144 
L 405.583154 172.339197 
L 408.409673 160.527669 
L 410.962658 157.629817 
L 413.789176 154.606657 
L 416.524517 150.189388 
L 419.351036 141.22954 
L 422.086376 128.823562 
L 424.912895 123.497812 
L 427.739414 116.730942 
L 430.474754 116.605606 
L 433.301273 122.745927 
L 436.036614 108.898903 
L 438.863132 92.169657 
L 441.689651 57.571391 
L 444.242636 57.383425 
L 447.069155 59.639023 
L 449.804495 59.451057 
L 452.631014 56.631521 
L 455.366355 58.887176 
L 458.192873 62.207943 
L 461.019392 66.46858 
L 463.754733 82.947192 
L 466.581251 105.59744 
L 469.316592 118.817915 
L 472.143111 124.331669 
L 474.969629 166.927717 
L 477.613792 151.044367 
L 480.440311 149.665896 
L 483.175651 154.083175 
L 486.00217 152.328799 
L 488.737511 150.104497 
L 491.56403 149.571913 
L 494.390548 147.754896 
L 497.125889 154.772401 
L 499.952408 167.5856 
L 502.687748 177.626274 
L 505.514267 183.249677 
L 508.340786 178.462508 
L 510.89377 177.209392 
L 513.720289 177.303366 
L 516.45563 175.157389 
L 519.282148 164.443166 
L 522.017489 158.898088 
L 524.844008 156.924411 
L 527.670526 155.358011 
L 530.405867 160.934414 
L 533.232386 168.797786 
L 535.967726 174.342865 
L 538.794245 172.776455 
L 541.620764 166.256545 
L 544.173748 153.192702 
L 547.000267 153.725277 
L 549.735608 157.202714 
L 552.562127 156.576156 
L 555.297467 155.792928 
L 558.123986 155.260344 
L 560.950505 156.764123 
L 563.685845 166.162562 
L 566.512364 177.221403 
L 569.247705 185.539025 
L 572.074223 191.256412 
L 577.453727 192.163083 
L 580.280245 194.457877 
L 583.015586 193.74516 
L 585.842105 190.408707 
L 588.577445 183.547844 
L 591.403964 179.88245 
L 594.230483 176.013422 
L 596.965824 176.63999 
L 599.792342 180.227059 
L 602.527683 181.480194 
L 605.354202 172.285379 
L 608.18072 157.724891 
L 610.824883 152.775047 
L 613.651402 154.654731 
L 616.386742 156.095832 
L 621.948602 150.018161 
L 624.77512 148.827712 
L 627.601639 148.702376 
L 630.33698 156.315124 
L 633.163498 168.40779 
L 635.898839 178.448464 
L 638.725358 185.058702 
L 641.551877 200.510324 
L 646.93138 200.024731 
L 649.666721 198.567981 
L 652.493239 196.046062 
L 658.055099 187.180198 
L 660.881617 184.908905 
L 663.616958 187.133207 
L 666.443477 191.033559 
L 669.178817 193.837427 
L 672.005336 195.591804 
L 674.831855 202.303727 
L 680.211358 202.992944 
L 682.946699 203.321886 
L 685.773217 202.115761 
L 688.508558 199.10825 
L 691.335077 197.228565 
L 694.161595 196.523682 
L 696.896936 198.888949 
L 699.723455 202.757986 
L 702.458796 206.125763 
L 705.285314 208.350056 
L 708.111833 210.336807 
L 710.664818 206.397297 
L 713.491336 200.632918 
L 716.226677 197.045849 
L 719.053196 195.087839 
L 721.788536 192.033346 
L 724.615055 192.189988 
L 727.441574 191.876704 
L 730.176914 195.19748 
L 733.003433 201.134177 
L 735.738774 205.003196 
L 738.565292 205.911713 
L 741.391811 204.151499 
L 744.035974 204.621425 
L 746.862493 201.237981 
L 749.597833 194.737393 
L 752.424352 191.949182 
L 757.986211 193.703568 
L 760.81273 194.236143 
L 763.548071 196.366452 
L 769.10993 207.613251 
L 771.936449 210.307478 
L 774.762967 209.712245 
L 777.315952 207.89521 
L 780.142471 208.741069 
L 782.877811 210.511112 
L 785.70433 207.613251 
L 788.439671 189.066998 
L 791.266189 157.770204 
L 794.092708 158.271417 
L 796.828049 173.998172 
L 799.654568 189.286289 
L 802.389908 199.499271 
L 805.216427 204.997358 
L 808.042946 200.580088 
L 810.59593 196.99302 
L 813.422449 196.867702 
L 816.15779 198.982354 
L 818.984308 197.38462 
L 821.719649 189.630897 
L 824.546168 189.348947 
L 827.372686 191.040665 
L 830.108027 195.724227 
L 832.934546 202.224824 
L 835.669886 207.785569 
L 838.496405 211.325646 
L 841.322924 211.482288 
L 843.875908 205.294975 
L 846.702427 201.003022 
L 849.437768 190.00684 
L 852.264287 189.912856 
L 854.999627 187.782538 
L 857.826146 189.066998 
L 860.652665 188.44043 
L 863.388005 186.999338 
L 866.214524 192.137149 
L 868.949865 194.580751 
L 871.776383 199.624579 
L 874.602902 198.230479 
L 877.247065 196.303794 
L 880.073583 197.086994 
L 882.808924 196.162819 
L 888.370783 185.025661 
L 891.197302 180.859016 
L 894.023821 178.948008 
L 896.759161 180.984334 
L 899.58568 182.801368 
L 902.321021 177.726216 
L 905.14754 164.098483 
L 907.974058 146.554712 
L 910.527043 131.893116 
L 913.353562 134.274069 
L 916.088902 167.98314 
L 918.915421 182.770044 
L 921.650762 167.889157 
L 924.47728 164.599705 
L 927.303799 160.08849 
L 930.03914 161.466886 
L 932.865658 165.320237 
L 935.600999 163.659882 
L 938.427518 157.707536 
L 941.254036 150.564715 
L 943.807021 153.384213 
L 946.63354 199.029346 
L 949.36888 178.196132 
L 952.195399 162.156131 
L 954.93074 152.319053 
L 957.757259 149.060964 
L 960.583777 150.502047 
L 963.319118 165.508204 
L 966.145637 182.362767 
L 968.880977 192.763717 
L 971.707496 196.711061 
L 974.534015 205.013025 
L 977.086999 201.41028 
L 979.913518 194.643401 
L 982.648859 190.570749 
L 985.475377 185.80887 
L 991.037237 177.914173 
L 993.863755 175.595916 
L 996.599096 180.67105 
L 999.425615 188.409096 
L 1002.160956 197.478603 
L 1004.987474 203.885207 
L 1007.813993 201.707906 
L 1010.458156 197.870203 
L 1013.284674 191.667233 
L 1016.020015 190.382773 
L 1021.581874 190.320123 
L 1024.408393 190.727391 
L 1027.234912 192.262466 
L 1029.970252 195.786876 
L 1035.532112 206.736067 
L 1038.35863 211.043687 
L 1041.185149 210.542436 
L 1043.738134 210.902712 
L 1046.564652 209.978537 
L 1049.299993 209.774903 
L 1052.126512 209.101344 
L 1054.861853 207.738577 
L 1060.51489 205.717909 
L 1063.250231 206.579425 
L 1066.076749 209.320645 
L 1068.81209 211.74858 
L 1071.638609 212.931204 
L 1074.465127 211.795562 
L 1077.018112 210.918369 
L 1079.844631 210.323145 
L 1079.844631 210.323145 
" style="fill:none;stroke:#9467bd;stroke-linecap:square;stroke-width:1.5;"/>
   </g>
   <g id="line2d_21">
    <path clip-path="url(#pe773a9bbbd)" d="M 105.880994 297.993339 
L 108.707513 297.993382 
L 111.260498 325.622673 
L 114.087016 316.31762 
L 116.822357 310.83381 
L 119.648876 308.686841 
L 125.210735 303.003314 
L 128.037254 301.523864 
L 130.772594 300.254675 
L 133.599113 299.142116 
L 136.334454 298.441323 
L 139.160973 298.158328 
L 141.987491 298.02405 
L 150.102335 298.004468 
L 152.928854 298.245959 
L 158.490713 301.227704 
L 161.317232 302.84654 
L 164.052573 299.366126 
L 166.879091 297.998839 
L 172.440951 297.994098 
L 175.267469 300.167877 
L 177.820454 299.447439 
L 180.646973 298.380154 
L 183.382313 298.274607 
L 186.208832 298.415993 
L 188.944173 299.523175 
L 191.770692 300.011663 
L 194.59721 300.635711 
L 197.332551 298.731254 
L 200.15907 298.101178 
L 219.579988 298.019603 
L 222.315329 298.693866 
L 225.141848 298.860056 
L 227.968366 298.628266 
L 230.703707 297.99339 
L 239.092085 297.99334 
L 241.918604 337.802105 
L 244.471589 337.578673 
L 247.298107 337.039819 
L 250.033448 332.82463 
L 252.859967 328.937294 
L 255.595307 329.501795 
L 258.421826 334.308954 
L 261.248345 337.858804 
L 263.983685 346.553395 
L 266.810204 341.685027 
L 269.545545 334.42302 
L 272.372063 335.180244 
L 275.198582 408.989933 
L 277.751567 397.241512 
L 280.578085 390.843105 
L 283.313426 387.436803 
L 286.139945 386.857162 
L 288.875285 384.798837 
L 291.701804 380.717624 
L 297.263664 374.662571 
L 300.090182 372.037684 
L 302.825523 369.827567 
L 305.652042 367.68878 
L 308.47856 305.134852 
L 311.031545 302.426975 
L 313.858064 300.9863 
L 316.593404 301.604884 
L 319.419923 301.088519 
L 322.155264 300.093394 
L 324.981782 300.748991 
L 327.808301 300.177279 
L 330.543642 298.671398 
L 338.93202 298.409798 
L 341.758539 304.936784 
L 344.402701 301.206885 
L 347.22922 299.924466 
L 349.964561 299.804388 
L 352.791079 303.459859 
L 355.52642 308.312447 
L 358.352939 308.234844 
L 361.179457 304.804376 
L 363.914798 299.424529 
L 366.741317 298.473348 
L 372.303176 298.327904 
L 375.129695 299.188353 
L 377.682679 302.582355 
L 380.509198 310.726038 
L 383.244539 309.982471 
L 386.071057 307.499059 
L 388.806398 304.769047 
L 391.632917 301.531639 
L 394.459436 299.894746 
L 397.194776 298.745973 
L 400.021295 298.338124 
L 405.583154 298.269185 
L 408.409673 309.381809 
L 410.962658 307.294298 
L 413.789176 307.638554 
L 416.524517 310.061262 
L 419.351036 314.822397 
L 422.086376 317.481305 
L 424.912895 313.833867 
L 427.739414 312.123547 
L 430.474754 308.669593 
L 433.301273 305.623902 
L 436.036614 308.966801 
L 438.863132 310.542063 
L 441.689651 329.989039 
L 444.242636 325.975735 
L 447.069155 323.081888 
L 449.804495 321.643221 
L 452.631014 321.145638 
L 455.366355 319.448691 
L 458.192873 318.434521 
L 461.019392 317.553386 
L 466.581251 315.271836 
L 469.316592 314.411653 
L 472.143111 313.763481 
L 474.969629 298.850921 
L 477.613792 303.556665 
L 480.440311 300.797404 
L 483.175651 298.388974 
L 486.00217 298.579492 
L 488.737511 299.096926 
L 491.56403 298.701366 
L 494.390548 298.94263 
L 497.125889 298.068747 
L 516.45563 298.041796 
L 519.282148 304.127788 
L 522.017489 306.702818 
L 524.844008 305.704745 
L 527.670526 304.347644 
L 530.405867 299.347807 
L 533.232386 298.037578 
L 538.794245 297.999961 
L 544.173748 314.699154 
L 547.000267 308.162719 
L 549.735608 302.142029 
L 552.562127 300.788532 
L 555.297467 300.151565 
L 558.123986 299.611294 
L 560.950505 298.620532 
L 563.685845 298.322432 
L 572.074223 298.157848 
L 574.900742 300.803763 
L 577.453727 300.308784 
L 580.280245 299.956582 
L 583.015586 299.755496 
L 585.842105 299.819706 
L 588.577445 303.052837 
L 591.403964 304.854917 
L 594.230483 306.832248 
L 596.965824 304.550435 
L 599.792342 300.870343 
L 602.527683 299.470814 
L 605.354202 305.930863 
L 608.18072 319.012209 
L 610.824883 320.070358 
L 613.651402 313.789518 
L 616.386742 310.161117 
L 619.213261 308.957754 
L 621.948602 308.67532 
L 624.77512 307.06529 
L 627.601639 305.638079 
L 630.33698 302.771353 
L 633.163498 301.4666 
L 638.725358 299.572681 
L 641.551877 298.14948 
L 644.104861 298.274102 
L 646.93138 298.025185 
L 652.493239 298.160692 
L 655.22858 299.782684 
L 658.055099 302.315313 
L 660.881617 303.490348 
L 663.616958 300.361883 
L 666.443477 298.269951 
L 669.178817 298.043238 
L 672.005336 297.997824 
L 674.831855 298.146835 
L 682.946699 298.020993 
L 685.773217 298.023705 
L 691.335077 300.063977 
L 694.161595 300.068622 
L 696.896936 298.400866 
L 699.723455 298.000124 
L 705.285314 297.994313 
L 710.664818 298.949363 
L 713.491336 301.671807 
L 716.226677 304.002785 
L 719.053196 305.191365 
L 721.788536 307.42296 
L 724.615055 306.093582 
L 727.441574 305.432582 
L 730.176914 301.320344 
L 733.003433 298.752163 
L 735.738774 298.275011 
L 738.565292 298.278877 
L 741.391811 299.145089 
L 744.035974 298.349104 
L 746.862493 301.247304 
L 749.597833 305.506449 
L 752.424352 307.228455 
L 757.986211 303.659664 
L 760.81273 302.832534 
L 763.548071 300.409123 
L 766.374589 299.53013 
L 769.10993 298.23649 
L 771.936449 298.34488 
L 774.762967 298.650328 
L 777.315952 298.228754 
L 780.142471 298.754173 
L 782.877811 299.952631 
L 785.70433 299.475418 
L 788.439671 313.28045 
L 791.266189 341.539278 
L 794.092708 334.910594 
L 796.828049 315.072275 
L 799.654568 302.968125 
L 802.389908 299.567596 
L 805.216427 298.499112 
L 808.042946 299.417318 
L 810.59593 298.782374 
L 813.422449 299.362167 
L 816.15779 300.552334 
L 818.984308 299.740245 
L 821.719649 305.606255 
L 824.546168 304.378278 
L 827.372686 302.111685 
L 830.108027 299.116313 
L 832.934546 299.331697 
L 838.496405 299.035241 
L 843.875908 299.312352 
L 846.702427 301.721573 
L 849.437768 311.801921 
L 852.264287 308.940486 
L 854.999627 309.746353 
L 857.826146 306.506839 
L 860.652665 306.075379 
L 863.388005 305.902972 
L 866.214524 300.302227 
L 868.949865 298.883989 
L 871.776383 298.350784 
L 874.602902 298.084202 
L 877.247065 298.294457 
L 880.073583 298.372803 
L 882.808924 298.793913 
L 885.635443 303.953117 
L 888.370783 308.601972 
L 891.197302 310.847707 
L 894.023821 310.681983 
L 896.759161 306.432985 
L 899.58568 302.618958 
L 902.321021 305.619246 
L 905.14754 314.107822 
L 907.974058 319.74496 
L 910.527043 317.754915 
L 913.353562 309.89082 
L 916.088902 302.618601 
L 918.915421 301.747526 
L 921.650762 304.036776 
L 924.47728 304.537582 
L 927.303799 305.476687 
L 930.03914 302.704436 
L 932.865658 300.619807 
L 935.600999 300.362434 
L 938.427518 302.064939 
L 941.254036 333.002805 
L 943.807021 319.323257 
L 946.63354 312.980292 
L 949.36888 312.818967 
L 952.195399 316.527271 
L 954.93074 315.496588 
L 957.757259 311.410355 
L 960.583777 307.556666 
L 963.319118 304.468868 
L 966.145637 303.677965 
L 971.707496 302.735257 
L 977.086999 302.021388 
L 979.913518 302.555473 
L 982.648859 303.406674 
L 985.475377 305.434401 
L 988.210718 306.99625 
L 991.037237 308.032866 
L 993.863755 307.020892 
L 996.599096 301.745984 
L 999.425615 299.753206 
L 1002.160956 299.606421 
L 1004.987474 299.239984 
L 1007.813993 299.083207 
L 1010.458156 299.048196 
L 1013.284674 300.886063 
L 1016.020015 300.587987 
L 1018.846534 299.8545 
L 1021.581874 299.436637 
L 1024.408393 298.843961 
L 1027.234912 298.561494 
L 1052.126512 298.215373 
L 1068.81209 298.154321 
L 1071.638609 301.969699 
L 1074.465127 301.16749 
L 1077.018112 300.679097 
L 1079.844631 300.273356 
L 1079.844631 300.273356 
" style="fill:none;stroke:#8c564b;stroke-linecap:square;stroke-width:1.5;"/>
   </g>
   <g id="line2d_22">
    <path clip-path="url(#pe773a9bbbd)" d="M 105.880994 297.993339 
L 1079.844631 297.993339 
L 1079.844631 297.993339 
" style="fill:none;stroke:#e377c2;stroke-linecap:square;stroke-width:1.5;"/>
   </g>
   <g id="line2d_23">
    <path clip-path="url(#pe773a9bbbd)" d="M 105.880994 373.834035 
L 108.707513 375.706356 
L 139.160973 375.706356 
L 141.987491 401.935872 
L 172.440951 401.906254 
L 175.267469 407.931367 
L 205.720929 407.923142 
L 208.547448 416.109796 
L 239.092085 416.09922 
L 241.918604 380.77604 
L 272.372063 380.799027 
L 275.198582 336.519153 
L 305.652042 336.519153 
L 308.47856 435.086005 
L 324.981782 434.985606 
L 338.93202 434.947296 
L 341.758539 387.214211 
L 358.352939 387.243549 
L 372.303176 387.243549 
L 375.129695 419.762451 
L 405.583154 419.676068 
L 408.409673 390.404009 
L 438.863132 390.423957 
L 441.689651 385.789541 
L 472.143111 385.789541 
L 474.969629 411.687098 
L 505.514267 411.663244 
L 508.340786 435.081585 
L 538.794245 435.062187 
L 541.620764 426.717652 
L 572.074223 426.718677 
L 574.900742 424.934394 
L 577.453727 421.950551 
L 580.280245 426.244126 
L 585.842105 424.279784 
L 588.577445 423.608659 
L 591.403964 422.617517 
L 594.230483 424.388017 
L 596.965824 426.862058 
L 599.792342 428.53643 
L 602.527683 428.45084 
L 605.354202 429.911451 
L 608.18072 436.877115 
L 610.824883 431.75082 
L 613.651402 432.074931 
L 616.386742 429.252421 
L 619.213261 429.081791 
L 621.948602 427.83647 
L 624.77512 429.757485 
L 627.601639 430.335709 
L 630.33698 431.281529 
L 633.163498 429.740149 
L 635.898839 430.316573 
L 638.725358 435.432339 
L 641.551877 435.640542 
L 644.104861 431.230555 
L 646.93138 436.517986 
L 649.666721 433.68021 
L 652.493239 432.31776 
L 655.22858 430.24029 
L 658.055099 432.619191 
L 660.881617 430.164892 
L 663.616958 430.384752 
L 666.443477 433.276076 
L 669.178817 431.915249 
L 672.005336 436.09494 
L 674.831855 436.280669 
L 677.384839 433.27021 
L 680.211358 434.919804 
L 685.773217 434.5143 
L 688.508558 433.252725 
L 691.335077 431.322823 
L 694.161595 434.962385 
L 696.896936 434.246627 
L 699.723455 436.834683 
L 702.458796 435.653775 
L 705.285314 437.687573 
L 708.111833 440.581024 
L 710.664818 438.33946 
L 713.491336 435.619606 
L 716.226677 432.66595 
L 719.053196 433.801788 
L 721.788536 433.375328 
L 724.615055 433.712672 
L 727.441574 431.899069 
L 733.003433 436.260143 
L 735.738774 434.235064 
L 738.565292 437.678155 
L 741.391811 438.607934 
L 744.035974 439.272532 
L 746.862493 437.429152 
L 749.597833 439.587998 
L 752.424352 437.461717 
L 755.159693 437.732112 
L 757.986211 435.346786 
L 760.81273 434.043871 
L 763.548071 435.946897 
L 766.374589 434.185051 
L 769.10993 437.870346 
L 771.936449 436.305167 
L 774.762967 439.671368 
L 777.315952 441.862135 
L 780.142471 438.601612 
L 782.877811 431.191406 
L 785.70433 433.932318 
L 788.439671 435.369335 
L 791.266189 433.256362 
L 794.092708 433.759962 
L 796.828049 434.370574 
L 799.654568 432.910094 
L 802.389908 434.865436 
L 805.216427 438.985089 
L 808.042946 432.277035 
L 810.59593 436.365224 
L 813.422449 431.027491 
L 816.15779 423.909298 
L 818.984308 426.627193 
L 821.719649 427.139094 
L 824.546168 425.990107 
L 827.372686 427.12407 
L 830.108027 426.686625 
L 832.934546 424.550898 
L 835.669886 425.95286 
L 838.496405 430.351236 
L 841.322924 428.199096 
L 843.875908 430.295189 
L 846.702427 426.68421 
L 849.437768 421.866266 
L 852.264287 423.737259 
L 854.999627 423.486886 
L 857.826146 422.937198 
L 860.652665 424.037431 
L 863.388005 423.989013 
L 866.214524 423.281975 
L 868.949865 424.740599 
L 871.776383 427.920522 
L 874.602902 430.516187 
L 877.247065 432.151382 
L 880.073583 429.981906 
L 882.808924 426.458764 
L 885.635443 426.00167 
L 888.370783 423.921038 
L 891.197302 422.943913 
L 894.023821 429.834627 
L 896.759161 427.522105 
L 899.58568 425.670453 
L 902.321021 432.954651 
L 905.14754 428.737826 
L 907.974058 436.059578 
L 910.527043 434.242049 
L 913.353562 433.732517 
L 916.088902 428.474359 
L 918.915421 426.58742 
L 924.47728 423.933246 
L 927.303799 427.150163 
L 930.03914 425.362914 
L 932.865658 424.798735 
L 935.600999 429.450823 
L 938.427518 429.509667 
L 941.254036 426.492084 
L 946.63354 425.194662 
L 949.36888 425.294213 
L 952.195399 426.359586 
L 954.93074 425.887273 
L 957.757259 426.731248 
L 960.583777 426.232665 
L 963.319118 426.764186 
L 966.145637 428.347195 
L 968.880977 428.233927 
L 971.707496 428.851411 
L 974.534015 431.247882 
L 977.086999 431.158133 
L 979.913518 431.892942 
L 982.648859 433.860418 
L 988.210718 435.432022 
L 991.037237 438.20809 
L 993.863755 442.654204 
L 996.599096 442.439529 
L 999.425615 444.290509 
L 1002.160956 444.204331 
L 1004.987474 444.572021 
L 1007.813993 444.341408 
L 1010.458156 444.815866 
L 1013.284674 444.837996 
L 1016.020015 444.563105 
L 1018.846534 445.432259 
L 1021.581874 445.374982 
L 1024.408393 445.712353 
L 1027.234912 446.689572 
L 1029.970252 447.163135 
L 1032.796771 447.127064 
L 1035.532112 448.386979 
L 1038.35863 448.440759 
L 1041.185149 448.755834 
L 1046.564652 447.938474 
L 1049.299993 449.417727 
L 1054.861853 449.172557 
L 1057.688371 448.830289 
L 1060.51489 448.362182 
L 1066.076749 448.150295 
L 1068.81209 449.496425 
L 1071.638609 442.362108 
L 1079.844631 442.142761 
L 1079.844631 442.142761 
" style="fill:none;stroke:#7f7f7f;stroke-linecap:square;stroke-width:1.5;"/>
   </g>
   <g id="line2d_24">
    <path clip-path="url(#pe773a9bbbd)" d="M 105.880994 358.576021 
L 108.707513 358.576021 
L 111.260498 364.499173 
L 114.087016 375.871867 
L 116.822357 384.927082 
L 119.648876 393.089079 
L 122.384216 397.627609 
L 125.210735 397.648107 
L 128.037254 394.419029 
L 133.599113 376.384583 
L 136.334454 370.159702 
L 139.160973 365.607864 
L 141.987491 358.608479 
L 144.540476 354.593137 
L 147.366995 351.708397 
L 150.102335 349.700906 
L 152.928854 348.425548 
L 155.664195 347.889182 
L 158.490713 348.027341 
L 161.317232 348.742054 
L 164.052573 349.126459 
L 166.879091 348.367725 
L 169.614432 346.582817 
L 172.440951 344.471849 
L 175.267469 342.837745 
L 177.820454 342.035255 
L 183.382313 340.543883 
L 186.208832 339.986344 
L 188.944173 339.776322 
L 191.770692 339.83083 
L 197.332551 340.221493 
L 200.15907 340.018843 
L 202.89441 339.321863 
L 205.720929 338.174736 
L 208.547448 336.315303 
L 214.018129 333.566968 
L 216.75347 332.464765 
L 219.579988 331.566128 
L 222.315329 330.964213 
L 225.141848 330.582251 
L 236.265566 329.712127 
L 239.092085 329.272157 
L 241.918604 331.629985 
L 247.298107 335.5768 
L 252.859967 340.081978 
L 255.595307 342.320081 
L 258.421826 345.089408 
L 261.248345 348.692433 
L 263.983685 354.981315 
L 266.810204 367.392166 
L 269.545545 381.153101 
L 275.198582 427.989634 
L 277.751567 429.957874 
L 280.578085 426.143242 
L 283.313426 429.54254 
L 288.875285 450.086688 
L 291.701804 454.440031 
L 294.528323 457.253673 
L 297.263664 451.986618 
L 300.090182 440.414441 
L 302.825523 431.480873 
L 305.652042 423.650391 
L 308.47856 402.699125 
L 311.031545 396.816078 
L 313.858064 393.185347 
L 319.419923 395.915972 
L 322.155264 395.985476 
L 324.981782 398.775552 
L 327.808301 400.626933 
L 330.543642 394.550762 
L 333.37016 384.046421 
L 336.105501 375.603239 
L 338.93202 369.221529 
L 341.758539 366.346348 
L 344.402701 364.338927 
L 347.22922 362.426934 
L 349.964561 361.573321 
L 352.791079 362.267103 
L 355.52642 366.335973 
L 358.352939 374.805579 
L 361.179457 381.662334 
L 363.914798 378.703782 
L 366.741317 372.116719 
L 369.476657 366.9741 
L 372.303176 363.710354 
L 375.129695 360.181738 
L 377.682679 359.378428 
L 380.509198 363.912486 
L 386.071057 383.396707 
L 388.806398 389.880406 
L 391.632917 391.46293 
L 394.459436 390.604015 
L 397.194776 384.083173 
L 400.021295 373.024355 
L 402.756636 365.566757 
L 405.583154 360.919597 
L 408.409673 360.386729 
L 410.962658 360.115769 
L 413.789176 360.560726 
L 416.524517 361.86379 
L 419.351036 365.762818 
L 422.086376 375.337739 
L 424.912895 384.168931 
L 427.739414 392.528471 
L 430.474754 396.011951 
L 433.301273 393.784563 
L 436.036614 403.26268 
L 438.863132 418.350352 
L 441.689651 430.208088 
L 444.242636 434.081593 
L 447.069155 434.62022 
L 449.804495 435.900353 
L 452.631014 439.061792 
L 455.366355 438.622958 
L 458.192873 436.691274 
L 461.019392 433.623193 
L 463.754733 421.103704 
L 466.581251 403.049422 
L 469.316592 391.219644 
L 472.143111 384.925945 
L 474.969629 376.824378 
L 477.613792 380.184629 
L 480.440311 381.930827 
L 483.175651 379.635837 
L 486.00217 379.573934 
L 488.737511 380.404014 
L 491.56403 380.653473 
L 494.390548 381.564257 
L 497.125889 377.585728 
L 499.952408 370.348592 
L 502.687748 365.003725 
L 505.514267 360.891015 
L 508.340786 354.89994 
L 510.89377 351.34594 
L 513.720289 348.523504 
L 516.45563 346.695022 
L 519.282148 346.557134 
L 522.017489 347.734182 
L 524.844008 349.586066 
L 527.670526 351.628323 
L 530.405867 352.226728 
L 533.232386 350.959073 
L 535.967726 348.857384 
L 538.794245 346.947293 
L 541.620764 348.017083 
L 544.173748 351.750279 
L 547.000267 356.931906 
L 549.735608 359.198677 
L 552.562127 360.869584 
L 555.297467 362.082657 
L 558.123986 362.971856 
L 560.950505 362.813172 
L 572.074223 347.570504 
L 574.900742 343.989352 
L 577.453727 341.601358 
L 580.280245 339.379201 
L 583.015586 337.521451 
L 585.842105 336.181185 
L 588.577445 335.758703 
L 591.403964 336.107331 
L 596.965824 338.090233 
L 599.792342 338.752643 
L 602.527683 339.008616 
L 605.354202 339.878764 
L 608.18072 343.147499 
L 610.824883 347.121724 
L 613.651402 351.146643 
L 616.386742 353.96539 
L 621.948602 360.933507 
L 624.77512 363.504347 
L 627.601639 365.116522 
L 630.33698 362.956576 
L 633.163498 358.231045 
L 638.725358 350.514111 
L 641.551877 345.376179 
L 644.104861 342.087632 
L 646.93138 339.359655 
L 649.666721 337.337555 
L 652.493239 335.881253 
L 655.22858 335.169477 
L 658.055099 335.183132 
L 663.616958 336.167956 
L 666.443477 336.201866 
L 669.178817 335.764021 
L 672.005336 334.955583 
L 677.384839 332.995676 
L 682.946699 331.377332 
L 685.773217 330.754338 
L 688.508558 330.407121 
L 691.335077 330.326224 
L 696.896936 330.4809 
L 699.723455 330.24556 
L 702.458796 329.723271 
L 708.111833 328.360057 
L 710.664818 327.858501 
L 713.491336 327.507376 
L 716.226677 327.438822 
L 719.053196 327.644847 
L 721.788536 328.298858 
L 724.615055 329.273253 
L 727.441574 330.393319 
L 730.176914 331.277868 
L 733.003433 331.464037 
L 735.738774 331.044975 
L 738.565292 330.309955 
L 741.391811 329.817189 
L 744.035974 329.47232 
L 746.862493 329.320399 
L 749.597833 329.63355 
L 752.424352 330.478245 
L 757.986211 332.646796 
L 760.81273 333.495422 
L 763.548071 333.952378 
L 766.374589 333.724272 
L 769.10993 332.783246 
L 771.936449 331.50392 
L 774.762967 330.082474 
L 777.315952 329.033408 
L 780.142471 328.22135 
L 785.70433 326.981858 
L 788.439671 326.914784 
L 791.266189 328.905354 
L 794.092708 335.482257 
L 796.828049 340.907413 
L 799.654568 342.272124 
L 802.389908 340.84683 
L 805.216427 337.866363 
L 808.042946 336.199705 
L 810.59593 335.026579 
L 813.422449 334.274988 
L 818.984308 333.171169 
L 821.719649 333.547639 
L 827.372686 335.199079 
L 830.108027 335.619964 
L 832.934546 334.751859 
L 835.669886 333.214188 
L 838.496405 330.746489 
L 841.322924 329.248475 
L 843.875908 328.230799 
L 846.702427 327.686285 
L 849.437768 327.890021 
L 852.264287 328.705316 
L 854.999627 330.205418 
L 860.652665 333.630804 
L 863.388005 335.132284 
L 866.214524 335.644574 
L 868.949865 335.531814 
L 871.776383 334.2584 
L 877.247065 333.035808 
L 880.073583 332.692827 
L 882.808924 332.569154 
L 885.635443 332.855228 
L 888.370783 333.99871 
L 891.197302 335.80371 
L 894.023821 338.286928 
L 896.759161 340.513361 
L 899.58568 341.508825 
L 902.321021 342.632987 
L 905.14754 345.842999 
L 907.974058 359.490815 
L 910.527043 375.760589 
L 913.353562 382.077976 
L 916.088902 364.965089 
L 918.915421 355.308732 
L 921.650762 356.715846 
L 924.47728 358.913482 
L 927.303799 362.591936 
L 930.03914 363.799078 
L 932.865658 362.150897 
L 935.600999 362.0517 
L 938.427518 364.046224 
L 941.254036 373.195143 
L 943.807021 374.332893 
L 946.63354 355.682609 
L 949.36888 353.854742 
L 952.195399 359.287023 
L 954.93074 368.098365 
L 957.757259 374.21429 
L 960.583777 375.758957 
L 963.319118 367.837901 
L 966.145637 357.976493 
L 968.880977 352.295415 
L 971.707496 348.181069 
L 974.534015 343.815999 
L 977.086999 340.909913 
L 979.913518 339.230108 
L 982.648859 338.374486 
L 985.475377 338.42745 
L 988.210718 339.257456 
L 991.037237 340.938859 
L 993.863755 342.829851 
L 996.599096 343.857484 
L 999.425615 342.76439 
L 1002.160956 340.423933 
L 1004.987474 337.518579 
L 1007.813993 335.142503 
L 1010.458156 333.403099 
L 1013.284674 332.49053 
L 1016.020015 332.20281 
L 1021.581874 332.2662 
L 1024.408393 332.326381 
L 1027.234912 332.218547 
L 1029.970252 331.765747 
L 1032.796771 330.642443 
L 1038.35863 327.886704 
L 1049.299993 323.602851 
L 1052.126512 322.637433 
L 1054.861853 321.855627 
L 1057.688371 321.235592 
L 1066.076749 319.9156 
L 1068.81209 319.469289 
L 1071.638609 319.364467 
L 1077.018112 318.749871 
L 1079.844631 318.36852 
L 1079.844631 318.36852 
" style="fill:none;stroke:#bcbd22;stroke-linecap:square;stroke-width:1.5;"/>
   </g>
   <g id="line2d_25">
    <path clip-path="url(#pe773a9bbbd)" d="M 105.880994 297.993339 
L 1079.844631 297.993339 
L 1079.844631 297.993339 
" style="fill:none;stroke:#17becf;stroke-linecap:square;stroke-width:1.5;"/>
   </g>
   <g id="patch_3">
    <path d="M 57.182813 478.6848 
L 57.182813 7.2 
" style="fill:none;stroke:#000000;stroke-linecap:square;stroke-linejoin:miter;stroke-width:0.8;"/>
   </g>
   <g id="patch_4">
    <path d="M 1128.542812 478.6848 
L 1128.542812 7.2 
" style="fill:none;stroke:#000000;stroke-linecap:square;stroke-linejoin:miter;stroke-width:0.8;"/>
   </g>
   <g id="patch_5">
    <path d="M 57.182813 478.6848 
L 1128.542813 478.6848 
" style="fill:none;stroke:#000000;stroke-linecap:square;stroke-linejoin:miter;stroke-width:0.8;"/>
   </g>
   <g id="patch_6">
    <path d="M 57.182813 7.2 
L 1128.542813 7.2 
" style="fill:none;stroke:#000000;stroke-linecap:square;stroke-linejoin:miter;stroke-width:0.8;"/>
   </g>
   <g id="legend_1">
    <g id="patch_7">
     <path d="M 975.417812 164.7625 
L 1121.542812 164.7625 
Q 1123.542812 164.7625 1123.542812 162.7625 
L 1123.542812 14.2 
Q 1123.542812 12.2 1121.542812 12.2 
L 975.417812 12.2 
Q 973.417812 12.2 973.417812 14.2 
L 973.417812 162.7625 
Q 973.417812 164.7625 975.417812 164.7625 
z
" style="fill:#ffffff;opacity:0.8;stroke:#cccccc;stroke-linejoin:miter;"/>
    </g>
    <g id="line2d_26">
     <path d="M 977.417812 20.298437 
L 997.417812 20.298437 
" style="fill:none;stroke:#1f77b4;stroke-linecap:square;stroke-width:1.5;"/>
    </g>
    <g id="line2d_27"/>
    <g id="text_17">
     <!-- STORAGE_IN -->
     <defs>
      <path d="M 53.515625 70.515625 
L 53.515625 60.890625 
Q 47.90625 63.578125 42.921875 64.890625 
Q 37.9375 66.21875 33.296875 66.21875 
Q 25.25 66.21875 20.875 63.09375 
Q 16.5 59.96875 16.5 54.203125 
Q 16.5 49.359375 19.40625 46.890625 
Q 22.3125 44.4375 30.421875 42.921875 
L 36.375 41.703125 
Q 47.40625 39.59375 52.65625 34.296875 
Q 57.90625 29 57.90625 20.125 
Q 57.90625 9.515625 50.796875 4.046875 
Q 43.703125 -1.421875 29.984375 -1.421875 
Q 24.8125 -1.421875 18.96875 -0.25 
Q 13.140625 0.921875 6.890625 3.21875 
L 6.890625 13.375 
Q 12.890625 10.015625 18.65625 8.296875 
Q 24.421875 6.59375 29.984375 6.59375 
Q 38.421875 6.59375 43.015625 9.90625 
Q 47.609375 13.234375 47.609375 19.390625 
Q 47.609375 24.75 44.3125 27.78125 
Q 41.015625 30.8125 33.5 32.328125 
L 27.484375 33.5 
Q 16.453125 35.6875 11.515625 40.375 
Q 6.59375 45.0625 6.59375 53.421875 
Q 6.59375 63.09375 13.40625 68.65625 
Q 20.21875 74.21875 32.171875 74.21875 
Q 37.3125 74.21875 42.625 73.28125 
Q 47.953125 72.359375 53.515625 70.515625 
z
" id="DejaVuSans-83"/>
      <path d="M -0.296875 72.90625 
L 61.375 72.90625 
L 61.375 64.59375 
L 35.5 64.59375 
L 35.5 0 
L 25.59375 0 
L 25.59375 64.59375 
L -0.296875 64.59375 
z
" id="DejaVuSans-84"/>
      <path d="M 39.40625 66.21875 
Q 28.65625 66.21875 22.328125 58.203125 
Q 16.015625 50.203125 16.015625 36.375 
Q 16.015625 22.609375 22.328125 14.59375 
Q 28.65625 6.59375 39.40625 6.59375 
Q 50.140625 6.59375 56.421875 14.59375 
Q 62.703125 22.609375 62.703125 36.375 
Q 62.703125 50.203125 56.421875 58.203125 
Q 50.140625 66.21875 39.40625 66.21875 
z
M 39.40625 74.21875 
Q 54.734375 74.21875 63.90625 63.9375 
Q 73.09375 53.65625 73.09375 36.375 
Q 73.09375 19.140625 63.90625 8.859375 
Q 54.734375 -1.421875 39.40625 -1.421875 
Q 24.03125 -1.421875 14.8125 8.828125 
Q 5.609375 19.09375 5.609375 36.375 
Q 5.609375 53.65625 14.8125 63.9375 
Q 24.03125 74.21875 39.40625 74.21875 
z
" id="DejaVuSans-79"/>
      <path d="M 44.390625 34.1875 
Q 47.5625 33.109375 50.5625 29.59375 
Q 53.5625 26.078125 56.59375 19.921875 
L 66.609375 0 
L 56 0 
L 46.6875 18.703125 
Q 43.0625 26.03125 39.671875 28.421875 
Q 36.28125 30.8125 30.421875 30.8125 
L 19.671875 30.8125 
L 19.671875 0 
L 9.8125 0 
L 9.8125 72.90625 
L 32.078125 72.90625 
Q 44.578125 72.90625 50.734375 67.671875 
Q 56.890625 62.453125 56.890625 51.90625 
Q 56.890625 45.015625 53.6875 40.46875 
Q 50.484375 35.9375 44.390625 34.1875 
z
M 19.671875 64.796875 
L 19.671875 38.921875 
L 32.078125 38.921875 
Q 39.203125 38.921875 42.84375 42.21875 
Q 46.484375 45.515625 46.484375 51.90625 
Q 46.484375 58.296875 42.84375 61.546875 
Q 39.203125 64.796875 32.078125 64.796875 
z
" id="DejaVuSans-82"/>
      <path d="M 34.1875 63.1875 
L 20.796875 26.90625 
L 47.609375 26.90625 
z
M 28.609375 72.90625 
L 39.796875 72.90625 
L 67.578125 0 
L 57.328125 0 
L 50.6875 18.703125 
L 17.828125 18.703125 
L 11.1875 0 
L 0.78125 0 
z
" id="DejaVuSans-65"/>
      <path d="M 59.515625 10.40625 
L 59.515625 29.984375 
L 43.40625 29.984375 
L 43.40625 38.09375 
L 69.28125 38.09375 
L 69.28125 6.78125 
Q 63.578125 2.734375 56.6875 0.65625 
Q 49.8125 -1.421875 42 -1.421875 
Q 24.90625 -1.421875 15.25 8.5625 
Q 5.609375 18.5625 5.609375 36.375 
Q 5.609375 54.25 15.25 64.234375 
Q 24.90625 74.21875 42 74.21875 
Q 49.125 74.21875 55.546875 72.453125 
Q 61.96875 70.703125 67.390625 67.28125 
L 67.390625 56.78125 
Q 61.921875 61.421875 55.765625 63.765625 
Q 49.609375 66.109375 42.828125 66.109375 
Q 29.4375 66.109375 22.71875 58.640625 
Q 16.015625 51.171875 16.015625 36.375 
Q 16.015625 21.625 22.71875 14.15625 
Q 29.4375 6.6875 42.828125 6.6875 
Q 48.046875 6.6875 52.140625 7.59375 
Q 56.25 8.5 59.515625 10.40625 
z
" id="DejaVuSans-71"/>
      <path d="M 9.8125 72.90625 
L 55.90625 72.90625 
L 55.90625 64.59375 
L 19.671875 64.59375 
L 19.671875 43.015625 
L 54.390625 43.015625 
L 54.390625 34.71875 
L 19.671875 34.71875 
L 19.671875 8.296875 
L 56.78125 8.296875 
L 56.78125 0 
L 9.8125 0 
z
" id="DejaVuSans-69"/>
      <path d="M 50.984375 -16.609375 
L 50.984375 -23.578125 
L -0.984375 -23.578125 
L -0.984375 -16.609375 
z
" id="DejaVuSans-95"/>
      <path d="M 9.8125 72.90625 
L 19.671875 72.90625 
L 19.671875 0 
L 9.8125 0 
z
" id="DejaVuSans-73"/>
      <path d="M 9.8125 72.90625 
L 23.09375 72.90625 
L 55.421875 11.921875 
L 55.421875 72.90625 
L 64.984375 72.90625 
L 64.984375 0 
L 51.703125 0 
L 19.390625 60.984375 
L 19.390625 0 
L 9.8125 0 
z
" id="DejaVuSans-78"/>
     </defs>
     <g transform="translate(1005.417812 23.798437)scale(0.1 -0.1)">
      <use xlink:href="#DejaVuSans-83"/>
      <use x="63.476562" xlink:href="#DejaVuSans-84"/>
      <use x="124.560547" xlink:href="#DejaVuSans-79"/>
      <use x="203.271484" xlink:href="#DejaVuSans-82"/>
      <use x="268.753906" xlink:href="#DejaVuSans-65"/>
      <use x="335.412109" xlink:href="#DejaVuSans-71"/>
      <use x="412.902344" xlink:href="#DejaVuSans-69"/>
      <use x="476.085938" xlink:href="#DejaVuSans-95"/>
      <use x="526.085938" xlink:href="#DejaVuSans-73"/>
      <use x="555.578125" xlink:href="#DejaVuSans-78"/>
     </g>
    </g>
    <g id="line2d_28">
     <path d="M 977.417812 35.254687 
L 997.417812 35.254687 
" style="fill:none;stroke:#ff7f0e;stroke-linecap:square;stroke-width:1.5;"/>
    </g>
    <g id="line2d_29"/>
    <g id="text_18">
     <!-- CONSTANT_HEAD_IN -->
     <defs>
      <path d="M 64.40625 67.28125 
L 64.40625 56.890625 
Q 59.421875 61.53125 53.78125 63.8125 
Q 48.140625 66.109375 41.796875 66.109375 
Q 29.296875 66.109375 22.65625 58.46875 
Q 16.015625 50.828125 16.015625 36.375 
Q 16.015625 21.96875 22.65625 14.328125 
Q 29.296875 6.6875 41.796875 6.6875 
Q 48.140625 6.6875 53.78125 8.984375 
Q 59.421875 11.28125 64.40625 15.921875 
L 64.40625 5.609375 
Q 59.234375 2.09375 53.4375 0.328125 
Q 47.65625 -1.421875 41.21875 -1.421875 
Q 24.65625 -1.421875 15.125 8.703125 
Q 5.609375 18.84375 5.609375 36.375 
Q 5.609375 53.953125 15.125 64.078125 
Q 24.65625 74.21875 41.21875 74.21875 
Q 47.75 74.21875 53.53125 72.484375 
Q 59.328125 70.75 64.40625 67.28125 
z
" id="DejaVuSans-67"/>
      <path d="M 9.8125 72.90625 
L 19.671875 72.90625 
L 19.671875 43.015625 
L 55.515625 43.015625 
L 55.515625 72.90625 
L 65.375 72.90625 
L 65.375 0 
L 55.515625 0 
L 55.515625 34.71875 
L 19.671875 34.71875 
L 19.671875 0 
L 9.8125 0 
z
" id="DejaVuSans-72"/>
      <path d="M 19.671875 64.796875 
L 19.671875 8.109375 
L 31.59375 8.109375 
Q 46.6875 8.109375 53.6875 14.9375 
Q 60.6875 21.78125 60.6875 36.53125 
Q 60.6875 51.171875 53.6875 57.984375 
Q 46.6875 64.796875 31.59375 64.796875 
z
M 9.8125 72.90625 
L 30.078125 72.90625 
Q 51.265625 72.90625 61.171875 64.09375 
Q 71.09375 55.28125 71.09375 36.53125 
Q 71.09375 17.671875 61.125 8.828125 
Q 51.171875 0 30.078125 0 
L 9.8125 0 
z
" id="DejaVuSans-68"/>
     </defs>
     <g transform="translate(1005.417812 38.754687)scale(0.1 -0.1)">
      <use xlink:href="#DejaVuSans-67"/>
      <use x="69.824219" xlink:href="#DejaVuSans-79"/>
      <use x="148.535156" xlink:href="#DejaVuSans-78"/>
      <use x="223.339844" xlink:href="#DejaVuSans-83"/>
      <use x="286.816406" xlink:href="#DejaVuSans-84"/>
      <use x="340.150391" xlink:href="#DejaVuSans-65"/>
      <use x="408.558594" xlink:href="#DejaVuSans-78"/>
      <use x="483.363281" xlink:href="#DejaVuSans-84"/>
      <use x="544.447266" xlink:href="#DejaVuSans-95"/>
      <use x="594.447266" xlink:href="#DejaVuSans-72"/>
      <use x="669.642578" xlink:href="#DejaVuSans-69"/>
      <use x="732.826172" xlink:href="#DejaVuSans-65"/>
      <use x="801.234375" xlink:href="#DejaVuSans-68"/>
      <use x="878.236328" xlink:href="#DejaVuSans-95"/>
      <use x="928.236328" xlink:href="#DejaVuSans-73"/>
      <use x="957.728516" xlink:href="#DejaVuSans-78"/>
     </g>
    </g>
    <g id="line2d_30">
     <path d="M 977.417812 50.210937 
L 997.417812 50.210937 
" style="fill:none;stroke:#2ca02c;stroke-linecap:square;stroke-width:1.5;"/>
    </g>
    <g id="line2d_31"/>
    <g id="text_19">
     <!-- WELLS_IN -->
     <defs>
      <path d="M 3.328125 72.90625 
L 13.28125 72.90625 
L 28.609375 11.28125 
L 43.890625 72.90625 
L 54.984375 72.90625 
L 70.3125 11.28125 
L 85.59375 72.90625 
L 95.609375 72.90625 
L 77.296875 0 
L 64.890625 0 
L 49.515625 63.28125 
L 33.984375 0 
L 21.578125 0 
z
" id="DejaVuSans-87"/>
      <path d="M 9.8125 72.90625 
L 19.671875 72.90625 
L 19.671875 8.296875 
L 55.171875 8.296875 
L 55.171875 0 
L 9.8125 0 
z
" id="DejaVuSans-76"/>
     </defs>
     <g transform="translate(1005.417812 53.710937)scale(0.1 -0.1)">
      <use xlink:href="#DejaVuSans-87"/>
      <use x="98.876953" xlink:href="#DejaVuSans-69"/>
      <use x="162.060547" xlink:href="#DejaVuSans-76"/>
      <use x="217.773438" xlink:href="#DejaVuSans-76"/>
      <use x="273.486328" xlink:href="#DejaVuSans-83"/>
      <use x="336.962891" xlink:href="#DejaVuSans-95"/>
      <use x="386.962891" xlink:href="#DejaVuSans-73"/>
      <use x="416.455078" xlink:href="#DejaVuSans-78"/>
     </g>
    </g>
    <g id="line2d_32">
     <path d="M 977.417812 65.167187 
L 997.417812 65.167187 
" style="fill:none;stroke:#d62728;stroke-linecap:square;stroke-width:1.5;"/>
    </g>
    <g id="line2d_33"/>
    <g id="text_20">
     <!-- DRAINS_IN -->
     <g transform="translate(1005.417812 68.667187)scale(0.1 -0.1)">
      <use xlink:href="#DejaVuSans-68"/>
      <use x="77.001953" xlink:href="#DejaVuSans-82"/>
      <use x="142.484375" xlink:href="#DejaVuSans-65"/>
      <use x="210.892578" xlink:href="#DejaVuSans-73"/>
      <use x="240.384766" xlink:href="#DejaVuSans-78"/>
      <use x="315.189453" xlink:href="#DejaVuSans-83"/>
      <use x="378.666016" xlink:href="#DejaVuSans-95"/>
      <use x="428.666016" xlink:href="#DejaVuSans-73"/>
      <use x="458.158203" xlink:href="#DejaVuSans-78"/>
     </g>
    </g>
    <g id="line2d_34">
     <path d="M 977.417812 80.123437 
L 997.417812 80.123437 
" style="fill:none;stroke:#9467bd;stroke-linecap:square;stroke-width:1.5;"/>
    </g>
    <g id="line2d_35"/>
    <g id="text_21">
     <!-- RECHARGE_IN -->
     <g transform="translate(1005.417812 83.623437)scale(0.1 -0.1)">
      <use xlink:href="#DejaVuSans-82"/>
      <use x="69.482422" xlink:href="#DejaVuSans-69"/>
      <use x="132.666016" xlink:href="#DejaVuSans-67"/>
      <use x="202.490234" xlink:href="#DejaVuSans-72"/>
      <use x="277.685547" xlink:href="#DejaVuSans-65"/>
      <use x="346.09375" xlink:href="#DejaVuSans-82"/>
      <use x="415.576172" xlink:href="#DejaVuSans-71"/>
      <use x="493.066406" xlink:href="#DejaVuSans-69"/>
      <use x="556.25" xlink:href="#DejaVuSans-95"/>
      <use x="606.25" xlink:href="#DejaVuSans-73"/>
      <use x="635.742188" xlink:href="#DejaVuSans-78"/>
     </g>
    </g>
    <g id="line2d_36">
     <path d="M 977.417812 95.079687 
L 997.417812 95.079687 
" style="fill:none;stroke:#8c564b;stroke-linecap:square;stroke-width:1.5;"/>
    </g>
    <g id="line2d_37"/>
    <g id="text_22">
     <!-- STORAGE_OUT -->
     <defs>
      <path d="M 8.6875 72.90625 
L 18.609375 72.90625 
L 18.609375 28.609375 
Q 18.609375 16.890625 22.84375 11.734375 
Q 27.09375 6.59375 36.625 6.59375 
Q 46.09375 6.59375 50.34375 11.734375 
Q 54.59375 16.890625 54.59375 28.609375 
L 54.59375 72.90625 
L 64.5 72.90625 
L 64.5 27.390625 
Q 64.5 13.140625 57.4375 5.859375 
Q 50.390625 -1.421875 36.625 -1.421875 
Q 22.796875 -1.421875 15.734375 5.859375 
Q 8.6875 13.140625 8.6875 27.390625 
z
" id="DejaVuSans-85"/>
     </defs>
     <g transform="translate(1005.417812 98.579687)scale(0.1 -0.1)">
      <use xlink:href="#DejaVuSans-83"/>
      <use x="63.476562" xlink:href="#DejaVuSans-84"/>
      <use x="124.560547" xlink:href="#DejaVuSans-79"/>
      <use x="203.271484" xlink:href="#DejaVuSans-82"/>
      <use x="268.753906" xlink:href="#DejaVuSans-65"/>
      <use x="335.412109" xlink:href="#DejaVuSans-71"/>
      <use x="412.902344" xlink:href="#DejaVuSans-69"/>
      <use x="476.085938" xlink:href="#DejaVuSans-95"/>
      <use x="526.085938" xlink:href="#DejaVuSans-79"/>
      <use x="604.796875" xlink:href="#DejaVuSans-85"/>
      <use x="677.990234" xlink:href="#DejaVuSans-84"/>
     </g>
    </g>
    <g id="line2d_38">
     <path d="M 977.417812 110.035937 
L 997.417812 110.035937 
" style="fill:none;stroke:#e377c2;stroke-linecap:square;stroke-width:1.5;"/>
    </g>
    <g id="line2d_39"/>
    <g id="text_23">
     <!-- CONSTANT_HEAD_OUT -->
     <g transform="translate(1005.417812 113.535937)scale(0.1 -0.1)">
      <use xlink:href="#DejaVuSans-67"/>
      <use x="69.824219" xlink:href="#DejaVuSans-79"/>
      <use x="148.535156" xlink:href="#DejaVuSans-78"/>
      <use x="223.339844" xlink:href="#DejaVuSans-83"/>
      <use x="286.816406" xlink:href="#DejaVuSans-84"/>
      <use x="340.150391" xlink:href="#DejaVuSans-65"/>
      <use x="408.558594" xlink:href="#DejaVuSans-78"/>
      <use x="483.363281" xlink:href="#DejaVuSans-84"/>
      <use x="544.447266" xlink:href="#DejaVuSans-95"/>
      <use x="594.447266" xlink:href="#DejaVuSans-72"/>
      <use x="669.642578" xlink:href="#DejaVuSans-69"/>
      <use x="732.826172" xlink:href="#DejaVuSans-65"/>
      <use x="801.234375" xlink:href="#DejaVuSans-68"/>
      <use x="878.236328" xlink:href="#DejaVuSans-95"/>
      <use x="928.236328" xlink:href="#DejaVuSans-79"/>
      <use x="1006.947266" xlink:href="#DejaVuSans-85"/>
      <use x="1080.140625" xlink:href="#DejaVuSans-84"/>
     </g>
    </g>
    <g id="line2d_40">
     <path d="M 977.417812 124.992187 
L 997.417812 124.992187 
" style="fill:none;stroke:#7f7f7f;stroke-linecap:square;stroke-width:1.5;"/>
    </g>
    <g id="line2d_41"/>
    <g id="text_24">
     <!-- WELLS_OUT -->
     <g transform="translate(1005.417812 128.492187)scale(0.1 -0.1)">
      <use xlink:href="#DejaVuSans-87"/>
      <use x="98.876953" xlink:href="#DejaVuSans-69"/>
      <use x="162.060547" xlink:href="#DejaVuSans-76"/>
      <use x="217.773438" xlink:href="#DejaVuSans-76"/>
      <use x="273.486328" xlink:href="#DejaVuSans-83"/>
      <use x="336.962891" xlink:href="#DejaVuSans-95"/>
      <use x="386.962891" xlink:href="#DejaVuSans-79"/>
      <use x="465.673828" xlink:href="#DejaVuSans-85"/>
      <use x="538.867188" xlink:href="#DejaVuSans-84"/>
     </g>
    </g>
    <g id="line2d_42">
     <path d="M 977.417812 139.948437 
L 997.417812 139.948437 
" style="fill:none;stroke:#bcbd22;stroke-linecap:square;stroke-width:1.5;"/>
    </g>
    <g id="line2d_43"/>
    <g id="text_25">
     <!-- DRAINS_OUT -->
     <g transform="translate(1005.417812 143.448437)scale(0.1 -0.1)">
      <use xlink:href="#DejaVuSans-68"/>
      <use x="77.001953" xlink:href="#DejaVuSans-82"/>
      <use x="142.484375" xlink:href="#DejaVuSans-65"/>
      <use x="210.892578" xlink:href="#DejaVuSans-73"/>
      <use x="240.384766" xlink:href="#DejaVuSans-78"/>
      <use x="315.189453" xlink:href="#DejaVuSans-83"/>
      <use x="378.666016" xlink:href="#DejaVuSans-95"/>
      <use x="428.666016" xlink:href="#DejaVuSans-79"/>
      <use x="507.376953" xlink:href="#DejaVuSans-85"/>
      <use x="580.570312" xlink:href="#DejaVuSans-84"/>
     </g>
    </g>
    <g id="line2d_44">
     <path d="M 977.417812 154.904687 
L 997.417812 154.904687 
" style="fill:none;stroke:#17becf;stroke-linecap:square;stroke-width:1.5;"/>
    </g>
    <g id="line2d_45"/>
    <g id="text_26">
     <!-- RECHARGE_OUT -->
     <g transform="translate(1005.417812 158.404687)scale(0.1 -0.1)">
      <use xlink:href="#DejaVuSans-82"/>
      <use x="69.482422" xlink:href="#DejaVuSans-69"/>
      <use x="132.666016" xlink:href="#DejaVuSans-67"/>
      <use x="202.490234" xlink:href="#DejaVuSans-72"/>
      <use x="277.685547" xlink:href="#DejaVuSans-65"/>
      <use x="346.09375" xlink:href="#DejaVuSans-82"/>
      <use x="415.576172" xlink:href="#DejaVuSans-71"/>
      <use x="493.066406" xlink:href="#DejaVuSans-69"/>
      <use x="556.25" xlink:href="#DejaVuSans-95"/>
      <use x="606.25" xlink:href="#DejaVuSans-79"/>
      <use x="684.960938" xlink:href="#DejaVuSans-85"/>
      <use x="758.154297" xlink:href="#DejaVuSans-84"/>
     </g>
    </g>
   </g>
  </g>
 </g>
 <defs>
  <clipPath id="pe773a9bbbd">
   <rect height="471.4848" width="1071.36" x="57.182813" y="7.2"/>
  </clipPath>
 </defs>
</svg>
