<?xml version="1.0" encoding="utf-8" standalone="no"?>
<!DOCTYPE svg PUBLIC "-//W3C//DTD SVG 1.1//EN"
  "http://www.w3.org/Graphics/SVG/1.1/DTD/svg11.dtd">
<svg xmlns:xlink="http://www.w3.org/1999/xlink" width="1135.742813pt" height="523.783302pt" viewBox="0 0 1135.742813 523.783302" xmlns="http://www.w3.org/2000/svg" version="1.1">
 <metadata>
  <rdf:RDF xmlns:dc="http://purl.org/dc/elements/1.1/" xmlns:cc="http://creativecommons.org/ns#" xmlns:rdf="http://www.w3.org/1999/02/22-rdf-syntax-ns#">
   <cc:Work>
    <dc:type rdf:resource="http://purl.org/dc/dcmitype/StillImage"/>
    <dc:date>2023-01-17T17:14:55.222931</dc:date>
    <dc:format>image/svg+xml</dc:format>
    <dc:creator>
     <cc:Agent>
      <dc:title>Matplotlib v3.6.2, https://matplotlib.org/</dc:title>
     </cc:Agent>
    </dc:creator>
   </cc:Work>
  </rdf:RDF>
 </metadata>
 <defs>
  <style type="text/css">*{stroke-linejoin: round; stroke-linecap: butt}</style>
 </defs>
 <g id="figure_1">
  <g id="patch_1">
   <path d="M 0 523.783302 
L 1135.742813 523.783302 
L 1135.742813 0 
L 0 0 
z
" style="fill: #ffffff"/>
  </g>
  <g id="axes_1">
   <g id="patch_2">
    <path d="M 57.182813 488.4768 
L 1128.542812 488.4768 
L 1128.542812 7.2 
L 57.182813 7.2 
z
" style="fill: #ffffff"/>
   </g>
   <g id="matplotlib.axis_1">
    <g id="xtick_1">
     <g id="line2d_1">
      <defs>
       <path id="m4e933df6aa" d="M 0 0 
L 0 3.5 
" style="stroke: #000000; stroke-width: 0.8"/>
      </defs>
      <g>
       <use xlink:href="#m4e933df6aa" x="72.41866" y="488.4768" style="stroke: #000000; stroke-width: 0.8"/>
      </g>
     </g>
     <g id="text_1">
      <!-- 1992 -->
      <g transform="translate(49.33847 514.78224) rotate(-30) scale(0.1 -0.1)">
       <defs>
        <path id="DejaVuSans-31" d="M 794 531 
L 1825 531 
L 1825 4091 
L 703 3866 
L 703 4441 
L 1819 4666 
L 2450 4666 
L 2450 531 
L 3481 531 
L 3481 0 
L 794 0 
L 794 531 
z
" transform="scale(0.015625)"/>
        <path id="DejaVuSans-39" d="M 703 97 
L 703 672 
Q 941 559 1184 500 
Q 1428 441 1663 441 
Q 2288 441 2617 861 
Q 2947 1281 2994 2138 
Q 2813 1869 2534 1725 
Q 2256 1581 1919 1581 
Q 1219 1581 811 2004 
Q 403 2428 403 3163 
Q 403 3881 828 4315 
Q 1253 4750 1959 4750 
Q 2769 4750 3195 4129 
Q 3622 3509 3622 2328 
Q 3622 1225 3098 567 
Q 2575 -91 1691 -91 
Q 1453 -91 1209 -44 
Q 966 3 703 97 
z
M 1959 2075 
Q 2384 2075 2632 2365 
Q 2881 2656 2881 3163 
Q 2881 3666 2632 3958 
Q 2384 4250 1959 4250 
Q 1534 4250 1286 3958 
Q 1038 3666 1038 3163 
Q 1038 2656 1286 2365 
Q 1534 2075 1959 2075 
z
" transform="scale(0.015625)"/>
        <path id="DejaVuSans-32" d="M 1228 531 
L 3431 531 
L 3431 0 
L 469 0 
L 469 531 
Q 828 903 1448 1529 
Q 2069 2156 2228 2338 
Q 2531 2678 2651 2914 
Q 2772 3150 2772 3378 
Q 2772 3750 2511 3984 
Q 2250 4219 1831 4219 
Q 1534 4219 1204 4116 
Q 875 4013 500 3803 
L 500 4441 
Q 881 4594 1212 4672 
Q 1544 4750 1819 4750 
Q 2544 4750 2975 4387 
Q 3406 4025 3406 3419 
Q 3406 3131 3298 2873 
Q 3191 2616 2906 2266 
Q 2828 2175 2409 1742 
Q 1991 1309 1228 531 
z
" transform="scale(0.015625)"/>
       </defs>
       <use xlink:href="#DejaVuSans-31"/>
       <use xlink:href="#DejaVuSans-39" x="63.623047"/>
       <use xlink:href="#DejaVuSans-39" x="127.246094"/>
       <use xlink:href="#DejaVuSans-32" x="190.869141"/>
      </g>
     </g>
    </g>
    <g id="xtick_2">
     <g id="line2d_2">
      <g>
       <use xlink:href="#m4e933df6aa" x="205.629751" y="488.4768" style="stroke: #000000; stroke-width: 0.8"/>
      </g>
     </g>
     <g id="text_2">
      <!-- 1996 -->
      <g transform="translate(182.549561 514.78224) rotate(-30) scale(0.1 -0.1)">
       <defs>
        <path id="DejaVuSans-36" d="M 2113 2584 
Q 1688 2584 1439 2293 
Q 1191 2003 1191 1497 
Q 1191 994 1439 701 
Q 1688 409 2113 409 
Q 2538 409 2786 701 
Q 3034 994 3034 1497 
Q 3034 2003 2786 2293 
Q 2538 2584 2113 2584 
z
M 3366 4563 
L 3366 3988 
Q 3128 4100 2886 4159 
Q 2644 4219 2406 4219 
Q 1781 4219 1451 3797 
Q 1122 3375 1075 2522 
Q 1259 2794 1537 2939 
Q 1816 3084 2150 3084 
Q 2853 3084 3261 2657 
Q 3669 2231 3669 1497 
Q 3669 778 3244 343 
Q 2819 -91 2113 -91 
Q 1303 -91 875 529 
Q 447 1150 447 2328 
Q 447 3434 972 4092 
Q 1497 4750 2381 4750 
Q 2619 4750 2861 4703 
Q 3103 4656 3366 4563 
z
" transform="scale(0.015625)"/>
       </defs>
       <use xlink:href="#DejaVuSans-31"/>
       <use xlink:href="#DejaVuSans-39" x="63.623047"/>
       <use xlink:href="#DejaVuSans-39" x="127.246094"/>
       <use xlink:href="#DejaVuSans-36" x="190.869141"/>
      </g>
     </g>
    </g>
    <g id="xtick_3">
     <g id="line2d_3">
      <g>
       <use xlink:href="#m4e933df6aa" x="338.840842" y="488.4768" style="stroke: #000000; stroke-width: 0.8"/>
      </g>
     </g>
     <g id="text_3">
      <!-- 2000 -->
      <g transform="translate(315.760652 514.78224) rotate(-30) scale(0.1 -0.1)">
       <defs>
        <path id="DejaVuSans-30" d="M 2034 4250 
Q 1547 4250 1301 3770 
Q 1056 3291 1056 2328 
Q 1056 1369 1301 889 
Q 1547 409 2034 409 
Q 2525 409 2770 889 
Q 3016 1369 3016 2328 
Q 3016 3291 2770 3770 
Q 2525 4250 2034 4250 
z
M 2034 4750 
Q 2819 4750 3233 4129 
Q 3647 3509 3647 2328 
Q 3647 1150 3233 529 
Q 2819 -91 2034 -91 
Q 1250 -91 836 529 
Q 422 1150 422 2328 
Q 422 3509 836 4129 
Q 1250 4750 2034 4750 
z
" transform="scale(0.015625)"/>
       </defs>
       <use xlink:href="#DejaVuSans-32"/>
       <use xlink:href="#DejaVuSans-30" x="63.623047"/>
       <use xlink:href="#DejaVuSans-30" x="127.246094"/>
       <use xlink:href="#DejaVuSans-30" x="190.869141"/>
      </g>
     </g>
    </g>
    <g id="xtick_4">
     <g id="line2d_4">
      <g>
       <use xlink:href="#m4e933df6aa" x="472.051933" y="488.4768" style="stroke: #000000; stroke-width: 0.8"/>
      </g>
     </g>
     <g id="text_4">
      <!-- 2004 -->
      <g transform="translate(448.971742 514.78224) rotate(-30) scale(0.1 -0.1)">
       <defs>
        <path id="DejaVuSans-34" d="M 2419 4116 
L 825 1625 
L 2419 1625 
L 2419 4116 
z
M 2253 4666 
L 3047 4666 
L 3047 1625 
L 3713 1625 
L 3713 1100 
L 3047 1100 
L 3047 0 
L 2419 0 
L 2419 1100 
L 313 1100 
L 313 1709 
L 2253 4666 
z
" transform="scale(0.015625)"/>
       </defs>
       <use xlink:href="#DejaVuSans-32"/>
       <use xlink:href="#DejaVuSans-30" x="63.623047"/>
       <use xlink:href="#DejaVuSans-30" x="127.246094"/>
       <use xlink:href="#DejaVuSans-34" x="190.869141"/>
      </g>
     </g>
    </g>
    <g id="xtick_5">
     <g id="line2d_5">
      <g>
       <use xlink:href="#m4e933df6aa" x="605.263024" y="488.4768" style="stroke: #000000; stroke-width: 0.8"/>
      </g>
     </g>
     <g id="text_5">
      <!-- 2008 -->
      <g transform="translate(582.182833 514.78224) rotate(-30) scale(0.1 -0.1)">
       <defs>
        <path id="DejaVuSans-38" d="M 2034 2216 
Q 1584 2216 1326 1975 
Q 1069 1734 1069 1313 
Q 1069 891 1326 650 
Q 1584 409 2034 409 
Q 2484 409 2743 651 
Q 3003 894 3003 1313 
Q 3003 1734 2745 1975 
Q 2488 2216 2034 2216 
z
M 1403 2484 
Q 997 2584 770 2862 
Q 544 3141 544 3541 
Q 544 4100 942 4425 
Q 1341 4750 2034 4750 
Q 2731 4750 3128 4425 
Q 3525 4100 3525 3541 
Q 3525 3141 3298 2862 
Q 3072 2584 2669 2484 
Q 3125 2378 3379 2068 
Q 3634 1759 3634 1313 
Q 3634 634 3220 271 
Q 2806 -91 2034 -91 
Q 1263 -91 848 271 
Q 434 634 434 1313 
Q 434 1759 690 2068 
Q 947 2378 1403 2484 
z
M 1172 3481 
Q 1172 3119 1398 2916 
Q 1625 2713 2034 2713 
Q 2441 2713 2670 2916 
Q 2900 3119 2900 3481 
Q 2900 3844 2670 4047 
Q 2441 4250 2034 4250 
Q 1625 4250 1398 4047 
Q 1172 3844 1172 3481 
z
" transform="scale(0.015625)"/>
       </defs>
       <use xlink:href="#DejaVuSans-32"/>
       <use xlink:href="#DejaVuSans-30" x="63.623047"/>
       <use xlink:href="#DejaVuSans-30" x="127.246094"/>
       <use xlink:href="#DejaVuSans-38" x="190.869141"/>
      </g>
     </g>
    </g>
    <g id="xtick_6">
     <g id="line2d_6">
      <g>
       <use xlink:href="#m4e933df6aa" x="738.474114" y="488.4768" style="stroke: #000000; stroke-width: 0.8"/>
      </g>
     </g>
     <g id="text_6">
      <!-- 2012 -->
      <g transform="translate(715.393924 514.78224) rotate(-30) scale(0.1 -0.1)">
       <use xlink:href="#DejaVuSans-32"/>
       <use xlink:href="#DejaVuSans-30" x="63.623047"/>
       <use xlink:href="#DejaVuSans-31" x="127.246094"/>
       <use xlink:href="#DejaVuSans-32" x="190.869141"/>
      </g>
     </g>
    </g>
    <g id="xtick_7">
     <g id="line2d_7">
      <g>
       <use xlink:href="#m4e933df6aa" x="871.685205" y="488.4768" style="stroke: #000000; stroke-width: 0.8"/>
      </g>
     </g>
     <g id="text_7">
      <!-- 2016 -->
      <g transform="translate(848.605015 514.78224) rotate(-30) scale(0.1 -0.1)">
       <use xlink:href="#DejaVuSans-32"/>
       <use xlink:href="#DejaVuSans-30" x="63.623047"/>
       <use xlink:href="#DejaVuSans-31" x="127.246094"/>
       <use xlink:href="#DejaVuSans-36" x="190.869141"/>
      </g>
     </g>
    </g>
    <g id="xtick_8">
     <g id="line2d_8">
      <g>
       <use xlink:href="#m4e933df6aa" x="1004.896296" y="488.4768" style="stroke: #000000; stroke-width: 0.8"/>
      </g>
     </g>
     <g id="text_8">
      <!-- 2020 -->
      <g transform="translate(981.816106 514.78224) rotate(-30) scale(0.1 -0.1)">
       <use xlink:href="#DejaVuSans-32"/>
       <use xlink:href="#DejaVuSans-30" x="63.623047"/>
       <use xlink:href="#DejaVuSans-32" x="127.246094"/>
       <use xlink:href="#DejaVuSans-30" x="190.869141"/>
      </g>
     </g>
    </g>
   </g>
   <g id="matplotlib.axis_2">
    <g id="ytick_1">
     <g id="line2d_9">
      <defs>
       <path id="m2e80772191" d="M 0 0 
L -3.5 0 
" style="stroke: #000000; stroke-width: 0.8"/>
      </defs>
      <g>
       <use xlink:href="#m2e80772191" x="57.182813" y="435.652633" style="stroke: #000000; stroke-width: 0.8"/>
      </g>
     </g>
     <g id="text_9">
      <!-- −5.0 -->
      <g transform="translate(25.9 439.451852) scale(0.1 -0.1)">
       <defs>
        <path id="DejaVuSans-2212" d="M 678 2272 
L 4684 2272 
L 4684 1741 
L 678 1741 
L 678 2272 
z
" transform="scale(0.015625)"/>
        <path id="DejaVuSans-35" d="M 691 4666 
L 3169 4666 
L 3169 4134 
L 1269 4134 
L 1269 2991 
Q 1406 3038 1543 3061 
Q 1681 3084 1819 3084 
Q 2600 3084 3056 2656 
Q 3513 2228 3513 1497 
Q 3513 744 3044 326 
Q 2575 -91 1722 -91 
Q 1428 -91 1123 -41 
Q 819 9 494 109 
L 494 744 
Q 775 591 1075 516 
Q 1375 441 1709 441 
Q 2250 441 2565 725 
Q 2881 1009 2881 1497 
Q 2881 1984 2565 2268 
Q 2250 2553 1709 2553 
Q 1456 2553 1204 2497 
Q 953 2441 691 2322 
L 691 4666 
z
" transform="scale(0.015625)"/>
        <path id="DejaVuSans-2e" d="M 684 794 
L 1344 794 
L 1344 0 
L 684 0 
L 684 794 
z
" transform="scale(0.015625)"/>
       </defs>
       <use xlink:href="#DejaVuSans-2212"/>
       <use xlink:href="#DejaVuSans-35" x="83.789062"/>
       <use xlink:href="#DejaVuSans-2e" x="147.412109"/>
       <use xlink:href="#DejaVuSans-30" x="179.199219"/>
      </g>
     </g>
    </g>
    <g id="ytick_2">
     <g id="line2d_10">
      <g>
       <use xlink:href="#m2e80772191" x="57.182813" y="369.847095" style="stroke: #000000; stroke-width: 0.8"/>
      </g>
     </g>
     <g id="text_10">
      <!-- −2.5 -->
      <g transform="translate(25.9 373.646314) scale(0.1 -0.1)">
       <use xlink:href="#DejaVuSans-2212"/>
       <use xlink:href="#DejaVuSans-32" x="83.789062"/>
       <use xlink:href="#DejaVuSans-2e" x="147.412109"/>
       <use xlink:href="#DejaVuSans-35" x="179.199219"/>
      </g>
     </g>
    </g>
    <g id="ytick_3">
     <g id="line2d_11">
      <g>
       <use xlink:href="#m2e80772191" x="57.182813" y="304.041556" style="stroke: #000000; stroke-width: 0.8"/>
      </g>
     </g>
     <g id="text_11">
      <!-- 0.0 -->
      <g transform="translate(34.279688 307.840775) scale(0.1 -0.1)">
       <use xlink:href="#DejaVuSans-30"/>
       <use xlink:href="#DejaVuSans-2e" x="63.623047"/>
       <use xlink:href="#DejaVuSans-30" x="95.410156"/>
      </g>
     </g>
    </g>
    <g id="ytick_4">
     <g id="line2d_12">
      <g>
       <use xlink:href="#m2e80772191" x="57.182813" y="238.236018" style="stroke: #000000; stroke-width: 0.8"/>
      </g>
     </g>
     <g id="text_12">
      <!-- 2.5 -->
      <g transform="translate(34.279688 242.035237) scale(0.1 -0.1)">
       <use xlink:href="#DejaVuSans-32"/>
       <use xlink:href="#DejaVuSans-2e" x="63.623047"/>
       <use xlink:href="#DejaVuSans-35" x="95.410156"/>
      </g>
     </g>
    </g>
    <g id="ytick_5">
     <g id="line2d_13">
      <g>
       <use xlink:href="#m2e80772191" x="57.182813" y="172.43048" style="stroke: #000000; stroke-width: 0.8"/>
      </g>
     </g>
     <g id="text_13">
      <!-- 5.0 -->
      <g transform="translate(34.279688 176.229699) scale(0.1 -0.1)">
       <use xlink:href="#DejaVuSans-35"/>
       <use xlink:href="#DejaVuSans-2e" x="63.623047"/>
       <use xlink:href="#DejaVuSans-30" x="95.410156"/>
      </g>
     </g>
    </g>
    <g id="ytick_6">
     <g id="line2d_14">
      <g>
       <use xlink:href="#m2e80772191" x="57.182813" y="106.624941" style="stroke: #000000; stroke-width: 0.8"/>
      </g>
     </g>
     <g id="text_14">
      <!-- 7.5 -->
      <g transform="translate(34.279688 110.42416) scale(0.1 -0.1)">
       <defs>
        <path id="DejaVuSans-37" d="M 525 4666 
L 3525 4666 
L 3525 4397 
L 1831 0 
L 1172 0 
L 2766 4134 
L 525 4134 
L 525 4666 
z
" transform="scale(0.015625)"/>
       </defs>
       <use xlink:href="#DejaVuSans-37"/>
       <use xlink:href="#DejaVuSans-2e" x="63.623047"/>
       <use xlink:href="#DejaVuSans-35" x="95.410156"/>
      </g>
     </g>
    </g>
    <g id="ytick_7">
     <g id="line2d_15">
      <g>
       <use xlink:href="#m2e80772191" x="57.182813" y="40.819403" style="stroke: #000000; stroke-width: 0.8"/>
      </g>
     </g>
     <g id="text_15">
      <!-- 10.0 -->
      <g transform="translate(27.917188 44.618622) scale(0.1 -0.1)">
       <use xlink:href="#DejaVuSans-31"/>
       <use xlink:href="#DejaVuSans-30" x="63.623047"/>
       <use xlink:href="#DejaVuSans-2e" x="127.246094"/>
       <use xlink:href="#DejaVuSans-30" x="159.033203"/>
      </g>
     </g>
    </g>
    <g id="text_16">
     <!-- Balance ($m^3/s$) -->
     <g transform="translate(18.988438 299.9184) rotate(-90) scale(0.14 -0.14)">
      <defs>
       <path id="DejaVuSans-42" d="M 1259 2228 
L 1259 519 
L 2272 519 
Q 2781 519 3026 730 
Q 3272 941 3272 1375 
Q 3272 1813 3026 2020 
Q 2781 2228 2272 2228 
L 1259 2228 
z
M 1259 4147 
L 1259 2741 
L 2194 2741 
Q 2656 2741 2882 2914 
Q 3109 3088 3109 3444 
Q 3109 3797 2882 3972 
Q 2656 4147 2194 4147 
L 1259 4147 
z
M 628 4666 
L 2241 4666 
Q 2963 4666 3353 4366 
Q 3744 4066 3744 3513 
Q 3744 3084 3544 2831 
Q 3344 2578 2956 2516 
Q 3422 2416 3680 2098 
Q 3938 1781 3938 1306 
Q 3938 681 3513 340 
Q 3088 0 2303 0 
L 628 0 
L 628 4666 
z
" transform="scale(0.015625)"/>
       <path id="DejaVuSans-61" d="M 2194 1759 
Q 1497 1759 1228 1600 
Q 959 1441 959 1056 
Q 959 750 1161 570 
Q 1363 391 1709 391 
Q 2188 391 2477 730 
Q 2766 1069 2766 1631 
L 2766 1759 
L 2194 1759 
z
M 3341 1997 
L 3341 0 
L 2766 0 
L 2766 531 
Q 2569 213 2275 61 
Q 1981 -91 1556 -91 
Q 1019 -91 701 211 
Q 384 513 384 1019 
Q 384 1609 779 1909 
Q 1175 2209 1959 2209 
L 2766 2209 
L 2766 2266 
Q 2766 2663 2505 2880 
Q 2244 3097 1772 3097 
Q 1472 3097 1187 3025 
Q 903 2953 641 2809 
L 641 3341 
Q 956 3463 1253 3523 
Q 1550 3584 1831 3584 
Q 2591 3584 2966 3190 
Q 3341 2797 3341 1997 
z
" transform="scale(0.015625)"/>
       <path id="DejaVuSans-6c" d="M 603 4863 
L 1178 4863 
L 1178 0 
L 603 0 
L 603 4863 
z
" transform="scale(0.015625)"/>
       <path id="DejaVuSans-6e" d="M 3513 2113 
L 3513 0 
L 2938 0 
L 2938 2094 
Q 2938 2591 2744 2837 
Q 2550 3084 2163 3084 
Q 1697 3084 1428 2787 
Q 1159 2491 1159 1978 
L 1159 0 
L 581 0 
L 581 3500 
L 1159 3500 
L 1159 2956 
Q 1366 3272 1645 3428 
Q 1925 3584 2291 3584 
Q 2894 3584 3203 3211 
Q 3513 2838 3513 2113 
z
" transform="scale(0.015625)"/>
       <path id="DejaVuSans-63" d="M 3122 3366 
L 3122 2828 
Q 2878 2963 2633 3030 
Q 2388 3097 2138 3097 
Q 1578 3097 1268 2742 
Q 959 2388 959 1747 
Q 959 1106 1268 751 
Q 1578 397 2138 397 
Q 2388 397 2633 464 
Q 2878 531 3122 666 
L 3122 134 
Q 2881 22 2623 -34 
Q 2366 -91 2075 -91 
Q 1284 -91 818 406 
Q 353 903 353 1747 
Q 353 2603 823 3093 
Q 1294 3584 2113 3584 
Q 2378 3584 2631 3529 
Q 2884 3475 3122 3366 
z
" transform="scale(0.015625)"/>
       <path id="DejaVuSans-65" d="M 3597 1894 
L 3597 1613 
L 953 1613 
Q 991 1019 1311 708 
Q 1631 397 2203 397 
Q 2534 397 2845 478 
Q 3156 559 3463 722 
L 3463 178 
Q 3153 47 2828 -22 
Q 2503 -91 2169 -91 
Q 1331 -91 842 396 
Q 353 884 353 1716 
Q 353 2575 817 3079 
Q 1281 3584 2069 3584 
Q 2775 3584 3186 3129 
Q 3597 2675 3597 1894 
z
M 3022 2063 
Q 3016 2534 2758 2815 
Q 2500 3097 2075 3097 
Q 1594 3097 1305 2825 
Q 1016 2553 972 2059 
L 3022 2063 
z
" transform="scale(0.015625)"/>
       <path id="DejaVuSans-20" transform="scale(0.015625)"/>
       <path id="DejaVuSans-28" d="M 1984 4856 
Q 1566 4138 1362 3434 
Q 1159 2731 1159 2009 
Q 1159 1288 1364 580 
Q 1569 -128 1984 -844 
L 1484 -844 
Q 1016 -109 783 600 
Q 550 1309 550 2009 
Q 550 2706 781 3412 
Q 1013 4119 1484 4856 
L 1984 4856 
z
" transform="scale(0.015625)"/>
       <path id="DejaVuSans-Oblique-6d" d="M 5747 2113 
L 5338 0 
L 4763 0 
L 5166 2094 
Q 5191 2228 5203 2325 
Q 5216 2422 5216 2491 
Q 5216 2772 5059 2928 
Q 4903 3084 4622 3084 
Q 4203 3084 3875 2770 
Q 3547 2456 3450 1953 
L 3066 0 
L 2491 0 
L 2900 2094 
Q 2925 2209 2937 2307 
Q 2950 2406 2950 2484 
Q 2950 2769 2794 2926 
Q 2638 3084 2363 3084 
Q 1938 3084 1609 2770 
Q 1281 2456 1184 1953 
L 800 0 
L 225 0 
L 909 3500 
L 1484 3500 
L 1375 2956 
Q 1609 3263 1923 3423 
Q 2238 3584 2597 3584 
Q 2978 3584 3223 3384 
Q 3469 3184 3519 2828 
Q 3781 3197 4126 3390 
Q 4472 3584 4856 3584 
Q 5306 3584 5551 3325 
Q 5797 3066 5797 2591 
Q 5797 2488 5784 2364 
Q 5772 2241 5747 2113 
z
" transform="scale(0.015625)"/>
       <path id="DejaVuSans-33" d="M 2597 2516 
Q 3050 2419 3304 2112 
Q 3559 1806 3559 1356 
Q 3559 666 3084 287 
Q 2609 -91 1734 -91 
Q 1441 -91 1130 -33 
Q 819 25 488 141 
L 488 750 
Q 750 597 1062 519 
Q 1375 441 1716 441 
Q 2309 441 2620 675 
Q 2931 909 2931 1356 
Q 2931 1769 2642 2001 
Q 2353 2234 1838 2234 
L 1294 2234 
L 1294 2753 
L 1863 2753 
Q 2328 2753 2575 2939 
Q 2822 3125 2822 3475 
Q 2822 3834 2567 4026 
Q 2313 4219 1838 4219 
Q 1578 4219 1281 4162 
Q 984 4106 628 3988 
L 628 4550 
Q 988 4650 1302 4700 
Q 1616 4750 1894 4750 
Q 2613 4750 3031 4423 
Q 3450 4097 3450 3541 
Q 3450 3153 3228 2886 
Q 3006 2619 2597 2516 
z
" transform="scale(0.015625)"/>
       <path id="DejaVuSans-2f" d="M 1625 4666 
L 2156 4666 
L 531 -594 
L 0 -594 
L 1625 4666 
z
" transform="scale(0.015625)"/>
       <path id="DejaVuSans-Oblique-73" d="M 3200 3397 
L 3091 2853 
Q 2863 2978 2609 3040 
Q 2356 3103 2088 3103 
Q 1634 3103 1373 2948 
Q 1113 2794 1113 2528 
Q 1113 2219 1719 2053 
Q 1766 2041 1788 2034 
L 1972 1978 
Q 2547 1819 2739 1644 
Q 2931 1469 2931 1166 
Q 2931 609 2489 259 
Q 2047 -91 1331 -91 
Q 1053 -91 747 -37 
Q 441 16 72 128 
L 184 722 
Q 500 559 806 475 
Q 1113 391 1394 391 
Q 1816 391 2080 572 
Q 2344 753 2344 1031 
Q 2344 1331 1650 1516 
L 1591 1531 
L 1394 1581 
Q 956 1697 753 1886 
Q 550 2075 550 2369 
Q 550 2928 970 3256 
Q 1391 3584 2113 3584 
Q 2397 3584 2667 3537 
Q 2938 3491 3200 3397 
z
" transform="scale(0.015625)"/>
       <path id="DejaVuSans-29" d="M 513 4856 
L 1013 4856 
Q 1481 4119 1714 3412 
Q 1947 2706 1947 2009 
Q 1947 1309 1714 600 
Q 1481 -109 1013 -844 
L 513 -844 
Q 928 -128 1133 580 
Q 1338 1288 1338 2009 
Q 1338 2731 1133 3434 
Q 928 4138 513 4856 
z
" transform="scale(0.015625)"/>
      </defs>
      <use xlink:href="#DejaVuSans-42" transform="translate(0 0.765625)"/>
      <use xlink:href="#DejaVuSans-61" transform="translate(68.603516 0.765625)"/>
      <use xlink:href="#DejaVuSans-6c" transform="translate(129.882812 0.765625)"/>
      <use xlink:href="#DejaVuSans-61" transform="translate(157.666016 0.765625)"/>
      <use xlink:href="#DejaVuSans-6e" transform="translate(218.945312 0.765625)"/>
      <use xlink:href="#DejaVuSans-63" transform="translate(282.324219 0.765625)"/>
      <use xlink:href="#DejaVuSans-65" transform="translate(337.304688 0.765625)"/>
      <use xlink:href="#DejaVuSans-20" transform="translate(398.828125 0.765625)"/>
      <use xlink:href="#DejaVuSans-28" transform="translate(430.615234 0.765625)"/>
      <use xlink:href="#DejaVuSans-Oblique-6d" transform="translate(469.628906 0.765625)"/>
      <use xlink:href="#DejaVuSans-33" transform="translate(571.690911 39.046875) scale(0.7)"/>
      <use xlink:href="#DejaVuSans-2f" transform="translate(618.961419 0.765625)"/>
      <use xlink:href="#DejaVuSans-Oblique-73" transform="translate(652.652826 0.765625)"/>
      <use xlink:href="#DejaVuSans-29" transform="translate(704.752435 0.765625)"/>
     </g>
    </g>
   </g>
   <g id="line2d_16">
    <path d="M 105.880994 304.041556 
L 108.707513 302.130041 
L 122.384216 302.130074 
L 125.210735 301.932469 
L 128.037254 300.733923 
L 130.772594 297.196277 
L 136.334454 288.581536 
L 139.160973 287.439327 
L 141.987491 245.300664 
L 144.540476 253.060696 
L 147.366995 257.740277 
L 150.102335 260.142589 
L 152.928854 263.514475 
L 155.664195 265.811252 
L 158.490713 267.200625 
L 161.317232 268.278619 
L 164.052573 268.213423 
L 166.879091 262.819694 
L 169.614432 258.108781 
L 172.440951 256.882625 
L 175.267469 259.853057 
L 177.820454 262.702792 
L 180.646973 261.457048 
L 183.382313 261.337332 
L 186.208832 264.091383 
L 188.944173 265.699529 
L 191.770692 266.409412 
L 194.59721 266.920507 
L 197.332551 266.644744 
L 200.15907 264.641188 
L 202.89441 260.893826 
L 205.720929 259.283827 
L 208.547448 246.898448 
L 211.19161 247.526885 
L 214.018129 246.767204 
L 216.75347 248.131345 
L 222.315329 253.822582 
L 225.141848 255.512933 
L 227.968366 256.389931 
L 230.703707 256.299719 
L 233.530226 254.824621 
L 236.265566 251.582052 
L 239.092085 249.419999 
L 241.918604 289.99457 
L 244.471589 291.949109 
L 247.298107 292.787692 
L 250.033448 293.231068 
L 255.595307 293.825355 
L 263.983685 294.369141 
L 272.372063 294.748888 
L 275.198582 301.84511 
L 277.751567 301.639359 
L 280.578085 300.679218 
L 283.313426 302.685899 
L 288.875285 303.080687 
L 294.528323 303.346241 
L 297.263664 301.513966 
L 300.090182 299.403448 
L 305.652042 299.468484 
L 308.47856 213.461575 
L 311.031545 224.249142 
L 313.858064 230.119578 
L 316.593404 234.439961 
L 319.419923 237.179845 
L 322.155264 239.04046 
L 324.981782 240.762015 
L 327.808301 242.047793 
L 330.543642 240.666972 
L 333.37016 237.595276 
L 336.105501 235.920219 
L 338.93202 234.808266 
L 341.758539 264.247804 
L 344.402701 268.181696 
L 347.22922 270.11178 
L 349.964561 275.373905 
L 352.791079 278.274873 
L 355.52642 280.053417 
L 358.352939 281.315535 
L 361.179457 282.080824 
L 363.914798 280.426879 
L 366.741317 274.614609 
L 369.476657 270.121055 
L 372.303176 271.452901 
L 375.129695 253.366755 
L 377.682679 260.326667 
L 380.509198 263.327036 
L 383.244539 264.463617 
L 386.071057 265.099765 
L 388.806398 265.489684 
L 391.632917 265.770395 
L 394.459436 265.630346 
L 397.194776 262.969456 
L 400.021295 257.66149 
L 402.756636 253.357364 
L 405.583154 252.326082 
L 408.409673 283.333893 
L 410.962658 288.628724 
L 413.789176 290.869956 
L 416.524517 291.552396 
L 419.351036 291.841983 
L 427.739414 292.254648 
L 430.474754 292.3464 
L 433.301273 291.448579 
L 436.036614 292.498586 
L 438.863132 292.562435 
L 441.689651 300.575524 
L 444.242636 300.880932 
L 447.069155 300.961209 
L 449.804495 301.296886 
L 452.631014 301.440889 
L 455.366355 301.312144 
L 461.019392 300.583077 
L 463.754733 297.693015 
L 466.581251 294.158227 
L 469.316592 293.61391 
L 472.143111 295.059033 
L 474.969629 248.858867 
L 477.613792 256.965263 
L 480.440311 259.482819 
L 483.175651 259.815551 
L 486.00217 261.51617 
L 488.737511 262.43859 
L 494.390548 263.853085 
L 497.125889 261.661181 
L 499.952408 255.994831 
L 502.687748 251.229394 
L 505.514267 249.709107 
L 508.340786 236.857377 
L 510.89377 241.833464 
L 513.720289 244.637306 
L 516.45563 248.68041 
L 519.282148 253.566109 
L 522.017489 255.407189 
L 524.844008 256.562099 
L 527.670526 257.472 
L 530.405867 256.282364 
L 533.232386 250.889637 
L 535.967726 247.421256 
L 538.794245 250.981205 
L 541.620764 255.996497 
L 544.173748 257.520878 
L 547.000267 258.361303 
L 555.297467 259.173109 
L 558.123986 259.362195 
L 560.950505 259.010309 
L 563.685845 253.526004 
L 566.512364 246.166614 
L 569.247705 241.577311 
L 572.074223 239.821373 
L 574.900742 242.204915 
L 577.453727 247.727367 
L 580.280245 243.645163 
L 583.015586 247.523391 
L 585.842105 253.215366 
L 588.577445 258.045775 
L 591.403964 260.612738 
L 594.230483 259.769871 
L 596.965824 257.890758 
L 599.792342 255.608975 
L 602.527683 255.590172 
L 605.354202 256.008231 
L 608.18072 246.957903 
L 610.824883 252.055976 
L 613.651402 252.078583 
L 616.386742 254.295492 
L 619.213261 255.207506 
L 621.948602 256.324963 
L 624.77512 254.589594 
L 627.601639 253.931191 
L 630.33698 250.319255 
L 633.163498 245.686763 
L 635.898839 239.718599 
L 638.725358 232.685889 
L 641.551877 223.605349 
L 644.104861 231.706089 
L 646.93138 229.640955 
L 649.666721 236.108867 
L 652.493239 241.473637 
L 655.22858 247.127839 
L 658.055099 246.749595 
L 660.881617 249.872107 
L 663.616958 250.119792 
L 666.443477 245.307595 
L 669.178817 244.536632 
L 672.005336 239.372078 
L 674.831855 233.23235 
L 677.384839 236.933503 
L 680.211358 235.878777 
L 682.946699 236.519257 
L 685.773217 238.583744 
L 688.508558 242.247895 
L 691.335077 245.200742 
L 694.161595 242.095715 
L 696.896936 242.066297 
L 699.723455 236.130984 
L 702.458796 234.399442 
L 705.285314 230.822475 
L 708.111833 225.910151 
L 710.664818 232.30002 
L 713.491336 238.531186 
L 716.226677 242.891127 
L 719.053196 242.300067 
L 721.788536 242.903085 
L 724.615055 242.756826 
L 727.441574 244.455979 
L 730.176914 242.229249 
L 733.003433 236.276594 
L 735.738774 235.300498 
L 738.565292 231.606653 
L 741.391811 232.079149 
L 744.035974 232.098719 
L 746.862493 234.637211 
L 749.597833 234.408091 
L 752.424352 236.811164 
L 755.159693 236.312996 
L 757.986211 238.618775 
L 760.81273 239.387796 
L 763.548071 237.283237 
L 766.374589 234.315462 
L 769.10993 227.251587 
L 771.936449 227.30424 
L 774.762967 225.614212 
L 777.315952 226.738 
L 780.142471 229.493059 
L 782.877811 234.675279 
L 785.70433 235.950209 
L 788.439671 239.396012 
L 791.266189 242.625191 
L 794.092708 241.65436 
L 796.828049 239.690043 
L 799.654568 236.545162 
L 802.389908 229.046054 
L 805.216427 223.366461 
L 808.042946 235.495187 
L 810.59593 236.830986 
L 813.422449 242.582344 
L 816.15779 247.077628 
L 818.984308 247.290006 
L 821.719649 248.313534 
L 824.546168 250.242221 
L 827.372686 248.776438 
L 830.108027 247.073039 
L 832.934546 243.288821 
L 838.496405 232.470132 
L 841.322924 235.856042 
L 843.875908 240.961607 
L 846.702427 247.131405 
L 849.437768 252.78107 
L 852.264287 253.056693 
L 854.999627 253.135346 
L 857.826146 253.944658 
L 860.652665 252.155484 
L 863.388005 252.320731 
L 866.214524 252.989587 
L 868.949865 250.579307 
L 871.776383 244.021374 
L 874.602902 243.707622 
L 877.247065 244.398752 
L 880.073583 246.088274 
L 882.808924 250.324915 
L 885.635443 251.039965 
L 888.370783 252.81671 
L 891.197302 253.933409 
L 894.023821 246.484674 
L 896.759161 248.832233 
L 899.58568 251.742486 
L 902.321021 245.279953 
L 905.14754 251.55568 
L 907.974058 242.303928 
L 910.527043 244.549822 
L 913.353562 244.218362 
L 916.088902 240.076512 
L 918.915421 237.64354 
L 921.650762 250.432701 
L 924.47728 252.379691 
L 927.303799 248.98735 
L 930.03914 251.00234 
L 932.865658 251.461956 
L 935.600999 248.767013 
L 938.427518 251.010261 
L 941.254036 235.266272 
L 943.807021 243.993389 
L 946.63354 223.139712 
L 949.36888 247.015207 
L 952.195399 253.516041 
L 954.93074 255.427725 
L 957.757259 256.794837 
L 960.583777 257.959648 
L 963.319118 254.512093 
L 966.145637 248.156555 
L 968.880977 244.06334 
L 971.707496 244.83587 
L 974.534015 241.150912 
L 979.913518 256.01946 
L 982.648859 259.668083 
L 985.475377 261.657982 
L 988.210718 262.721814 
L 991.037237 263.620509 
L 993.863755 264.328397 
L 996.599096 264.284484 
L 999.425615 259.521249 
L 1002.160956 252.879888 
L 1004.987474 249.647015 
L 1007.813993 254.547585 
L 1010.458156 259.905495 
L 1013.284674 264.455191 
L 1016.020015 265.860223 
L 1018.846534 266.465542 
L 1021.581874 266.850134 
L 1024.408393 267.122362 
L 1027.234912 266.508527 
L 1029.970252 263.613959 
L 1032.796771 259.15908 
L 1035.532112 255.32071 
L 1038.35863 253.189632 
L 1041.185149 255.667445 
L 1043.738134 256.753837 
L 1046.564652 258.93981 
L 1049.299993 260.031132 
L 1052.126512 261.492083 
L 1054.861853 263.478264 
L 1057.688371 265.005456 
L 1060.51489 266.317915 
L 1063.250231 266.022638 
L 1066.076749 263.562177 
L 1068.81209 261.484509 
L 1071.638609 260.798016 
L 1074.465127 262.522884 
L 1077.018112 263.89745 
L 1079.844631 264.952938 
L 1079.844631 264.952938 
" clip-path="url(#pb65d655c37)" style="fill: none; stroke: #1f77b4; stroke-width: 1.5; stroke-linecap: square"/>
   </g>
   <g id="line2d_17">
    <path d="M 105.880994 294.995412 
L 139.160973 294.995454 
L 144.540476 294.820642 
L 158.490713 294.745628 
L 239.092085 294.515045 
L 241.918604 294.960547 
L 247.298107 295.329149 
L 255.595307 295.528602 
L 275.198582 295.868814 
L 283.313426 296.063766 
L 305.652042 296.256681 
L 308.47856 295.902888 
L 313.858064 295.649366 
L 324.981782 295.512322 
L 344.402701 295.299273 
L 363.914798 295.183616 
L 377.682679 295.249889 
L 472.143111 295.828475 
L 477.613792 295.489067 
L 488.737511 295.316712 
L 538.794245 295.037218 
L 608.18072 294.988052 
L 619.213261 295.10281 
L 638.725358 295.152571 
L 644.104861 294.860466 
L 658.055099 294.658807 
L 680.211358 294.537619 
L 719.053196 294.573711 
L 760.81273 294.538461 
L 902.321021 294.441289 
L 1079.844631 294.385295 
L 1079.844631 294.385295 
" clip-path="url(#pb65d655c37)" style="fill: none; stroke: #ff7f0e; stroke-width: 1.5; stroke-linecap: square"/>
   </g>
   <g id="line2d_18">
    <path d="M 105.880994 304.041556 
L 1079.844631 304.041556 
L 1079.844631 304.041556 
" clip-path="url(#pb65d655c37)" style="fill: none; stroke: #2ca02c; stroke-width: 1.5; stroke-linecap: square"/>
   </g>
   <g id="line2d_19">
    <path d="M 105.880994 304.041556 
L 1079.844631 304.041556 
L 1079.844631 304.041556 
" clip-path="url(#pb65d655c37)" style="fill: none; stroke: #d62728; stroke-width: 1.5; stroke-linecap: square"/>
   </g>
   <g id="line2d_20">
    <path d="M 105.880994 173.809197 
L 108.707513 173.809197 
L 111.260498 139.557681 
L 114.087016 137.455941 
L 116.822357 133.807275 
L 119.648876 127.672527 
L 122.384216 125.821575 
L 125.210735 129.032222 
L 128.037254 135.020145 
L 130.772594 148.81149 
L 133.599113 163.87714 
L 136.334454 175.083742 
L 139.160973 181.160662 
L 141.987491 203.924076 
L 144.540476 200.327772 
L 147.366995 198.632518 
L 150.102335 198.303062 
L 152.928854 196.004048 
L 155.664195 192.786831 
L 158.490713 189.694142 
L 161.317232 186.255212 
L 164.052573 189.483578 
L 166.879091 197.051119 
L 169.614432 203.593448 
L 172.440951 206.979482 
L 175.267469 197.29968 
L 177.820454 195.999754 
L 180.646973 199.101973 
L 183.382313 200.087285 
L 186.208832 197.755044 
L 188.944173 195.235145 
L 191.770692 193.969179 
L 194.59721 192.559587 
L 197.332551 194.647351 
L 200.15907 197.500343 
L 202.89441 201.976472 
L 205.720929 204.767514 
L 208.547448 210.818596 
L 211.19161 211.641108 
L 214.018129 213.812814 
L 216.75347 213.591082 
L 219.579988 211.667165 
L 222.315329 208.748063 
L 225.141848 207.298314 
L 227.968366 206.907089 
L 230.703707 207.835935 
L 233.530226 209.525839 
L 236.265566 213.057564 
L 239.092085 215.682636 
L 241.918604 167.680647 
L 244.471589 163.855119 
L 247.298107 161.245319 
L 250.033448 162.685129 
L 252.859967 163.986521 
L 255.595307 160.816393 
L 258.421826 152.848591 
L 261.248345 145.327576 
L 263.983685 129.834132 
L 266.810204 121.974026 
L 269.545545 115.18168 
L 272.372063 89.956357 
L 275.198582 29.076218 
L 280.578085 50.485734 
L 283.313426 48.450599 
L 286.139945 38.152489 
L 288.875285 29.703808 
L 291.701804 29.263334 
L 294.528323 29.334452 
L 297.263664 39.576105 
L 300.090182 56.190499 
L 302.825523 67.503911 
L 305.652042 77.645123 
L 308.47856 148.631105 
L 311.031545 146.762493 
L 313.858064 146.178021 
L 316.593404 139.941756 
L 319.419923 136.322851 
L 322.155264 135.451423 
L 324.981782 130.2787 
L 327.808301 127.731668 
L 330.543642 136.863576 
L 333.37016 150.807258 
L 336.105501 161.194965 
L 338.93202 168.906761 
L 341.758539 184.574486 
L 344.402701 186.525565 
L 347.22922 187.883223 
L 349.964561 183.632597 
L 352.791079 176.300097 
L 355.52642 165.427769 
L 358.352939 155.612938 
L 361.179457 151.372993 
L 363.914798 161.550307 
L 366.741317 175.056694 
L 369.476657 184.902476 
L 372.303176 186.966173 
L 375.129695 174.515855 
L 377.682679 164.906856 
L 380.509198 148.96714 
L 383.244539 138.98114 
L 386.071057 130.619933 
L 388.806398 126.370697 
L 391.632917 127.811259 
L 394.459436 130.492073 
L 397.194776 140.979031 
L 400.021295 157.991477 
L 402.756636 169.945531 
L 405.583154 175.748994 
L 408.409673 163.685074 
L 410.962658 160.731137 
L 413.789176 157.644055 
L 416.524517 153.111984 
L 419.351036 143.982361 
L 422.086376 131.302666 
L 424.912895 125.884943 
L 427.739414 118.950818 
L 430.474754 118.85011 
L 433.301273 125.141965 
L 436.036614 111.000648 
L 438.863132 93.893112 
L 441.689651 58.583681 
L 444.242636 58.412921 
L 447.069155 60.7057 
L 449.804495 60.540538 
L 452.631014 57.647494 
L 455.366355 59.918071 
L 458.192873 63.33695 
L 461.019392 67.683752 
L 463.754733 84.480216 
L 466.581251 107.629333 
L 469.316592 121.120534 
L 472.143111 126.760865 
L 474.969629 170.248272 
L 477.613792 154.026055 
L 480.440311 152.609094 
L 483.175651 157.139841 
L 486.00217 155.343937 
L 488.737511 153.069114 
L 491.56403 152.506387 
L 494.390548 150.654806 
L 497.125889 157.820089 
L 499.952408 170.914934 
L 502.687748 181.164699 
L 505.514267 186.907289 
L 508.340786 181.99814 
L 510.89377 180.713295 
L 513.720289 180.821 
L 516.45563 178.631376 
L 519.282148 167.683751 
L 522.017489 162.031491 
L 524.844008 160.009132 
L 527.670526 158.397677 
L 530.405867 164.095045 
L 533.232386 172.130347 
L 535.967726 177.789728 
L 538.794245 176.186565 
L 541.620764 169.57229 
L 544.173748 156.211566 
L 547.000267 156.759098 
L 549.735608 160.315958 
L 552.562127 159.690215 
L 555.297467 158.883783 
L 558.123986 158.337089 
L 560.950505 159.855243 
L 563.685845 169.454293 
L 566.512364 180.757879 
L 569.247705 189.249041 
L 572.074223 195.086988 
L 577.453727 196.001353 
L 580.280245 198.343952 
L 583.015586 197.611923 
L 585.842105 194.207067 
L 588.577445 187.199244 
L 591.403964 183.463628 
L 594.230483 179.497482 
L 596.965824 180.162488 
L 599.792342 183.812248 
L 602.527683 185.09122 
L 605.354202 175.70024 
L 608.18072 160.83511 
L 610.824883 155.787876 
L 613.651402 157.711603 
L 616.386742 159.173244 
L 621.948602 152.951631 
L 624.77512 151.749623 
L 627.601639 151.613852 
L 630.33698 159.388254 
L 633.163498 171.751203 
L 635.898839 181.987849 
L 638.725358 188.74199 
L 641.551877 204.511222 
L 646.93138 204.001934 
L 649.666721 202.517844 
L 652.493239 199.948886 
L 658.055099 190.890761 
L 660.881617 188.583892 
L 663.616958 190.847719 
L 666.443477 194.83499 
L 669.178817 197.696408 
L 672.005336 199.488485 
L 674.831855 206.343038 
L 680.211358 207.044469 
L 682.946699 207.3909 
L 685.773217 206.161521 
L 688.508558 203.082161 
L 691.335077 201.160833 
L 694.161595 200.452957 
L 696.896936 202.866074 
L 699.723455 206.811179 
L 702.458796 210.249623 
L 705.285314 212.523808 
L 708.111833 214.552108 
L 710.664818 210.532972 
L 713.491336 204.642005 
L 716.226677 200.973965 
L 719.053196 198.981453 
L 721.788536 195.851644 
L 724.615055 196.031676 
L 727.441574 195.706333 
L 730.176914 199.090158 
L 733.003433 205.151617 
L 735.738774 209.108499 
L 738.565292 210.031881 
L 741.391811 208.2482 
L 744.035974 208.722824 
L 746.862493 205.273794 
L 749.597833 198.646113 
L 752.424352 195.773414 
L 757.986211 197.583866 
L 760.81273 198.12859 
L 763.548071 200.29765 
L 769.10993 211.782725 
L 771.936449 214.526964 
L 774.762967 213.922985 
L 777.315952 212.065407 
L 780.142471 212.934874 
L 782.877811 214.74565 
L 785.70433 211.779174 
L 788.439671 192.847057 
L 791.266189 160.886406 
L 794.092708 161.423466 
L 796.828049 177.476523 
L 799.654568 193.071788 
L 802.389908 203.503071 
L 805.216427 209.110993 
L 808.042946 204.596983 
L 810.59593 200.933332 
L 813.422449 200.80947 
L 816.15779 202.963735 
L 818.984308 201.339809 
L 821.719649 193.424493 
L 824.546168 193.146667 
L 827.372686 194.848271 
L 830.108027 199.636167 
L 832.934546 206.271187 
L 835.669886 211.947515 
L 838.496405 215.562783 
L 841.322924 215.727497 
L 843.875908 209.419971 
L 846.702427 205.031793 
L 849.437768 193.802713 
L 852.264287 193.712336 
L 854.999627 191.539982 
L 857.826146 192.835395 
L 860.652665 192.214041 
L 863.388005 190.742109 
L 866.214524 195.991195 
L 868.949865 198.471965 
L 871.776383 203.628617 
L 874.602902 202.202212 
L 877.247065 200.24106 
L 880.073583 201.036372 
L 882.808924 200.095254 
L 888.370783 188.71578 
L 891.197302 184.466496 
L 894.023821 182.503716 
L 896.759161 184.596126 
L 899.58568 186.463187 
L 902.321021 181.255562 
L 905.14754 167.350096 
L 907.974058 149.430197 
L 910.527043 134.480601 
L 913.353562 136.932638 
L 916.088902 171.310586 
L 918.915421 186.42104 
L 921.650762 171.220142 
L 924.47728 167.8547 
L 927.303799 163.241239 
L 930.03914 164.681164 
L 932.865658 168.587692 
L 935.600999 166.902481 
L 938.427518 160.825256 
L 941.254036 153.506818 
L 943.807021 156.445027 
L 946.63354 203.017574 
L 949.36888 181.759786 
L 952.195399 165.349063 
L 954.93074 155.344298 
L 957.757259 151.977772 
L 960.583777 153.456407 
L 963.319118 168.778948 
L 966.145637 185.985602 
L 968.880977 196.618871 
L 971.707496 200.642557 
L 974.534015 209.124255 
L 977.086999 205.447485 
L 979.913518 198.551994 
L 982.648859 194.394402 
L 985.475377 189.51847 
L 991.037237 181.470287 
L 993.863755 179.101888 
L 996.599096 184.280475 
L 999.425615 192.187498 
L 1002.160956 201.428454 
L 1004.987474 207.976 
L 1007.813993 205.749018 
L 1010.458156 201.835635 
L 1013.284674 195.502642 
L 1016.020015 194.187512 
L 1021.581874 194.133103 
L 1024.408393 194.52745 
L 1027.234912 196.110458 
L 1029.970252 199.705009 
L 1035.532112 210.881259 
L 1038.35863 215.275036 
L 1041.185149 214.761882 
L 1043.738134 215.141254 
L 1046.564652 214.201735 
L 1049.299993 213.981174 
L 1052.126512 213.297918 
L 1054.861853 211.901179 
L 1060.51489 209.848878 
L 1063.250231 210.718307 
L 1066.076749 213.519631 
L 1068.81209 216.003771 
L 1071.638609 217.211025 
L 1074.465127 216.052716 
L 1077.018112 215.156763 
L 1079.844631 214.551375 
L 1079.844631 214.551375 
" clip-path="url(#pb65d655c37)" style="fill: none; stroke: #9467bd; stroke-width: 1.5; stroke-linecap: square"/>
   </g>
   <g id="line2d_21">
    <path d="M 105.880994 304.041556 
L 108.707513 304.0416 
L 111.260498 332.244233 
L 114.087016 322.739799 
L 116.822357 317.146347 
L 119.648876 314.95392 
L 125.210735 309.151366 
L 128.037254 307.645239 
L 130.772594 306.349169 
L 133.599113 305.213503 
L 136.334454 304.498413 
L 139.160973 304.209784 
L 141.987491 304.072889 
L 150.102335 304.052909 
L 152.928854 304.299639 
L 158.490713 307.351427 
L 161.317232 308.990434 
L 164.052573 305.440654 
L 166.879091 304.047131 
L 172.440951 304.04233 
L 175.267469 306.259707 
L 177.820454 305.526868 
L 180.646973 304.434313 
L 183.382313 304.326812 
L 186.208832 304.474592 
L 188.944173 305.601516 
L 191.770692 306.102803 
L 194.59721 306.741598 
L 197.332551 304.792475 
L 200.15907 304.150895 
L 219.579988 304.067447 
L 222.315329 304.758424 
L 225.141848 304.923944 
L 227.968366 304.693027 
L 230.703707 304.04161 
L 239.092085 304.041557 
L 241.918604 344.678823 
L 244.471589 344.454592 
L 247.298107 343.909045 
L 250.033448 339.604649 
L 252.859967 335.62956 
L 255.595307 336.209654 
L 258.421826 341.10599 
L 261.248345 344.735884 
L 263.983685 353.624102 
L 266.810204 348.645373 
L 269.545545 341.235783 
L 272.372063 341.993442 
L 275.198582 417.353886 
L 277.751567 405.363882 
L 280.578085 398.831293 
L 283.313426 395.35192 
L 286.139945 394.762365 
L 288.875285 392.662366 
L 291.701804 388.495234 
L 297.263664 382.318139 
L 300.090182 379.636949 
L 302.825523 377.381629 
L 305.652042 375.199383 
L 308.47856 311.332283 
L 311.031545 308.567696 
L 313.858064 307.096101 
L 316.593404 307.726167 
L 319.419923 307.201245 
L 322.155264 306.196966 
L 324.981782 306.856495 
L 327.808301 306.268496 
L 330.543642 304.733528 
L 338.93202 304.466474 
L 341.758539 311.129567 
L 344.402701 307.321584 
L 347.22922 306.01193 
L 349.964561 305.892084 
L 352.791079 309.630137 
L 355.52642 314.575804 
L 358.352939 314.492377 
L 361.179457 310.986234 
L 363.914798 305.49984 
L 366.741317 304.53093 
L 372.303176 304.382651 
L 375.129695 305.261004 
L 377.682679 308.721886 
L 380.509198 317.045681 
L 383.244539 316.287185 
L 386.071057 313.741143 
L 388.806398 310.966513 
L 391.632917 307.646696 
L 394.459436 305.981607 
L 397.194776 304.809742 
L 400.021295 304.393148 
L 405.583154 304.322781 
L 408.409673 315.674309 
L 410.962658 313.538873 
L 413.789176 313.888423 
L 416.524517 316.380034 
L 419.351036 321.221398 
L 422.086376 323.944063 
L 424.912895 320.210147 
L 427.739414 318.476749 
L 430.474754 314.938134 
L 433.301273 311.831349 
L 436.036614 315.24568 
L 438.863132 316.863309 
L 441.689651 336.70679 
L 444.242636 332.60057 
L 447.069155 329.649265 
L 449.804495 328.173907 
L 452.631014 327.673156 
L 455.366355 325.941896 
L 458.192873 324.904271 
L 461.019392 324.004682 
L 466.581251 321.675156 
L 469.316592 320.797517 
L 472.143111 320.135607 
L 474.969629 304.917855 
L 477.613792 309.723267 
L 480.440311 306.90889 
L 483.175651 304.445074 
L 486.00217 304.639642 
L 488.737511 305.169599 
L 491.56403 304.771848 
L 494.390548 305.013038 
L 497.125889 304.11879 
L 516.45563 304.090584 
L 519.282148 310.308134 
L 522.017489 312.929248 
L 524.844008 311.917281 
L 527.670526 310.54014 
L 530.405867 305.427715 
L 533.232386 304.086912 
L 538.794245 304.048327 
L 544.173748 321.106469 
L 547.000267 314.427076 
L 549.735608 308.276204 
L 552.562127 306.887483 
L 555.297467 306.24449 
L 558.123986 305.694804 
L 560.950505 304.684044 
L 563.685845 304.378108 
L 572.074223 304.209899 
L 574.900742 306.914957 
L 577.453727 306.409312 
L 580.280245 306.049315 
L 583.015586 305.843835 
L 585.842105 305.909116 
L 588.577445 309.212267 
L 591.403964 311.046381 
L 594.230483 313.079157 
L 596.965824 310.726258 
L 599.792342 306.979866 
L 602.527683 305.552016 
L 605.354202 312.151297 
L 608.18072 325.503118 
L 610.824883 326.578728 
L 613.651402 320.163605 
L 616.386742 316.472684 
L 619.213261 315.241607 
L 621.948602 314.963205 
L 624.77512 313.306559 
L 627.601639 311.853791 
L 630.33698 308.923545 
L 633.163498 307.589555 
L 638.725358 305.655425 
L 641.551877 304.201076 
L 644.104861 304.32854 
L 646.93138 304.074066 
L 652.493239 304.211566 
L 655.22858 305.871867 
L 658.055099 308.457707 
L 660.881617 309.647447 
L 663.616958 306.459615 
L 666.443477 304.323392 
L 669.178817 304.092524 
L 672.005336 304.046147 
L 674.831855 304.198636 
L 682.946699 304.069949 
L 685.773217 304.072382 
L 691.335077 306.160374 
L 694.161595 306.15457 
L 696.896936 304.455843 
L 699.723455 304.048492 
L 705.285314 304.042553 
L 710.664818 305.017358 
L 713.491336 307.800317 
L 716.226677 310.185289 
L 719.053196 311.392177 
L 721.788536 313.680861 
L 724.615055 312.303207 
L 727.441574 311.634013 
L 730.176914 307.439777 
L 733.003433 304.816737 
L 735.738774 304.329288 
L 738.565292 304.333205 
L 741.391811 305.213469 
L 744.035974 304.402439 
L 746.862493 307.35797 
L 749.597833 311.698158 
L 752.424352 313.481611 
L 757.986211 309.818387 
L 760.81273 308.973605 
L 763.548071 306.504177 
L 766.374589 305.607507 
L 769.10993 304.28836 
L 771.936449 304.398726 
L 774.762967 304.71137 
L 777.315952 304.281329 
L 780.142471 304.817615 
L 782.877811 306.040175 
L 785.70433 305.554657 
L 788.439671 319.646098 
L 791.266189 348.505412 
L 794.092708 341.716753 
L 796.828049 321.469177 
L 799.654568 309.118307 
L 802.389908 305.647145 
L 805.216427 304.557294 
L 808.042946 305.494828 
L 810.59593 304.848013 
L 813.422449 305.438197 
L 816.15779 306.653031 
L 818.984308 305.822828 
L 821.719649 311.809999 
L 824.546168 310.54788 
L 827.372686 308.257405 
L 830.108027 305.190773 
L 832.934546 305.407343 
L 838.496405 305.104742 
L 843.875908 305.384281 
L 846.702427 307.847034 
L 849.437768 318.139096 
L 852.264287 315.21277 
L 854.999627 316.0334 
L 857.826146 312.742078 
L 860.652665 312.283836 
L 863.388005 312.109425 
L 866.214524 306.393137 
L 868.949865 304.949695 
L 871.776383 304.405914 
L 874.602902 304.134146 
L 877.247065 304.34746 
L 880.073583 304.42882 
L 882.808924 304.857595 
L 885.635443 310.13566 
L 888.370783 314.876931 
L 891.197302 317.164732 
L 894.023821 317.00599 
L 896.759161 312.654356 
L 899.58568 308.753143 
L 902.321021 311.838974 
L 905.14754 320.495143 
L 907.974058 326.251833 
L 910.527043 324.210031 
L 913.353562 316.177807 
L 916.088902 308.763596 
L 918.915421 307.873899 
L 921.650762 310.214188 
L 924.47728 310.728282 
L 927.303799 311.687842 
L 930.03914 308.839471 
L 932.865658 306.72394 
L 935.600999 306.459647 
L 938.427518 308.197476 
L 941.254036 352.685287 
L 943.807021 340.844168 
L 946.63354 333.821914 
L 949.36888 333.254831 
L 952.195399 338.565763 
L 954.93074 337.881036 
L 960.583777 328.223304 
L 963.319118 323.986986 
L 966.145637 322.064127 
L 968.880977 320.915209 
L 974.534015 319.259623 
L 977.086999 318.636687 
L 979.913518 319.164619 
L 982.648859 320.091627 
L 985.475377 322.472759 
L 988.210718 324.004792 
L 991.037237 325.18874 
L 993.863755 324.419878 
L 996.599096 318.099655 
L 999.425615 315.63574 
L 1002.160956 315.154401 
L 1007.813993 314.638133 
L 1010.458156 314.699488 
L 1013.284674 317.081257 
L 1016.020015 316.98969 
L 1018.846534 316.079025 
L 1021.581874 315.433288 
L 1027.234912 313.503029 
L 1029.970252 313.211891 
L 1046.564652 312.513848 
L 1054.861853 312.30818 
L 1060.51489 312.323758 
L 1063.250231 311.996694 
L 1079.844631 311.62381 
L 1079.844631 311.62381 
" clip-path="url(#pb65d655c37)" style="fill: none; stroke: #8c564b; stroke-width: 1.5; stroke-linecap: square"/>
   </g>
   <g id="line2d_22">
    <path d="M 105.880994 304.041556 
L 1079.844631 304.041556 
L 1079.844631 304.041556 
" clip-path="url(#pb65d655c37)" style="fill: none; stroke: #e377c2; stroke-width: 1.5; stroke-linecap: square"/>
   </g>
   <g id="line2d_23">
    <path d="M 105.880994 381.467199 
L 108.707513 383.378649 
L 139.160973 383.378649 
L 141.987491 410.156319 
L 172.440951 410.126082 
L 175.267469 416.277101 
L 205.720929 416.268704 
L 208.547448 424.626445 
L 239.092085 424.615649 
L 241.918604 388.554271 
L 272.372063 388.577739 
L 275.198582 343.372497 
L 305.652042 343.372497 
L 308.47856 443.999236 
L 324.981782 443.8967 
L 338.93202 443.857618 
L 341.758539 395.12698 
L 358.352939 395.15695 
L 372.303176 395.15695 
L 375.129695 428.355444 
L 402.756636 428.268123 
L 405.583154 428.267247 
L 408.409673 398.38344 
L 438.863132 398.403814 
L 441.689651 393.672546 
L 472.143111 393.672546 
L 474.969629 420.111321 
L 502.687748 420.087262 
L 505.514267 420.086967 
L 508.340786 443.994713 
L 538.794245 443.974911 
L 541.620764 435.455988 
L 572.074223 435.457035 
L 574.900742 433.635454 
L 577.453727 430.589263 
L 580.280245 434.972566 
L 585.842105 432.967164 
L 588.577445 432.282013 
L 591.403964 431.270167 
L 594.230483 433.077668 
L 596.965824 435.603412 
L 599.792342 437.312776 
L 602.527683 437.225397 
L 605.354202 438.716532 
L 608.18072 445.827767 
L 610.824883 440.594342 
L 613.651402 440.925226 
L 616.386742 438.04372 
L 619.213261 437.869533 
L 621.948602 436.598188 
L 624.77512 438.559349 
L 627.601639 439.149647 
L 630.33698 440.115233 
L 633.163498 438.541651 
L 635.898839 439.130121 
L 638.725358 444.352798 
L 641.551877 444.565352 
L 644.104861 440.063194 
L 646.93138 445.461124 
L 649.666721 442.564052 
L 652.493239 441.173129 
L 655.22858 439.052243 
L 658.055099 441.48086 
L 660.881617 438.975261 
L 663.616958 439.199715 
L 666.443477 442.151473 
L 669.178817 440.762197 
L 672.005336 445.029246 
L 674.831855 445.218847 
L 677.384839 442.145484 
L 680.211358 443.829543 
L 685.773217 443.415573 
L 688.508558 442.127633 
L 691.335077 440.15739 
L 694.161595 443.873013 
L 696.896936 443.142307 
L 699.723455 445.784449 
L 702.458796 444.578861 
L 705.285314 446.655163 
L 708.111833 449.609072 
L 710.664818 447.320663 
L 713.491336 444.543969 
L 716.226677 441.528586 
L 719.053196 442.688171 
L 721.788536 442.25279 
L 724.615055 442.597183 
L 727.441574 440.745689 
L 733.003433 445.197902 
L 735.738774 443.130502 
L 738.565292 446.645538 
L 741.391811 447.594748 
L 744.035974 448.273244 
L 746.862493 446.391341 
L 749.597833 448.595294 
L 752.424352 446.424587 
L 755.159693 446.700623 
L 757.986211 444.265447 
L 760.81273 442.935313 
L 763.548071 444.878109 
L 766.374589 443.079434 
L 769.10993 446.841745 
L 771.936449 445.243857 
L 774.762967 448.680407 
L 777.315952 450.916967 
L 780.142471 447.588303 
L 782.877811 440.023227 
L 785.70433 442.821419 
L 788.439671 444.288468 
L 791.266189 442.131337 
L 794.092708 442.645462 
L 796.828049 443.268834 
L 799.654568 441.777832 
L 802.389908 443.774038 
L 805.216427 447.979795 
L 808.042946 441.131544 
L 810.59593 445.305169 
L 813.422449 439.855886 
L 816.15779 432.588944 
L 818.984308 435.36363 
L 821.719649 435.886228 
L 824.546168 434.713238 
L 827.372686 435.870719 
L 830.108027 435.423989 
L 832.934546 433.243553 
L 835.669886 434.674785 
L 838.496405 439.165089 
L 841.322924 436.968039 
L 843.875908 439.107986 
L 846.702427 435.421571 
L 849.437768 430.50295 
L 852.264287 432.412824 
L 854.999627 432.156305 
L 857.826146 431.594558 
L 860.652665 432.717403 
L 863.388005 432.667745 
L 866.214524 431.945778 
L 868.949865 433.434781 
L 871.776383 436.681092 
L 874.602902 439.330955 
L 877.247065 441.000285 
L 880.073583 438.785451 
L 882.808924 435.188672 
L 885.635443 434.722035 
L 888.370783 432.597931 
L 891.197302 431.600394 
L 894.023821 438.635132 
L 896.759161 436.274292 
L 899.58568 434.383963 
L 902.321021 441.820408 
L 905.14754 437.515476 
L 907.974058 444.99026 
L 910.527043 443.134767 
L 913.353562 442.614606 
L 916.088902 437.24658 
L 918.915421 435.320235 
L 924.47728 432.610641 
L 927.303799 435.894796 
L 930.03914 434.070206 
L 932.865658 433.494246 
L 935.600999 438.242812 
L 938.427518 438.302039 
L 941.254036 409.400708 
L 943.807021 408.795824 
L 946.63354 408.284222 
L 949.36888 407.956042 
L 952.195399 407.147563 
L 954.93074 406.759184 
L 963.319118 406.244422 
L 974.534015 405.854463 
L 993.863755 405.390921 
L 1004.987474 404.822796 
L 1016.020015 404.420422 
L 1032.796771 404.087053 
L 1057.688371 403.858895 
L 1079.844631 403.767889 
L 1079.844631 403.767889 
" clip-path="url(#pb65d655c37)" style="fill: none; stroke: #7f7f7f; stroke-width: 1.5; stroke-linecap: square"/>
   </g>
   <g id="line2d_24">
    <path d="M 105.880994 365.894421 
L 108.707513 365.894421 
L 111.260498 371.94328 
L 114.087016 383.549446 
L 116.822357 392.791559 
L 119.648876 401.11874 
L 122.384216 405.747758 
L 125.210735 405.759249 
L 128.037254 402.475903 
L 133.599113 384.064442 
L 136.334454 377.711537 
L 139.160973 373.065259 
L 141.987491 365.919636 
L 144.540476 361.820328 
L 147.366995 358.874969 
L 150.102335 356.82639 
L 152.928854 355.525255 
L 155.664195 354.978647 
L 158.490713 355.121449 
L 161.317232 355.851022 
L 164.052573 356.243266 
L 166.879091 355.467585 
L 169.614432 353.644271 
L 172.440951 351.488683 
L 175.267469 349.820086 
L 177.820454 349.000901 
L 183.382313 347.478572 
L 186.208832 346.909752 
L 188.944173 346.695546 
L 191.770692 346.751436 
L 194.59721 347.012287 
L 197.332551 347.150491 
L 200.15907 346.943754 
L 202.89441 346.232698 
L 205.720929 345.061542 
L 208.547448 343.162868 
L 214.018129 340.357424 
L 216.75347 339.232729 
L 219.579988 338.315184 
L 222.315329 337.700594 
L 225.141848 337.310509 
L 236.265566 336.423165 
L 239.092085 335.973761 
L 241.918604 338.380473 
L 247.298107 342.408632 
L 252.859967 347.009084 
L 255.595307 349.294065 
L 258.421826 352.120647 
L 261.248345 355.798155 
L 263.983685 362.220336 
L 266.810204 374.891496 
L 269.545545 388.947828 
L 275.198582 436.732817 
L 277.751567 438.754176 
L 280.578085 434.862348 
L 283.313426 438.324669 
L 288.875285 459.298461 
L 291.701804 463.736108 
L 294.528323 466.600582 
L 297.263664 461.265068 
L 300.090182 449.422851 
L 302.825523 440.304424 
L 305.652042 432.307166 
L 308.47856 410.922242 
L 311.031545 404.926064 
L 313.858064 401.207033 
L 319.419923 403.993791 
L 322.155264 404.091195 
L 324.981782 406.942387 
L 327.808301 408.826194 
L 330.543642 402.631344 
L 333.37016 391.889256 
L 336.105501 383.270006 
L 338.93202 376.753739 
L 341.758539 373.820823 
L 344.402701 371.77273 
L 347.22922 369.819528 
L 349.964561 368.9487 
L 352.791079 369.659422 
L 355.52642 373.820837 
L 358.352939 382.468658 
L 361.179457 389.459725 
L 363.914798 386.431804 
L 366.741317 379.714965 
L 369.476657 374.46246 
L 372.303176 371.129779 
L 375.129695 367.526855 
L 377.682679 366.705513 
L 380.509198 371.335488 
L 386.071057 391.226659 
L 388.806398 397.861061 
L 391.632917 399.458921 
L 394.459436 398.581704 
L 397.194776 391.926272 
L 400.021295 380.637832 
L 402.756636 373.026525 
L 405.583154 368.28348 
L 408.409673 367.73899 
L 410.962658 367.461087 
L 413.789176 367.913957 
L 416.524517 369.246814 
L 419.351036 373.22864 
L 422.086376 383.00995 
L 424.912895 392.016678 
L 427.739414 400.564096 
L 430.474754 404.105637 
L 433.301273 401.812849 
L 436.036614 411.485435 
L 438.863132 426.907542 
L 441.689651 439.030203 
L 444.242636 442.973052 
L 447.069155 443.529257 
L 449.804495 444.817292 
L 452.631014 448.052522 
L 455.366355 447.629632 
L 458.192873 445.641042 
L 461.019392 442.508805 
L 463.754733 429.747624 
L 466.581251 411.300205 
L 469.316592 399.22346 
L 472.143111 392.792816 
L 474.969629 384.515742 
L 477.613792 387.946093 
L 480.440311 389.734134 
L 483.175651 387.381186 
L 486.00217 387.316923 
L 488.737511 388.166292 
L 491.56403 388.432399 
L 494.390548 389.363921 
L 497.125889 385.301771 
L 499.952408 377.906807 
L 502.687748 372.449517 
L 505.514267 368.249621 
L 508.340786 362.13418 
L 510.89377 358.507064 
L 513.720289 355.625473 
L 516.45563 353.75816 
L 519.282148 353.617371 
L 522.017489 354.818631 
L 524.844008 356.709089 
L 527.670526 358.796805 
L 530.405867 359.409786 
L 533.232386 358.115925 
L 535.967726 355.970043 
L 538.794245 354.02043 
L 541.620764 355.111105 
L 544.173748 358.924313 
L 547.000267 364.21678 
L 549.735608 366.529232 
L 552.562127 368.228461 
L 555.297467 369.466271 
L 558.123986 370.374801 
L 560.950505 370.220478 
L 572.074223 354.656183 
L 574.900742 350.999625 
L 577.453727 348.561169 
L 580.280245 346.291721 
L 583.015586 344.394713 
L 585.842105 343.026166 
L 588.577445 342.594886 
L 591.403964 342.950457 
L 596.965824 344.975039 
L 599.792342 345.650773 
L 602.527683 345.911873 
L 605.354202 346.800252 
L 608.18072 350.13736 
L 610.824883 354.193283 
L 613.651402 358.300332 
L 616.386742 361.174992 
L 621.948602 368.297628 
L 624.77512 370.921595 
L 627.601639 372.571118 
L 630.33698 370.366251 
L 633.163498 365.537337 
L 638.725358 357.659756 
L 641.551877 352.41353 
L 644.104861 349.056491 
L 646.93138 346.272299 
L 649.666721 344.208754 
L 652.493239 342.722384 
L 655.22858 341.996303 
L 658.055099 342.010945 
L 663.616958 343.015865 
L 666.443477 343.049929 
L 669.178817 342.602357 
L 672.005336 341.776411 
L 677.384839 339.775578 
L 682.946699 338.123682 
L 685.773217 337.487288 
L 688.508558 337.132812 
L 691.335077 337.050605 
L 696.896936 337.208119 
L 699.723455 336.967691 
L 702.458796 336.434452 
L 708.111833 335.042748 
L 710.664818 334.530675 
L 713.491336 334.172215 
L 716.226677 334.102439 
L 719.053196 334.313082 
L 721.788536 334.981696 
L 724.615055 335.977043 
L 727.441574 337.120512 
L 730.176914 338.023774 
L 733.003433 338.214119 
L 735.738774 337.785995 
L 738.565292 337.035441 
L 741.391811 336.531642 
L 744.035974 336.179291 
L 746.862493 336.023857 
L 749.597833 336.342741 
L 752.424352 337.205299 
L 757.986211 339.419257 
L 760.81273 340.284837 
L 763.548071 340.750929 
L 766.374589 340.51798 
L 769.10993 339.557061 
L 771.936449 338.251163 
L 774.762967 336.800064 
L 777.315952 335.729151 
L 780.142471 334.900027 
L 785.70433 333.63418 
L 788.439671 333.565525 
L 791.266189 335.597583 
L 794.092708 342.308591 
L 796.828049 347.846157 
L 799.654568 349.23986 
L 802.389908 347.78486 
L 805.216427 344.742944 
L 808.042946 343.042282 
L 810.59593 341.845403 
L 813.422449 341.078557 
L 818.984308 339.95253 
L 821.719649 340.336686 
L 827.372686 342.022046 
L 830.108027 342.452657 
L 832.934546 341.567474 
L 835.669886 339.998742 
L 838.496405 337.47971 
L 841.322924 335.950216 
L 843.875908 334.910909 
L 846.702427 334.354589 
L 849.437768 334.562635 
L 852.264287 335.394839 
L 854.999627 336.925787 
L 860.652665 340.422625 
L 863.388005 341.95457 
L 866.214524 342.475982 
L 868.949865 342.360956 
L 871.776383 341.060671 
L 877.247065 339.812124 
L 880.073583 339.461764 
L 882.808924 339.335232 
L 885.635443 339.627943 
L 888.370783 340.796311 
L 891.197302 342.639554 
L 894.023821 345.176306 
L 896.759161 347.449572 
L 899.58568 348.463994 
L 902.321021 349.612534 
L 905.14754 352.892329 
L 907.974058 366.833164 
L 910.527043 383.434734 
L 913.353562 389.866631 
L 916.088902 372.413873 
L 918.915421 362.55232 
L 921.650762 363.99103 
L 924.47728 366.239058 
L 927.303799 370.002202 
L 930.03914 371.220181 
L 932.865658 369.545972 
L 935.600999 369.442865 
L 938.427518 371.479738 
L 941.254036 378.956721 
L 943.807021 379.738119 
L 946.63354 361.554307 
L 949.36888 359.8334 
L 952.195399 365.242759 
L 954.93074 374.410988 
L 957.757259 381.52455 
L 960.583777 383.801706 
L 963.319118 376.30741 
L 966.145637 367.505038 
L 968.880977 362.217399 
L 974.534015 354.447647 
L 977.086999 351.767547 
L 979.913518 350.376891 
L 982.648859 350.033549 
L 985.475377 350.614541 
L 988.210718 352.037928 
L 991.037237 354.11632 
L 993.863755 356.607477 
L 996.599096 357.95679 
L 999.425615 357.434616 
L 1002.160956 355.43642 
L 1004.987474 352.521864 
L 1007.813993 350.217994 
L 1010.458156 348.81549 
L 1013.284674 348.31396 
L 1016.020015 348.398369 
L 1024.408393 349.480571 
L 1027.234912 349.564208 
L 1029.970252 349.199755 
L 1032.796771 348.197711 
L 1035.532112 346.658297 
L 1038.35863 344.552629 
L 1041.185149 342.732707 
L 1043.738134 341.388608 
L 1046.564652 340.270245 
L 1052.126512 338.852717 
L 1054.861853 338.29972 
L 1057.688371 337.843697 
L 1063.250231 337.287979 
L 1068.81209 336.697983 
L 1079.844631 334.967625 
L 1079.844631 334.967625 
" clip-path="url(#pb65d655c37)" style="fill: none; stroke: #bcbd22; stroke-width: 1.5; stroke-linecap: square"/>
   </g>
   <g id="line2d_25">
    <path d="M 105.880994 304.041556 
L 1079.844631 304.041556 
L 1079.844631 304.041556 
" clip-path="url(#pb65d655c37)" style="fill: none; stroke: #17becf; stroke-width: 1.5; stroke-linecap: square"/>
   </g>
   <g id="patch_3">
    <path d="M 57.182813 488.4768 
L 57.182813 7.2 
" style="fill: none; stroke: #000000; stroke-width: 0.8; stroke-linejoin: miter; stroke-linecap: square"/>
   </g>
   <g id="patch_4">
    <path d="M 1128.542812 488.4768 
L 1128.542812 7.2 
" style="fill: none; stroke: #000000; stroke-width: 0.8; stroke-linejoin: miter; stroke-linecap: square"/>
   </g>
   <g id="patch_5">
    <path d="M 57.182813 488.4768 
L 1128.542812 488.4768 
" style="fill: none; stroke: #000000; stroke-width: 0.8; stroke-linejoin: miter; stroke-linecap: square"/>
   </g>
   <g id="patch_6">
    <path d="M 57.182813 7.2 
L 1128.542812 7.2 
" style="fill: none; stroke: #000000; stroke-width: 0.8; stroke-linejoin: miter; stroke-linecap: square"/>
   </g>
   <g id="legend_1">
    <g id="patch_7">
     <path d="M 975.417812 164.7625 
L 1121.542812 164.7625 
Q 1123.542812 164.7625 1123.542812 162.7625 
L 1123.542812 14.2 
Q 1123.542812 12.2 1121.542812 12.2 
L 975.417812 12.2 
Q 973.417812 12.2 973.417812 14.2 
L 973.417812 162.7625 
Q 973.417812 164.7625 975.417812 164.7625 
z
" style="fill: #ffffff; opacity: 0.8; stroke: #cccccc; stroke-linejoin: miter"/>
    </g>
    <g id="line2d_26">
     <path d="M 977.417812 20.298437 
L 987.417812 20.298437 
L 997.417812 20.298437 
" style="fill: none; stroke: #1f77b4; stroke-width: 1.5; stroke-linecap: square"/>
    </g>
    <g id="text_17">
     <!-- STORAGE_IN -->
     <g transform="translate(1005.417812 23.798437) scale(0.1 -0.1)">
      <defs>
       <path id="DejaVuSans-53" d="M 3425 4513 
L 3425 3897 
Q 3066 4069 2747 4153 
Q 2428 4238 2131 4238 
Q 1616 4238 1336 4038 
Q 1056 3838 1056 3469 
Q 1056 3159 1242 3001 
Q 1428 2844 1947 2747 
L 2328 2669 
Q 3034 2534 3370 2195 
Q 3706 1856 3706 1288 
Q 3706 609 3251 259 
Q 2797 -91 1919 -91 
Q 1588 -91 1214 -16 
Q 841 59 441 206 
L 441 856 
Q 825 641 1194 531 
Q 1563 422 1919 422 
Q 2459 422 2753 634 
Q 3047 847 3047 1241 
Q 3047 1584 2836 1778 
Q 2625 1972 2144 2069 
L 1759 2144 
Q 1053 2284 737 2584 
Q 422 2884 422 3419 
Q 422 4038 858 4394 
Q 1294 4750 2059 4750 
Q 2388 4750 2728 4690 
Q 3069 4631 3425 4513 
z
" transform="scale(0.015625)"/>
       <path id="DejaVuSans-54" d="M -19 4666 
L 3928 4666 
L 3928 4134 
L 2272 4134 
L 2272 0 
L 1638 0 
L 1638 4134 
L -19 4134 
L -19 4666 
z
" transform="scale(0.015625)"/>
       <path id="DejaVuSans-4f" d="M 2522 4238 
Q 1834 4238 1429 3725 
Q 1025 3213 1025 2328 
Q 1025 1447 1429 934 
Q 1834 422 2522 422 
Q 3209 422 3611 934 
Q 4013 1447 4013 2328 
Q 4013 3213 3611 3725 
Q 3209 4238 2522 4238 
z
M 2522 4750 
Q 3503 4750 4090 4092 
Q 4678 3434 4678 2328 
Q 4678 1225 4090 567 
Q 3503 -91 2522 -91 
Q 1538 -91 948 565 
Q 359 1222 359 2328 
Q 359 3434 948 4092 
Q 1538 4750 2522 4750 
z
" transform="scale(0.015625)"/>
       <path id="DejaVuSans-52" d="M 2841 2188 
Q 3044 2119 3236 1894 
Q 3428 1669 3622 1275 
L 4263 0 
L 3584 0 
L 2988 1197 
Q 2756 1666 2539 1819 
Q 2322 1972 1947 1972 
L 1259 1972 
L 1259 0 
L 628 0 
L 628 4666 
L 2053 4666 
Q 2853 4666 3247 4331 
Q 3641 3997 3641 3322 
Q 3641 2881 3436 2590 
Q 3231 2300 2841 2188 
z
M 1259 4147 
L 1259 2491 
L 2053 2491 
Q 2509 2491 2742 2702 
Q 2975 2913 2975 3322 
Q 2975 3731 2742 3939 
Q 2509 4147 2053 4147 
L 1259 4147 
z
" transform="scale(0.015625)"/>
       <path id="DejaVuSans-41" d="M 2188 4044 
L 1331 1722 
L 3047 1722 
L 2188 4044 
z
M 1831 4666 
L 2547 4666 
L 4325 0 
L 3669 0 
L 3244 1197 
L 1141 1197 
L 716 0 
L 50 0 
L 1831 4666 
z
" transform="scale(0.015625)"/>
       <path id="DejaVuSans-47" d="M 3809 666 
L 3809 1919 
L 2778 1919 
L 2778 2438 
L 4434 2438 
L 4434 434 
Q 4069 175 3628 42 
Q 3188 -91 2688 -91 
Q 1594 -91 976 548 
Q 359 1188 359 2328 
Q 359 3472 976 4111 
Q 1594 4750 2688 4750 
Q 3144 4750 3555 4637 
Q 3966 4525 4313 4306 
L 4313 3634 
Q 3963 3931 3569 4081 
Q 3175 4231 2741 4231 
Q 1884 4231 1454 3753 
Q 1025 3275 1025 2328 
Q 1025 1384 1454 906 
Q 1884 428 2741 428 
Q 3075 428 3337 486 
Q 3600 544 3809 666 
z
" transform="scale(0.015625)"/>
       <path id="DejaVuSans-45" d="M 628 4666 
L 3578 4666 
L 3578 4134 
L 1259 4134 
L 1259 2753 
L 3481 2753 
L 3481 2222 
L 1259 2222 
L 1259 531 
L 3634 531 
L 3634 0 
L 628 0 
L 628 4666 
z
" transform="scale(0.015625)"/>
       <path id="DejaVuSans-5f" d="M 3263 -1063 
L 3263 -1509 
L -63 -1509 
L -63 -1063 
L 3263 -1063 
z
" transform="scale(0.015625)"/>
       <path id="DejaVuSans-49" d="M 628 4666 
L 1259 4666 
L 1259 0 
L 628 0 
L 628 4666 
z
" transform="scale(0.015625)"/>
       <path id="DejaVuSans-4e" d="M 628 4666 
L 1478 4666 
L 3547 763 
L 3547 4666 
L 4159 4666 
L 4159 0 
L 3309 0 
L 1241 3903 
L 1241 0 
L 628 0 
L 628 4666 
z
" transform="scale(0.015625)"/>
      </defs>
      <use xlink:href="#DejaVuSans-53"/>
      <use xlink:href="#DejaVuSans-54" x="63.476562"/>
      <use xlink:href="#DejaVuSans-4f" x="124.560547"/>
      <use xlink:href="#DejaVuSans-52" x="203.271484"/>
      <use xlink:href="#DejaVuSans-41" x="268.753906"/>
      <use xlink:href="#DejaVuSans-47" x="335.412109"/>
      <use xlink:href="#DejaVuSans-45" x="412.902344"/>
      <use xlink:href="#DejaVuSans-5f" x="476.085938"/>
      <use xlink:href="#DejaVuSans-49" x="526.085938"/>
      <use xlink:href="#DejaVuSans-4e" x="555.578125"/>
     </g>
    </g>
    <g id="line2d_27">
     <path d="M 977.417812 35.254687 
L 987.417812 35.254687 
L 997.417812 35.254687 
" style="fill: none; stroke: #ff7f0e; stroke-width: 1.5; stroke-linecap: square"/>
    </g>
    <g id="text_18">
     <!-- CONSTANT_HEAD_IN -->
     <g transform="translate(1005.417812 38.754687) scale(0.1 -0.1)">
      <defs>
       <path id="DejaVuSans-43" d="M 4122 4306 
L 4122 3641 
Q 3803 3938 3442 4084 
Q 3081 4231 2675 4231 
Q 1875 4231 1450 3742 
Q 1025 3253 1025 2328 
Q 1025 1406 1450 917 
Q 1875 428 2675 428 
Q 3081 428 3442 575 
Q 3803 722 4122 1019 
L 4122 359 
Q 3791 134 3420 21 
Q 3050 -91 2638 -91 
Q 1578 -91 968 557 
Q 359 1206 359 2328 
Q 359 3453 968 4101 
Q 1578 4750 2638 4750 
Q 3056 4750 3426 4639 
Q 3797 4528 4122 4306 
z
" transform="scale(0.015625)"/>
       <path id="DejaVuSans-48" d="M 628 4666 
L 1259 4666 
L 1259 2753 
L 3553 2753 
L 3553 4666 
L 4184 4666 
L 4184 0 
L 3553 0 
L 3553 2222 
L 1259 2222 
L 1259 0 
L 628 0 
L 628 4666 
z
" transform="scale(0.015625)"/>
       <path id="DejaVuSans-44" d="M 1259 4147 
L 1259 519 
L 2022 519 
Q 2988 519 3436 956 
Q 3884 1394 3884 2338 
Q 3884 3275 3436 3711 
Q 2988 4147 2022 4147 
L 1259 4147 
z
M 628 4666 
L 1925 4666 
Q 3281 4666 3915 4102 
Q 4550 3538 4550 2338 
Q 4550 1131 3912 565 
Q 3275 0 1925 0 
L 628 0 
L 628 4666 
z
" transform="scale(0.015625)"/>
      </defs>
      <use xlink:href="#DejaVuSans-43"/>
      <use xlink:href="#DejaVuSans-4f" x="69.824219"/>
      <use xlink:href="#DejaVuSans-4e" x="148.535156"/>
      <use xlink:href="#DejaVuSans-53" x="223.339844"/>
      <use xlink:href="#DejaVuSans-54" x="286.816406"/>
      <use xlink:href="#DejaVuSans-41" x="340.150391"/>
      <use xlink:href="#DejaVuSans-4e" x="408.558594"/>
      <use xlink:href="#DejaVuSans-54" x="483.363281"/>
      <use xlink:href="#DejaVuSans-5f" x="544.447266"/>
      <use xlink:href="#DejaVuSans-48" x="594.447266"/>
      <use xlink:href="#DejaVuSans-45" x="669.642578"/>
      <use xlink:href="#DejaVuSans-41" x="732.826172"/>
      <use xlink:href="#DejaVuSans-44" x="801.234375"/>
      <use xlink:href="#DejaVuSans-5f" x="878.236328"/>
      <use xlink:href="#DejaVuSans-49" x="928.236328"/>
      <use xlink:href="#DejaVuSans-4e" x="957.728516"/>
     </g>
    </g>
    <g id="line2d_28">
     <path d="M 977.417812 50.210937 
L 987.417812 50.210937 
L 997.417812 50.210937 
" style="fill: none; stroke: #2ca02c; stroke-width: 1.5; stroke-linecap: square"/>
    </g>
    <g id="text_19">
     <!-- WELLS_IN -->
     <g transform="translate(1005.417812 53.710937) scale(0.1 -0.1)">
      <defs>
       <path id="DejaVuSans-57" d="M 213 4666 
L 850 4666 
L 1831 722 
L 2809 4666 
L 3519 4666 
L 4500 722 
L 5478 4666 
L 6119 4666 
L 4947 0 
L 4153 0 
L 3169 4050 
L 2175 0 
L 1381 0 
L 213 4666 
z
" transform="scale(0.015625)"/>
       <path id="DejaVuSans-4c" d="M 628 4666 
L 1259 4666 
L 1259 531 
L 3531 531 
L 3531 0 
L 628 0 
L 628 4666 
z
" transform="scale(0.015625)"/>
      </defs>
      <use xlink:href="#DejaVuSans-57"/>
      <use xlink:href="#DejaVuSans-45" x="98.876953"/>
      <use xlink:href="#DejaVuSans-4c" x="162.060547"/>
      <use xlink:href="#DejaVuSans-4c" x="217.773438"/>
      <use xlink:href="#DejaVuSans-53" x="273.486328"/>
      <use xlink:href="#DejaVuSans-5f" x="336.962891"/>
      <use xlink:href="#DejaVuSans-49" x="386.962891"/>
      <use xlink:href="#DejaVuSans-4e" x="416.455078"/>
     </g>
    </g>
    <g id="line2d_29">
     <path d="M 977.417812 65.167187 
L 987.417812 65.167187 
L 997.417812 65.167187 
" style="fill: none; stroke: #d62728; stroke-width: 1.5; stroke-linecap: square"/>
    </g>
    <g id="text_20">
     <!-- DRAINS_IN -->
     <g transform="translate(1005.417812 68.667187) scale(0.1 -0.1)">
      <use xlink:href="#DejaVuSans-44"/>
      <use xlink:href="#DejaVuSans-52" x="77.001953"/>
      <use xlink:href="#DejaVuSans-41" x="142.484375"/>
      <use xlink:href="#DejaVuSans-49" x="210.892578"/>
      <use xlink:href="#DejaVuSans-4e" x="240.384766"/>
      <use xlink:href="#DejaVuSans-53" x="315.189453"/>
      <use xlink:href="#DejaVuSans-5f" x="378.666016"/>
      <use xlink:href="#DejaVuSans-49" x="428.666016"/>
      <use xlink:href="#DejaVuSans-4e" x="458.158203"/>
     </g>
    </g>
    <g id="line2d_30">
     <path d="M 977.417812 80.123437 
L 987.417812 80.123437 
L 997.417812 80.123437 
" style="fill: none; stroke: #9467bd; stroke-width: 1.5; stroke-linecap: square"/>
    </g>
    <g id="text_21">
     <!-- RECHARGE_IN -->
     <g transform="translate(1005.417812 83.623437) scale(0.1 -0.1)">
      <use xlink:href="#DejaVuSans-52"/>
      <use xlink:href="#DejaVuSans-45" x="69.482422"/>
      <use xlink:href="#DejaVuSans-43" x="132.666016"/>
      <use xlink:href="#DejaVuSans-48" x="202.490234"/>
      <use xlink:href="#DejaVuSans-41" x="277.685547"/>
      <use xlink:href="#DejaVuSans-52" x="346.09375"/>
      <use xlink:href="#DejaVuSans-47" x="415.576172"/>
      <use xlink:href="#DejaVuSans-45" x="493.066406"/>
      <use xlink:href="#DejaVuSans-5f" x="556.25"/>
      <use xlink:href="#DejaVuSans-49" x="606.25"/>
      <use xlink:href="#DejaVuSans-4e" x="635.742188"/>
     </g>
    </g>
    <g id="line2d_31">
     <path d="M 977.417812 95.079687 
L 987.417812 95.079687 
L 997.417812 95.079687 
" style="fill: none; stroke: #8c564b; stroke-width: 1.5; stroke-linecap: square"/>
    </g>
    <g id="text_22">
     <!-- STORAGE_OUT -->
     <g transform="translate(1005.417812 98.579687) scale(0.1 -0.1)">
      <defs>
       <path id="DejaVuSans-55" d="M 556 4666 
L 1191 4666 
L 1191 1831 
Q 1191 1081 1462 751 
Q 1734 422 2344 422 
Q 2950 422 3222 751 
Q 3494 1081 3494 1831 
L 3494 4666 
L 4128 4666 
L 4128 1753 
Q 4128 841 3676 375 
Q 3225 -91 2344 -91 
Q 1459 -91 1007 375 
Q 556 841 556 1753 
L 556 4666 
z
" transform="scale(0.015625)"/>
      </defs>
      <use xlink:href="#DejaVuSans-53"/>
      <use xlink:href="#DejaVuSans-54" x="63.476562"/>
      <use xlink:href="#DejaVuSans-4f" x="124.560547"/>
      <use xlink:href="#DejaVuSans-52" x="203.271484"/>
      <use xlink:href="#DejaVuSans-41" x="268.753906"/>
      <use xlink:href="#DejaVuSans-47" x="335.412109"/>
      <use xlink:href="#DejaVuSans-45" x="412.902344"/>
      <use xlink:href="#DejaVuSans-5f" x="476.085938"/>
      <use xlink:href="#DejaVuSans-4f" x="526.085938"/>
      <use xlink:href="#DejaVuSans-55" x="604.796875"/>
      <use xlink:href="#DejaVuSans-54" x="677.990234"/>
     </g>
    </g>
    <g id="line2d_32">
     <path d="M 977.417812 110.035937 
L 987.417812 110.035937 
L 997.417812 110.035937 
" style="fill: none; stroke: #e377c2; stroke-width: 1.5; stroke-linecap: square"/>
    </g>
    <g id="text_23">
     <!-- CONSTANT_HEAD_OUT -->
     <g transform="translate(1005.417812 113.535937) scale(0.1 -0.1)">
      <use xlink:href="#DejaVuSans-43"/>
      <use xlink:href="#DejaVuSans-4f" x="69.824219"/>
      <use xlink:href="#DejaVuSans-4e" x="148.535156"/>
      <use xlink:href="#DejaVuSans-53" x="223.339844"/>
      <use xlink:href="#DejaVuSans-54" x="286.816406"/>
      <use xlink:href="#DejaVuSans-41" x="340.150391"/>
      <use xlink:href="#DejaVuSans-4e" x="408.558594"/>
      <use xlink:href="#DejaVuSans-54" x="483.363281"/>
      <use xlink:href="#DejaVuSans-5f" x="544.447266"/>
      <use xlink:href="#DejaVuSans-48" x="594.447266"/>
      <use xlink:href="#DejaVuSans-45" x="669.642578"/>
      <use xlink:href="#DejaVuSans-41" x="732.826172"/>
      <use xlink:href="#DejaVuSans-44" x="801.234375"/>
      <use xlink:href="#DejaVuSans-5f" x="878.236328"/>
      <use xlink:href="#DejaVuSans-4f" x="928.236328"/>
      <use xlink:href="#DejaVuSans-55" x="1006.947266"/>
      <use xlink:href="#DejaVuSans-54" x="1080.140625"/>
     </g>
    </g>
    <g id="line2d_33">
     <path d="M 977.417812 124.992187 
L 987.417812 124.992187 
L 997.417812 124.992187 
" style="fill: none; stroke: #7f7f7f; stroke-width: 1.5; stroke-linecap: square"/>
    </g>
    <g id="text_24">
     <!-- WELLS_OUT -->
     <g transform="translate(1005.417812 128.492187) scale(0.1 -0.1)">
      <use xlink:href="#DejaVuSans-57"/>
      <use xlink:href="#DejaVuSans-45" x="98.876953"/>
      <use xlink:href="#DejaVuSans-4c" x="162.060547"/>
      <use xlink:href="#DejaVuSans-4c" x="217.773438"/>
      <use xlink:href="#DejaVuSans-53" x="273.486328"/>
      <use xlink:href="#DejaVuSans-5f" x="336.962891"/>
      <use xlink:href="#DejaVuSans-4f" x="386.962891"/>
      <use xlink:href="#DejaVuSans-55" x="465.673828"/>
      <use xlink:href="#DejaVuSans-54" x="538.867188"/>
     </g>
    </g>
    <g id="line2d_34">
     <path d="M 977.417812 139.948437 
L 987.417812 139.948437 
L 997.417812 139.948437 
" style="fill: none; stroke: #bcbd22; stroke-width: 1.5; stroke-linecap: square"/>
    </g>
    <g id="text_25">
     <!-- DRAINS_OUT -->
     <g transform="translate(1005.417812 143.448437) scale(0.1 -0.1)">
      <use xlink:href="#DejaVuSans-44"/>
      <use xlink:href="#DejaVuSans-52" x="77.001953"/>
      <use xlink:href="#DejaVuSans-41" x="142.484375"/>
      <use xlink:href="#DejaVuSans-49" x="210.892578"/>
      <use xlink:href="#DejaVuSans-4e" x="240.384766"/>
      <use xlink:href="#DejaVuSans-53" x="315.189453"/>
      <use xlink:href="#DejaVuSans-5f" x="378.666016"/>
      <use xlink:href="#DejaVuSans-4f" x="428.666016"/>
      <use xlink:href="#DejaVuSans-55" x="507.376953"/>
      <use xlink:href="#DejaVuSans-54" x="580.570312"/>
     </g>
    </g>
    <g id="line2d_35">
     <path d="M 977.417812 154.904687 
L 987.417812 154.904687 
L 997.417812 154.904687 
" style="fill: none; stroke: #17becf; stroke-width: 1.5; stroke-linecap: square"/>
    </g>
    <g id="text_26">
     <!-- RECHARGE_OUT -->
     <g transform="translate(1005.417812 158.404687) scale(0.1 -0.1)">
      <use xlink:href="#DejaVuSans-52"/>
      <use xlink:href="#DejaVuSans-45" x="69.482422"/>
      <use xlink:href="#DejaVuSans-43" x="132.666016"/>
      <use xlink:href="#DejaVuSans-48" x="202.490234"/>
      <use xlink:href="#DejaVuSans-41" x="277.685547"/>
      <use xlink:href="#DejaVuSans-52" x="346.09375"/>
      <use xlink:href="#DejaVuSans-47" x="415.576172"/>
      <use xlink:href="#DejaVuSans-45" x="493.066406"/>
      <use xlink:href="#DejaVuSans-5f" x="556.25"/>
      <use xlink:href="#DejaVuSans-4f" x="606.25"/>
      <use xlink:href="#DejaVuSans-55" x="684.960938"/>
      <use xlink:href="#DejaVuSans-54" x="758.154297"/>
     </g>
    </g>
   </g>
  </g>
 </g>
 <defs>
  <clipPath id="pb65d655c37">
   <rect x="57.182813" y="7.2" width="1071.36" height="481.2768"/>
  </clipPath>
 </defs>
</svg>
