<?xml version="1.0" encoding="utf-8" standalone="no"?>
<!DOCTYPE svg PUBLIC "-//W3C//DTD SVG 1.1//EN"
  "http://www.w3.org/Graphics/SVG/1.1/DTD/svg11.dtd">
<svg xmlns:xlink="http://www.w3.org/1999/xlink" width="1161.192812pt" height="527.582521pt" viewBox="0 0 1161.192812 527.582521" xmlns="http://www.w3.org/2000/svg" version="1.1">
 <metadata>
  <rdf:RDF xmlns:dc="http://purl.org/dc/elements/1.1/" xmlns:cc="http://creativecommons.org/ns#" xmlns:rdf="http://www.w3.org/1999/02/22-rdf-syntax-ns#">
   <cc:Work>
    <dc:type rdf:resource="http://purl.org/dc/dcmitype/StillImage"/>
    <dc:date>2023-01-17T17:11:47.389585</dc:date>
    <dc:format>image/svg+xml</dc:format>
    <dc:creator>
     <cc:Agent>
      <dc:title>Matplotlib v3.6.2, https://matplotlib.org/</dc:title>
     </cc:Agent>
    </dc:creator>
   </cc:Work>
  </rdf:RDF>
 </metadata>
 <defs>
  <style type="text/css">*{stroke-linejoin: round; stroke-linecap: butt}</style>
 </defs>
 <g id="figure_1">
  <g id="patch_1">
   <path d="M 0 527.582521 
L 1161.192812 527.582521 
L 1161.192812 0 
L 0 0 
z
" style="fill: #ffffff"/>
  </g>
  <g id="axes_1">
   <g id="patch_2">
    <path d="M 82.632812 492.276019 
L 1153.992812 492.276019 
L 1153.992812 10.999219 
L 82.632812 10.999219 
z
" style="fill: #ffffff"/>
   </g>
   <g id="matplotlib.axis_1">
    <g id="xtick_1">
     <g id="line2d_1">
      <path d="M 97.86866 492.276019 
L 97.86866 10.999219 
" clip-path="url(#pe267e4695c)" style="fill: none; stroke: #b0b0b0; stroke-width: 0.8; stroke-linecap: square"/>
     </g>
     <g id="line2d_2">
      <defs>
       <path id="mf907e3699b" d="M 0 0 
L 0 3.5 
" style="stroke: #000000; stroke-width: 0.8"/>
      </defs>
      <g>
       <use xlink:href="#mf907e3699b" x="97.86866" y="492.276019" style="stroke: #000000; stroke-width: 0.8"/>
      </g>
     </g>
     <g id="text_1">
      <!-- 1992 -->
      <g transform="translate(74.78847 518.581459) rotate(-30) scale(0.1 -0.1)">
       <defs>
        <path id="DejaVuSans-31" d="M 794 531 
L 1825 531 
L 1825 4091 
L 703 3866 
L 703 4441 
L 1819 4666 
L 2450 4666 
L 2450 531 
L 3481 531 
L 3481 0 
L 794 0 
L 794 531 
z
" transform="scale(0.015625)"/>
        <path id="DejaVuSans-39" d="M 703 97 
L 703 672 
Q 941 559 1184 500 
Q 1428 441 1663 441 
Q 2288 441 2617 861 
Q 2947 1281 2994 2138 
Q 2813 1869 2534 1725 
Q 2256 1581 1919 1581 
Q 1219 1581 811 2004 
Q 403 2428 403 3163 
Q 403 3881 828 4315 
Q 1253 4750 1959 4750 
Q 2769 4750 3195 4129 
Q 3622 3509 3622 2328 
Q 3622 1225 3098 567 
Q 2575 -91 1691 -91 
Q 1453 -91 1209 -44 
Q 966 3 703 97 
z
M 1959 2075 
Q 2384 2075 2632 2365 
Q 2881 2656 2881 3163 
Q 2881 3666 2632 3958 
Q 2384 4250 1959 4250 
Q 1534 4250 1286 3958 
Q 1038 3666 1038 3163 
Q 1038 2656 1286 2365 
Q 1534 2075 1959 2075 
z
" transform="scale(0.015625)"/>
        <path id="DejaVuSans-32" d="M 1228 531 
L 3431 531 
L 3431 0 
L 469 0 
L 469 531 
Q 828 903 1448 1529 
Q 2069 2156 2228 2338 
Q 2531 2678 2651 2914 
Q 2772 3150 2772 3378 
Q 2772 3750 2511 3984 
Q 2250 4219 1831 4219 
Q 1534 4219 1204 4116 
Q 875 4013 500 3803 
L 500 4441 
Q 881 4594 1212 4672 
Q 1544 4750 1819 4750 
Q 2544 4750 2975 4387 
Q 3406 4025 3406 3419 
Q 3406 3131 3298 2873 
Q 3191 2616 2906 2266 
Q 2828 2175 2409 1742 
Q 1991 1309 1228 531 
z
" transform="scale(0.015625)"/>
       </defs>
       <use xlink:href="#DejaVuSans-31"/>
       <use xlink:href="#DejaVuSans-39" x="63.623047"/>
       <use xlink:href="#DejaVuSans-39" x="127.246094"/>
       <use xlink:href="#DejaVuSans-32" x="190.869141"/>
      </g>
     </g>
    </g>
    <g id="xtick_2">
     <g id="line2d_3">
      <path d="M 231.079751 492.276019 
L 231.079751 10.999219 
" clip-path="url(#pe267e4695c)" style="fill: none; stroke: #b0b0b0; stroke-width: 0.8; stroke-linecap: square"/>
     </g>
     <g id="line2d_4">
      <g>
       <use xlink:href="#mf907e3699b" x="231.079751" y="492.276019" style="stroke: #000000; stroke-width: 0.8"/>
      </g>
     </g>
     <g id="text_2">
      <!-- 1996 -->
      <g transform="translate(207.999561 518.581459) rotate(-30) scale(0.1 -0.1)">
       <defs>
        <path id="DejaVuSans-36" d="M 2113 2584 
Q 1688 2584 1439 2293 
Q 1191 2003 1191 1497 
Q 1191 994 1439 701 
Q 1688 409 2113 409 
Q 2538 409 2786 701 
Q 3034 994 3034 1497 
Q 3034 2003 2786 2293 
Q 2538 2584 2113 2584 
z
M 3366 4563 
L 3366 3988 
Q 3128 4100 2886 4159 
Q 2644 4219 2406 4219 
Q 1781 4219 1451 3797 
Q 1122 3375 1075 2522 
Q 1259 2794 1537 2939 
Q 1816 3084 2150 3084 
Q 2853 3084 3261 2657 
Q 3669 2231 3669 1497 
Q 3669 778 3244 343 
Q 2819 -91 2113 -91 
Q 1303 -91 875 529 
Q 447 1150 447 2328 
Q 447 3434 972 4092 
Q 1497 4750 2381 4750 
Q 2619 4750 2861 4703 
Q 3103 4656 3366 4563 
z
" transform="scale(0.015625)"/>
       </defs>
       <use xlink:href="#DejaVuSans-31"/>
       <use xlink:href="#DejaVuSans-39" x="63.623047"/>
       <use xlink:href="#DejaVuSans-39" x="127.246094"/>
       <use xlink:href="#DejaVuSans-36" x="190.869141"/>
      </g>
     </g>
    </g>
    <g id="xtick_3">
     <g id="line2d_5">
      <path d="M 364.290842 492.276019 
L 364.290842 10.999219 
" clip-path="url(#pe267e4695c)" style="fill: none; stroke: #b0b0b0; stroke-width: 0.8; stroke-linecap: square"/>
     </g>
     <g id="line2d_6">
      <g>
       <use xlink:href="#mf907e3699b" x="364.290842" y="492.276019" style="stroke: #000000; stroke-width: 0.8"/>
      </g>
     </g>
     <g id="text_3">
      <!-- 2000 -->
      <g transform="translate(341.210652 518.581459) rotate(-30) scale(0.1 -0.1)">
       <defs>
        <path id="DejaVuSans-30" d="M 2034 4250 
Q 1547 4250 1301 3770 
Q 1056 3291 1056 2328 
Q 1056 1369 1301 889 
Q 1547 409 2034 409 
Q 2525 409 2770 889 
Q 3016 1369 3016 2328 
Q 3016 3291 2770 3770 
Q 2525 4250 2034 4250 
z
M 2034 4750 
Q 2819 4750 3233 4129 
Q 3647 3509 3647 2328 
Q 3647 1150 3233 529 
Q 2819 -91 2034 -91 
Q 1250 -91 836 529 
Q 422 1150 422 2328 
Q 422 3509 836 4129 
Q 1250 4750 2034 4750 
z
" transform="scale(0.015625)"/>
       </defs>
       <use xlink:href="#DejaVuSans-32"/>
       <use xlink:href="#DejaVuSans-30" x="63.623047"/>
       <use xlink:href="#DejaVuSans-30" x="127.246094"/>
       <use xlink:href="#DejaVuSans-30" x="190.869141"/>
      </g>
     </g>
    </g>
    <g id="xtick_4">
     <g id="line2d_7">
      <path d="M 497.501933 492.276019 
L 497.501933 10.999219 
" clip-path="url(#pe267e4695c)" style="fill: none; stroke: #b0b0b0; stroke-width: 0.8; stroke-linecap: square"/>
     </g>
     <g id="line2d_8">
      <g>
       <use xlink:href="#mf907e3699b" x="497.501933" y="492.276019" style="stroke: #000000; stroke-width: 0.8"/>
      </g>
     </g>
     <g id="text_4">
      <!-- 2004 -->
      <g transform="translate(474.421742 518.581459) rotate(-30) scale(0.1 -0.1)">
       <defs>
        <path id="DejaVuSans-34" d="M 2419 4116 
L 825 1625 
L 2419 1625 
L 2419 4116 
z
M 2253 4666 
L 3047 4666 
L 3047 1625 
L 3713 1625 
L 3713 1100 
L 3047 1100 
L 3047 0 
L 2419 0 
L 2419 1100 
L 313 1100 
L 313 1709 
L 2253 4666 
z
" transform="scale(0.015625)"/>
       </defs>
       <use xlink:href="#DejaVuSans-32"/>
       <use xlink:href="#DejaVuSans-30" x="63.623047"/>
       <use xlink:href="#DejaVuSans-30" x="127.246094"/>
       <use xlink:href="#DejaVuSans-34" x="190.869141"/>
      </g>
     </g>
    </g>
    <g id="xtick_5">
     <g id="line2d_9">
      <path d="M 630.713024 492.276019 
L 630.713024 10.999219 
" clip-path="url(#pe267e4695c)" style="fill: none; stroke: #b0b0b0; stroke-width: 0.8; stroke-linecap: square"/>
     </g>
     <g id="line2d_10">
      <g>
       <use xlink:href="#mf907e3699b" x="630.713024" y="492.276019" style="stroke: #000000; stroke-width: 0.8"/>
      </g>
     </g>
     <g id="text_5">
      <!-- 2008 -->
      <g transform="translate(607.632833 518.581459) rotate(-30) scale(0.1 -0.1)">
       <defs>
        <path id="DejaVuSans-38" d="M 2034 2216 
Q 1584 2216 1326 1975 
Q 1069 1734 1069 1313 
Q 1069 891 1326 650 
Q 1584 409 2034 409 
Q 2484 409 2743 651 
Q 3003 894 3003 1313 
Q 3003 1734 2745 1975 
Q 2488 2216 2034 2216 
z
M 1403 2484 
Q 997 2584 770 2862 
Q 544 3141 544 3541 
Q 544 4100 942 4425 
Q 1341 4750 2034 4750 
Q 2731 4750 3128 4425 
Q 3525 4100 3525 3541 
Q 3525 3141 3298 2862 
Q 3072 2584 2669 2484 
Q 3125 2378 3379 2068 
Q 3634 1759 3634 1313 
Q 3634 634 3220 271 
Q 2806 -91 2034 -91 
Q 1263 -91 848 271 
Q 434 634 434 1313 
Q 434 1759 690 2068 
Q 947 2378 1403 2484 
z
M 1172 3481 
Q 1172 3119 1398 2916 
Q 1625 2713 2034 2713 
Q 2441 2713 2670 2916 
Q 2900 3119 2900 3481 
Q 2900 3844 2670 4047 
Q 2441 4250 2034 4250 
Q 1625 4250 1398 4047 
Q 1172 3844 1172 3481 
z
" transform="scale(0.015625)"/>
       </defs>
       <use xlink:href="#DejaVuSans-32"/>
       <use xlink:href="#DejaVuSans-30" x="63.623047"/>
       <use xlink:href="#DejaVuSans-30" x="127.246094"/>
       <use xlink:href="#DejaVuSans-38" x="190.869141"/>
      </g>
     </g>
    </g>
    <g id="xtick_6">
     <g id="line2d_11">
      <path d="M 763.924114 492.276019 
L 763.924114 10.999219 
" clip-path="url(#pe267e4695c)" style="fill: none; stroke: #b0b0b0; stroke-width: 0.8; stroke-linecap: square"/>
     </g>
     <g id="line2d_12">
      <g>
       <use xlink:href="#mf907e3699b" x="763.924114" y="492.276019" style="stroke: #000000; stroke-width: 0.8"/>
      </g>
     </g>
     <g id="text_6">
      <!-- 2012 -->
      <g transform="translate(740.843924 518.581459) rotate(-30) scale(0.1 -0.1)">
       <use xlink:href="#DejaVuSans-32"/>
       <use xlink:href="#DejaVuSans-30" x="63.623047"/>
       <use xlink:href="#DejaVuSans-31" x="127.246094"/>
       <use xlink:href="#DejaVuSans-32" x="190.869141"/>
      </g>
     </g>
    </g>
    <g id="xtick_7">
     <g id="line2d_13">
      <path d="M 897.135205 492.276019 
L 897.135205 10.999219 
" clip-path="url(#pe267e4695c)" style="fill: none; stroke: #b0b0b0; stroke-width: 0.8; stroke-linecap: square"/>
     </g>
     <g id="line2d_14">
      <g>
       <use xlink:href="#mf907e3699b" x="897.135205" y="492.276019" style="stroke: #000000; stroke-width: 0.8"/>
      </g>
     </g>
     <g id="text_7">
      <!-- 2016 -->
      <g transform="translate(874.055015 518.581459) rotate(-30) scale(0.1 -0.1)">
       <use xlink:href="#DejaVuSans-32"/>
       <use xlink:href="#DejaVuSans-30" x="63.623047"/>
       <use xlink:href="#DejaVuSans-31" x="127.246094"/>
       <use xlink:href="#DejaVuSans-36" x="190.869141"/>
      </g>
     </g>
    </g>
    <g id="xtick_8">
     <g id="line2d_15">
      <path d="M 1030.346296 492.276019 
L 1030.346296 10.999219 
" clip-path="url(#pe267e4695c)" style="fill: none; stroke: #b0b0b0; stroke-width: 0.8; stroke-linecap: square"/>
     </g>
     <g id="line2d_16">
      <g>
       <use xlink:href="#mf907e3699b" x="1030.346296" y="492.276019" style="stroke: #000000; stroke-width: 0.8"/>
      </g>
     </g>
     <g id="text_8">
      <!-- 2020 -->
      <g transform="translate(1007.266106 518.581459) rotate(-30) scale(0.1 -0.1)">
       <use xlink:href="#DejaVuSans-32"/>
       <use xlink:href="#DejaVuSans-30" x="63.623047"/>
       <use xlink:href="#DejaVuSans-32" x="127.246094"/>
       <use xlink:href="#DejaVuSans-30" x="190.869141"/>
      </g>
     </g>
    </g>
   </g>
   <g id="matplotlib.axis_2">
    <g id="ytick_1">
     <g id="line2d_17">
      <path d="M 82.632812 492.276019 
L 1153.992812 492.276019 
" clip-path="url(#pe267e4695c)" style="fill: none; stroke: #b0b0b0; stroke-width: 0.8; stroke-linecap: square"/>
     </g>
     <g id="line2d_18">
      <defs>
       <path id="mafa4f7d072" d="M 0 0 
L -3.5 0 
" style="stroke: #000000; stroke-width: 0.8"/>
      </defs>
      <g>
       <use xlink:href="#mafa4f7d072" x="82.632812" y="492.276019" style="stroke: #000000; stroke-width: 0.8"/>
      </g>
     </g>
     <g id="text_9">
      <!-- −0.00100 -->
      <g transform="translate(25.9 496.075237) scale(0.1 -0.1)">
       <defs>
        <path id="DejaVuSans-2212" d="M 678 2272 
L 4684 2272 
L 4684 1741 
L 678 1741 
L 678 2272 
z
" transform="scale(0.015625)"/>
        <path id="DejaVuSans-2e" d="M 684 794 
L 1344 794 
L 1344 0 
L 684 0 
L 684 794 
z
" transform="scale(0.015625)"/>
       </defs>
       <use xlink:href="#DejaVuSans-2212"/>
       <use xlink:href="#DejaVuSans-30" x="83.789062"/>
       <use xlink:href="#DejaVuSans-2e" x="147.412109"/>
       <use xlink:href="#DejaVuSans-30" x="179.199219"/>
       <use xlink:href="#DejaVuSans-30" x="242.822266"/>
       <use xlink:href="#DejaVuSans-31" x="306.445312"/>
       <use xlink:href="#DejaVuSans-30" x="370.068359"/>
       <use xlink:href="#DejaVuSans-30" x="433.691406"/>
      </g>
     </g>
    </g>
    <g id="ytick_2">
     <g id="line2d_19">
      <path d="M 82.632812 432.116419 
L 1153.992812 432.116419 
" clip-path="url(#pe267e4695c)" style="fill: none; stroke: #b0b0b0; stroke-width: 0.8; stroke-linecap: square"/>
     </g>
     <g id="line2d_20">
      <g>
       <use xlink:href="#mafa4f7d072" x="82.632812" y="432.116419" style="stroke: #000000; stroke-width: 0.8"/>
      </g>
     </g>
     <g id="text_10">
      <!-- −0.00075 -->
      <g transform="translate(25.9 435.915638) scale(0.1 -0.1)">
       <defs>
        <path id="DejaVuSans-37" d="M 525 4666 
L 3525 4666 
L 3525 4397 
L 1831 0 
L 1172 0 
L 2766 4134 
L 525 4134 
L 525 4666 
z
" transform="scale(0.015625)"/>
        <path id="DejaVuSans-35" d="M 691 4666 
L 3169 4666 
L 3169 4134 
L 1269 4134 
L 1269 2991 
Q 1406 3038 1543 3061 
Q 1681 3084 1819 3084 
Q 2600 3084 3056 2656 
Q 3513 2228 3513 1497 
Q 3513 744 3044 326 
Q 2575 -91 1722 -91 
Q 1428 -91 1123 -41 
Q 819 9 494 109 
L 494 744 
Q 775 591 1075 516 
Q 1375 441 1709 441 
Q 2250 441 2565 725 
Q 2881 1009 2881 1497 
Q 2881 1984 2565 2268 
Q 2250 2553 1709 2553 
Q 1456 2553 1204 2497 
Q 953 2441 691 2322 
L 691 4666 
z
" transform="scale(0.015625)"/>
       </defs>
       <use xlink:href="#DejaVuSans-2212"/>
       <use xlink:href="#DejaVuSans-30" x="83.789062"/>
       <use xlink:href="#DejaVuSans-2e" x="147.412109"/>
       <use xlink:href="#DejaVuSans-30" x="179.199219"/>
       <use xlink:href="#DejaVuSans-30" x="242.822266"/>
       <use xlink:href="#DejaVuSans-30" x="306.445312"/>
       <use xlink:href="#DejaVuSans-37" x="370.068359"/>
       <use xlink:href="#DejaVuSans-35" x="433.691406"/>
      </g>
     </g>
    </g>
    <g id="ytick_3">
     <g id="line2d_21">
      <path d="M 82.632812 371.956819 
L 1153.992812 371.956819 
" clip-path="url(#pe267e4695c)" style="fill: none; stroke: #b0b0b0; stroke-width: 0.8; stroke-linecap: square"/>
     </g>
     <g id="line2d_22">
      <g>
       <use xlink:href="#mafa4f7d072" x="82.632812" y="371.956819" style="stroke: #000000; stroke-width: 0.8"/>
      </g>
     </g>
     <g id="text_11">
      <!-- −0.00050 -->
      <g transform="translate(25.9 375.756037) scale(0.1 -0.1)">
       <use xlink:href="#DejaVuSans-2212"/>
       <use xlink:href="#DejaVuSans-30" x="83.789062"/>
       <use xlink:href="#DejaVuSans-2e" x="147.412109"/>
       <use xlink:href="#DejaVuSans-30" x="179.199219"/>
       <use xlink:href="#DejaVuSans-30" x="242.822266"/>
       <use xlink:href="#DejaVuSans-30" x="306.445312"/>
       <use xlink:href="#DejaVuSans-35" x="370.068359"/>
       <use xlink:href="#DejaVuSans-30" x="433.691406"/>
      </g>
     </g>
    </g>
    <g id="ytick_4">
     <g id="line2d_23">
      <path d="M 82.632812 311.797219 
L 1153.992812 311.797219 
" clip-path="url(#pe267e4695c)" style="fill: none; stroke: #b0b0b0; stroke-width: 0.8; stroke-linecap: square"/>
     </g>
     <g id="line2d_24">
      <g>
       <use xlink:href="#mafa4f7d072" x="82.632812" y="311.797219" style="stroke: #000000; stroke-width: 0.8"/>
      </g>
     </g>
     <g id="text_12">
      <!-- −0.00025 -->
      <g transform="translate(25.9 315.596437) scale(0.1 -0.1)">
       <use xlink:href="#DejaVuSans-2212"/>
       <use xlink:href="#DejaVuSans-30" x="83.789062"/>
       <use xlink:href="#DejaVuSans-2e" x="147.412109"/>
       <use xlink:href="#DejaVuSans-30" x="179.199219"/>
       <use xlink:href="#DejaVuSans-30" x="242.822266"/>
       <use xlink:href="#DejaVuSans-30" x="306.445312"/>
       <use xlink:href="#DejaVuSans-32" x="370.068359"/>
       <use xlink:href="#DejaVuSans-35" x="433.691406"/>
      </g>
     </g>
    </g>
    <g id="ytick_5">
     <g id="line2d_25">
      <path d="M 82.632812 251.637619 
L 1153.992812 251.637619 
" clip-path="url(#pe267e4695c)" style="fill: none; stroke: #b0b0b0; stroke-width: 0.8; stroke-linecap: square"/>
     </g>
     <g id="line2d_26">
      <g>
       <use xlink:href="#mafa4f7d072" x="82.632812" y="251.637619" style="stroke: #000000; stroke-width: 0.8"/>
      </g>
     </g>
     <g id="text_13">
      <!-- 0.00000 -->
      <g transform="translate(34.279687 255.436838) scale(0.1 -0.1)">
       <use xlink:href="#DejaVuSans-30"/>
       <use xlink:href="#DejaVuSans-2e" x="63.623047"/>
       <use xlink:href="#DejaVuSans-30" x="95.410156"/>
       <use xlink:href="#DejaVuSans-30" x="159.033203"/>
       <use xlink:href="#DejaVuSans-30" x="222.65625"/>
       <use xlink:href="#DejaVuSans-30" x="286.279297"/>
       <use xlink:href="#DejaVuSans-30" x="349.902344"/>
      </g>
     </g>
    </g>
    <g id="ytick_6">
     <g id="line2d_27">
      <path d="M 82.632812 191.478019 
L 1153.992812 191.478019 
" clip-path="url(#pe267e4695c)" style="fill: none; stroke: #b0b0b0; stroke-width: 0.8; stroke-linecap: square"/>
     </g>
     <g id="line2d_28">
      <g>
       <use xlink:href="#mafa4f7d072" x="82.632812" y="191.478019" style="stroke: #000000; stroke-width: 0.8"/>
      </g>
     </g>
     <g id="text_14">
      <!-- 0.00025 -->
      <g transform="translate(34.279687 195.277238) scale(0.1 -0.1)">
       <use xlink:href="#DejaVuSans-30"/>
       <use xlink:href="#DejaVuSans-2e" x="63.623047"/>
       <use xlink:href="#DejaVuSans-30" x="95.410156"/>
       <use xlink:href="#DejaVuSans-30" x="159.033203"/>
       <use xlink:href="#DejaVuSans-30" x="222.65625"/>
       <use xlink:href="#DejaVuSans-32" x="286.279297"/>
       <use xlink:href="#DejaVuSans-35" x="349.902344"/>
      </g>
     </g>
    </g>
    <g id="ytick_7">
     <g id="line2d_29">
      <path d="M 82.632812 131.318419 
L 1153.992812 131.318419 
" clip-path="url(#pe267e4695c)" style="fill: none; stroke: #b0b0b0; stroke-width: 0.8; stroke-linecap: square"/>
     </g>
     <g id="line2d_30">
      <g>
       <use xlink:href="#mafa4f7d072" x="82.632812" y="131.318419" style="stroke: #000000; stroke-width: 0.8"/>
      </g>
     </g>
     <g id="text_15">
      <!-- 0.00050 -->
      <g transform="translate(34.279687 135.117638) scale(0.1 -0.1)">
       <use xlink:href="#DejaVuSans-30"/>
       <use xlink:href="#DejaVuSans-2e" x="63.623047"/>
       <use xlink:href="#DejaVuSans-30" x="95.410156"/>
       <use xlink:href="#DejaVuSans-30" x="159.033203"/>
       <use xlink:href="#DejaVuSans-30" x="222.65625"/>
       <use xlink:href="#DejaVuSans-35" x="286.279297"/>
       <use xlink:href="#DejaVuSans-30" x="349.902344"/>
      </g>
     </g>
    </g>
    <g id="ytick_8">
     <g id="line2d_31">
      <path d="M 82.632812 71.158819 
L 1153.992812 71.158819 
" clip-path="url(#pe267e4695c)" style="fill: none; stroke: #b0b0b0; stroke-width: 0.8; stroke-linecap: square"/>
     </g>
     <g id="line2d_32">
      <g>
       <use xlink:href="#mafa4f7d072" x="82.632812" y="71.158819" style="stroke: #000000; stroke-width: 0.8"/>
      </g>
     </g>
     <g id="text_16">
      <!-- 0.00075 -->
      <g transform="translate(34.279687 74.958038) scale(0.1 -0.1)">
       <use xlink:href="#DejaVuSans-30"/>
       <use xlink:href="#DejaVuSans-2e" x="63.623047"/>
       <use xlink:href="#DejaVuSans-30" x="95.410156"/>
       <use xlink:href="#DejaVuSans-30" x="159.033203"/>
       <use xlink:href="#DejaVuSans-30" x="222.65625"/>
       <use xlink:href="#DejaVuSans-37" x="286.279297"/>
       <use xlink:href="#DejaVuSans-35" x="349.902344"/>
      </g>
     </g>
    </g>
    <g id="ytick_9">
     <g id="line2d_33">
      <path d="M 82.632812 10.999219 
L 1153.992812 10.999219 
" clip-path="url(#pe267e4695c)" style="fill: none; stroke: #b0b0b0; stroke-width: 0.8; stroke-linecap: square"/>
     </g>
     <g id="line2d_34">
      <g>
       <use xlink:href="#mafa4f7d072" x="82.632812" y="10.999219" style="stroke: #000000; stroke-width: 0.8"/>
      </g>
     </g>
     <g id="text_17">
      <!-- 0.00100 -->
      <g transform="translate(34.279687 14.798438) scale(0.1 -0.1)">
       <use xlink:href="#DejaVuSans-30"/>
       <use xlink:href="#DejaVuSans-2e" x="63.623047"/>
       <use xlink:href="#DejaVuSans-30" x="95.410156"/>
       <use xlink:href="#DejaVuSans-30" x="159.033203"/>
       <use xlink:href="#DejaVuSans-31" x="222.65625"/>
       <use xlink:href="#DejaVuSans-30" x="286.279297"/>
       <use xlink:href="#DejaVuSans-30" x="349.902344"/>
      </g>
     </g>
    </g>
    <g id="text_18">
     <!-- Entradas-salidas ($m^3/s$) -->
     <g transform="translate(18.988437 333.677619) rotate(-90) scale(0.14 -0.14)">
      <defs>
       <path id="DejaVuSans-45" d="M 628 4666 
L 3578 4666 
L 3578 4134 
L 1259 4134 
L 1259 2753 
L 3481 2753 
L 3481 2222 
L 1259 2222 
L 1259 531 
L 3634 531 
L 3634 0 
L 628 0 
L 628 4666 
z
" transform="scale(0.015625)"/>
       <path id="DejaVuSans-6e" d="M 3513 2113 
L 3513 0 
L 2938 0 
L 2938 2094 
Q 2938 2591 2744 2837 
Q 2550 3084 2163 3084 
Q 1697 3084 1428 2787 
Q 1159 2491 1159 1978 
L 1159 0 
L 581 0 
L 581 3500 
L 1159 3500 
L 1159 2956 
Q 1366 3272 1645 3428 
Q 1925 3584 2291 3584 
Q 2894 3584 3203 3211 
Q 3513 2838 3513 2113 
z
" transform="scale(0.015625)"/>
       <path id="DejaVuSans-74" d="M 1172 4494 
L 1172 3500 
L 2356 3500 
L 2356 3053 
L 1172 3053 
L 1172 1153 
Q 1172 725 1289 603 
Q 1406 481 1766 481 
L 2356 481 
L 2356 0 
L 1766 0 
Q 1100 0 847 248 
Q 594 497 594 1153 
L 594 3053 
L 172 3053 
L 172 3500 
L 594 3500 
L 594 4494 
L 1172 4494 
z
" transform="scale(0.015625)"/>
       <path id="DejaVuSans-72" d="M 2631 2963 
Q 2534 3019 2420 3045 
Q 2306 3072 2169 3072 
Q 1681 3072 1420 2755 
Q 1159 2438 1159 1844 
L 1159 0 
L 581 0 
L 581 3500 
L 1159 3500 
L 1159 2956 
Q 1341 3275 1631 3429 
Q 1922 3584 2338 3584 
Q 2397 3584 2469 3576 
Q 2541 3569 2628 3553 
L 2631 2963 
z
" transform="scale(0.015625)"/>
       <path id="DejaVuSans-61" d="M 2194 1759 
Q 1497 1759 1228 1600 
Q 959 1441 959 1056 
Q 959 750 1161 570 
Q 1363 391 1709 391 
Q 2188 391 2477 730 
Q 2766 1069 2766 1631 
L 2766 1759 
L 2194 1759 
z
M 3341 1997 
L 3341 0 
L 2766 0 
L 2766 531 
Q 2569 213 2275 61 
Q 1981 -91 1556 -91 
Q 1019 -91 701 211 
Q 384 513 384 1019 
Q 384 1609 779 1909 
Q 1175 2209 1959 2209 
L 2766 2209 
L 2766 2266 
Q 2766 2663 2505 2880 
Q 2244 3097 1772 3097 
Q 1472 3097 1187 3025 
Q 903 2953 641 2809 
L 641 3341 
Q 956 3463 1253 3523 
Q 1550 3584 1831 3584 
Q 2591 3584 2966 3190 
Q 3341 2797 3341 1997 
z
" transform="scale(0.015625)"/>
       <path id="DejaVuSans-64" d="M 2906 2969 
L 2906 4863 
L 3481 4863 
L 3481 0 
L 2906 0 
L 2906 525 
Q 2725 213 2448 61 
Q 2172 -91 1784 -91 
Q 1150 -91 751 415 
Q 353 922 353 1747 
Q 353 2572 751 3078 
Q 1150 3584 1784 3584 
Q 2172 3584 2448 3432 
Q 2725 3281 2906 2969 
z
M 947 1747 
Q 947 1113 1208 752 
Q 1469 391 1925 391 
Q 2381 391 2643 752 
Q 2906 1113 2906 1747 
Q 2906 2381 2643 2742 
Q 2381 3103 1925 3103 
Q 1469 3103 1208 2742 
Q 947 2381 947 1747 
z
" transform="scale(0.015625)"/>
       <path id="DejaVuSans-73" d="M 2834 3397 
L 2834 2853 
Q 2591 2978 2328 3040 
Q 2066 3103 1784 3103 
Q 1356 3103 1142 2972 
Q 928 2841 928 2578 
Q 928 2378 1081 2264 
Q 1234 2150 1697 2047 
L 1894 2003 
Q 2506 1872 2764 1633 
Q 3022 1394 3022 966 
Q 3022 478 2636 193 
Q 2250 -91 1575 -91 
Q 1294 -91 989 -36 
Q 684 19 347 128 
L 347 722 
Q 666 556 975 473 
Q 1284 391 1588 391 
Q 1994 391 2212 530 
Q 2431 669 2431 922 
Q 2431 1156 2273 1281 
Q 2116 1406 1581 1522 
L 1381 1569 
Q 847 1681 609 1914 
Q 372 2147 372 2553 
Q 372 3047 722 3315 
Q 1072 3584 1716 3584 
Q 2034 3584 2315 3537 
Q 2597 3491 2834 3397 
z
" transform="scale(0.015625)"/>
       <path id="DejaVuSans-2d" d="M 313 2009 
L 1997 2009 
L 1997 1497 
L 313 1497 
L 313 2009 
z
" transform="scale(0.015625)"/>
       <path id="DejaVuSans-6c" d="M 603 4863 
L 1178 4863 
L 1178 0 
L 603 0 
L 603 4863 
z
" transform="scale(0.015625)"/>
       <path id="DejaVuSans-69" d="M 603 3500 
L 1178 3500 
L 1178 0 
L 603 0 
L 603 3500 
z
M 603 4863 
L 1178 4863 
L 1178 4134 
L 603 4134 
L 603 4863 
z
" transform="scale(0.015625)"/>
       <path id="DejaVuSans-20" transform="scale(0.015625)"/>
       <path id="DejaVuSans-28" d="M 1984 4856 
Q 1566 4138 1362 3434 
Q 1159 2731 1159 2009 
Q 1159 1288 1364 580 
Q 1569 -128 1984 -844 
L 1484 -844 
Q 1016 -109 783 600 
Q 550 1309 550 2009 
Q 550 2706 781 3412 
Q 1013 4119 1484 4856 
L 1984 4856 
z
" transform="scale(0.015625)"/>
       <path id="DejaVuSans-Oblique-6d" d="M 5747 2113 
L 5338 0 
L 4763 0 
L 5166 2094 
Q 5191 2228 5203 2325 
Q 5216 2422 5216 2491 
Q 5216 2772 5059 2928 
Q 4903 3084 4622 3084 
Q 4203 3084 3875 2770 
Q 3547 2456 3450 1953 
L 3066 0 
L 2491 0 
L 2900 2094 
Q 2925 2209 2937 2307 
Q 2950 2406 2950 2484 
Q 2950 2769 2794 2926 
Q 2638 3084 2363 3084 
Q 1938 3084 1609 2770 
Q 1281 2456 1184 1953 
L 800 0 
L 225 0 
L 909 3500 
L 1484 3500 
L 1375 2956 
Q 1609 3263 1923 3423 
Q 2238 3584 2597 3584 
Q 2978 3584 3223 3384 
Q 3469 3184 3519 2828 
Q 3781 3197 4126 3390 
Q 4472 3584 4856 3584 
Q 5306 3584 5551 3325 
Q 5797 3066 5797 2591 
Q 5797 2488 5784 2364 
Q 5772 2241 5747 2113 
z
" transform="scale(0.015625)"/>
       <path id="DejaVuSans-33" d="M 2597 2516 
Q 3050 2419 3304 2112 
Q 3559 1806 3559 1356 
Q 3559 666 3084 287 
Q 2609 -91 1734 -91 
Q 1441 -91 1130 -33 
Q 819 25 488 141 
L 488 750 
Q 750 597 1062 519 
Q 1375 441 1716 441 
Q 2309 441 2620 675 
Q 2931 909 2931 1356 
Q 2931 1769 2642 2001 
Q 2353 2234 1838 2234 
L 1294 2234 
L 1294 2753 
L 1863 2753 
Q 2328 2753 2575 2939 
Q 2822 3125 2822 3475 
Q 2822 3834 2567 4026 
Q 2313 4219 1838 4219 
Q 1578 4219 1281 4162 
Q 984 4106 628 3988 
L 628 4550 
Q 988 4650 1302 4700 
Q 1616 4750 1894 4750 
Q 2613 4750 3031 4423 
Q 3450 4097 3450 3541 
Q 3450 3153 3228 2886 
Q 3006 2619 2597 2516 
z
" transform="scale(0.015625)"/>
       <path id="DejaVuSans-2f" d="M 1625 4666 
L 2156 4666 
L 531 -594 
L 0 -594 
L 1625 4666 
z
" transform="scale(0.015625)"/>
       <path id="DejaVuSans-Oblique-73" d="M 3200 3397 
L 3091 2853 
Q 2863 2978 2609 3040 
Q 2356 3103 2088 3103 
Q 1634 3103 1373 2948 
Q 1113 2794 1113 2528 
Q 1113 2219 1719 2053 
Q 1766 2041 1788 2034 
L 1972 1978 
Q 2547 1819 2739 1644 
Q 2931 1469 2931 1166 
Q 2931 609 2489 259 
Q 2047 -91 1331 -91 
Q 1053 -91 747 -37 
Q 441 16 72 128 
L 184 722 
Q 500 559 806 475 
Q 1113 391 1394 391 
Q 1816 391 2080 572 
Q 2344 753 2344 1031 
Q 2344 1331 1650 1516 
L 1591 1531 
L 1394 1581 
Q 956 1697 753 1886 
Q 550 2075 550 2369 
Q 550 2928 970 3256 
Q 1391 3584 2113 3584 
Q 2397 3584 2667 3537 
Q 2938 3491 3200 3397 
z
" transform="scale(0.015625)"/>
       <path id="DejaVuSans-29" d="M 513 4856 
L 1013 4856 
Q 1481 4119 1714 3412 
Q 1947 2706 1947 2009 
Q 1947 1309 1714 600 
Q 1481 -109 1013 -844 
L 513 -844 
Q 928 -128 1133 580 
Q 1338 1288 1338 2009 
Q 1338 2731 1133 3434 
Q 928 4138 513 4856 
z
" transform="scale(0.015625)"/>
      </defs>
      <use xlink:href="#DejaVuSans-45" transform="translate(0 0.765625)"/>
      <use xlink:href="#DejaVuSans-6e" transform="translate(63.183594 0.765625)"/>
      <use xlink:href="#DejaVuSans-74" transform="translate(126.5625 0.765625)"/>
      <use xlink:href="#DejaVuSans-72" transform="translate(165.771484 0.765625)"/>
      <use xlink:href="#DejaVuSans-61" transform="translate(206.884766 0.765625)"/>
      <use xlink:href="#DejaVuSans-64" transform="translate(268.164062 0.765625)"/>
      <use xlink:href="#DejaVuSans-61" transform="translate(331.640625 0.765625)"/>
      <use xlink:href="#DejaVuSans-73" transform="translate(392.919922 0.765625)"/>
      <use xlink:href="#DejaVuSans-2d" transform="translate(445.019531 0.765625)"/>
      <use xlink:href="#DejaVuSans-73" transform="translate(481.103516 0.765625)"/>
      <use xlink:href="#DejaVuSans-61" transform="translate(533.203125 0.765625)"/>
      <use xlink:href="#DejaVuSans-6c" transform="translate(594.482422 0.765625)"/>
      <use xlink:href="#DejaVuSans-69" transform="translate(622.265625 0.765625)"/>
      <use xlink:href="#DejaVuSans-64" transform="translate(650.048828 0.765625)"/>
      <use xlink:href="#DejaVuSans-61" transform="translate(713.525391 0.765625)"/>
      <use xlink:href="#DejaVuSans-73" transform="translate(774.804688 0.765625)"/>
      <use xlink:href="#DejaVuSans-20" transform="translate(826.904297 0.765625)"/>
      <use xlink:href="#DejaVuSans-28" transform="translate(858.691406 0.765625)"/>
      <use xlink:href="#DejaVuSans-Oblique-6d" transform="translate(897.705078 0.765625)"/>
      <use xlink:href="#DejaVuSans-33" transform="translate(999.767083 39.046875) scale(0.7)"/>
      <use xlink:href="#DejaVuSans-2f" transform="translate(1047.037591 0.765625)"/>
      <use xlink:href="#DejaVuSans-Oblique-73" transform="translate(1080.728997 0.765625)"/>
      <use xlink:href="#DejaVuSans-29" transform="translate(1132.828607 0.765625)"/>
     </g>
    </g>
   </g>
   <g id="line2d_35">
    <path d="M 131.330994 251.637619 
L 134.157513 251.463546 
L 136.710498 251.637619 
L 142.272357 251.637619 
L 145.098876 251.811692 
L 147.834216 253.030202 
L 150.660735 251.985765 
L 153.487254 251.289473 
L 156.222594 251.811692 
L 161.784454 251.463546 
L 164.610973 249.722817 
L 167.437491 251.637619 
L 169.990476 251.289473 
L 172.816995 251.289473 
L 175.552335 246.067285 
L 178.378854 246.763577 
L 186.767232 248.15616 
L 189.502573 247.633942 
L 192.329091 246.763577 
L 195.064432 246.154183 
L 197.890951 245.980388 
L 200.717469 246.763577 
L 203.270454 246.850474 
L 208.832313 246.589504 
L 217.220692 247.633942 
L 220.04721 247.721117 
L 225.60907 247.111723 
L 228.34441 246.589504 
L 231.170929 246.328534 
L 233.997448 244.674702 
L 236.64161 245.022848 
L 239.468129 244.848775 
L 242.20347 245.196921 
L 245.029988 245.370994 
L 247.765329 245.893213 
L 253.418366 246.154183 
L 258.980226 246.067285 
L 261.715566 245.545067 
L 264.542085 245.284097 
L 267.368604 251.637619 
L 269.921589 251.637619 
L 272.748107 251.811692 
L 286.698345 251.811692 
L 292.260204 252.159838 
L 294.995545 251.637619 
L 297.822063 252.159838 
L 300.648582 251.637619 
L 303.201567 252.33391 
L 306.028085 251.637619 
L 308.763426 251.637619 
L 311.589945 251.463546 
L 314.325285 251.637619 
L 317.151804 252.159838 
L 319.978323 251.811692 
L 322.713664 251.637619 
L 325.540182 251.811692 
L 328.275523 251.637619 
L 331.102042 251.637619 
L 333.92856 251.463546 
L 336.481545 251.637619 
L 339.308064 251.463546 
L 342.043404 251.637619 
L 344.869923 251.1154 
L 347.605264 251.289473 
L 350.431782 245.196921 
L 353.258301 244.848775 
L 355.993642 243.97841 
L 358.82016 251.289473 
L 361.555501 244.152483 
L 364.38202 243.456192 
L 367.208539 251.463546 
L 369.852701 247.982088 
L 372.67922 247.894912 
L 375.414561 248.504306 
L 378.241079 251.463546 
L 380.97642 251.637619 
L 383.802939 251.637619 
L 386.629457 251.463546 
L 389.364798 252.159838 
L 392.191317 251.463546 
L 394.926657 251.289473 
L 397.753176 248.243058 
L 400.579695 251.289473 
L 403.132679 251.463546 
L 405.959198 251.811692 
L 408.694539 251.637619 
L 411.521057 251.811692 
L 414.256398 251.463546 
L 417.082917 251.463546 
L 419.909436 247.285796 
L 422.644776 246.067285 
L 425.471295 251.463546 
L 428.206636 251.289473 
L 431.033154 245.196921 
L 433.859673 251.637619 
L 436.412658 251.637619 
L 439.239176 251.463546 
L 441.974517 251.811692 
L 444.801036 251.637619 
L 447.536376 251.811692 
L 450.362895 253.552421 
L 453.189414 251.811692 
L 455.924754 252.33391 
L 458.751273 251.1154 
L 461.486614 251.811692 
L 464.313132 251.811692 
L 467.139651 251.637619 
L 469.692636 251.811692 
L 472.519155 251.637619 
L 475.254495 251.637619 
L 478.081014 251.811692 
L 480.816355 251.463546 
L 483.642873 251.811692 
L 489.204733 251.463546 
L 492.031251 251.637619 
L 494.766592 251.637619 
L 497.593111 251.811692 
L 500.419629 251.463546 
L 503.063792 251.637619 
L 505.890311 251.289473 
L 508.625651 246.415431 
L 511.45217 246.589504 
L 514.187511 251.463546 
L 517.01403 246.93765 
L 519.840548 247.111723 
L 522.575889 251.289473 
L 525.402408 251.463546 
L 528.137748 251.289473 
L 530.964267 245.022848 
L 533.790786 251.463546 
L 536.34377 243.804338 
L 539.170289 244.500629 
L 541.90563 245.022848 
L 544.732148 251.289473 
L 547.467489 247.111723 
L 550.294008 251.463546 
L 553.120526 247.111723 
L 555.855867 246.415431 
L 558.682386 246.241358 
L 561.417726 245.196921 
L 564.244245 245.370994 
L 567.070764 251.463546 
L 569.623748 251.811692 
L 572.450267 248.852452 
L 575.185608 251.463546 
L 578.012127 246.93765 
L 580.747467 246.93765 
L 586.400505 246.589504 
L 589.135845 245.545067 
L 591.962364 251.289473 
L 594.697705 243.804338 
L 597.524223 243.630265 
L 600.350742 244.500629 
L 602.903727 245.022848 
L 605.730245 244.674702 
L 608.465586 245.196921 
L 611.292105 245.893213 
L 614.027445 246.93765 
L 616.853964 251.637619 
L 619.680483 247.633942 
L 625.242342 246.589504 
L 627.977683 246.415431 
L 630.804202 247.285796 
L 633.63072 251.463546 
L 636.274883 248.678379 
L 639.101402 247.808015 
L 641.836742 247.808015 
L 644.663261 248.504306 
L 647.398602 247.459869 
L 650.22512 247.111723 
L 653.051639 251.463546 
L 655.78698 246.067285 
L 658.613498 246.067285 
L 661.348839 245.196921 
L 664.175358 243.282119 
L 667.001877 250.941327 
L 669.554861 243.108046 
L 672.38138 242.7599 
L 675.116721 251.289473 
L 677.943239 244.152483 
L 680.67858 245.370994 
L 683.505099 245.545067 
L 686.331617 246.241358 
L 689.066958 245.71914 
L 691.893477 244.848775 
L 694.628817 244.848775 
L 697.455336 244.152483 
L 700.281855 243.282119 
L 702.834839 243.804338 
L 708.396699 243.804338 
L 713.958558 244.500629 
L 716.785077 245.022848 
L 719.611595 244.674702 
L 722.346936 244.500629 
L 725.173455 243.804338 
L 727.908796 243.630265 
L 730.735314 243.282119 
L 733.561833 242.7599 
L 736.114818 243.282119 
L 738.941336 244.500629 
L 741.676677 245.196921 
L 747.238536 245.893213 
L 750.065055 245.71914 
L 752.891574 245.71914 
L 755.626914 245.022848 
L 758.453433 243.804338 
L 761.188774 243.804338 
L 764.015292 243.282119 
L 766.841811 243.456192 
L 769.485974 243.456192 
L 772.312493 243.97841 
L 775.047833 244.674702 
L 777.874352 245.196921 
L 783.436211 244.848775 
L 786.26273 244.848775 
L 788.998071 244.500629 
L 791.824589 243.804338 
L 794.55993 242.585827 
L 797.386449 242.7599 
L 800.212967 251.289473 
L 802.765952 242.7599 
L 805.592471 243.108046 
L 808.327811 243.804338 
L 811.15433 243.804338 
L 813.889671 251.289473 
L 819.542708 251.637619 
L 822.278049 247.982088 
L 825.104568 244.848775 
L 827.839908 243.108046 
L 830.666427 242.411754 
L 833.492946 251.289473 
L 836.04593 251.289473 
L 838.872449 244.848775 
L 841.60779 245.370994 
L 844.434308 245.370994 
L 847.169649 246.241358 
L 849.996168 246.415431 
L 852.822686 245.893213 
L 855.558027 245.196921 
L 858.384546 244.674702 
L 861.119886 243.97841 
L 863.946405 251.463546 
L 866.772924 243.97841 
L 869.325908 244.500629 
L 872.152427 245.545067 
L 874.887768 251.289473 
L 877.714287 247.285796 
L 880.449627 247.285796 
L 883.276146 246.93765 
L 886.102665 246.763577 
L 888.838005 246.763577 
L 891.664524 246.241358 
L 894.399865 245.545067 
L 897.226383 244.500629 
L 905.523583 245.022848 
L 908.258924 245.545067 
L 911.085443 246.241358 
L 913.820783 247.111723 
L 916.647302 247.633942 
L 919.473821 251.289473 
L 922.209161 251.289473 
L 925.03568 246.241358 
L 927.771021 245.893213 
L 930.59754 251.637619 
L 935.977043 251.637619 
L 938.803562 246.589504 
L 941.538902 251.1154 
L 944.365421 244.674702 
L 947.100762 251.289473 
L 949.92728 246.589504 
L 952.753799 251.289473 
L 955.48914 246.067285 
L 958.315658 245.893213 
L 961.050999 251.1154 
L 963.877518 246.93765 
L 966.704036 251.637619 
L 974.81888 251.637619 
L 977.645399 251.811692 
L 980.38074 251.637619 
L 986.033777 251.637619 
L 988.769118 251.289473 
L 991.595637 251.289473 
L 994.330977 251.463546 
L 997.157496 251.463546 
L 999.984015 251.1154 
L 1002.536999 251.289473 
L 1010.925377 251.289473 
L 1013.660718 251.637619 
L 1016.487237 251.463546 
L 1022.049096 251.463546 
L 1024.875615 247.808015 
L 1027.610956 251.289473 
L 1030.437474 251.289473 
L 1033.263993 246.850474 
L 1035.908156 247.546766 
L 1038.734674 248.591204 
L 1041.470015 248.852452 
L 1049.858393 248.504306 
L 1052.684912 248.330233 
L 1058.246771 247.372971 
L 1063.80863 246.241358 
L 1066.635149 246.93765 
L 1069.188134 247.285796 
L 1072.014652 247.459869 
L 1077.576512 247.546766 
L 1080.311853 251.550582 
L 1083.138371 247.982088 
L 1085.96489 248.243058 
L 1097.088609 247.546766 
L 1102.468112 247.894912 
L 1105.294631 247.894912 
L 1105.294631 247.894912 
" clip-path="url(#pe267e4695c)" style="fill: none; stroke: #1f77b4; stroke-width: 1.5; stroke-linecap: square"/>
   </g>
   <g id="line2d_36">
    <path d="M 131.330994 251.637619 
L 1105.294631 251.637619 
L 1105.294631 251.637619 
" clip-path="url(#pe267e4695c)" style="fill: none; stroke: #ff7f0e; stroke-width: 1.5; stroke-linecap: square"/>
   </g>
   <g id="patch_3">
    <path d="M 82.632812 492.276019 
L 82.632812 10.999219 
" style="fill: none; stroke: #000000; stroke-width: 0.8; stroke-linejoin: miter; stroke-linecap: square"/>
   </g>
   <g id="patch_4">
    <path d="M 1153.992812 492.276019 
L 1153.992812 10.999219 
" style="fill: none; stroke: #000000; stroke-width: 0.8; stroke-linejoin: miter; stroke-linecap: square"/>
   </g>
   <g id="patch_5">
    <path d="M 82.632812 492.276019 
L 1153.992812 492.276019 
" style="fill: none; stroke: #000000; stroke-width: 0.8; stroke-linejoin: miter; stroke-linecap: square"/>
   </g>
   <g id="patch_6">
    <path d="M 82.632812 10.999219 
L 1153.992812 10.999219 
" style="fill: none; stroke: #000000; stroke-width: 0.8; stroke-linejoin: miter; stroke-linecap: square"/>
   </g>
   <g id="legend_1">
    <g id="patch_7">
     <path d="M 969.058437 48.355469 
L 1146.992812 48.355469 
Q 1148.992812 48.355469 1148.992812 46.355469 
L 1148.992812 17.999219 
Q 1148.992812 15.999219 1146.992812 15.999219 
L 969.058437 15.999219 
Q 967.058437 15.999219 967.058437 17.999219 
L 967.058437 46.355469 
Q 967.058437 48.355469 969.058437 48.355469 
z
" style="fill: #ffffff; opacity: 0.8; stroke: #cccccc; stroke-linejoin: miter"/>
    </g>
    <g id="line2d_37">
     <path d="M 971.058437 24.097656 
L 981.058437 24.097656 
L 991.058437 24.097656 
" style="fill: none; stroke: #1f77b4; stroke-width: 1.5; stroke-linecap: square"/>
    </g>
    <g id="text_19">
     <!-- Entradas-salidas -->
     <g transform="translate(999.058437 27.597656) scale(0.1 -0.1)">
      <use xlink:href="#DejaVuSans-45"/>
      <use xlink:href="#DejaVuSans-6e" x="63.183594"/>
      <use xlink:href="#DejaVuSans-74" x="126.5625"/>
      <use xlink:href="#DejaVuSans-72" x="165.771484"/>
      <use xlink:href="#DejaVuSans-61" x="206.884766"/>
      <use xlink:href="#DejaVuSans-64" x="268.164062"/>
      <use xlink:href="#DejaVuSans-61" x="331.640625"/>
      <use xlink:href="#DejaVuSans-73" x="392.919922"/>
      <use xlink:href="#DejaVuSans-2d" x="445.019531"/>
      <use xlink:href="#DejaVuSans-73" x="481.103516"/>
      <use xlink:href="#DejaVuSans-61" x="533.203125"/>
      <use xlink:href="#DejaVuSans-6c" x="594.482422"/>
      <use xlink:href="#DejaVuSans-69" x="622.265625"/>
      <use xlink:href="#DejaVuSans-64" x="650.048828"/>
      <use xlink:href="#DejaVuSans-61" x="713.525391"/>
      <use xlink:href="#DejaVuSans-73" x="774.804688"/>
     </g>
    </g>
    <g id="line2d_38">
     <path d="M 971.058437 38.775781 
L 981.058437 38.775781 
L 991.058437 38.775781 
" style="fill: none; stroke: #ff7f0e; stroke-width: 1.5; stroke-linecap: square"/>
    </g>
    <g id="text_20">
     <!-- Discrepancia del balance (%) -->
     <g transform="translate(999.058437 42.275781) scale(0.1 -0.1)">
      <defs>
       <path id="DejaVuSans-44" d="M 1259 4147 
L 1259 519 
L 2022 519 
Q 2988 519 3436 956 
Q 3884 1394 3884 2338 
Q 3884 3275 3436 3711 
Q 2988 4147 2022 4147 
L 1259 4147 
z
M 628 4666 
L 1925 4666 
Q 3281 4666 3915 4102 
Q 4550 3538 4550 2338 
Q 4550 1131 3912 565 
Q 3275 0 1925 0 
L 628 0 
L 628 4666 
z
" transform="scale(0.015625)"/>
       <path id="DejaVuSans-63" d="M 3122 3366 
L 3122 2828 
Q 2878 2963 2633 3030 
Q 2388 3097 2138 3097 
Q 1578 3097 1268 2742 
Q 959 2388 959 1747 
Q 959 1106 1268 751 
Q 1578 397 2138 397 
Q 2388 397 2633 464 
Q 2878 531 3122 666 
L 3122 134 
Q 2881 22 2623 -34 
Q 2366 -91 2075 -91 
Q 1284 -91 818 406 
Q 353 903 353 1747 
Q 353 2603 823 3093 
Q 1294 3584 2113 3584 
Q 2378 3584 2631 3529 
Q 2884 3475 3122 3366 
z
" transform="scale(0.015625)"/>
       <path id="DejaVuSans-65" d="M 3597 1894 
L 3597 1613 
L 953 1613 
Q 991 1019 1311 708 
Q 1631 397 2203 397 
Q 2534 397 2845 478 
Q 3156 559 3463 722 
L 3463 178 
Q 3153 47 2828 -22 
Q 2503 -91 2169 -91 
Q 1331 -91 842 396 
Q 353 884 353 1716 
Q 353 2575 817 3079 
Q 1281 3584 2069 3584 
Q 2775 3584 3186 3129 
Q 3597 2675 3597 1894 
z
M 3022 2063 
Q 3016 2534 2758 2815 
Q 2500 3097 2075 3097 
Q 1594 3097 1305 2825 
Q 1016 2553 972 2059 
L 3022 2063 
z
" transform="scale(0.015625)"/>
       <path id="DejaVuSans-70" d="M 1159 525 
L 1159 -1331 
L 581 -1331 
L 581 3500 
L 1159 3500 
L 1159 2969 
Q 1341 3281 1617 3432 
Q 1894 3584 2278 3584 
Q 2916 3584 3314 3078 
Q 3713 2572 3713 1747 
Q 3713 922 3314 415 
Q 2916 -91 2278 -91 
Q 1894 -91 1617 61 
Q 1341 213 1159 525 
z
M 3116 1747 
Q 3116 2381 2855 2742 
Q 2594 3103 2138 3103 
Q 1681 3103 1420 2742 
Q 1159 2381 1159 1747 
Q 1159 1113 1420 752 
Q 1681 391 2138 391 
Q 2594 391 2855 752 
Q 3116 1113 3116 1747 
z
" transform="scale(0.015625)"/>
       <path id="DejaVuSans-62" d="M 3116 1747 
Q 3116 2381 2855 2742 
Q 2594 3103 2138 3103 
Q 1681 3103 1420 2742 
Q 1159 2381 1159 1747 
Q 1159 1113 1420 752 
Q 1681 391 2138 391 
Q 2594 391 2855 752 
Q 3116 1113 3116 1747 
z
M 1159 2969 
Q 1341 3281 1617 3432 
Q 1894 3584 2278 3584 
Q 2916 3584 3314 3078 
Q 3713 2572 3713 1747 
Q 3713 922 3314 415 
Q 2916 -91 2278 -91 
Q 1894 -91 1617 61 
Q 1341 213 1159 525 
L 1159 0 
L 581 0 
L 581 4863 
L 1159 4863 
L 1159 2969 
z
" transform="scale(0.015625)"/>
       <path id="DejaVuSans-25" d="M 4653 2053 
Q 4381 2053 4226 1822 
Q 4072 1591 4072 1178 
Q 4072 772 4226 539 
Q 4381 306 4653 306 
Q 4919 306 5073 539 
Q 5228 772 5228 1178 
Q 5228 1588 5073 1820 
Q 4919 2053 4653 2053 
z
M 4653 2450 
Q 5147 2450 5437 2106 
Q 5728 1763 5728 1178 
Q 5728 594 5436 251 
Q 5144 -91 4653 -91 
Q 4153 -91 3862 251 
Q 3572 594 3572 1178 
Q 3572 1766 3864 2108 
Q 4156 2450 4653 2450 
z
M 1428 4353 
Q 1159 4353 1004 4120 
Q 850 3888 850 3481 
Q 850 3069 1003 2837 
Q 1156 2606 1428 2606 
Q 1700 2606 1854 2837 
Q 2009 3069 2009 3481 
Q 2009 3884 1853 4118 
Q 1697 4353 1428 4353 
z
M 4250 4750 
L 4750 4750 
L 1831 -91 
L 1331 -91 
L 4250 4750 
z
M 1428 4750 
Q 1922 4750 2215 4408 
Q 2509 4066 2509 3481 
Q 2509 2891 2217 2550 
Q 1925 2209 1428 2209 
Q 931 2209 642 2551 
Q 353 2894 353 3481 
Q 353 4063 643 4406 
Q 934 4750 1428 4750 
z
" transform="scale(0.015625)"/>
      </defs>
      <use xlink:href="#DejaVuSans-44"/>
      <use xlink:href="#DejaVuSans-69" x="77.001953"/>
      <use xlink:href="#DejaVuSans-73" x="104.785156"/>
      <use xlink:href="#DejaVuSans-63" x="156.884766"/>
      <use xlink:href="#DejaVuSans-72" x="211.865234"/>
      <use xlink:href="#DejaVuSans-65" x="250.728516"/>
      <use xlink:href="#DejaVuSans-70" x="312.251953"/>
      <use xlink:href="#DejaVuSans-61" x="375.728516"/>
      <use xlink:href="#DejaVuSans-6e" x="437.007812"/>
      <use xlink:href="#DejaVuSans-63" x="500.386719"/>
      <use xlink:href="#DejaVuSans-69" x="555.367188"/>
      <use xlink:href="#DejaVuSans-61" x="583.150391"/>
      <use xlink:href="#DejaVuSans-20" x="644.429688"/>
      <use xlink:href="#DejaVuSans-64" x="676.216797"/>
      <use xlink:href="#DejaVuSans-65" x="739.693359"/>
      <use xlink:href="#DejaVuSans-6c" x="801.216797"/>
      <use xlink:href="#DejaVuSans-20" x="829"/>
      <use xlink:href="#DejaVuSans-62" x="860.787109"/>
      <use xlink:href="#DejaVuSans-61" x="924.263672"/>
      <use xlink:href="#DejaVuSans-6c" x="985.542969"/>
      <use xlink:href="#DejaVuSans-61" x="1013.326172"/>
      <use xlink:href="#DejaVuSans-6e" x="1074.605469"/>
      <use xlink:href="#DejaVuSans-63" x="1137.984375"/>
      <use xlink:href="#DejaVuSans-65" x="1192.964844"/>
      <use xlink:href="#DejaVuSans-20" x="1254.488281"/>
      <use xlink:href="#DejaVuSans-28" x="1286.275391"/>
      <use xlink:href="#DejaVuSans-25" x="1325.289062"/>
      <use xlink:href="#DejaVuSans-29" x="1420.308594"/>
     </g>
    </g>
   </g>
  </g>
 </g>
 <defs>
  <clipPath id="pe267e4695c">
   <rect x="82.632812" y="10.999219" width="1071.36" height="481.2768"/>
  </clipPath>
 </defs>
</svg>
